<?xml version="1.0" encoding="utf-8"?>
<!-- Generator: Adobe Illustrator 22.1.0, SVG Export Plug-In . SVG Version: 6.00 Build 0)  -->
<svg version="1.1" id="Capa_1" xmlns="http://www.w3.org/2000/svg" xmlns:xlink="http://www.w3.org/1999/xlink" x="0px" y="0px"
	 viewBox="0 0 650 650.4" style="enable-background:new 0 0 650 650.4;" xml:space="preserve">
<style type="text/css">
	.st0{fill:#323C40;}
	.st1{fill:#FFFFFF;}
	.st2{fill:#0E81C5;}
	.st3{fill:#21A0DB;}
	.st4{fill:#1EBCEF;}
	.st5{fill:#22AAE2;}
	.st6{fill:#006FB2;}
	.st7{fill:#005C9E;}
	.st8{fill:#0E8ECE;}
	.st9{fill:#E6007E;}
	.st10{fill:#007AC0;}
</style>
<g>
	<rect x="0" y="-2.5" width="650" height="650"/>
	<path class="st1" d="M400.5,405.4c0-0.9-0.1-1.6-0.4-2.1c-0.3-0.6-0.9-1-1.7-1.3c0.9-0.3,1.5-0.8,2-1.6c0.4-0.7,0.7-1.5,0.7-2.4
		c0-1.3-0.4-2.5-1.3-3.4c-1-1.1-2.4-1.6-4.1-1.6h-8.8v17.2h3.5v-6.7h3.8c0.9,0,1.6,0.2,2,0.5c0.5,0.3,0.7,0.9,0.7,1.8v4.4h3.5V405.4
		z M396.9,396.8c0.4,0.4,0.6,1,0.6,1.6c0,0.6-0.2,1.2-0.6,1.6c-0.5,0.5-1.1,0.7-2,0.7h-4.5v-4.6h4.6
		C395.8,396.1,396.5,396.3,396.9,396.8 M374.5,407.3h-9.6v-4.5h8.4v-3h-8.4v-3.7h9.2v-3h-12.7v17.2h13.1V407.3z M349.8,393.1h-14v3
		h5.2v14.2h3.6v-14.2h5.2V393.1z M323.5,393.1h-3.4v11.3l-6.9-11.3h-3.8v17.2h3.4v-11.6l7.1,11.6h3.6V393.1z M297.1,407.3h-9.6v-4.5
		h8.4v-3h-8.4v-3.7h9.2v-3H284v17.2h13.1V407.3z M268.8,404.4c-0.5,2.2-1.8,3.2-3.9,3.2c-1.5,0-2.6-0.7-3.3-2
		c-0.6-1.1-0.9-2.4-0.9-3.9c0-1.8,0.4-3.2,1.2-4.3c0.8-1.1,1.9-1.7,3.2-1.7c0.8,0,1.6,0.3,2.3,0.8c0.7,0.5,1.2,1.3,1.4,2.3h3.6
		c-0.2-2.5-1.5-4.2-3.7-5.3c-1.1-0.5-2.3-0.8-3.7-0.8c-1.2,0-2.3,0.2-3.3,0.6c-1.9,0.8-3.3,2.3-4.1,4.5c-0.4,1.2-0.7,2.6-0.7,4.2
		c0,2,0.3,3.6,1,4.9c0.7,1.3,1.6,2.3,2.8,3c1.2,0.7,2.6,1,4.1,1c1.4,0,2.6-0.3,3.7-0.9c2-1.1,3.3-2.9,3.8-5.5H268.8z"/>
	<path class="st1" d="M164.4,374.4c4.8,0,9.6-1.7,13.5-4.9l0,0v-0.2c-0.8-1.5-1.6-3-2.3-4.7c-3.5,2.9-7.5,4.5-11.5,4.5
		c-9.9,0-18.3-9.4-18.3-20.5c0-11.1,8.3-20.5,18.2-20.5c4.2,0,8.3,1.6,11.7,4.5c0.6-1.6,1.4-3.1,2.2-4.6l0-0.3
		c-4-3.3-8.4-4.9-13.5-4.9c-13,0-23.6,11.7-23.6,26C140.8,363,151.4,374.4,164.4,374.4"/>
	<path class="st1" d="M206.4,369.2c-10.2,0-18.5-9.2-18.5-20.5c0-11.3,8.3-20.5,18.5-20.5c10.2,0,18.5,9.2,18.5,20.5
		C224.9,360,216.6,369.2,206.4,369.2 M206.4,322.9c-13,0-23.6,11.6-23.6,25.9c0,14.2,10.6,25.7,23.6,25.7c13,0,23.6-11.5,23.6-25.7
		C230.1,334.5,219.5,322.9,206.4,322.9"/>
	<path class="st1" d="M253.7,345l-3-1.5c-3-1.5-7-3.5-7-7.7c0-4.3,3.3-7.7,7.4-7.7c3.5,0,5.7,1.6,7.8,5.4l0,0.1l4.1-2.9l0,0
		c-2.4-4.9-6.7-7.7-11.8-7.7c-7.3,0-12.7,5.5-12.7,12.7c0,7.2,4.7,10.2,9.9,12.8l2.9,1.4c4.2,2.1,8.1,4.1,8.1,9.8
		c0,5.3-4.1,9.6-9.2,9.6c-4.6,0-8.3-3.8-9-9.2l0-0.1l-5,1.6l0,0.1c1.5,7.8,7,12.9,14.2,12.9c8,0,14.3-6.8,14.3-15.4
		C264.6,350.9,259.4,347.7,253.7,345"/>
	<polygon class="st1" points="299.2,323.7 272.1,323.7 272.1,329 283,329 283,373.6 288.2,373.6 288.2,329 299.2,329 	"/>
	<polygon class="st1" points="386.7,323.6 381.5,323.6 381.5,359.8 346.2,323.6 346.2,373.6 351.4,373.6 351.4,337.4 386.7,373.6 	
		"/>
	<polygon class="st1" points="334.5,373.6 340.2,373.6 319.8,323.6 298.8,373.6 304.4,373.6 319.7,336.9 	"/>
	<polygon class="st1" points="511.7,373.6 517.4,373.6 496.9,323.6 476,373.6 481.6,373.6 496.8,336.9 	"/>
	<rect x="395.9" y="368.2" class="st1" width="28.5" height="5.3"/>
	<rect x="395.9" y="323.5" class="st1" width="28.5" height="5.3"/>
	<rect x="395.9" y="345.9" class="st1" width="28.5" height="5.4"/>
	<g>
		<path class="st1" d="M469.2,373.5l-16.1-19.2l1.8-0.3c9.3-1.6,12.6-9,12.6-14.8c0-7.5-5-15.5-15.9-15.5h-17.9v49.8h5.3v-44.3h12.5
			c6.8,0,10.4,5,10.4,10c0,4.9-3.3,10.1-10.4,10.1h-7.7l-1.7,0l20.1,24.2H469.2z"/>
		<path class="st1" d="M131.5,499.5h-0.8l0.7-2.5l0.8-0.4L131.5,499.5z M128.8,510.9l-0.4-0.1l-0.4,1h0.8L128.8,510.9z M128,512.4
			c-0.2,0.6-0.2,0.9,0.1,1c0.2,0.1,0.5,0.1,0.8,0l0.1-1H128z M125.1,534.8l-0.4,1.2h0.6l0.4-1.5L125.1,534.8z M113.6,527.1
			c0.4-0.2,1-0.5,1.6-0.8c0.6-0.3,1.2-0.6,1.7-0.9v-0.1c-1.1,0.1-1.8,0.2-2.3,0.4C114.1,525.9,113.8,526.4,113.6,527.1 M133.2,494
			c-0.4,0-1,0.3-1.8,0.9c-0.7,0.6-1.5,1.4-2.4,2.4c-0.9,1-1.8,2.1-2.8,3.4c-1,1.3-2,2.6-3,3.9l-0.5-0.5c0.1-0.4,0.2-0.7,0.3-1
			c0.1-0.3,0-0.5-0.1-0.7c-0.7,0.9-1.3,1.6-1.5,2.1c-0.3,0.6-0.2,1.3,0.2,2.1c-1.4,1.9-2.7,3.5-3.9,5c-0.9,1.1-1.9,2.5-3,4.2
			c-1.1,1.8-2.2,3.4-3.3,5c0.9-0.6,1.9-1.3,2.8-2.1c0.9-0.9,2.3-1.7,4.2-2.5c1.6-0.7,3-1.2,4.2-1.5c1.2-0.3,2.7-0.7,4.3-1.2
			c0.1-1.2,0.4-2.3,0.7-3.2c0.4-0.9,0.7-1.6,0.8-2.3l1.6,1.4c0.2-0.7,0.5-1.7,0.8-2.9c0.3-1.2,0.6-2.5,0.9-3.9
			c0.3-1.4,0.6-2.8,0.9-4.1c0.3-1.4,0.5-2.6,0.8-3.6L133.2,494z M107.4,528.1c0.2-0.1,0.7-0.4,1.4-0.7c0.8-0.3,1.3-0.9,1.6-1.5
			c-0.4,0.1-0.7,0.2-1,0.3c-0.3,0.1-0.6,0.2-0.9,0.3L107.4,528.1z M112.5,527.7c-0.3-0.2-0.7-0.3-1.2-0.2c-0.5,0.1-1,0.3-1.6,0.6
			c-0.6,0.3-1.1,0.6-1.7,0.9c-0.6,0.3-1.1,0.6-1.5,0.8c-0.2,0.3-0.4,0.6-0.6,0.8c-0.1,0.2-0.3,0.5-0.5,0.8L112.5,527.7z M141,521.6
			c-0.9,0.1-1.7,0.2-2.6,0.4c-0.8,0.1-1.7,0.2-2.5,0.4c-0.2,0.4-0.3,0.9-0.4,1.6c-0.1,0.7-0.2,1.4-0.3,2.1c-0.1,0.7-0.3,1.4-0.6,2.1
			c-0.2,0.7-0.6,1.3-1.1,1.7c0.7,0.4,0.9,1,0.7,2c-0.2,0.9-0.7,1.7-1.3,2.2c0.3,0.7,0.5,1.4,0.5,2c0,0.7-0.5,1.7-1.5,3
			c-0.1,0.2,0.1,0.2,0.4,0.1c0.3-0.1,0.5-0.2,0.7-0.4c-0.1,1.6-0.3,3.1-0.7,4.4c-0.3,1.3-0.7,2.7-1.2,4.1c-0.7,0-1.4-0.1-2.1-0.4
			c-0.7-0.3-1.3-0.6-1.9-0.9c-0.6-0.3-1.2-0.6-1.7-0.8c-0.5-0.2-0.9-0.3-1.3-0.1c0.1-0.9,0-1.6-0.2-2c-0.2-0.4-0.6-0.6-1.3-0.6
			l0.1-1.3c0.6,0,0.9-0.3,0.9-0.9c-0.6,0-0.8-0.3-0.8-0.9c0.1-1.1,0.4-2.2,0.8-3.5c0.4-1.3,0.8-2.7,1.1-4.1c0.3,0,0.5,0.3,0.6,0.8
			c0.1,0.5,0.1,1.1,0,1.8c0.2,0,0.4-0.2,0.6-0.7c0.2-0.4,0.4-0.9,0.6-1.5c0.2-0.6,0.3-1.2,0.5-1.9c0.1-0.7,0.2-1.3,0.3-1.9l-1.1-0.5
			c-0.1,0.7-0.1,1.5-0.2,2.3c-0.1,0.8-0.4,1-1,0.8c0.1-0.3,0.1-0.7,0.2-1.3c0.1-0.5,0.1-1.1,0.2-1.6c0.1-0.6,0.2-1.1,0.2-1.6
			c0.1-0.5,0.1-0.9,0.2-1.2l1.6,2c-0.1-0.6,0-1,0.1-1.3c0.2-0.3,0.2-0.8,0-1.5c-1.3-0.1-3.1,0.3-5.3,1.1c-2.2,0.8-4.5,1.8-6.9,2.9
			c-2.4,1.1-4.6,2.2-6.6,3.4c-2.1,1.1-3.6,2.1-4.7,2.8l-0.5,1.2l0.4,1.1c-0.8,1.6-1.6,3.3-2.3,5c-0.7,1.7-1.4,3.1-2.2,4l-5.9-2.5
			c-0.1-0.7-0.3-1.4-0.7-1.9c-0.4-0.5-0.9-1-1.3-1.5c-0.5-0.5-0.8-1-1.1-1.4c-0.3-0.5-0.3-1,0-1.6h-1.5c0.5-3.5,1.7-7.1,3.7-10.7
			c2-3.6,4.3-7.1,6.9-10.6c2.6-3.5,5.4-6.9,8.2-10.2c2.8-3.3,5.3-6.4,7.5-9.3c2.2-2.9,4.3-5.4,6.5-7.4c2.1-2,4.1-3.7,5.9-5.2
			c0.2-0.1,0.5-0.2,0.8-0.2c0.3,0,0.7,0,1.1,0c0.4,0,0.7-0.1,1-0.3c0.3-0.2,0.5-0.4,0.6-0.9c0.6,0.2,1.5,0.5,2.6,1
			c1.1,0.5,2,1,2.6,1.6l-1.7,0.6c0,0.4,0.1,0.6,0.3,0.6c0.2,0,0.5,0,0.8-0.1c0.3-0.1,0.6-0.2,0.9-0.3c0.3-0.1,0.5-0.1,0.6,0
			c0.9,0.7,1.4,1.6,1.7,2.6c0.3,1,0.5,1.9,0.6,2.9c0.1,1,0.2,1.9,0.2,2.8c0.1,0.9,0.3,1.7,0.7,2.4v1.5c0,0.9-0.1,1.9-0.2,3
			c-0.1,1.1-0.3,2.1-0.5,3.1c-0.2,1-0.5,1.5-0.8,1.7c0.1,0.1,0.2,0.2,0.3,0.2c0.1,0,0.2,0.1,0.3,0.2c-0.3,1.1-0.6,2.2-0.9,3.5
			c-0.3,1.3-0.5,2.6-0.6,3.9c0,0.3,0.2,0.7,0.5,1.2c0.3,0.5,0.7,1.1,1.1,1.9c0.4,0.7,0.8,1.6,1.1,2.5
			C140.9,519.6,141,520.6,141,521.6"/>
		<path class="st1" d="M185.8,521.9c-0.2-0.1-0.4,0-0.7,0.1c-0.2,0.1-0.4,0.3-0.6,0.5l-3.8,7.4c0.6-0.1,1-0.4,1.4-1
			c0.4-0.6,0.8-1.2,1.1-1.9L185.8,521.9z M179.2,536.2c-0.1,0.2-0.2,0.3-0.3,0.3c-0.1,0-0.1-0.1-0.1-0.2l-0.1-1l1.4-2
			c0.2-0.4,0.5-0.5,0.7-0.3l0.3,0.3L179.2,536.2z M176,539.3c-0.1,0-0.3,0-0.6,0c-0.3,0-0.5,0.2-0.6,0.5l-0.9,1.9l0.6,0.7L176,539.3
			z M167.7,528.6l1,0.4c-0.3,1.2-0.7,2.1-1.2,2.6c-0.5,0.5-0.8,0.7-0.9,0.7L167.7,528.6z M157.1,523.2c-0.4,0-0.8,0.3-1.1,0.8
			c-0.3,0.5-0.5,1.1-0.8,1.7l0.8,0.3L157.1,523.2z M175.6,543.3c0.3,0.7,0.9,0.5,1.6-0.7c0.8-1.1,1.7-2.8,2.7-4.9
			c0.3,0.2,0.4,0.5,0.4,0.9c0,0.4-0.1,0.9-0.3,1.3c-0.2,0.5-0.4,1-0.7,1.6c-0.3,0.6-0.6,1.1-0.8,1.6c-0.4,0.7-0.7,1.5-1.1,2.3
			c-0.3,0.9-0.7,1.7-1,2.5c-0.3,0.8-0.7,1.5-1,2c-0.3,0.6-0.7,0.8-1.1,0.8c-0.6-0.4-1.4-0.9-2.3-1.5c-0.9-0.6-1.8-1.3-2.7-2.1
			c-0.8-0.8-1.6-1.7-2.1-2.6c-0.6-0.9-0.9-1.9-0.9-3c0-1.4,0.2-2.9,0.7-4.6c0.5-1.7,1-3.4,1.7-5.2c0.7-1.7,1.4-3.4,2.2-5
			c0.8-1.6,1.5-3.1,2.2-4.4l-0.5-0.8c-0.6,0-1.4,0.1-2.6,0.2c-1.1,0.1-2.3,0.2-3.5,0.4c-1.2,0.1-2.3,0.2-3.3,0.4
			c-1,0.1-1.6,0.2-1.8,0.2c-0.3-0.4-0.7-0.7-1.2-0.7c-0.7,0-1.3,0.2-1.7,0.7c-0.4,0.5-0.8,1.1-1.1,1.8c-0.4,1.1-0.9,2.5-1.5,4.2
			c-0.6,1.8-1.1,3.6-1.7,5.5c-0.6,1.9-1.1,3.8-1.5,5.5c-0.4,1.8-0.8,3.2-1,4.2c-1,0-1.7-0.2-2.1-0.7c-0.4-0.4-0.9-0.9-1.4-1.5
			c-0.3,0.2-0.6,0.2-0.9,0.2c-0.2,0-0.4,0-0.5-0.1c-0.2-0.1-0.3-0.1-0.5-0.2l0.5-1.1c-1.4-0.9-2.3-1.8-2.7-2.7
			c-0.4-0.9-0.6-1.9-0.5-3c0.1-1.1,0.3-2.4,0.7-3.8c0.4-1.4,0.8-3,1.1-4.8c-1.1-0.2-2.3-0.3-3.6-0.2c-1.4,0.1-2.7,0.1-3.9,0.1
			c0.5-0.9,1.2-1.6,2-1.9c0.9-0.3,1.7-0.7,2.6-1.2l-1.5-0.8l5.4-2.2c0.3-0.7,0.6-1.2,1-1.7c0.3-0.4,0.7-1,1-1.7
			c0.9-1.5,1.5-3.3,2-5.2c0.4-1.9,1.1-3.7,2-5.3c1.1-2,2.3-4.1,3.5-6.3c1.2-2.1,2.4-4.3,3.6-6.4c1.2-2.1,2.3-4.2,3.3-6.2
			c1-2,1.9-3.9,2.6-5.7c0.2-0.1,0.3-0.3,0.3-0.5c0-0.2,0.4-0.3,1-0.3c1.2,0,2.2,0.2,2.8,0.5c0.7,0.3,1.2,0.8,1.6,1.3
			c0.4,0.5,0.8,1.1,1.2,1.7c0.4,0.7,0.9,1.3,1.6,1.9c0,0.8,0,1.6,0.1,2.3c0.1,0.7,0.1,1.5,0.1,2.2c0,0.8,0,1.6-0.1,2.5
			c-0.1,0.9-0.3,1.9-0.7,3.1h-0.7c-0.5,1.5-1.4,3.3-2.7,5.4c-1.3,2.1-2.5,4.2-3.5,6.2c-0.9,0.4-1.6,1.1-2.1,1.9
			c-0.5,0.8-0.8,1.6-0.8,2.5l2-0.6c1.3-1.5,2.8-2.5,4.6-2.9c1.8-0.4,3.5-0.6,5.3-0.6c0.6,0,1.3,0.1,2.2,0.3c0.8,0.2,1.6,0.5,2.3,0.7
			c2.9-3.6,5.4-7.4,7.4-11.4c2-4,4.1-8.1,6.3-12.2c0.4-0.7,1.1-1.1,2.1-1.1c0.8,0,1.5,0.3,2,0.8c0.6,0.5,1,1.2,1.4,2
			c0.4,0.8,0.6,1.7,0.8,2.7c0.2,1,0.2,1.9,0.2,2.8c0,1.1-0.1,2.1-0.3,3.3c-0.2,1.1-0.7,2-1.4,2.5c-0.1,1.3-0.5,2.5-1,3.7
			c-0.5,1.1-1.3,2-2.4,2.7c0.2,0.4,0.2,1,0,1.6c-0.2,0.6-0.5,1.3-0.9,2c-0.4,0.7-0.8,1.4-1.3,2.1c-0.5,0.7-0.9,1.4-1.3,2
			c-0.6-0.2-1.3,0-2,0.5c-0.7,0.5-1.2,1-1.5,1.6c-0.3,0.6-0.7,1.3-1.2,2.3c-0.5,1-1,1.9-1.4,2.7c-0.1,0.2,0,0.3,0.2,0.5
			c0.3,0.1,0.5-0.1,0.8-0.6l1.1-2.3c0.2-0.5,0.6-0.9,0.9-1.2c0.4-0.3,0.8-0.4,1.2-0.4c-1.5,2.7-2.7,5.3-3.8,8
			c-1,2.7-2.4,5.3-4.2,7.9l-1-0.4c-0.2-0.1-0.5-0.1-0.8,0.1c-0.3,0.2-0.6,0.5-0.8,0.8c-0.2,0.3-0.5,0.7-0.8,1.3
			c-0.3,0.5-0.7,1.1-1.1,1.8c-0.4,0.7-0.5,1.5-0.3,2.4c0.2,0.9,0.4,1.6,0.4,2.1c-0.3,0.6-0.7,1.1-1.2,1.6
			C175.8,542.1,175.6,542.7,175.6,543.3 M137,526.5l-1.8,0.4c0-0.1,0.2-0.4,0.7-0.8c0.5-0.4,0.9-0.8,1.3-1.2
			c0.1-0.1,0.2-0.2,0.3-0.1c0.1,0,0.1,0.1,0,0.3L137,526.5z"/>
		<path class="st1" d="M247.6,466.6c0,1.7-0.8,3.3-2.3,4.6c-1.5,1.4-3.3,2.5-5.4,3.5c-2.1,1-4.2,1.7-6.4,2.2
			c-2.2,0.5-3.9,0.7-5.2,0.7c-1.1,0-2-0.2-2.6-0.7c-0.8,0.1-1.8,0.2-3.1,0.4c-1.3,0.1-2.3,0.2-3.1,0.3c0.4-0.6,0.8-1.1,1-1.6
			c0.2-0.5,0.4-1,0.5-1.4l3.5-1.3l-0.2-0.8c-0.7,0.2-1.6,0.6-2.7,0.9c-1.1,0.4-2,0.6-2.7,0.6c-0.6,0-0.9-0.1-1.1-0.4
			c2.6-0.7,5.3-1.7,8-3c2.8-1.3,5.3-2.7,7.7-4v-1c1.8-0.9,3.7-2,5.8-3.2c2-1.2,3.8-2.3,5.3-3.4c1.1,0.7,1.8,1.9,2.3,3.3
			C247.4,463.8,247.6,465.2,247.6,466.6 M206.5,534.1c-0.3-0.3-0.5-0.5-0.7-0.5c-0.2,0-0.2,0-0.3,0.1c0,0.1,0,0.3,0,0.5v0.4l-1,2.5
			c-0.1,0.1,0,0.3,0.1,0.6c0.1,0.3,0.3,0.2,0.7-0.3L206.5,534.1z M228.1,488.8c0,1.2-0.1,2.6-0.2,4.2c-0.2,1.6-0.4,3-0.6,4.5h-1
			c-0.6,0.9-1.2,1.9-1.8,3.1c-0.6,1.2-1.1,2.4-1.7,3.5c-0.6,1.2-1.3,2.3-2,3.3c-0.8,1.1-1.7,1.9-2.7,2.4l0.4,1.1l-3.6,2
			c-1.8,2.6-3.2,5.4-4.2,8.4c-1,3-2,5.8-3.1,8.5c-0.1,0.4-0.4,0.9-0.7,1.4c-0.3,0.6-0.2,1,0.4,1.2c0.1,0,0.2-0.1,0.3-0.3
			c0.1-0.2,0.2-0.4,0.3-0.7c0.1-0.2,0.2-0.5,0.3-0.7c0.1-0.2,0.1-0.4,0.1-0.5c0.6-1.2,1.1-2.5,1.5-4c0.5-1.5,1-2.9,1.5-4.4
			c0.6-1.5,1.1-2.9,1.8-4.2c0.6-1.3,1.4-2.5,2.2-3.4c0.3-0.1,0.5-0.2,0.6-0.1c0.1,0.1,0.1,0.2,0,0.3c-0.1,0.1-0.1,0.3-0.2,0.4
			c-0.1,0.2-0.2,0.3-0.2,0.3c-1.6,2.8-2.9,5.7-4,8.8c-1,3.1-2.2,6.2-3.6,9.5c-0.9,2.2-1.6,4.2-1.9,6c-0.3,1.9-0.4,3.3-0.1,4.2
			c-1.7-0.6-3.2-1.2-4.7-2v-3c-0.6,0.5-1,1.2-1,2.2c-1.1-0.8-2-1.8-2.9-2.9c-0.9-1.1-1.6-2.5-2.2-4.1c0-2.8,0.4-5.7,1.3-8.8
			c0.9-3.1,2-6.2,3.4-9.3c1.4-3.2,3-6.3,4.7-9.5c1.7-3.2,3.5-6.2,5.3-9.1c1.8-2.9,3.5-5.7,5.1-8.2s3-4.9,4.1-6.9
			c0.3-0.4,0.7-0.7,1.3-0.9c0.5-0.2,1-0.4,1.5-0.4c0.5,0,1,0.1,1.4,0.2c0.5,0.2,0.9,0.3,1.4,0.4v2.2c0.9,0.4,1.7,1,2.4,2
			C227.8,486.8,228.1,487.8,228.1,488.8"/>
		<path class="st1" d="M314.4,485.2c0.2-0.4,0.5-0.9,0.8-1.3c0.3-0.4,0.7-0.6,1.1-0.6c0.3,0,0.6,0.2,0.8,0.6
			c-0.2,0.1-0.5,0.3-0.7,0.6c-0.2,0.2-0.6,0.6-1.1,1.1C315.2,485.3,314.9,485.2,314.4,485.2 M309.2,494.7c-0.3,0.1-0.5,0.1-0.7,0
			c-0.1-0.2-0.2-0.2-0.3,0l-2,2c-0.3,0.1-0.5,0.3-0.6,0.5c-0.1,0.2-0.1,0.4,0,0.6c0.1,0.2,0.2,0.2,0.4,0.3c0.2,0,0.4-0.1,0.7-0.3
			c0.7-0.5,1.2-1,1.6-1.6C308.8,495.4,309.1,495,309.2,494.7 M304.6,503.3l-0.8-0.7c0.4-1,0.9-1.3,1.6-0.8L304.6,503.3z
			 M298.3,503.3c0.3,0.2,0.6,0.4,0.8,0.5c0.2,0.1,0.5,0.1,0.7,0.1c0.5-0.1,0.9-0.3,1.1-0.7c0.2-0.4,0.4-1,0.5-1.6L298.3,503.3z
			 M294,509.8l0.6,1.1c0.8-0.9,1.2-1.6,1.3-2.1c0-0.5-0.1-0.9-0.4-1.1L294,509.8z M267,513.6c0-0.4,0.1-0.9,0.2-1.3
			c0.1-0.5-0.2-0.7-0.8-0.7l-0.4,1.7L267,513.6z M265.8,514.2c-0.1,0.4,0,0.7,0.1,1c0.2,0.3,0.4,0.5,0.7,0.5l0.2-1.5H265.8z
			 M310,493.5c0.9-1.1,1.9-2.3,3.1-3.8c1.2-1.5,2.5-2.8,4-4c0.3-0.2,0.6-0.3,0.8-0.2c0.2,0,0.4,0.2,0.5,0.4
			c-1.2,0.9-2.3,2.1-3.3,3.4c-1,1.4-2,2.8-3,4.2c-1,1.4-2,2.8-3.1,4c-1.1,1.3-2.2,2.3-3.4,3.1c-0.9-0.1-1.6,0-2,0.5
			c-0.4,0.4-0.8,0.9-1,1.5c-0.2,0.6-0.4,1.1-0.6,1.6c-0.2,0.5-0.5,0.7-0.9,0.7c-0.7,0-1.2,0.4-1.6,1.1c-0.4,0.7-0.8,1.4-1.3,2.1
			c-1.8,2.5-3.9,5.2-6.4,8c-2.5,2.8-5.1,5.7-7.9,8.6c-2.8,2.9-5.6,5.8-8.5,8.7c-2.9,2.9-5.5,5.8-8.1,8.6l-5.8-2
			c-0.8-1.4-1.7-2.8-2.7-4.2c-1-1.4-1.6-3.1-1.6-5c-0.1-0.9,0-2.4,0-4.5c0.1-2.1,0.2-4.6,0.3-7.3c0.1-2.8,0.2-5.7,0.4-8.7
			c0.2-3.1,0.3-6,0.5-8.7c0.2-2.8,0.3-5.2,0.4-7.3c0.1-2.1,0.2-3.7,0.3-4.6c0-0.6-0.1-1.2-0.2-1.9c-0.2-0.7-0.3-1.4-0.4-2
			c-0.1-0.7-0.2-1.3-0.1-2c0.1-0.6,0.4-1.1,0.9-1.6c1.8,0.7,3.3,1.7,4.6,2.9c1.3,1.2,2.3,2.5,3.2,4c0.8,1.5,1.5,3.2,1.9,5
			c0.4,1.8,0.7,3.7,0.8,5.6c-0.3,0.8-0.4,1.6-0.4,2.3c0.1,0.7,0.2,1.4,0.3,2c0.2,0.6,0.3,1.3,0.5,2c0.2,0.7,0.2,1.3,0.1,2l-1,0.2
			c-0.5,3-1.1,5.9-2,8.5l1.5,4.1c4.6-4.2,8.9-8.6,12.8-13.1c3.9-4.5,7.7-9.3,11.4-14.3c1,0.1,1.7-0.1,2.2-0.4
			c0.5-0.3,0.9-0.7,1.3-1.2c0.4-0.4,0.9-0.8,1.5-1.1c0.6-0.3,1.5-0.4,2.6-0.3l3.6-3.9c0.4-0.4,0.8-0.6,1.4-0.6
			c0.6,0.1,0.9,0.3,1.1,0.7c-0.2,0.4-0.7,0.9-1.3,1.6c-0.6,0.7-1.3,1.4-2.1,2.3c-0.8,0.8-1.7,1.7-2.6,2.7c-0.9,0.9-1.9,1.8-2.8,2.6
			c-0.2,0.2-0.2,0.3,0,0.4c0.2,0.1,0.5,0.1,0.9,0c0.9-0.7,1.9-1.6,3-2.6c1.1-1,2.2-2.1,3.2-3.1c1-1.1,1.9-2,2.7-2.9
			c0.8-0.9,1.4-1.6,1.7-2c0.3,0,0.6-0.1,0.9-0.3c0.3-0.2,0.6-0.4,0.9-0.7c0.3-0.2,0.7-0.4,1-0.5c0.3-0.1,0.7,0,1.2,0.4
			c-0.5,0.4-1.1,1-1.7,1.7c-0.6,0.7-0.9,1.5-0.8,2.3c0.5-0.6,1-1.1,1.6-1.7c0.6-0.6,1.1-0.8,1.6-0.7l0.3,0.1
			c-0.7,0.8-1.5,1.9-2.6,3.2c-1,1.3-1.9,2.6-2.6,3.9L310,493.5z"/>
		<path class="st1" d="M336.6,499.5h-0.8l0.7-2.5l0.8-0.4L336.6,499.5z M333.9,510.9l-0.4-0.1l-0.4,1h0.8L333.9,510.9z M333.1,512.4
			c-0.2,0.6-0.2,0.9,0.1,1c0.2,0.1,0.5,0.1,0.8,0l0.1-1H333.1z M330.2,534.8l-0.4,1.2h0.6l0.4-1.5L330.2,534.8z M318.8,527.1
			c0.4-0.2,1-0.5,1.6-0.8c0.6-0.3,1.2-0.6,1.7-0.9v-0.1c-1.1,0.1-1.8,0.2-2.3,0.4C319.3,525.9,319,526.4,318.8,527.1 M338.3,494
			c-0.4,0-1,0.3-1.8,0.9c-0.7,0.6-1.6,1.4-2.4,2.4c-0.9,1-1.8,2.1-2.8,3.4c-1,1.3-2,2.6-3,3.9l-0.5-0.5c0.1-0.4,0.2-0.7,0.3-1
			c0.1-0.3,0-0.5-0.1-0.7c-0.7,0.9-1.3,1.6-1.5,2.1c-0.3,0.6-0.2,1.3,0.2,2.1c-1.4,1.9-2.7,3.5-3.9,5c-0.9,1.1-1.9,2.5-3,4.2
			c-1.1,1.8-2.2,3.4-3.3,5c0.9-0.6,1.9-1.3,2.8-2.1c0.9-0.9,2.3-1.7,4.2-2.5c1.6-0.7,3-1.2,4.2-1.5c1.2-0.3,2.6-0.7,4.3-1.2
			c0.1-1.2,0.4-2.3,0.7-3.2c0.4-0.9,0.7-1.6,0.8-2.3l1.6,1.4c0.2-0.7,0.5-1.7,0.8-2.9c0.3-1.2,0.6-2.5,0.9-3.9
			c0.3-1.4,0.6-2.8,0.9-4.1s0.5-2.6,0.8-3.6L338.3,494z M312.5,528.1c0.2-0.1,0.7-0.4,1.4-0.7c0.8-0.3,1.3-0.9,1.6-1.5
			c-0.4,0.1-0.7,0.2-1,0.3c-0.3,0.1-0.6,0.2-0.9,0.3L312.5,528.1z M317.7,527.7c-0.3-0.2-0.7-0.3-1.2-0.2c-0.5,0.1-1,0.3-1.6,0.6
			c-0.6,0.3-1.1,0.6-1.7,0.9c-0.6,0.3-1.1,0.6-1.5,0.8c-0.2,0.3-0.4,0.6-0.6,0.8c-0.1,0.2-0.3,0.5-0.5,0.8L317.7,527.7z
			 M346.1,521.6c-0.9,0.1-1.7,0.2-2.6,0.4c-0.8,0.1-1.7,0.2-2.5,0.4c-0.2,0.4-0.3,0.9-0.4,1.6c-0.1,0.7-0.2,1.4-0.3,2.1
			c-0.1,0.7-0.3,1.4-0.6,2.1c-0.2,0.7-0.6,1.3-1.1,1.7c0.7,0.4,0.9,1,0.7,2c-0.2,0.9-0.7,1.7-1.3,2.2c0.3,0.7,0.5,1.4,0.5,2
			c0,0.7-0.5,1.7-1.5,3c-0.1,0.2,0.1,0.2,0.4,0.1c0.3-0.1,0.5-0.2,0.7-0.4c-0.1,1.6-0.3,3.1-0.7,4.4c-0.3,1.3-0.7,2.7-1.2,4.1
			c-0.7,0-1.4-0.1-2.1-0.4c-0.6-0.3-1.3-0.6-1.9-0.9c-0.6-0.3-1.2-0.6-1.7-0.8c-0.5-0.2-0.9-0.3-1.3-0.1c0.1-0.9,0-1.6-0.2-2
			c-0.2-0.4-0.6-0.6-1.3-0.6l0.1-1.3c0.6,0,0.9-0.3,0.9-0.9c-0.6,0-0.8-0.3-0.8-0.9c0.1-1.1,0.4-2.2,0.8-3.5
			c0.4-1.3,0.8-2.7,1.1-4.1c0.3,0,0.5,0.3,0.6,0.8c0.1,0.5,0.1,1.1,0,1.8c0.2,0,0.4-0.2,0.6-0.7c0.2-0.4,0.4-0.9,0.6-1.5
			c0.2-0.6,0.3-1.2,0.5-1.9c0.1-0.7,0.2-1.3,0.3-1.9l-1.1-0.5c-0.1,0.7-0.1,1.5-0.2,2.3c-0.1,0.8-0.4,1-1,0.8
			c0.1-0.3,0.1-0.7,0.2-1.3c0.1-0.5,0.1-1.1,0.2-1.6c0.1-0.6,0.2-1.1,0.2-1.6c0.1-0.5,0.1-0.9,0.2-1.2l1.6,2c-0.1-0.6,0-1,0.1-1.3
			c0.2-0.3,0.2-0.8,0-1.5c-1.3-0.1-3.1,0.3-5.3,1.1c-2.2,0.8-4.5,1.8-6.9,2.9c-2.4,1.1-4.6,2.2-6.6,3.4c-2.1,1.1-3.6,2.1-4.7,2.8
			l-0.5,1.2l0.4,1.1c-0.8,1.6-1.6,3.3-2.3,5c-0.7,1.7-1.4,3.1-2.2,4l-5.9-2.5c-0.1-0.7-0.3-1.4-0.7-1.9c-0.4-0.5-0.9-1-1.3-1.5
			c-0.5-0.5-0.8-1-1.1-1.4c-0.3-0.5-0.3-1,0-1.6h-1.5c0.5-3.5,1.7-7.1,3.7-10.7c2-3.6,4.3-7.1,6.9-10.6c2.6-3.5,5.4-6.9,8.2-10.2
			c2.8-3.3,5.3-6.4,7.5-9.3c2.2-2.9,4.3-5.4,6.5-7.4c2.1-2,4.1-3.7,5.9-5.2c0.2-0.1,0.4-0.2,0.8-0.2c0.3,0,0.7,0,1.1,0
			c0.4,0,0.7-0.1,1-0.3c0.3-0.2,0.5-0.4,0.6-0.9c0.6,0.2,1.5,0.5,2.6,1c1.1,0.5,2,1,2.7,1.6l-1.7,0.6c0,0.4,0.1,0.6,0.3,0.6
			c0.2,0,0.5,0,0.8-0.1c0.3-0.1,0.6-0.2,0.9-0.3c0.3-0.1,0.5-0.1,0.7,0c0.9,0.7,1.4,1.6,1.7,2.6c0.3,1,0.5,1.9,0.6,2.9
			c0.1,1,0.2,1.9,0.2,2.8c0.1,0.9,0.3,1.7,0.7,2.4v1.5c0,0.9-0.1,1.9-0.2,3c-0.1,1.1-0.3,2.1-0.5,3.1c-0.2,1-0.5,1.5-0.8,1.7
			c0.1,0.1,0.2,0.2,0.3,0.2c0.1,0,0.2,0.1,0.3,0.2c-0.3,1.1-0.6,2.2-0.9,3.5c-0.3,1.3-0.5,2.6-0.6,3.9c0,0.3,0.2,0.7,0.5,1.2
			c0.3,0.5,0.7,1.1,1.1,1.9c0.4,0.7,0.8,1.6,1.1,2.5C346,519.6,346.2,520.6,346.1,521.6"/>
		<path class="st1" d="M419.5,511.8h-1c0.2-0.4,0.5-0.7,0.8-1.1c0.4-0.4,0.7-0.6,0.9-0.7L419.5,511.8z M418.1,507l1.1-2.9
			c-0.7,0-1.1,0.3-1.3,0.8c-0.2,0.5-0.5,1.2-0.8,2.1H418.1z M416.9,507.7l-1,2.9c0.5-0.4,0.9-0.8,1.3-1.2c0.3-0.4,0.4-0.7,0.3-1
			L416.9,507.7z M415.4,512.9L415.4,512.9c-0.8,0.9-1.5,2-2.1,3.2c-0.7,1.2-1,2.5-1,4c0,0.3,0,0.6,0,0.8c0,0.2,0.1,0.5,0.1,0.8h0.1
			L415.4,512.9z M411.2,521.6c-0.1,0.1-0.2,0.3-0.3,0.7c-0.1,0.3-0.1,0.6-0.2,0.9c0,0.2,0,0.5,0,0.7c0,0.2,0,0.3,0,0.5
			c0.4-0.3,0.6-0.8,0.8-1.4C411.8,522.2,411.6,521.8,411.2,521.6 M356.4,528.2l0.6,0.5c0.2-0.5,0.4-0.9,0.6-1.1
			c0.1-0.2,0-0.4-0.3-0.7L356.4,528.2z M356,529.3l-1,1.8l0.6,0.6l1-2L356,529.3z M423.9,501.4c0,0.7-0.1,1.4-0.2,2.1
			c-0.1,0.7-0.3,1.4-0.6,2c-0.2,0.6-0.5,1-0.9,1.3c-0.3,0.3-0.7,0.4-1.2,0.3c-0.5-0.2-0.9-0.1-1.3,0.3c-0.4,0.4-0.7,0.9-1,1.4
			c-0.3,0.6-0.5,1.1-0.7,1.7c-0.2,0.6-0.3,1-0.5,1.3h-1.5c0,0.6,0.2,0.9,0.7,1.1c0.5,0.2,1,0.3,1.4,0.5c-0.2,0.5-0.6,0.8-1.1,1
			c-0.5,0.2-1,0.2-1.5,0.2l-2.6,8.2l1.1-0.6l2-6l0.6,1.5l-1.3,4.6c-0.2,0.9-0.6,1.6-0.9,2.1c-0.4,0.6-0.8,0.8-1.3,0.8
			c-0.7,0-1,0.3-1.1,1c0,0.7-0.1,1.3-0.3,1.9l-0.7-0.8l-0.6,0.6c0.2,0.5,0.5,1,0.9,1.6c0.3,0.6,0.5,1.1,0.5,1.7
			c0,1.1-0.5,2.5-1.4,4.3c-0.9,1.8-1.8,3.6-2.6,5.4l-1.6-1.4c-0.1,0.1-0.4,0.2-0.7,0.4c-0.2,0.1-0.5,0.1-0.9,0.1
			c-0.9,0-1.8-0.3-2.7-1c-0.9-0.6-1.7-1.5-2.5-2.4c-0.7-1-1.3-2-1.8-3c-0.5-1.1-0.7-2-0.7-2.9c0-0.9,0.4-2.4,1.3-4.4
			c0.8-2,1.8-4.2,3-6.7c1.1-2.4,2.3-4.8,3.6-7.3c1.2-2.4,2.3-4.6,3.2-6.5l-0.3-0.7c-0.7,0.4-1.6,0.9-2.6,1.3c-1.1,0.5-2.1,1-3.1,1.5
			c-1,0.6-1.9,1.1-2.7,1.8c-0.7,0.6-1.1,1.3-1.2,2l-16.5,14c-0.4-0.6-0.7-0.9-1.1-1c-0.4-0.1-0.7-0.2-1.1-0.1
			c-0.3,0.1-0.7,0.2-1.1,0.3c-0.4,0.2-0.9,0.2-1.3,0.2c-0.6,0-1.2-0.2-1.6-0.7c-0.5-0.5-0.9-1.1-1.3-1.9c-0.4-0.8-0.7-1.6-1-2.5
			c-0.3-0.9-0.5-1.7-0.8-2.5c0.7-2.3,1.6-4.8,2.7-7.5c1.1-2.7,2.2-5.3,3.3-7.9l-0.9-1.9c-1.9,1.6-3.6,3.4-5.3,5.6
			c-1.7,2.2-3.2,4.3-4.5,6.3c-1,1.6-2,3.4-3.2,5.3c-1.1,1.9-2.2,3.9-3.4,6c-1.1,2.1-2.3,4.2-3.4,6.2c-1.1,2.1-2.2,4-3.2,5.8
			c-0.5-0.2-0.6-0.6-0.4-1.3c0.2-0.7,0.5-1.3,0.8-2c-0.5-0.1-0.9,0.1-1.3,0.8c-0.4,0.7-0.8,1.4-1.1,2.3c-0.3,0.9-0.4,1.9-0.4,2.8
			c0,0.9,0.2,1.7,0.5,2.4c-0.5,0.4-1,0.6-1.5,0.6c-0.9,0-1.9-0.4-3-1.1c-1.1-0.7-2.1-1.6-3-2.6c-0.9-1-1.6-2-2.2-3
			c-0.6-1-0.9-1.7-0.9-2.2c0-0.6,0.4-1.7,1.3-3.3c0.9-1.7,1.9-3.5,3.2-5.6c1.2-2.1,2.6-4.2,4-6.5c1.4-2.2,2.6-4.2,3.7-5.9
			c2.4-3.9,4.9-7.6,7.4-11c2.5-3.4,5.3-6.3,8.5-8.6c0.4-0.7,1-1.5,1.7-2.4c0.7-0.9,1.4-1.8,2.2-2.6c0.8-0.8,1.6-1.5,2.5-2.1
			c0.9-0.6,1.7-0.9,2.6-0.9c1.3,0,2.4,0.4,3.3,1.1c0.9,0.7,1.7,1.7,2.4,2.8c0.7,1.1,1.3,2.4,1.8,3.8c0.5,1.4,1.1,2.7,1.6,4
			c-0.2,1.2-0.3,2.6-0.2,4.2c0.1,1.6,0.4,2.9,0.9,3.9c1.5-1.1,3.1-2.2,4.8-3.6c1.7-1.3,3.3-2.4,4.8-3.3c0.3-0.2,0.6-0.2,1,0
			c0.4,0.2,0.7,0.5,0.9,0.9c0.4-0.3,0.7-0.7,0.9-1.2c0.2-0.5,0.2-0.9,0-1.4c1.2-0.7,2.5-1.5,3.9-2.2c1.3-0.7,2.6-1.4,3.8-2
			c1.2-0.6,2.3-1.1,3.3-1.4c1-0.4,1.7-0.6,2.2-0.6c0.9,0,1.8,0.3,2.9,1c1.1,0.7,2.1,1.3,3.1,2.1c0.8,1.9,1.6,3.6,2.3,5.2
			C423.6,498.3,423.9,499.8,423.9,501.4"/>
		<path class="st1" d="M460.7,529c-0.1-0.1-0.2-0.4-0.4-0.7c-0.1-0.4-0.2-0.6-0.4-0.7l-1.5,1.6l0.4,1L460.7,529z M457.3,529.7
			c-0.9,0.4-1.5,0.8-1.8,1.1c-0.3,0.3-0.5,0.7-0.4,1.2l2.7-1.4L457.3,529.7z M453.7,533.4c0-0.6-0.5-0.9-1.4-0.9
			c0,0.1-0.1,0.3-0.2,0.6s-0.1,0.4,0,0.6c0.2,0.1,0.4,0.2,0.7,0.1C453.2,533.6,453.4,533.5,453.7,533.4 M440.1,538.9
			c-0.4-0.7-1-1-1.7-1c-0.2,0.1-0.4,0.1-0.6,0.2c-0.2,0.1-0.4,0.2-0.6,0.4L440.1,538.9z M439.7,513.1c-0.7-0.4-1.4-0.4-2,0
			c-0.7,0.5-1.1,0.9-1.2,1.4c0,0.7,0.4,1.1,1.1,1.1L439.7,513.1z M462.8,502.7c-0.1-0.4-0.2-0.8-0.4-1c-0.1-0.2-0.3-0.2-0.5,0
			c-0.4,0.4-0.7,0.6-1,0.6c-0.3,0-0.6-0.1-0.7-0.4c-0.2-0.2-0.3-0.4-0.4-0.4c-1.2,0-2.7,0.3-4.2,1c-1.6,0.7-3.2,1.5-4.8,2.6
			c-1.6,1.1-3.2,2.3-4.6,3.8c-1.5,1.4-2.7,2.9-3.7,4.5c-2.2,1.1-4.1,2.8-5.7,5.3c-1.6,2.5-2.9,5.3-3.9,8.6c1.1-0.1,2.2-0.2,3.4-0.4
			c1.2-0.1,2.3-0.3,3.2-0.7l16.7-7c0.4-0.2,1-0.4,1.7-0.8c0.7-0.3,1.4-0.7,2.1-1.1c0.7-0.4,1.4-0.9,2.1-1.4c0.7-0.5,1.2-1.1,1.7-1.6
			l4.2-5.5L462.8,502.7z M477.8,511.8c0,1.6-0.4,3.3-1.2,5.1c-0.8,1.9-2,3.5-3.7,4.8c0.2,0.5,0.2,0.9,0,1.3
			c-0.3,0.4-0.7,0.6-1.2,0.6l-0.7-1.2c-0.4,0.1-0.7,0.3-0.9,0.5c-0.2,0.2-0.2,0.6,0.1,1.1c-0.5,0-1.1,0.2-1.7,0.6
			c-0.7,0.4-1,0.8-1,1.3c0,0.7-0.3,1-0.9,1c-0.6,0-1.2,0.1-1.8,0.2c-0.5,0.5-1,1.1-1.4,1.7c-0.5,0.6-1,1.3-1.5,2l-1-0.9
			c-0.6,0.4-1,0.7-1.3,1c-0.2,0.3-0.4,0.6-0.5,0.9c-0.1,0.3-0.3,0.6-0.6,0.9c-0.2,0.3-0.7,0.6-1.3,0.9c-0.7,0.4-1.5,0.6-2.4,0.7
			c-0.8,0.1-1.7,0.2-2.6,0.4c-0.1,0.1,0,0.3,0.3,0.5c0.3,0.2,0.5,0.4,0.4,0.6l-1.7,0.6l-2.6-1.6c-0.4,0.2-0.6,0.5-0.7,0.9
			c-0.1,0.3-0.2,0.7-0.3,1.1c-0.1,0.4-0.2,0.7-0.4,1c-0.2,0.3-0.5,0.6-0.9,0.7c-1.1,0.4-2.2,0.7-3.2,1.1c-1,0.3-2.1,0.7-3.4,1.2
			c-0.8-0.8-1.6-1.1-2.5-1c-0.8,0.2-1.6,0.5-2.3,1c-1.6-1.1-3.3-2.2-5.1-3.6c-1.8-1.3-3.3-2.5-4.6-3.6c-1.1-0.9-1.9-2.3-2.3-4.4
			c-0.4-2-0.7-4.2-0.7-6.4c0-3.8,0.7-7.3,2.1-10.6c1.4-3.3,3.2-6.3,5.4-9.1c2.2-2.8,4.7-5.2,7.4-7.4c2.7-2.2,5.4-4,8-5.5
			c2.6-1.5,5-2.6,7.2-3.4c2.2-0.8,3.8-1.2,5-1.2c1.4,0,2.5,0.4,3.4,1.1c0.9,0.7,2.1,1.7,3.5,2.8c0,1.1,0.3,2.1,0.8,3
			c0.5,1,1.2,1.9,2,2.7c0.8,0.9,1.7,1.7,2.7,2.5c1,0.8,2,1.5,2.9,2.1c1.8,1.2,3.1,2.9,3.8,5.1C477.4,506.9,477.8,509.2,477.8,511.8"
			/>
		<path class="st1" d="M520.1,499.9l2.3-1.6c0,0.6-0.1,0.9-0.3,1.2c-0.2,0.2-0.6,0.6-1.2,1.1L520.1,499.9z M502,498.4
			c-1.7,0.5-3.2,1.1-4.6,1.8c-1.4,0.7-2.2,1.4-2.2,2.1L502,498.4L502,498.4z M493.6,540.1l-3.3,1.4l0.5,0.7l2.8-0.9V540.1z
			 M518.4,486c1.7,0.4,2.9,1.3,3.7,2.7c0.8,1.3,1.1,2.9,1,4.7c0.4,0.4,0.6,0.8,0.6,1.3c0,1-0.7,2-2,3.1c-1.3,1.1-2.9,1.8-4.7,2.2
			c-0.5-0.6-0.7-1.1-0.7-1.5c0.1-0.4,0.2-0.7,0.4-0.9c0.2-0.2,0.4-0.4,0.6-0.6c0.2-0.2,0.2-0.4-0.1-0.7c-2.4,0-4.5,0.1-6.3,0.4
			c-1.9,0.2-3.6,0.7-5.3,1.3c-1.7,0.6-3.3,1.4-5,2.4c-1.7,1-3.5,2.2-5.6,3.6v1.4l3.9,2.8c1,0.7,2,1.3,3,1.9c1,0.6,1.9,1.1,2.8,1.6
			c0.9,0.5,1.8,1.1,2.6,1.7c0.8,0.6,1.6,1.3,2.3,2l1-0.7c1.4,1.4,2.4,2.9,3.2,4.6c0.7,1.6,1.1,3,0.9,4.3l-0.6,7.4l-1.6-0.4
			c-1.4,1.9-3.3,3.6-5.7,5.2c-2.5,1.6-5.1,3-7.9,4.3c-3-1.2-4.4-0.7-4.4,1.8c-2.2,0.9-4.3,1.5-6.1,1.9c-1.8,0.4-3.2,0.6-4,0.6
			c-0.7,0-1.5-0.3-2.6-1c-1-0.7-2.1-1.6-3.2-2.6c-1.9-0.4-3.1-1-3.6-2c-0.6-0.9-0.7-1.8-0.5-2.7c-0.6-0.9-1.1-1.7-1.5-2.4
			c-0.4-0.7-0.6-1.4-0.6-1.9c0-1.2,0.3-2.1,1-2.9c0.7-0.7,1.3-1.4,2.1-2c0.4,0.3,0.8,0.7,1.3,1.3c0.5,0.5,1,1,1.5,1.5
			c0.5,0.5,1,0.9,1.5,1.3c0.5,0.3,1,0.5,1.4,0.5c1.1,0,2.4-0.2,4-0.5c1.5-0.3,3.2-0.8,4.9-1.4c1.7-0.7,3.4-1.5,5.2-2.4
			c1.8-1,3.4-2.1,4.9-3.4v-0.9c-0.6-0.6-1.1-1.2-1.6-1.9c-0.5-0.7-1-1.4-1.5-2c-0.5-0.6-1-1-1.4-1.3c-0.4-0.3-0.9-0.3-1.3,0
			c-1.2-1.7-2.2-2.8-2.9-3.5c-0.7-0.7-1.5-0.7-2.4,0c-0.7-0.6-1.5-1.4-2.5-2.4c-1-1.1-1.6-2.2-1.8-3.5c-0.3-1.5-0.7-3-1.1-4.6
			c-0.4-1.5-0.6-2.8-0.5-3.8c0.1-1.9,1.1-3.8,2.8-5.6c1.8-1.8,4-3.5,6.7-4.9c2.7-1.4,5.6-2.6,8.7-3.4c3.2-0.9,6.2-1.3,9.2-1.3
			c1.2,0,2.5,0,3.9,0.1c1.4,0.1,2.7,0.2,3.9,0.3L518.4,486z"/>
		<path class="st1" d="M544.8,490.2l-1.2-0.2l1.7-2.6l0.7,0.6L544.8,490.2z M561.4,487.9c0,1.1-0.3,2-0.9,2.9
			c-0.6,0.9-1.4,1.9-2.4,3c-1,1.1-2.1,2.4-3.3,3.8c-1.2,1.4-2.5,3.2-3.8,5.2c-0.9,1.4-2.1,3.3-3.6,5.6c-1.5,2.3-3.1,4.8-4.8,7.3
			c-1.8,2.6-3.6,5.1-5.5,7.5c-1.9,2.4-3.8,4.5-5.7,6.1l-0.4-2c1.1-1.3,1.9-2.4,2.4-3.4c0.6-1,0.8-2,0.7-2.9l-2.9,2.2
			c0.1-1.1,0.1-2.2,0-3.3c0-1.1,0.4-2.4,1.3-3.8c-0.1-0.2-0.2-0.4-0.2-0.6c0-0.2-0.1-0.4-0.2-0.6c0.6-1,1.1-2,1.5-3
			c0.4-1,0.6-2.2,0.6-3.6c1.4-1.9,2.3-3.4,2.8-4.6c0.5-1.2,1-2.3,1.3-3.4c0.3-1.1,0.8-2.3,1.3-3.5c0.5-1.3,1.5-2.9,2.8-4.9l2.4-0.5
			c1.2-1.7,2.3-3.4,3.4-4.9s2.1-2.8,3.1-4c1-1.1,1.8-2,2.6-2.6c0.8-0.7,1.4-1,2-1c0.6,0,1.3,0.3,1.9,0.9c0.7,0.6,1.2,1.4,1.8,2.3
			c0.5,0.9,0.9,1.8,1.3,2.8C561.2,486.2,561.4,487.1,561.4,487.9 M525.8,548.1c-0.3-0.6-0.7-1.1-1.3-1.4c-0.5-0.3-1-0.3-1.4,0.1
			c-0.4-0.7-0.9-1.6-1.5-2.6c-0.6-1-1.3-1.8-2.3-2.4c-1.1-0.7-1.8-1.6-2.1-2.7c-0.3-1.1-0.5-2.6-0.5-4.4c0.7-1.2,1.5-2.4,2.2-3.6
			c0.7-1.2,1.7-1.8,2.9-1.8c1.1,0,2,0.5,2.8,1.3c0.7,0.9,1.4,2,1.9,3.4c0.5,1.4,0.9,2.9,1.3,4.6c0.3,1.7,0.6,3.3,0.8,4.9
			L525.8,548.1z"/>
	</g>
	<g>
		<path class="st1" d="M412.1,132c-10.1,0-18.3-8.2-18.3-18.3c0-10.1,8.2-18.3,18.3-18.3c10.1,0,18.3,8.2,18.3,18.3
			C430.4,123.8,422.2,132,412.1,132 M412.1,92.4c-11.7,0-21.3,9.6-21.3,21.3c0,11.8,9.6,21.3,21.3,21.3c11.8,0,21.3-9.6,21.3-21.3
			C433.4,102,423.9,92.4,412.1,92.4"/>
		<path class="st1" d="M410.3,232.1c0-20.1-5.7-34.2-12.5-44.3l0-0.1c0,0,0.1,0,0.1,0c1.3-0.2,2.5-0.5,3.8-0.9
			c0.3-0.1,0.6-0.2,0.8-0.2c1.3-0.4,2.5-0.7,3.7-1.2c0,0,0,0,0,0c1-0.3,1.9-0.7,2.8-1.1c0.4-0.2,0.8-0.4,1.2-0.6
			c0.5-0.2,1-0.5,1.5-0.7c0.5-0.2,1-0.5,1.5-0.8c0.4-0.2,0.8-0.4,1.2-0.6c0.6-0.3,1.1-0.6,1.6-1c0.1-0.1,0.2-0.1,0.3-0.1
			C419.5,198.1,417.5,215.9,410.3,232.1 M391.9,258.9c-16.7,16.7-38.8,25.8-62.4,25.8c-6.7,0-13.3-0.7-19.7-2.2
			c1.1-0.2,2.1-0.5,3.1-0.7c0.3-0.1,0.6-0.2,0.9-0.2c0.8-0.2,1.5-0.4,2.3-0.6c0.4-0.1,0.8-0.2,1.1-0.3c0.7-0.2,1.3-0.4,2-0.6
			c0.4-0.1,0.8-0.3,1.2-0.4c0.6-0.2,1.2-0.4,1.9-0.7c0.4-0.2,0.8-0.3,1.2-0.5c0.6-0.2,1.2-0.5,1.8-0.8c0.4-0.2,0.8-0.3,1.1-0.5
			c0.7-0.3,1.3-0.6,2-0.9c0.3-0.2,0.7-0.3,1-0.5c0.9-0.4,1.8-0.9,2.6-1.3c0.1,0,0.2-0.1,0.2-0.1c0.9-0.5,1.9-1,2.8-1.6
			c0.3-0.2,0.6-0.4,0.9-0.5c0.6-0.4,1.3-0.8,1.9-1.2c0.3-0.2,0.7-0.5,1-0.7c0.6-0.4,1.1-0.8,1.7-1.1c0.4-0.3,0.7-0.5,1.1-0.8
			c0.5-0.4,1.1-0.8,1.6-1.2c0.3-0.3,0.7-0.5,1-0.8c0.5-0.4,1.1-0.8,1.6-1.3c0.3-0.3,0.6-0.5,1-0.8c0.6-0.5,1.1-1,1.7-1.5
			c0.3-0.2,0.5-0.5,0.8-0.7c0.8-0.7,1.6-1.5,2.4-2.3c2.4-2.4,4.7-5,6.9-7.8c2.9,0.3,5.7,0.4,8.6,0.4h0c5.9,0,11.7-0.6,17.5-1.6
			c0.1,0,0.2,0,0.3-0.1c1.5-0.3,2.9-0.6,4.3-0.9c0.4-0.1,0.8-0.2,1.2-0.3c1.2-0.3,2.4-0.6,3.5-1c0.4-0.1,0.9-0.2,1.3-0.4
			c1.5-0.5,3.1-1,4.6-1.5c1-0.3,1.9-0.7,2.9-1.1C399.5,250.5,395.9,254.9,391.9,258.9 M293.2,277c-3.3-1.5-6.3-3.1-9.1-4.8l-0.2-0.1
			l-0.2-0.1c-1.3-0.8-2.7-1.7-3.8-2.4c-0.4-0.2-0.7-0.5-1.1-0.8c-1-0.7-2-1.4-2.9-2.1l-0.5-0.4c-0.3-0.2-0.6-0.4-0.8-0.6
			c-0.9-0.8-1.9-1.5-2.8-2.3l-0.4-0.4c-0.2-0.2-0.5-0.4-0.7-0.6c-1.2-1.1-2.4-2.2-3.7-3.5c-0.8-0.8-1.6-1.6-2.4-2.6
			c0.2-0.1,0.4-0.2,0.5-0.2c0.4-0.2,0.8-0.3,1.2-0.5c0.6-0.2,1.1-0.5,1.7-0.7c0.4-0.2,0.8-0.4,1.2-0.6c0.5-0.3,1.1-0.5,1.6-0.8
			c0.4-0.2,0.8-0.4,1.2-0.6c0.5-0.3,1.1-0.6,1.6-0.9c0.4-0.2,0.8-0.4,1.1-0.7c0.5-0.3,1.1-0.6,1.6-1c0.4-0.2,0.7-0.4,1.1-0.7
			c0.5-0.4,1.1-0.7,1.6-1.1c0.3-0.2,0.7-0.4,1-0.7c0.6-0.4,1.2-0.8,1.7-1.3c0.3-0.2,0.5-0.4,0.8-0.6c0.7-0.6,1.5-1.1,2.2-1.7
			c0.1-0.1,0.2-0.1,0.3-0.2c0.8-0.7,1.6-1.4,2.4-2.1c0,0,0,0,0,0c0.8-0.7,1.5-1.4,2.3-2.1c0.2-0.2,0.3-0.3,0.5-0.5
			c0.6-0.6,1.2-1.2,1.7-1.8c0.2-0.2,0.4-0.4,0.6-0.6c0.5-0.6,1-1.1,1.6-1.7c0.2-0.2,0.4-0.5,0.6-0.7c0.5-0.6,1-1.2,1.4-1.7
			c0.2-0.2,0.4-0.5,0.6-0.7c0.5-0.6,0.9-1.2,1.4-1.8c0.2-0.2,0.4-0.5,0.5-0.7c0.5-0.6,0.9-1.3,1.3-1.9c0.2-0.2,0.3-0.5,0.5-0.7
			c0.2-0.3,0.4-0.5,0.5-0.8l0,0l0,0c0.4,0.3,0.7,0.6,1.1,1c0.3,0.3,0.7,0.6,1,1c0.7,0.6,1.4,1.2,2.1,1.8c0.3,0.3,0.7,0.6,1,0.9
			c0.7,0.6,1.5,1.2,2.2,1.8c0.3,0.2,0.6,0.5,0.9,0.7c0.8,0.6,1.6,1.2,2.4,1.8c0.3,0.2,0.6,0.4,0.8,0.6c0.9,0.6,1.7,1.2,2.6,1.7
			c0.3,0.2,0.5,0.3,0.8,0.5c0.9,0.6,1.8,1.1,2.7,1.7c0.2,0.1,0.5,0.3,0.8,0.4c0.9,0.5,1.9,1.1,2.9,1.6c0.2,0.1,0.5,0.2,0.7,0.3
			c1,0.5,2,1,3.1,1.5c0.1,0,0.1,0.1,0.2,0.1c1,0.5,2.1,1,3.1,1.4l0.5,0.2c0.6,0.2,1.1,0.5,1.7,0.7l1,0.4c0.5,0.2,0.9,0.3,1.4,0.5
			c0.8,0.3,1.6,0.6,2.5,0.9l1.7,0.5c0.7,0.2,1.4,0.4,2.1,0.6l0.1,0c0.2,0.1,0.4,0.1,0.6,0.2c0.3,0.1,0.5,0.1,0.8,0.2
			c0.2,0.1,0.5,0.1,0.7,0.2l2.1,0.5c0.4,0.1,0.9,0.2,1.3,0.3c0.3,0.1,0.6,0.1,1,0.2l0.4,0.1c0.5,0.1,1,0.2,1.5,0.3
			c0.9,0.2,1.8,0.3,2.7,0.4l0.3,0.1c0.4,0.1,0.9,0.2,1.4,0.2c0.5,0.1,1.1,0.1,1.6,0.2c-0.5,0.6-0.9,1.2-1.4,1.7
			c-0.2,0.2-0.4,0.5-0.6,0.7c-1.1,1.3-2.2,2.5-3.4,3.7c-0.8,0.8-1.6,1.6-2.4,2.3c-0.3,0.3-0.7,0.6-1,0.9c-0.5,0.4-1,0.9-1.5,1.3
			c-0.4,0.3-0.8,0.6-1.2,1c-0.5,0.4-0.9,0.8-1.4,1.1c-0.4,0.3-0.8,0.6-1.3,0.9c-0.5,0.4-0.9,0.7-1.4,1c-0.4,0.3-0.9,0.6-1.3,0.9
			c-0.5,0.3-1,0.7-1.4,1c-0.4,0.3-0.9,0.6-1.3,0.8c-0.5,0.3-1,0.6-1.4,0.9c-0.5,0.3-0.9,0.5-1.4,0.8c-0.5,0.3-1,0.6-1.5,0.8
			c-0.5,0.3-0.9,0.5-1.4,0.7c-0.5,0.3-1,0.5-1.5,0.8c-0.5,0.2-0.9,0.4-1.4,0.7c-0.5,0.2-1,0.5-1.6,0.7c-0.5,0.2-1,0.4-1.5,0.6
			c-0.5,0.2-1.1,0.4-1.6,0.7c-0.5,0.2-1,0.4-1.5,0.5c-0.5,0.2-1.1,0.4-1.6,0.6c-0.5,0.2-1,0.3-1.5,0.5c-0.5,0.2-1.1,0.4-1.6,0.5
			c-0.5,0.2-1.1,0.3-1.6,0.4c-0.5,0.1-1.1,0.3-1.6,0.4c-0.5,0.1-1.1,0.2-1.6,0.4c-0.5,0.1-1.1,0.2-1.6,0.4c-0.6,0.1-1.1,0.2-1.7,0.3
			c-0.5,0.1-1.1,0.2-1.6,0.3c-0.6,0.1-1.1,0.2-1.7,0.3c-0.5,0.1-1,0.1-1.5,0.2c-1.5-0.5-3-1-4.5-1.6L298,279
			c-1.6-0.6-3.1-1.2-4.5-1.9L293.2,277z M267,134.1c2.9-2.9,6-5.6,9.3-8.1c-0.3,1-0.7,2-1,3c0,0.1-0.1,0.2-0.1,0.2
			c-0.4,1.2-0.7,2.4-1,3.6c0,0.1-0.1,0.2-0.1,0.4c-0.3,1-0.5,2.1-0.8,3.1c-0.1,0.3-0.1,0.5-0.2,0.8c-0.2,0.9-0.4,1.8-0.5,2.7
			c-0.1,0.3-0.1,0.7-0.2,1c-0.1,0.9-0.3,1.7-0.4,2.6c-0.1,0.4-0.1,0.7-0.1,1.1c-0.1,0.8-0.2,1.7-0.3,2.5c0,0.4-0.1,0.7-0.1,1.1
			c-0.1,0.8-0.1,1.6-0.2,2.5c0,0.4,0,0.8-0.1,1.1c0,0.8-0.1,1.6-0.1,2.5c0,0.4,0,0.8,0,1.1c0,0.8,0,1.7,0,2.5c0,0.4,0,0.7,0,1.1
			c0,0.9,0.1,1.7,0.1,2.6c0,0.3,0,0.7,0.1,1c0.1,0.9,0.1,1.9,0.2,2.8c0,0.3,0,0.5,0.1,0.8c0.1,1.2,0.3,2.4,0.4,3.6c0,0,0,0,0,0
			c0.2,1.2,0.4,2.5,0.6,3.7c0,0.1,0,0.1,0,0.2c0.2,1.1,0.4,2.2,0.7,3.4c0.1,0.3,0.1,0.6,0.2,0.9c0.2,0.7,0.3,1.4,0.5,2.2l0,0l0,0
			c-18.3,21.4-21.5,48.6-16.2,68.1c-0.7-0.9-1.3-1.7-1.3-1.7C233.1,212,236.5,164.6,267,134.1 M329.5,108.2c3.8,0,7.5,0.2,11.3,0.7
			c-0.1,0.1-0.1,0.3-0.2,0.4c-0.2,0.4-0.4,0.8-0.7,1.3c-0.2,0.5-0.5,1-0.7,1.5c-0.2,0.4-0.4,0.8-0.6,1.3c-0.2,0.5-0.5,1.1-0.7,1.6
			c-0.2,0.4-0.3,0.8-0.5,1.1c-0.3,0.9-0.7,1.8-1,2.8c-0.1,0.2-0.1,0.5-0.2,0.7c-0.2,0.7-0.4,1.5-0.6,2.2c-0.1,0.4-0.2,0.7-0.3,1.1
			c-0.1,0.6-0.3,1.3-0.4,1.9c-0.1,0.4-0.1,0.8-0.2,1.2c-0.1,0.6-0.2,1.3-0.3,1.9c0,0.4-0.1,0.7-0.1,1.1c0,0.1,0,0.3,0,0.4l-0.1,0
			l0,0.1c-1.5-0.9-3.1-1.7-4.7-2.5c0,0-0.1,0-0.1-0.1c-1.5-0.8-3.1-1.5-4.7-2.1c-0.1-0.1-0.3-0.1-0.4-0.2c-1.5-0.6-3-1.2-4.6-1.7
			c-0.2-0.1-0.4-0.1-0.6-0.2c-1.5-0.5-3.1-1-4.6-1.4c-0.2-0.1-0.4-0.1-0.6-0.2c-1.6-0.4-3.1-0.8-4.7-1.1c-0.2,0-0.4-0.1-0.6-0.1
			c-1.6-0.3-3.2-0.6-4.9-0.8c-0.1,0-0.3,0-0.4-0.1c-1.7-0.2-3.4-0.4-5.1-0.5c0,0-0.1,0-0.1,0c-1.8-0.1-3.6-0.2-5.4-0.2
			c-1.5,0-3,0.1-4.5,0.1c-0.1,0-0.2,0-0.4,0C300.8,111.8,315,108.2,329.5,108.2 M307.7,166c0.2,0.6,0.3,1.2,0.5,1.8
			c0.2,0.7,0.3,1.4,0.5,2.1c0.1,0.6,0.3,1.2,0.4,1.8c0.1,0.7,0.2,1.5,0.3,2.2c0.1,0.6,0.2,1.2,0.3,1.8c0.1,0.8,0.2,1.5,0.2,2.3
			c0.1,0.6,0.1,1.1,0.2,1.7c0.1,0.8,0.1,1.7,0.1,2.5c0,0.5,0,1,0.1,1.5c0,1.2,0,2.4,0,3.6c0,0.2,0,0.3,0,0.5
			c-0.1,1.3-0.1,2.6-0.3,3.9c0,0.5-0.1,0.9-0.2,1.4c-0.1,0.9-0.2,1.7-0.3,2.6c-0.1,0.5-0.2,1.1-0.3,1.6c-0.1,0.8-0.3,1.6-0.4,2.4
			c-0.1,0.6-0.3,1.1-0.4,1.7c-0.2,0.7-0.3,1.5-0.5,2.2c-0.1,0.6-0.3,1.1-0.5,1.7c-0.2,0.7-0.4,1.5-0.7,2.2c-0.2,0.6-0.4,1.1-0.6,1.7
			c-0.2,0.7-0.5,1.4-0.8,2.1c-0.2,0.6-0.4,1.1-0.7,1.7c-0.3,0.7-0.6,1.4-0.9,2.1c-0.2,0.5-0.5,1.1-0.8,1.6c-0.3,0.7-0.7,1.4-1,2.1
			c-0.3,0.5-0.6,1.1-0.8,1.6c-0.2,0.4-0.4,0.7-0.6,1.1c-0.4-0.4-0.7-0.8-1.1-1.1c-0.6-0.6-1.1-1.2-1.7-1.8c-0.5-0.6-1.1-1.2-1.6-1.9
			c-0.5-0.7-1.1-1.3-1.6-2c-0.5-0.6-1-1.3-1.5-1.9c-0.5-0.7-1-1.4-1.5-2.1c-0.5-0.7-0.9-1.3-1.4-2c-0.5-0.7-0.9-1.4-1.4-2.1
			c-0.5-0.7-0.9-1.5-1.3-2.2c-0.4-0.7-0.8-1.4-1.2-2c-0.5-0.8-0.9-1.7-1.3-2.5c-0.3-0.6-0.7-1.2-1-1.9c-0.5-1-1-2.1-1.4-3.1
			c-0.2-0.5-0.4-1-0.7-1.4c-0.7-1.5-1.3-3.1-1.9-4.7c0,0,0-0.1,0-0.1c-0.9-2.4-1.6-4.8-2.3-7.4c0-0.1,0-0.2-0.1-0.3
			c0.5-0.6,1-1.1,1.6-1.7c0.4-0.5,0.9-0.9,1.3-1.4c0.7-0.7,1.4-1.4,2.2-2.1c0.4-0.4,0.7-0.7,1.1-1.1c1.1-1,2.3-2,3.5-2.9
			c0.3-0.2,0.5-0.4,0.8-0.6c0.9-0.7,1.9-1.4,2.9-2.1c0.5-0.3,0.9-0.6,1.4-0.9c0.8-0.5,1.6-1.1,2.4-1.6c0.5-0.3,1.1-0.6,1.6-0.9
			c0.8-0.5,1.6-0.9,2.4-1.3c0.6-0.3,1.1-0.6,1.7-0.8c0.8-0.4,1.6-0.8,2.4-1.1c0.6-0.3,1.2-0.5,1.8-0.8c0.5-0.2,1.1-0.4,1.6-0.7
			c0.1,0.4,0.3,0.9,0.4,1.3c0.2,0.6,0.4,1.2,0.6,1.8C307.4,164.6,307.5,165.3,307.7,166 M366.6,181l-0.6-0.3
			c-2.4-1.1-4.6-2.4-6.8-3.9c-0.1-0.1-0.2-0.1-0.4-0.3c-1.1-0.8-2.1-1.5-3-2.2l-0.2-0.2c-0.9-0.8-1.9-1.6-2.8-2.5
			c-0.1-0.2-0.2-0.2-0.3-0.3c-0.4-0.4-0.8-0.8-1.3-1.3c-0.4-0.5-0.9-0.9-1.3-1.5l0,0c0,0,0,0-0.1-0.1l-0.1-0.1
			c-1.8-2.1-3.4-4.3-4.9-6.5l-0.2-0.3c-0.5-0.8-0.9-1.5-1.3-2.3c-0.1-0.2-0.2-0.4-0.4-0.7c-0.3-0.6-0.7-1.3-1-2
			c-0.1-0.1-0.1-0.2-0.2-0.3c0.1,0,0.2,0,0.2,0c1.4,0.2,2.7,0.4,4.1,0.6c0.7,0.1,1.3,0.2,2,0.4c0.8,0.2,1.6,0.4,2.4,0.5
			c1.2,0.3,2.4,0.6,3.5,0.9c0.3,0.1,0.6,0.2,0.9,0.3c1.4,0.4,2.9,0.9,4.3,1.5c0.6,0.2,1.2,0.5,1.8,0.7c0.4,0.2,0.9,0.4,1.3,0.5l0,0
			l0,0c1.4,2.5,2.7,5.1,3.9,7.8c0.1,0.2,0.2,0.4,0.2,0.5c0.4,0.9,0.8,1.8,1.1,2.7c0.4,1.1,0.8,2.3,1.2,3.4c0.2,0.6,0.4,1.2,0.6,1.8
			c0.4,1.4,0.8,2.8,1.1,4.2c0,0.1,0.1,0.2,0.1,0.4c0,0-0.1,0-0.1,0l-0.4-0.1C368.8,182,367.6,181.5,366.6,181 M368.1,164.6
			c1.1,0.6,2.2,1.2,3.3,1.9c0.4,0.2,0.8,0.5,1.2,0.8c1,0.6,1.9,1.2,2.8,1.9c0.4,0.3,0.8,0.6,1.2,0.9c0.9,0.7,1.9,1.4,2.8,2.1
			c0.3,0.3,0.7,0.5,1,0.8c1.2,1,2.3,2,3.5,3c0,0,0.1,0,0.1,0.1c1.2,1.1,2.3,2.2,3.3,3.4c0.3,0.3,0.6,0.7,0.9,1
			c0.8,0.8,1.5,1.7,2.2,2.5c0.4,0.4,0.7,0.9,1.1,1.3c0.3,0.4,0.6,0.8,0.9,1.2c-0.1,0-0.2,0-0.2,0c-0.7,0.1-1.4,0.1-2.1,0.1
			c-0.3,0-0.6,0-0.9,0c-0.5,0-1,0-1.5,0c-1,0-2.1,0-3.1-0.1c-0.2,0-0.5,0-0.7-0.1c-0.9-0.1-1.7-0.2-2.6-0.3c-0.2,0-0.4-0.1-0.7-0.1
			c-1-0.2-2.1-0.3-3.1-0.5c-0.2,0-0.4-0.1-0.6-0.1c-0.9-0.2-1.7-0.4-2.5-0.6c-0.2,0-0.3-0.1-0.5-0.1c0,0,0-0.1,0-0.1
			c-1.5-6.9-3.8-13.4-6.9-19.5c0.1,0,0.1,0.1,0.2,0.1C367.5,164.3,367.8,164.5,368.1,164.6 M339.4,136.4c0.7,0.5,1.5,1.1,2.2,1.7
			c0.4,0.3,0.9,0.7,1.3,1c0.8,0.6,1.5,1.3,2.3,1.9c0.3,0.3,0.7,0.6,1,0.9c1.1,1,2.1,2,3.2,3c1.2,1.2,2.3,2.4,3.4,3.7
			c0.1,0.1,0.2,0.2,0.3,0.4c2.3,2.7,4.4,5.4,6.4,8.4c-6-2.2-12.9-3.9-19.2-4.3c-0.1-0.3-0.1-0.4-0.2-0.7c-0.3-0.8-0.5-1.6-0.8-2.4
			c-0.1-0.2-0.1-0.4-0.2-0.6c-0.2-0.6-0.3-1.2-0.5-1.7c-0.1-0.3-0.1-0.6-0.2-0.9c-0.1-0.5-0.2-1-0.3-1.5c-0.1-0.3-0.1-0.7-0.2-1
			c-0.1-0.4-0.2-0.9-0.2-1.4c-0.1-0.3-0.1-0.7-0.2-1.1c-0.1-0.4-0.1-0.9-0.2-1.4c0-0.3-0.1-0.7-0.1-1c0-0.5-0.1-1-0.1-1.5
			c0-0.3,0-0.6-0.1-0.9c0-0.8,0-1.5,0-2.3c0.3,0.2,0.6,0.4,1,0.6C338.5,135.7,339,136,339.4,136.4 M287.2,121.6c0.1,0,0.3,0,0.4,0
			c1.7-0.1,3.4-0.2,5-0.2c0.1,0,0.1,0,0.2,0c0.1,0,0.1,0,0.2,0c1.6,0,3.3,0.1,4.9,0.2c0.2,0,0.3,0,0.5,0c1.6,0.1,3.3,0.3,4.9,0.5
			c0.2,0,0.4,0,0.6,0.1c1.6,0.2,3.2,0.5,4.7,0.8c0.2,0,0.4,0.1,0.6,0.1c1.5,0.3,3.1,0.7,4.6,1.1c0.2,0.1,0.5,0.1,0.7,0.2
			c1.5,0.4,3,0.9,4.4,1.4c0.3,0.1,0.5,0.2,0.8,0.3c1.4,0.5,2.8,1,4.2,1.6c0.3,0.1,0.6,0.3,0.9,0.4c1.3,0.6,2.6,1.2,3.9,1.9
			c0.4,0.2,0.7,0.4,1.1,0.6c1.2,0.6,2.4,1.3,3.6,2c0.2,0.1,0.4,0.2,0.5,0.3c0,0.3,0,0.7,0,1c0,0.4,0,0.7,0,1.1c0,0.5,0,1.1,0,1.6
			c0,0.3,0,0.7,0,1c0,0.6,0.1,1.1,0.1,1.7c0,0.3,0,0.6,0.1,0.9c0.1,0.6,0.1,1.2,0.2,1.8c0,0.3,0.1,0.5,0.1,0.8
			c0.1,0.7,0.2,1.5,0.4,2.2c0,0.1,0,0.3,0.1,0.4c0.2,0.8,0.4,1.7,0.6,2.5c0.1,0.4,0.2,0.8,0.3,1.3c0.1,0.4,0.2,0.8,0.4,1.3
			c0.2,0.5,0.3,1,0.5,1.5c0.1,0.3,0.1,0.4,0.2,0.7c-12-0.6-22.2,1.7-29.1,4c0,0-0.1-0.2-0.1-0.3c-0.6-1.5-1.2-3-1.9-4.4
			c-0.1-0.2-0.2-0.5-0.3-0.7c-0.7-1.5-1.4-2.9-2.2-4.3c-0.1-0.2-0.2-0.4-0.3-0.5c-0.8-1.5-1.7-2.9-2.6-4.3c-0.1-0.1-0.1-0.2-0.2-0.3
			c-0.9-1.4-1.9-2.8-3-4.2c0,0-0.1-0.1-0.1-0.1c-1-1.3-2.1-2.6-3.2-3.9c-0.1-0.1-0.2-0.3-0.3-0.4c-1.1-1.2-2.2-2.4-3.4-3.5
			c-0.2-0.2-0.3-0.3-0.5-0.5c-1.2-1.1-2.3-2.2-3.6-3.2c-0.2-0.2-0.4-0.3-0.6-0.5c-1.2-1-2.5-2-3.8-3c-0.1-0.1-0.2-0.1-0.3-0.2
			c0,0,0,0,0.1,0c0.1,0,0.2-0.1,0.2-0.1c0.1,0,0.2,0,0.4,0C283.8,121.9,285.5,121.7,287.2,121.6 M274.3,154.3c0-0.5,0-1,0.1-1.5
			c0.1-1.4,0.2-2.9,0.3-4.3c0-0.3,0-0.6,0.1-0.9c0.1-0.6,0.2-1.3,0.2-1.9c0.1-0.5,0.1-1,0.2-1.5c0.1-0.6,0.2-1.2,0.3-1.8
			c0.1-0.5,0.2-1.1,0.3-1.6c0.1-0.6,0.2-1.2,0.3-1.8c0.1-0.6,0.2-1.1,0.3-1.7c0.1-0.6,0.3-1.1,0.4-1.7c0.1-0.6,0.3-1.2,0.4-1.8
			c0.1-0.5,0.3-1.1,0.4-1.6c0.2-0.6,0.4-1.2,0.5-1.9c0.1-0.5,0.3-1,0.5-1.5c0.2-0.7,0.4-1.3,0.7-2c0.1-0.4,0.3-0.9,0.4-1.3
			c0.1-0.2,0.1-0.4,0.2-0.6c0.1,0.1,0.1,0.1,0.2,0.2c1.2,0.9,2.5,1.9,3.6,2.9c0.2,0.2,0.4,0.3,0.6,0.5c1.2,1,2.3,2,3.4,3.1
			c0.2,0.2,0.3,0.3,0.5,0.5c1.1,1.1,2.2,2.2,3.2,3.3c0.1,0.1,0.3,0.3,0.4,0.4c1,1.2,2.1,2.4,3,3.7c0.1,0.1,0.1,0.2,0.2,0.2
			c1,1.3,1.9,2.6,2.8,3.9c0,0.1,0.1,0.2,0.2,0.2c0.9,1.3,1.7,2.7,2.5,4.1c0.1,0.2,0.2,0.3,0.3,0.5c0.7,1.3,1.4,2.7,2.1,4.1
			c0.1,0.2,0.2,0.5,0.3,0.7c0.6,1.4,1.3,3.1,1.9,4.5c-13.5,5.4-21.4,12.2-28.5,19.3c-0.1-0.6-0.3-1.4-0.4-1.9
			c-0.1-0.6-0.2-1.2-0.3-1.8c-0.1-0.6-0.2-1.1-0.3-1.7c-0.1-0.6-0.2-1.2-0.3-1.8c-0.1-0.6-0.2-1.1-0.2-1.7c-0.1-0.6-0.1-1.1-0.2-1.7
			c-0.1-0.6-0.1-1.2-0.2-1.8c0-0.6-0.1-1.1-0.1-1.7c0-0.6-0.1-1.2-0.1-1.8c0-0.6,0-1.1-0.1-1.7c0-0.6,0-1.2,0-1.8c0-0.5,0-1.1,0-1.6
			C274.3,155.5,274.3,154.9,274.3,154.3 M297.4,226.2c-0.2,0.3-0.4,0.6-0.6,0.9c-0.4,0.5-0.8,1.1-1.1,1.6c-0.2,0.3-0.4,0.6-0.7,0.9
			c-0.4,0.5-0.8,1-1.2,1.5c-0.2,0.3-0.5,0.6-0.7,0.9c-0.4,0.5-0.8,0.9-1.2,1.4c-0.3,0.3-0.5,0.6-0.8,0.9c-0.4,0.4-0.8,0.9-1.2,1.3
			c-0.3,0.3-0.6,0.6-0.9,0.9c-0.4,0.4-0.8,0.8-1.2,1.2c-0.3,0.3-0.6,0.6-0.9,0.9c-0.4,0.4-0.8,0.8-1.2,1.2c-0.3,0.3-0.7,0.6-1,0.9
			c-0.4,0.4-0.8,0.7-1.3,1.1c-0.4,0.3-0.7,0.6-1.1,0.9c-0.4,0.3-0.8,0.7-1.3,1c-0.4,0.3-0.8,0.6-1.2,0.9c-0.4,0.3-0.8,0.6-1.2,0.9
			c-0.4,0.3-0.9,0.6-1.3,0.9c-0.4,0.3-0.8,0.6-1.2,0.8c-0.5,0.3-1,0.6-1.5,0.9c-0.4,0.2-0.7,0.5-1.1,0.7c-0.9,0.5-1.7,1-2.6,1.5
			c-0.1,0.1-0.3,0.1-0.4,0.2c-0.8,0.4-1.5,0.8-2.3,1.2c-0.3,0.1-0.6,0.3-0.9,0.4c-0.6,0.3-1.2,0.6-1.8,0.8c-0.4,0.2-0.7,0.3-1.1,0.4
			c-0.5,0.2-1.1,0.4-1.6,0.6c-0.3-0.8-0.5-1.5-0.7-2.3c-0.2-0.6-0.4-1.3-0.6-1.9c-0.3-1-0.5-2-0.7-3c-0.1-0.6-0.3-1.1-0.4-1.7
			c-0.3-1.3-0.5-2.6-0.7-3.8c0-0.3-0.1-0.6-0.1-0.9c-0.2-1.6-0.4-3.2-0.5-4.8c0-0.1,0-0.2,0-0.3c-0.1-1.5-0.2-3-0.2-4.5
			c0-0.4,0-0.8,0-1.3c0-1.2,0-2.3,0.1-3.5c0-0.5,0.1-1,0.1-1.6c0.1-1.1,0.2-2.1,0.3-3.2c0.1-0.6,0.2-1.1,0.2-1.7c0.1-1,0.3-2,0.5-3
			c0.1-0.6,0.2-1.1,0.4-1.7c0.2-1,0.4-1.9,0.6-2.9c0.1-0.6,0.3-1.2,0.5-1.7c0.3-0.9,0.5-1.9,0.8-2.8c0.2-0.6,0.4-1.2,0.6-1.7
			c0.3-0.9,0.6-1.8,1-2.8c0.2-0.6,0.5-1.1,0.7-1.7c0.4-0.9,0.8-1.8,1.2-2.7c0.3-0.6,0.5-1.1,0.8-1.6c0.4-0.9,0.9-1.8,1.4-2.6
			c0.3-0.5,0.6-1.1,0.9-1.6c0.5-0.9,1-1.7,1.6-2.6c0.3-0.5,0.7-1,1-1.5c0.6-0.8,1.2-1.7,1.8-2.5c0.3-0.5,0.7-0.9,1.1-1.4
			c0.3-0.3,0.5-0.7,0.8-1c0.1,0.4,0.2,0.8,0.4,1.2c0.1,0.2,0.2,0.5,0.2,0.7c0.4,1.4,0.9,2.7,1.3,4c0.6,1.7,1.3,3.3,1.9,4.9
			c0.2,0.5,0.5,1,0.7,1.5c0.5,1.1,1,2.2,1.5,3.3c0.3,0.5,0.5,1,0.8,1.6c0.5,1,1.1,2.1,1.6,3.1c0.3,0.5,0.6,1,0.9,1.5
			c0.6,1,1.2,2,1.8,3c0.3,0.5,0.6,1,1,1.4c0.6,1,1.3,1.9,1.9,2.9c0.4,0.5,0.7,1,1.1,1.4c0.7,0.9,1.4,1.8,2.1,2.7
			c0.4,0.5,0.8,1,1.2,1.5c0.7,0.8,1.4,1.7,2.1,2.5c0.5,0.5,1,1.1,1.5,1.6c0.5,0.6,1.1,1.2,1.6,1.7c-0.1,0.2-0.2,0.3-0.3,0.5
			C298.1,225,297.8,225.6,297.4,226.2 M341.7,245.9c-4.6-1.3-9.2-3-13.5-5c-0.2-0.1-0.4-0.2-0.6-0.3c-0.9-0.4-1.8-0.9-2.7-1.3
			c-0.3-0.2-0.6-0.3-0.9-0.5c-0.9-0.4-1.7-0.9-2.6-1.4c-0.3-0.2-0.6-0.4-0.9-0.5c-0.8-0.5-1.7-1-2.5-1.5c-0.3-0.2-0.6-0.4-0.8-0.5
			c-0.8-0.5-1.7-1.1-2.5-1.7c-0.2-0.1-0.4-0.3-0.6-0.4c-2.7-1.9-5.4-4-7.9-6.2c-0.2-0.2-0.5-0.4-0.7-0.6c-0.7-0.6-1.3-1.2-2-1.8
			c-0.3-0.2-0.5-0.5-0.8-0.7c0.3-0.5,0.6-1,0.8-1.6c0.3-0.6,0.6-1.1,0.9-1.7c0.4-0.7,0.7-1.4,1.1-2.2c0.3-0.6,0.5-1.1,0.8-1.7
			c0.3-0.7,0.6-1.5,0.9-2.2c0.2-0.6,0.5-1.1,0.7-1.7c0.3-0.8,0.6-1.5,0.8-2.3c0.2-0.6,0.4-1.1,0.6-1.7c0.3-0.8,0.5-1.6,0.7-2.4
			c0.2-0.5,0.3-1.1,0.5-1.6c0.2-0.8,0.4-1.7,0.6-2.6c0.1-0.5,0.3-1,0.4-1.5c0.2-1.1,0.4-2.2,0.6-3.4c0.1-0.5,0.1-0.9,0.2-1.4
			c0.2-1.2,0.3-2.3,0.4-3.5c0.1-0.5,0.1-1.1,0.1-1.6c0.1-0.8,0.1-1.7,0.2-2.5c0-0.6,0-1.2,0-1.8c0-0.8,0-1.6,0-2.3
			c0-0.6,0-1.3-0.1-1.9c0-0.8,0-1.5-0.1-2.3c0-0.6-0.1-1.3-0.2-1.9c-0.1-0.8-0.1-1.5-0.2-2.3c-0.1-0.6-0.2-1.3-0.3-1.9
			c-0.1-0.7-0.2-1.5-0.3-2.2c-0.1-0.6-0.2-1.3-0.4-1.9c-0.2-0.7-0.3-1.5-0.5-2.2c-0.1-0.6-0.3-1.3-0.5-1.9c-0.2-0.7-0.4-1.5-0.6-2.2
			c-0.2-0.6-0.4-1.3-0.6-1.9c-0.2-0.5-0.3-1-0.4-1.4c0.4-0.2,0.9-0.3,1.3-0.4c0.5-0.2,1.1-0.3,1.6-0.5c0.7-0.2,1.5-0.4,2.2-0.6
			c0.5-0.1,1-0.3,1.5-0.4c0.8-0.2,1.7-0.4,2.5-0.5c0.4-0.1,0.9-0.2,1.3-0.3c1-0.2,2-0.3,2.9-0.5c0.3,0,0.6-0.1,0.9-0.1
			c2.6-0.3,5.2-0.5,7.8-0.6c0.4,0,0.9,0,1.3,0c0.8,0,1.7,0,2.5,0c0.5,0,1.1,0.1,1.6,0.1c0.6,0,1.2,0.1,1.8,0.1
			c0,0.1,0.1,0.2,0.1,0.3c0.5,1.1,1,2.2,1.5,3.2c0.1,0.1,0.1,0.2,0.2,0.3c0.6,1.1,1.2,2.2,1.8,3.2c0.1,0.1,0.1,0.2,0.3,0.4
			c0.7,1.2,1.5,2.3,2.4,3.5c0,0.1,0.1,0.1,0.1,0.2c0.8,1,1.6,2,2.4,3c0.1,0.1,0.2,0.2,0.2,0.3c0,0,0,0,0.1,0c0,0,0,0,0,0l0.1,0.1
			c1,1.1,1.9,2.1,2.8,3l0.2,0.2c0.6,0.5,1.1,1,1.6,1.5c0,0,0,0,0,0c0.5,0.5,1.1,0.9,1.6,1.4l0.2,0.2c0.9,0.8,2,1.5,3,2.3
			c0.2,0.1,0.4,0.3,0.5,0.3c2.2,1.5,4.6,2.9,7.1,4.1l0.6,0.3c1,0.4,2.1,0.9,3.3,1.4l0.4,0.1c0,0,0,0,0,0l0,0
			c0.7,0.3,1.5,0.5,2.2,0.7l0,0l0,0c4,20.7-0.3,42-11.8,59.3c0,0-0.1,0.1-0.1,0.1c-0.7,1-1.4,2-2.1,3c-0.1,0.1-0.2,0.3-0.3,0.4
			c-4.9-0.5-9.8-1.5-14.6-2.8C342.2,246.1,342,246,341.7,245.9 M397.7,193.8c0.4,0.7,0.8,1.4,1.2,2.1c0.5,0.9,0.9,1.9,1.3,2.8
			c0.2,0.5,0.4,0.9,0.7,1.4c0.6,1.3,1.1,2.7,1.6,4c0,0.1,0.1,0.2,0.1,0.3c3.5,9.6,4.9,19.9,4.3,30c0,0.3,0,0.5,0,0.8
			c0,0.5-0.1,1.1-0.2,1.6c-0.1,0.9-0.2,1.9-0.3,2.8c-0.2,0.3-0.4,0.7-0.6,1c-0.1,0.1-0.2,0.2-0.2,0.4c-0.8,0.4-1.6,0.7-2.4,1
			c-0.4,0.1-0.7,0.3-1.1,0.5c-1.2,0.5-2.3,0.9-3.4,1.3c-1.6,0.6-3.2,1.1-4.8,1.6c-0.3,0.1-0.6,0.2-0.9,0.2c-1.4,0.4-2.7,0.8-4.1,1.1
			c-0.2,0-0.4,0.1-0.5,0.1c-1.5,0.4-3.1,0.7-4.6,1c0,0-0.1,0-0.1,0c-7.6,1.4-15.3,1.8-23,1.2l0.1-0.2h-0.1c0.2-0.3,0.4-0.6,0.6-0.9
			c0.1-0.2,0.3-0.4,0.4-0.6c0.7-1,1.4-2.1,2-3.1c0.1-0.2,0.2-0.3,0.3-0.5c0.7-1.2,1.4-2.3,2-3.5c0-0.1,0.1-0.1,0.1-0.2
			c7.6-14.2,10.8-30.4,9.3-46.6c0-0.2,0-0.3,0-0.5c-0.1-1.2-0.3-2.4-0.4-3.7c0-0.3-0.1-0.7-0.2-1c-0.1-0.5-0.1-0.9-0.2-1.4l0.1,0
			l0-0.1c0.3,0.1,0.7,0.1,1,0.2c0.3,0.1,0.5,0.1,0.8,0.2c1.1,0.2,2.2,0.5,3.3,0.6c0.2,0,0.5,0.1,0.7,0.1c1,0.1,2,0.2,2.9,0.3
			c0.3,0,0.5,0,0.7,0.1c1.1,0.1,2.2,0.1,3.3,0.1c0.1,0,0.2,0,0.4,0c0.2,0,0.4,0,0.5,0c0.9,0,1.9,0,2.8-0.1c0.2,0,0.4,0,0.5,0
			c0.9-0.1,1.8-0.1,2.6-0.3c0.2,0.3,0.3,0.5,0.5,0.8c0.6,1,1.3,1.9,1.8,2.9C397,192.6,397.4,193.2,397.7,193.8 M415.7,177.3
			c-0.6,0.4-1.1,0.7-1.7,1.1c-0.1,0.1-0.2,0.1-0.3,0.2c-0.8,0.5-1.6,0.9-2.4,1.4c-0.1,0.1-0.2,0.1-0.4,0.2c-0.8,0.4-1.7,0.8-2.5,1.2
			c-0.1,0.1-0.2,0.1-0.4,0.2c-1,0.4-1.9,0.8-2.9,1.2c-0.8,0.3-1.6,0.5-2.4,0.8c-0.3,0.1-0.5,0.2-0.8,0.2c-0.5,0.2-1.1,0.3-1.6,0.4
			c-0.3,0.1-0.7,0.2-1,0.2c-0.5,0.1-1,0.2-1.5,0.3c-0.3,0.1-0.7,0.1-1,0.2c-0.3,0.1-0.6,0.1-0.9,0.2c-6.4-9.2-17-19.2-31.4-25.7
			l-0.6-1l0.2,0.3c-3.5-6-7.4-10.8-12.5-15.9c-1.1-1.1-2.3-2.2-3.4-3.2c0,0-3.6-3-6.8-5.4c-2.8-2.1-4.1-2.8-4.1-2.8
			c0-0.4,0.1-0.9,0.1-1.3c0-0.4,0.1-0.8,0.1-1.1c0.1-0.7,0.2-1.3,0.3-2c0.1-0.3,0.1-0.7,0.2-1c0.1-0.8,0.3-1.6,0.5-2.4
			c0-0.2,0.1-0.4,0.1-0.5c0.5-2,1.1-3.9,1.8-5.8c0.1-0.1,0.1-0.3,0.2-0.4c0.3-0.8,0.6-1.6,1-2.4c0.1-0.2,0.2-0.4,0.3-0.6
			c0.3-0.7,0.7-1.4,1-2.1c0.1-0.2,0.3-0.5,0.4-0.7c0.2-0.5,0.5-0.9,0.8-1.4c18.3,3,34.8,11.5,47.9,24.7
			C403.8,145.9,412,160.9,415.7,177.3 M329.5,105.2c-51.1,0-91.3,41.7-91.3,91.1c0,49.6,40,91.5,91.3,91.5h0
			c47.9,0,91.2-38.3,91.2-91.5C420.7,152,385.3,105.2,329.5,105.2"/>
	</g>
</g>
</svg>
