<svg id="Capa_1" data-name="Capa 1" xmlns="http://www.w3.org/2000/svg" viewBox="0 0 283.46 283.46"><defs><style>.cls-1{fill:#7c7c7b;}</style></defs><title>LOGOS PORTAL (GRIS)</title><path class="cls-1" d="M43.21,210.69a3.65,3.65,0,0,1-.83,1,4,4,0,0,1-1.14.64,4.12,4.12,0,0,1-1.38.22A3.9,3.9,0,0,1,37,211.44a3.14,3.14,0,0,1-.6-.81,3.71,3.71,0,0,1-.31-.94,7.77,7.77,0,0,1-.11-1.17c0-.44,0-1,0-1.54s0-1.11,0-1.54a7.91,7.91,0,0,1,.11-1.18,3.71,3.71,0,0,1,.31-.94,2.94,2.94,0,0,1,.6-.8,3.8,3.8,0,0,1,1.28-.86,4.33,4.33,0,0,1,2.92-.07,3.79,3.79,0,0,1,1.14.65,3.52,3.52,0,0,1,.83,1,4.5,4.5,0,0,1,.48,1.38H42.48a3,3,0,0,0-.9-1.62,2.48,2.48,0,0,0-1.72-.61,2.92,2.92,0,0,0-1,.2,2.56,2.56,0,0,0-.86.58,2.18,2.18,0,0,0-.41.56,2.72,2.72,0,0,0-.24.73,8.37,8.37,0,0,0-.1,1c0,.4,0,.89,0,1.47s0,1.06,0,1.46a8.37,8.37,0,0,0,.1,1,2.61,2.61,0,0,0,.24.73,2.41,2.41,0,0,0,.41.57,2.69,2.69,0,0,0,.86.57,2.92,2.92,0,0,0,1,.2,2.59,2.59,0,0,0,1.74-.6,3,3,0,0,0,.91-1.63h1.18A4.57,4.57,0,0,1,43.21,210.69Z"/><path class="cls-1" d="M55.4,210.36a3.38,3.38,0,0,1-.8,1.19,3.59,3.59,0,0,1-1.23.76,4.22,4.22,0,0,1-1.54.27,4.3,4.3,0,0,1-1.54-.27,3.45,3.45,0,0,1-2-1.95,3.91,3.91,0,0,1-.29-1.51v-7.39h1.18v7.3a3.17,3.17,0,0,0,.19,1.14,2.4,2.4,0,0,0,.53.87,2.47,2.47,0,0,0,.84.56,3,3,0,0,0,1.1.2,3,3,0,0,0,1.1-.2,2.52,2.52,0,0,0,.85-.56,2.56,2.56,0,0,0,.54-.87,3.17,3.17,0,0,0,.19-1.14v-7.3h1.18v7.39A3.73,3.73,0,0,1,55.4,210.36Z"/><path class="cls-1" d="M67,212.49,66.13,210H61.31l-.88,2.49H59.18l4.06-11h1l4,11Zm-3.26-9.34L61.67,209h4.12Z"/><path class="cls-1" d="M78.94,212.49l-5.85-8.84v8.84H71.91v-11H73l5.85,8.82v-8.82h1.18v11Z"/><path class="cls-1" d="M92.75,208.06a8.66,8.66,0,0,1-.1,1.25,5.05,5.05,0,0,1-.32,1.17,3.09,3.09,0,0,1-.65,1,3.51,3.51,0,0,1-1.21.76,4.72,4.72,0,0,1-1.58.26H85.11v-11h3.78a4.48,4.48,0,0,1,1.58.27,3.34,3.34,0,0,1,1.21.75,3.2,3.2,0,0,1,.65,1,4.35,4.35,0,0,1,.32,1.08,7.36,7.36,0,0,1,.1,1.16c0,.4,0,.79,0,1.17S92.76,207.64,92.75,208.06Zm-1.18-2.22a5.86,5.86,0,0,0-.07-1,3.87,3.87,0,0,0-.21-.86,2.19,2.19,0,0,0-.44-.7,2.39,2.39,0,0,0-1-.63,3.76,3.76,0,0,0-1.19-.17h-2.4v8.92h2.4a3.76,3.76,0,0,0,1.19-.18,2.39,2.39,0,0,0,1-.63,2,2,0,0,0,.44-.73,4.7,4.7,0,0,0,.21-1,7,7,0,0,0,.07-1c0-.37,0-.72,0-1.06S91.58,206.17,91.57,205.84Z"/><path class="cls-1" d="M104.67,208.52a6.59,6.59,0,0,1-.12,1.17,3.7,3.7,0,0,1-.3.94,3.14,3.14,0,0,1-.6.81,3.86,3.86,0,0,1-2.82,1.14A3.85,3.85,0,0,1,98,211.44a3.14,3.14,0,0,1-.6-.81,4.15,4.15,0,0,1-.31-.94,7.77,7.77,0,0,1-.11-1.17c0-.44,0-1,0-1.54s0-1.11,0-1.54a7.91,7.91,0,0,1,.11-1.18,4.15,4.15,0,0,1,.31-.94,2.94,2.94,0,0,1,.6-.8,4,4,0,0,1,5.64,0,2.94,2.94,0,0,1,.6.8,3.7,3.7,0,0,1,.3.94,6.71,6.71,0,0,1,.12,1.18c0,.43,0,.95,0,1.54S104.68,208.08,104.67,208.52Zm-1.18-3a8.19,8.19,0,0,0-.1-1,2.64,2.64,0,0,0-.24-.72,2.41,2.41,0,0,0-.41-.57,2.51,2.51,0,0,0-.87-.58,2.65,2.65,0,0,0-1-.21,2.73,2.73,0,0,0-1,.21,2.56,2.56,0,0,0-.86.58,2.41,2.41,0,0,0-.41.57,2.64,2.64,0,0,0-.24.72,8.19,8.19,0,0,0-.1,1c0,.4,0,.89,0,1.47s0,1.06,0,1.46a8,8,0,0,0,.1,1,2.84,2.84,0,0,0,.24.73,2.18,2.18,0,0,0,.41.56,2.56,2.56,0,0,0,.86.58,2.73,2.73,0,0,0,1,.21,2.65,2.65,0,0,0,1-.21,2.51,2.51,0,0,0,.87-.58,2.18,2.18,0,0,0,.41-.56,2.84,2.84,0,0,0,.24-.73,8,8,0,0,0,.1-1c0-.4,0-.89,0-1.46S103.5,205.91,103.49,205.51Z"/><path class="cls-1" d="M122.07,212.49l-5.86-8.84v8.84H115v-11h1.11l5.86,8.82v-8.82h1.17v11Z"/><path class="cls-1" d="M135.51,208.52a7.77,7.77,0,0,1-.11,1.17,3.71,3.71,0,0,1-.31.94,3.14,3.14,0,0,1-.6.81,3.88,3.88,0,0,1-1.27.85,4,4,0,0,1-1.55.29,3.86,3.86,0,0,1-2.82-1.14,2.88,2.88,0,0,1-.59-.81,3.35,3.35,0,0,1-.31-.94,6.59,6.59,0,0,1-.12-1.17c0-.44,0-1,0-1.54s0-1.11,0-1.54a6.71,6.71,0,0,1,.12-1.18,3.35,3.35,0,0,1,.31-.94,2.71,2.71,0,0,1,.59-.8,4,4,0,0,1,5.64,0,2.94,2.94,0,0,1,.6.8,3.71,3.71,0,0,1,.31.94,7.91,7.91,0,0,1,.11,1.18c0,.43,0,.95,0,1.54S135.52,208.08,135.51,208.52Zm-1.18-3a8.19,8.19,0,0,0-.1-1,2.34,2.34,0,0,0-.24-.72,2.41,2.41,0,0,0-.41-.57,2.56,2.56,0,0,0-.86-.58,2.73,2.73,0,0,0-2.1,0,2.42,2.42,0,0,0-.85.58,2.2,2.2,0,0,0-.42.57,2.34,2.34,0,0,0-.23.72,6.48,6.48,0,0,0-.11,1c0,.4,0,.89,0,1.47s0,1.06,0,1.46a6.35,6.35,0,0,0,.11,1,2.5,2.5,0,0,0,.23.73,2,2,0,0,0,.42.56,2.42,2.42,0,0,0,.85.58,2.73,2.73,0,0,0,2.1,0,2.56,2.56,0,0,0,.86-.58,2.18,2.18,0,0,0,.41-.56,2.51,2.51,0,0,0,.24-.73,8,8,0,0,0,.1-1c0-.4,0-.89,0-1.46S134.34,205.91,134.33,205.51Z"/><path class="cls-1" d="M146.53,210.76a2.66,2.66,0,0,1-.77,1,3.74,3.74,0,0,1-1.21.62,5.45,5.45,0,0,1-1.56.21,5.86,5.86,0,0,1-2.12-.34,4.79,4.79,0,0,1-1.66-1.11l.81-.81a3.9,3.9,0,0,0,1.38,1,4.72,4.72,0,0,0,1.63.26,3.08,3.08,0,0,0,1.9-.53,1.79,1.79,0,0,0,.7-1.51,2.42,2.42,0,0,0-.13-.79,1.38,1.38,0,0,0-.4-.59,1.62,1.62,0,0,0-.55-.34,6.12,6.12,0,0,0-.89-.19l-1.29-.2a4,4,0,0,1-2-.84,2.6,2.6,0,0,1-.84-2.06,3.18,3.18,0,0,1,.25-1.28,2.75,2.75,0,0,1,.7-1,3.35,3.35,0,0,1,1.11-.63,4.45,4.45,0,0,1,1.47-.22,5.14,5.14,0,0,1,1.81.28,4.86,4.86,0,0,1,1.48.93l-.76.76a3.76,3.76,0,0,0-1.1-.71,4,4,0,0,0-1.48-.24,2.43,2.43,0,0,0-1.71.56,1.91,1.91,0,0,0-.61,1.49,1.61,1.61,0,0,0,.5,1.27,2.54,2.54,0,0,0,.66.37,4.53,4.53,0,0,0,.82.23l1.21.19c.26,0,.49.08.69.13a3.46,3.46,0,0,1,.54.16,2.74,2.74,0,0,1,.42.21,3.18,3.18,0,0,1,.37.27,2.71,2.71,0,0,1,.92,2.18A3,3,0,0,1,146.53,210.76Z"/><path class="cls-1" d="M161.31,210.58a3,3,0,0,1-.71,1.08,3.14,3.14,0,0,1-1.09.68,3.81,3.81,0,0,1-1.38.24,3.77,3.77,0,0,1-1.4-.24,3.28,3.28,0,0,1-1.13-.75l.79-.79a2.67,2.67,0,0,0,.68.52,2.19,2.19,0,0,0,1.06.21,2.12,2.12,0,0,0,1.67-.66,2.73,2.73,0,0,0,.59-1.88v-7.53h1.18v7.69A3.87,3.87,0,0,1,161.31,210.58Z"/><path class="cls-1" d="M173.72,210.36a3.4,3.4,0,0,1-.81,1.19,3.55,3.55,0,0,1-1.22.76,4.53,4.53,0,0,1-3.08,0,3.55,3.55,0,0,1-1.22-.76,3.67,3.67,0,0,1-.8-1.19,3.9,3.9,0,0,1-.28-1.51v-7.39h1.17v7.3a3.41,3.41,0,0,0,.19,1.14,2.4,2.4,0,0,0,.53.87,2.62,2.62,0,0,0,.85.56,3.13,3.13,0,0,0,2.2,0,2.47,2.47,0,0,0,.84-.56,2.29,2.29,0,0,0,.54-.87,3.17,3.17,0,0,0,.2-1.14v-7.3H174v7.39A3.91,3.91,0,0,1,173.72,210.36Z"/><path class="cls-1" d="M185.93,212.49l-5.85-8.84v8.84H178.9v-11H180l5.85,8.82v-8.82h1.18v11Z"/><path class="cls-1" d="M195.34,202.52v10h-1.18v-10H191v-1.06h7.56v1.06Z"/><path class="cls-1" d="M208,212.49l-.89-2.49h-4.81l-.89,2.49h-1.25l4.06-11h1l4,11Zm-3.27-9.34L202.6,209h4.12Z"/><path class="cls-1" d="M221.11,212.49v-8.38l-3,6.65h-1L214,204.11v8.38h-1.18v-11H214l3.59,7.82,3.5-7.82h1.18v11Z"/><path class="cls-1" d="M234.62,208.52a6.59,6.59,0,0,1-.12,1.17,3.35,3.35,0,0,1-.31.94,3.09,3.09,0,0,1-.59.81,3.86,3.86,0,0,1-2.82,1.14,3.83,3.83,0,0,1-2.82-1.14,3.14,3.14,0,0,1-.6-.81,3.71,3.71,0,0,1-.31-.94,7.77,7.77,0,0,1-.11-1.17c0-.44,0-1,0-1.54s0-1.11,0-1.54a7.91,7.91,0,0,1,.11-1.18,3.71,3.71,0,0,1,.31-.94,2.94,2.94,0,0,1,.6-.8,4,4,0,0,1,5.64,0,2.9,2.9,0,0,1,.59.8,3.35,3.35,0,0,1,.31.94,6.71,6.71,0,0,1,.12,1.18c0,.43,0,.95,0,1.54S234.63,208.08,234.62,208.52Zm-1.18-3a6.48,6.48,0,0,0-.11-1,2.65,2.65,0,0,0-.23-.72,2.2,2.2,0,0,0-.42-.57,2.38,2.38,0,0,0-.86-.58,2.65,2.65,0,0,0-1-.21,2.73,2.73,0,0,0-1.05.21,2.56,2.56,0,0,0-.86.58,2.79,2.79,0,0,0-.42.57,2.65,2.65,0,0,0-.23.72,8.19,8.19,0,0,0-.1,1c0,.4,0,.89,0,1.47s0,1.06,0,1.46a8,8,0,0,0,.1,1,2.85,2.85,0,0,0,.23.73,2.49,2.49,0,0,0,.42.56,2.56,2.56,0,0,0,.86.58,2.73,2.73,0,0,0,1.05.21,2.65,2.65,0,0,0,1-.21,2.38,2.38,0,0,0,.86-.58,2,2,0,0,0,.42-.56,2.85,2.85,0,0,0,.23-.73,6.35,6.35,0,0,0,.11-1c0-.4,0-.89,0-1.46S233.45,205.91,233.44,205.51Z"/><path class="cls-1" d="M245.64,210.76a2.77,2.77,0,0,1-.77,1,3.74,3.74,0,0,1-1.21.62,5.45,5.45,0,0,1-1.56.21,5.86,5.86,0,0,1-2.12-.34,4.79,4.79,0,0,1-1.66-1.11l.81-.81a3.9,3.9,0,0,0,1.38,1,4.66,4.66,0,0,0,1.62.26A3.12,3.12,0,0,0,244,211a1.81,1.81,0,0,0,.7-1.51,2.18,2.18,0,0,0-.14-.79,1.36,1.36,0,0,0-.39-.59,1.72,1.72,0,0,0-.55-.34,6.12,6.12,0,0,0-.89-.19l-1.29-.2a4,4,0,0,1-2-.84,2.62,2.62,0,0,1-.83-2.06,3.18,3.18,0,0,1,.25-1.28,2.63,2.63,0,0,1,.7-1,3.16,3.16,0,0,1,1.11-.63,4.45,4.45,0,0,1,1.47-.22,5.18,5.18,0,0,1,1.81.28,4.71,4.71,0,0,1,1.47.93l-.76.76a3.63,3.63,0,0,0-1.1-.71,3.9,3.9,0,0,0-1.47-.24,2.47,2.47,0,0,0-1.72.56,1.94,1.94,0,0,0-.6,1.49,1.61,1.61,0,0,0,.49,1.27,2.93,2.93,0,0,0,.66.37,4.63,4.63,0,0,0,.83.23l1.21.19c.26,0,.49.08.69.13a3,3,0,0,1,.53.16,2.46,2.46,0,0,1,.43.21,2.42,2.42,0,0,1,.36.27,2.72,2.72,0,0,1,.93,2.18A3,3,0,0,1,245.64,210.76Z"/><path class="cls-1" d="M69.21,229.78a.43.43,0,0,1,.15.29,1,1,0,0,1-.17.47c-.11.17-.32.44-.61.8l-1.14,1.27c-.51.55-1,1.08-1.63,1.6a15.21,15.21,0,0,1-1.71,1.32,2.14,2.14,0,0,1-1.41.44,4.35,4.35,0,0,1-1.63-.69,1.7,1.7,0,0,1-.71-1.51,2,2,0,0,1,.15-.68l.24-.63c-.16.16-.41.44-.75.83s-.7.78-1.09,1.17a9.74,9.74,0,0,1-1.16,1,1.75,1.75,0,0,1-.91.44,2.11,2.11,0,0,1-1.43-.66,2.47,2.47,0,0,1-.7-1.88s0-.27.13-.73a9.18,9.18,0,0,1,.6-1.82,17.4,17.4,0,0,1,1.47-2.61,16.87,16.87,0,0,1,2.67-3,12.18,12.18,0,0,1,2.63-2,4.65,4.65,0,0,1,2-.56,2.94,2.94,0,0,1,2.19,1,4.79,4.79,0,0,1,1.22,2.14,1.62,1.62,0,0,1,0,.9.92.92,0,0,1-.34.46.47.47,0,0,1-.39.1q-.16,0-.12-.24a2.07,2.07,0,0,0-.12-1.27c-.18-.49-.46-.73-.85-.73a3.43,3.43,0,0,0-1.15.24,4.38,4.38,0,0,0-1.39.93c-.42.39-1,.95-1.6,1.68s-1.29,1.48-1.9,2.26a22.8,22.8,0,0,0-1.58,2.22,3.53,3.53,0,0,0-.66,1.48c0,.17,0,.25.09.25a.7.7,0,0,0,.32-.15c.14-.1.43-.34.88-.73.22-.23.65-.64,1.27-1.24s1.27-1.24,1.92-1.9,1.22-1.27,1.73-1.83.73-.87.7-1a.45.45,0,0,1,.42-.63,2,2,0,0,1,1.19.17,1.85,1.85,0,0,1,1,.9c.21.42.09.94-.37,1.56-.13.19-.4.56-.82,1.09s-.84,1.1-1.25,1.68a15.5,15.5,0,0,0-1,1.58c-.24.47-.25.76,0,.86,0,0,0,0,0,0s0,.05,0,.05a2.36,2.36,0,0,0,1.11-.63,19.25,19.25,0,0,0,1.61-1.48l1.58-1.64c.51-.52.87-.87,1.1-1.07C69.05,229.7,69.12,229.72,69.21,229.78Z"/><path class="cls-1" d="M74.47,226.66q-1.26,2-2.36,3.68a24,24,0,0,0-1.58,2.8c-.1.23-.2.5-.32.8s-.1.48,0,.52.31,0,.65-.32.75-.63,1.22-1,.94-.87,1.41-1.34.87-.88,1.2-1.24l.14-.14a3.17,3.17,0,0,1,.44-.54c.2-.19.37-.23.54-.1s.21.21.14.44a3.15,3.15,0,0,1-.78,1.07,12.42,12.42,0,0,1-1,1.15c-.51.5-1,1-1.61,1.51a20.13,20.13,0,0,1-1.66,1.33,2.91,2.91,0,0,1-1.29.64,1.31,1.31,0,0,1-.65,0,5.43,5.43,0,0,1-.61-.17,1.06,1.06,0,0,1-.42-.34l-.17-.29V235a1.32,1.32,0,0,1-.24-.7c0-.31-.05-.55-.05-.71a4.42,4.42,0,0,1,.56-1.8c.37-.75.79-1.5,1.24-2.24l.49-.83a12.84,12.84,0,0,1,1-1.73c.37-.57.75-1.16,1.14-1.78,1.14-1.81,2.09-3.35,2.85-4.6a32.32,32.32,0,0,0,1.73-3.14,6.72,6.72,0,0,0,.49-1.29,4.25,4.25,0,0,0,.1-.7c0-.13.08-.22.26-.27a.94.94,0,0,1,.66.12,5.49,5.49,0,0,1,1.12,1,2,2,0,0,1,.44,1.73c-.07.26-.12.53-.17.82A4.07,4.07,0,0,1,78.9,220a4.25,4.25,0,0,1-.26.49c-.09.13-.18.29-.3.46s-.27.41-.48.69-.48.67-.81,1.19L75,225.89a4.56,4.56,0,0,0-.27.39Z"/><path class="cls-1" d="M89.13,229.78a.43.43,0,0,1,.15.29c0,.23-.2.65-.69,1.27-.22.29-.57.71-1,1.27s-1,1.08-1.51,1.6a12.9,12.9,0,0,1-1.59,1.32,2,2,0,0,1-1.36.44.56.56,0,0,0-.29-.05q-1.17,1.7-2.51,3.72a41.13,41.13,0,0,1-2.8,3.78,20,20,0,0,1-3,2.94,4.76,4.76,0,0,1-3,1.19,5,5,0,0,1-2.07-.39,4.15,4.15,0,0,1-1.39-1,4.44,4.44,0,0,1-.82-1.42,5.52,5.52,0,0,1-.34-1.68,8.48,8.48,0,0,1,.14-2.79,6.08,6.08,0,0,1,.8-1.88A3.44,3.44,0,0,1,69,237.33a2.77,2.77,0,0,1,1.29-.34,3.72,3.72,0,0,1,1.39.22c.38.14.58.31.61.51a.33.33,0,0,1-.15.29.47.47,0,0,1-.24.1.31.31,0,0,1-.19-.08.4.4,0,0,0-.2-.07.75.75,0,0,0-.41.24,4.35,4.35,0,0,0-.71,1.08,7,7,0,0,0-.75,1.46,7.85,7.85,0,0,0-.39,1.41,10.39,10.39,0,0,0-.15,1.24c0,.37,0,.66,0,.85a3.38,3.38,0,0,0,.22,1.1,2.12,2.12,0,0,0,.41.66,1.56,1.56,0,0,0,.54.43,3.64,3.64,0,0,0,2.24-1.29,28.2,28.2,0,0,0,2.7-3.14q1.38-1.84,2.7-4c.88-1.41,1.62-2.67,2.24-3.77l.68-1.8-.65.83c-.31.39-.66.78-1,1.17a12.51,12.51,0,0,1-1.09,1,1.62,1.62,0,0,1-.83.44,2.3,2.3,0,0,1-1.49-.66,2.68,2.68,0,0,1-.85-1.88s0-.27,0-.73a7.63,7.63,0,0,1,.44-1.82,14.92,14.92,0,0,1,1.24-2.61,14.72,14.72,0,0,1,2.46-3,11.2,11.2,0,0,1,2.48-2,4.36,4.36,0,0,1,2-.56,3.15,3.15,0,0,1,2.26,1,5.31,5.31,0,0,1,1.39,2.14,1.33,1.33,0,0,1,.07.9,1,1,0,0,1-.31.46.42.42,0,0,1-.37.1q-.16,0-.12-.24a1.5,1.5,0,0,0,0-.59,3.2,3.2,0,0,0-.22-.66,1.62,1.62,0,0,0-.39-.53.76.76,0,0,0-.54-.22,3.23,3.23,0,0,0-1.12.24,3.94,3.94,0,0,0-1.31.93c-.39.39-.89.95-1.49,1.68s-1.17,1.48-1.73,2.26a25,25,0,0,0-1.41,2.22,3,3,0,0,0-.53,1.48c.06.17.11.25.14.25a.7.7,0,0,0,.32-.15,8,8,0,0,0,.8-.73c.23-.23.64-.64,1.22-1.24s1.18-1.24,1.78-1.9,1.13-1.27,1.58-1.83.67-.87.63-1c-.13-.36,0-.57.37-.63a2,2,0,0,1,1.19.17,2.07,2.07,0,0,1,1,.9,1.48,1.48,0,0,1-.22,1.56l-.75,1.09c-.38.54-.74,1.1-1.1,1.68a14.2,14.2,0,0,0-.85,1.58c-.21.47-.21.76,0,.86,0,0,.05,0,.05,0s0,.05,0,.05a2.13,2.13,0,0,0,1.07-.63,17.24,17.24,0,0,0,1.49-1.48l1.46-1.64c.47-.52.8-.87,1-1.07C89,229.7,89,229.72,89.13,229.78Z"/><path class="cls-1" d="M96.29,234.48a9.4,9.4,0,0,1-1.68,1.1,5.72,5.72,0,0,1-1.51.51,7.57,7.57,0,0,1-1.24.12,4.93,4.93,0,0,1-1-.1l-.39-.1a.3.3,0,0,1-.19,0,3.33,3.33,0,0,1-1.27-.59,2.91,2.91,0,0,1-.75-.9,3.18,3.18,0,0,1-.34-1.07,5.08,5.08,0,0,1,0-1.1,5.88,5.88,0,0,1,.47-1.92c.24-.54.39-.88.46-1q.34-.59,1-1.65a16.15,16.15,0,0,1,1.72-2.17,12.75,12.75,0,0,1,2.29-1.92,5.76,5.76,0,0,1,2.78-.93,3.12,3.12,0,0,1,1.56.25,2.26,2.26,0,0,1,.82.61.57.57,0,0,1,.15.56c-.07.16-.21.2-.44.1a1.36,1.36,0,0,0-.85,0,1.74,1.74,0,0,0-.42.13c.1,0,0,0-.14.07a5.87,5.87,0,0,0-.93.59,11.67,11.67,0,0,0-1.53,1.44,22.75,22.75,0,0,0-2,2.64,25.44,25.44,0,0,0-1.66,2.83,6.75,6.75,0,0,0-.63,2c-.1.75.28,1.12,1.12,1.12a2.58,2.58,0,0,0,1.66-.88,13.64,13.64,0,0,0,1.72-2,17.83,17.83,0,0,0,1.34-2.13,3,3,0,0,0,.49-1.29,2.45,2.45,0,0,1-.9-.32.75.75,0,0,1-.36-.86,1.71,1.71,0,0,1,.38-1.12,1.89,1.89,0,0,1,.69-.47,1.56,1.56,0,0,1,.61-.1l.21,0a2.56,2.56,0,0,1,1.12.29,2.91,2.91,0,0,1,1,.93,10,10,0,0,1,1.53-.61,5.15,5.15,0,0,1,1.53-.27,2.73,2.73,0,0,1,1.17.19,1.46,1.46,0,0,1,.56.44,1.07,1.07,0,0,1,.17.64.55.55,0,0,1-.07.19.23.23,0,0,1-.22.15c-.1,0-.15,0-.17-.1s0-.15-.05-.24a.51.51,0,0,0-.1-.25.3.3,0,0,0-.26-.1,1.39,1.39,0,0,1-.34,0,.86.86,0,0,0-.39.07l-1,.34c-.44.17-1.13.41-2.07.73a1.52,1.52,0,0,0,0,.49,6.44,6.44,0,0,1-.39,1.46,9.71,9.71,0,0,1-.63,1.29c-.23.38-.51.79-.83,1.24A13.06,13.06,0,0,1,96.29,234.48Zm.34-6.84h.27a.5.5,0,0,0,.31-.1.57.57,0,0,0-.27-.46.76.76,0,0,0-.36-.12.41.41,0,0,0-.44.34C96.14,227.53,96.3,227.64,96.63,227.64Z"/><path class="cls-1" d="M122.42,229.73s0,.05,0,.05,0,0,0,.05c0,.2-.29.53-.87,1a8.92,8.92,0,0,1-3.15,1.29l-.68.78c-.23.26-.47.52-.73.78a11.92,11.92,0,0,1-1.41,1.36,7.35,7.35,0,0,1-1.46,1,3.66,3.66,0,0,1-1.66.41,1.47,1.47,0,0,1-1.19-.43,1.61,1.61,0,0,1-.37-1.08,2.76,2.76,0,0,1,1-2.07,5.22,5.22,0,0,1,2.9-1.14,21.7,21.7,0,0,0,2.68-4.16,7.51,7.51,0,0,0,.82-2.66c0-.35-.09-.53-.29-.53a1.63,1.63,0,0,0-.75.27,6.47,6.47,0,0,0-1,.68c-.34.27-.68.57-1,.87l-.9.81c-.81,1.1-1.47,2-2,2.85s-.91,1.47-1.22,2a12.19,12.19,0,0,0-.68,1.38c-.15.38-.29.71-.41,1,0,.1-.08.23-.13.39a5.44,5.44,0,0,1-.17.54c-.06.19-.12.38-.17.56a1.6,1.6,0,0,0-.07.36.26.26,0,0,1-.2.27c-.12,0-.3,0-.53-.17a3.58,3.58,0,0,1-.68-.63,2.32,2.32,0,0,1-.49-1,5.32,5.32,0,0,1-.1-1,4.42,4.42,0,0,1,.56-1.8c.38-.75.79-1.5,1.24-2.24.52-.91,1.15-1.95,1.88-3.12s1.45-2.34,2.17-3.51,1.36-2.26,1.94-3.28,1-1.85,1.32-2.46a6.72,6.72,0,0,0,.49-1.29,4.09,4.09,0,0,0,.09-.71q0-.19.27-.27a1,1,0,0,1,.66.13,5.36,5.36,0,0,1,1.1,1,2.09,2.09,0,0,1,.43,1.73,7.14,7.14,0,0,1-.86,2.29,46.66,46.66,0,0,1-2.67,4.24,9.19,9.19,0,0,1,1.27-.74,3.05,3.05,0,0,1,1.35-.33,1.83,1.83,0,0,1,1.51.78,3.42,3.42,0,0,1,.59,2.14,7.21,7.21,0,0,1-.38,2.19,10.75,10.75,0,0,1-1.29,2.63,4.28,4.28,0,0,0,.8-.32l.91-.44.78-.36a1.51,1.51,0,0,1,.43-.15A.44.44,0,0,1,122.42,229.73Zm-10.06,4.77c.51-.51,1-1.05,1.46-1.6a2.84,2.84,0,0,0-1.59,1,2.9,2.9,0,0,0-.36.68c0,.13,0,.2.09.2a.7.7,0,0,0,.25-.1A.36.36,0,0,0,112.36,234.5Z"/><path class="cls-1" d="M121.85,236.06a1.16,1.16,0,0,1-.54-.29,2,2,0,0,1-.41-.44,3.27,3.27,0,0,1-.27-.78,5.31,5.31,0,0,1-.09-1,3.18,3.18,0,0,1,.38-1.41,4.09,4.09,0,0,1,.39-.83l.1-.19h0v-.05l.73-1.32c.55-1,1-1.81,1.31-2.41s.58-1.07.76-1.41l.39-.73c.08-.15.15-.3.22-.46a7.25,7.25,0,0,0,.49-1.29,4.09,4.09,0,0,0,.09-.71q0-.2.27-.27a.94.94,0,0,1,.66.12,5.76,5.76,0,0,1,1.12,1,2.09,2.09,0,0,1,.44,1.73l-.2.78c-.26.52-.54,1-.85,1.56s-.6,1-.88,1.43-.53.82-.75,1.12a4.78,4.78,0,0,0-.44.66,13.55,13.55,0,0,1-1,1.41,7.49,7.49,0,0,0-.93,1.56l-.1.39c0,.13.15.2.34.2a1.92,1.92,0,0,0,1-.56c.44-.38.94-.86,1.51-1.46s1.18-1.29,1.83-2.07l2-2.39,1-1.46.29-.54a5.23,5.23,0,0,1,.22-.51l.31-.7a7.25,7.25,0,0,0,.49-1.29,3.45,3.45,0,0,0,.1-.71c0-.13.09-.22.26-.27a.94.94,0,0,1,.66.12,5.49,5.49,0,0,1,1.12,1,2.06,2.06,0,0,1,.44,1.73l-.19.78-.37.73a4.39,4.39,0,0,1-.41.68c-.07.16-.16.35-.27.56l-.42.8c-.74,1.21-1.34,2.16-1.8,2.88l-1,1.63a6.45,6.45,0,0,0-.47.78.94.94,0,0,0-.09.31c0,.07,0,.1,0,.1a1.91,1.91,0,0,0,.77-.46,16.49,16.49,0,0,0,1.27-1.12c.46-.44.92-.89,1.39-1.36l1.19-1.2c.07-.09.18-.23.34-.41a.68.68,0,0,1,.49-.27.09.09,0,0,1,.07,0l.07,0a.43.43,0,0,1,.15.29,1.1,1.1,0,0,1-.17.49,5.73,5.73,0,0,1-.61.78q-.43.48-1.26,1.29c-.56.53-1.12,1-1.71,1.56a16.25,16.25,0,0,1-1.7,1.29,2.76,2.76,0,0,1-1.27.53,2.09,2.09,0,0,1-1.31-.41,1.53,1.53,0,0,1-.54-1.29,4.46,4.46,0,0,1,.15-1.27,8.67,8.67,0,0,1,.68-1.46c-.36.42-.78.9-1.27,1.44s-1,1-1.51,1.51a11.25,11.25,0,0,1-1.51,1.17A1.69,1.69,0,0,1,121.85,236.06Z"/><path class="cls-1" d="M145.08,231.29c-.36.36-.86.81-1.49,1.36a22.8,22.8,0,0,1-2.05,1.61,14.27,14.27,0,0,1-2.24,1.32,5.08,5.08,0,0,1-2.11.53l-.2,0a.63.63,0,0,0-.19,0h-.05a3.28,3.28,0,0,1-2.36-1,2.82,2.82,0,0,1-.61-1.77,5.48,5.48,0,0,1,.41-2.32c.28-.56.56-1.12.85-1.68a15.58,15.58,0,0,1,1.27-1.87,20.49,20.49,0,0,1,2-2.24,13.85,13.85,0,0,1,2.33-1.87,4.23,4.23,0,0,1,2.24-.78,2.26,2.26,0,0,1,.83.19s0,0,.08,0l.31.19a2.5,2.5,0,0,1,.34.24c.1.09.16.13.2.13a2.49,2.49,0,0,1,.73,1.6,3,3,0,0,1-.9,2,13.18,13.18,0,0,1-2.17,1.9,24.45,24.45,0,0,1-2.58,1.61c-.88.47-1.61.84-2.19,1.09-.16.43-.29.77-.37,1a3,3,0,0,0-.12.87c0,.88.42,1.32,1.27,1.32a2.74,2.74,0,0,0,.7-.22,10.91,10.91,0,0,0,1.42-.71,20.18,20.18,0,0,0,1.94-1.29,20.69,20.69,0,0,0,2.32-2s.14-.11.34-.34a1.4,1.4,0,0,1,.58-.44.79.79,0,0,1,.24.05.23.23,0,0,1,.15.25,1.29,1.29,0,0,1-.22.51A3.16,3.16,0,0,1,145.08,231.29Zm-6.14-2.14a6.3,6.3,0,0,0-.41.66l-.37.65c1.17-.87,2.12-1.64,2.85-2.29a16,16,0,0,0,1.7-1.68,4.75,4.75,0,0,0,.81-1.16,2,2,0,0,0,.19-.71.81.81,0,0,0-.09-.29.32.32,0,0,1-.05-.15s-.06,0-.27.15a8.48,8.48,0,0,0-1,.73,15.72,15.72,0,0,0-1.51,1.53A22.73,22.73,0,0,0,138.94,229.15Z"/><path class="cls-1" d="M149,230c-.33.51-.58.93-.78,1.24l-.53.87c-.17.28-.32.57-.47.88s-.31.71-.51,1.19l-.39,1.17a.55.55,0,0,0-.14-.17s-.05,0-.05,0,.06.07.19.17a2.54,2.54,0,0,0-.14.68c0,.17-.1.25-.3.25s-.72-.26-1.09-.76a3.39,3.39,0,0,1-.61-2,4.88,4.88,0,0,1,.51-1.7c.34-.78.76-1.62,1.24-2.51s1-1.76,1.46-2.61.86-1.51,1.12-2a4.31,4.31,0,0,0,.44-1.05c.07-.28.12-.5.15-.68a2.3,2.3,0,0,1,.09-.39c0-.08.13-.12.3-.12a1.39,1.39,0,0,1,.61.19,3,3,0,0,1,.68.51,3.39,3.39,0,0,1,.56.78,2.14,2.14,0,0,1,.24,1,1.68,1.68,0,0,1-.22.51l-.46.9c-.16.33-.33.63-.49.9a3.79,3.79,0,0,0-.29.56c.26-.29.66-.73,1.22-1.31s1.14-1.17,1.77-1.75a19.78,19.78,0,0,1,1.9-1.56,3,3,0,0,1,1.64-.69,1.64,1.64,0,0,1,1.55.78,3.38,3.38,0,0,1,.44,1.66,4.91,4.91,0,0,1-.15,1.22v.05c0,.06-.09.23-.19.51a6,6,0,0,1-.49,1c-.48.82-1,1.61-1.43,2.39s-.9,1.47-1.27,2.07l-1.29,2.07c0,.1,0,.15.1.15a1.72,1.72,0,0,0,.73-.44c.35-.29.76-.64,1.22-1.05s.9-.83,1.36-1.29a16,16,0,0,0,1.12-1.22l.14-.14c.1-.13.22-.29.37-.47a.63.63,0,0,1,.46-.26c.2,0,.29.13.29.39s-.21.6-.73,1.21a14.11,14.11,0,0,1-1.26,1.32c-.55.52-1.13,1-1.73,1.53a15.76,15.76,0,0,1-1.73,1.29,2.67,2.67,0,0,1-1.26.54,2.13,2.13,0,0,1-1.27-.42,1.4,1.4,0,0,1-.58-1.24,2.61,2.61,0,0,1,.17-1,2.5,2.5,0,0,0,.17-.61c.26-.64.58-1.35,1-2.11s.78-1.47,1.17-2.12.92-1.48,1.41-2.19a5.79,5.79,0,0,0,.61-1,1.75,1.75,0,0,0,.17-.63c0-.29-.13-.44-.39-.44a.72.72,0,0,0-.34.1q-1.56,1.36-2.58,2.31c-.68.64-1.36,1.28-2,1.93A12.93,12.93,0,0,0,149,230Z"/><path class="cls-1" d="M166.5,234.48a9.4,9.4,0,0,1-1.68,1.1,5.72,5.72,0,0,1-1.51.51,7.57,7.57,0,0,1-1.24.12,4.93,4.93,0,0,1-1-.1l-.38-.1a.31.31,0,0,1-.2,0,3.21,3.21,0,0,1-1.26-.59,2.81,2.81,0,0,1-.76-.9,3.18,3.18,0,0,1-.34-1.07,4.51,4.51,0,0,1,0-1.1,5.64,5.64,0,0,1,.46-1.92c.24-.54.4-.88.46-1q.34-.59,1.05-1.65a15.49,15.49,0,0,1,1.73-2.17,12.35,12.35,0,0,1,2.28-1.92,5.76,5.76,0,0,1,2.78-.93,3.12,3.12,0,0,1,1.56.25,2.41,2.41,0,0,1,.83.61.56.56,0,0,1,.14.56c-.06.16-.21.2-.44.1a1.36,1.36,0,0,0-.85,0c-.31.08-.45.13-.41.13s.05,0-.15.07a5.48,5.48,0,0,0-.92.59,11.05,11.05,0,0,0-1.54,1.44,22.75,22.75,0,0,0-2,2.64,23.65,23.65,0,0,0-1.65,2.83,6.52,6.52,0,0,0-.64,2c-.09.75.28,1.12,1.12,1.12a2.58,2.58,0,0,0,1.66-.88,14.32,14.32,0,0,0,1.73-2,20.81,20.81,0,0,0,1.34-2.13,2.91,2.91,0,0,0,.48-1.29,2.45,2.45,0,0,1-.9-.32.75.75,0,0,1-.36-.86,1.66,1.66,0,0,1,.39-1.12,1.78,1.78,0,0,1,.68-.47,1.58,1.58,0,0,1,.61-.1l.22,0a2.59,2.59,0,0,1,1.12.29,2.8,2.8,0,0,1,1,.93,10,10,0,0,1,1.53-.61,5.15,5.15,0,0,1,1.54-.27,2.68,2.68,0,0,1,1.16.19,1.46,1.46,0,0,1,.56.44,1.08,1.08,0,0,1,.18.64.68.68,0,0,1-.08.19.23.23,0,0,1-.22.15.16.16,0,0,1-.17-.1c0-.07,0-.15-.05-.24a.5.5,0,0,0-.09-.25.34.34,0,0,0-.27-.1,1.43,1.43,0,0,1-.34,0,.86.86,0,0,0-.39.07l-.95.34c-.44.17-1.13.41-2.07.73a1.87,1.87,0,0,0,0,.49,5.55,5.55,0,0,1-.39,1.46,7.75,7.75,0,0,1-.63,1.29c-.23.38-.51.79-.83,1.24A13.06,13.06,0,0,1,166.5,234.48Zm.34-6.84h.27a.5.5,0,0,0,.31-.1.59.59,0,0,0-.26-.46.83.83,0,0,0-.37-.12.42.42,0,0,0-.44.34C166.35,227.53,166.51,227.64,166.84,227.64Z"/><path class="cls-1" d="M175.75,241.91a3.93,3.93,0,0,0-.17.78,5.9,5.9,0,0,0-.07.77.28.28,0,0,1-.2.27c-.13.05-.31,0-.53-.17a3.94,3.94,0,0,1-.69-.63,2.31,2.31,0,0,1-.48-1,4.57,4.57,0,0,1-.1-1,4.42,4.42,0,0,1,.56-1.8c.37-.75.79-1.49,1.24-2.24s1-1.65,1.58-2.61l1.83-2.92c.62-1,1.21-2,1.78-2.92s1-1.81,1.43-2.55l.54-1.08.27-.61c.08-.17.15-.33.22-.46a5.31,5.31,0,0,0,.19-.73,3.38,3.38,0,0,0,0-.49c0-.12.09-.21.27-.26a.91.91,0,0,1,.65.12,4.74,4.74,0,0,1,.54.39,3.59,3.59,0,0,1,.54.56,2.8,2.8,0,0,1,.39.7,2.1,2.1,0,0,1,.09.88s0,.1-.17.39-.31.61-.51,1-.36.66-.51.95-.2.42-.17.39a30.92,30.92,0,0,1,3.8-4.16c1-.83,1.83-1,2.58-.61a2.31,2.31,0,0,1,.9,1,3.54,3.54,0,0,1,.36,1.66,7.47,7.47,0,0,1-.39,2.21,10,10,0,0,1-1.31,2.61,8,8,0,0,0,1.36-.44c.2-.07.38-.13.54-.2l.44-.17.29-.12c.39-.13.62-.14.71,0s0,.26-.3.47a8,8,0,0,1-1.36.77,15.78,15.78,0,0,1-2.51.91c-.23.26-.45.52-.68.8s-.47.54-.73.8a8.4,8.4,0,0,1-1.46,1.41,8.57,8.57,0,0,1-1.51.95,2.92,2.92,0,0,1-1.7.32,1.3,1.3,0,0,1-1.2-.66,1.85,1.85,0,0,1-.12-1.36,3.56,3.56,0,0,1,.83-1.46,3.47,3.47,0,0,1,1.75-1l1.22-.24a27,27,0,0,0,1.95-2.85,18.1,18.1,0,0,0,1.17-2.34,4.82,4.82,0,0,0,.38-1.58c0-.39-.09-.59-.29-.59a1.61,1.61,0,0,0-.78.47,14.74,14.74,0,0,0-1.19,1.19c-.44.49-.91,1-1.41,1.63s-1,1.18-1.39,1.73l-1.12,1.48c-.32.44-.53.74-.63.91a34.2,34.2,0,0,1-1.9,2.87q-1.17,1.6-2.53,3.8A44.25,44.25,0,0,0,175.75,241.91Zm7.6-8c.51-.52,1-1,1.46-1.61a2.84,2.84,0,0,0-1.59,1,2.71,2.71,0,0,0-.36.68c0,.16.08.21.24.14A.86.86,0,0,0,183.35,233.92Z"/><path class="cls-1" d="M206.23,229.78a.43.43,0,0,1,.15.29,1,1,0,0,1-.17.47c-.12.17-.32.44-.61.8l-1.15,1.27a20.6,20.6,0,0,1-1.63,1.6,14.3,14.3,0,0,1-1.7,1.32,2.14,2.14,0,0,1-1.41.44,4.39,4.39,0,0,1-1.64-.69,1.69,1.69,0,0,1-.7-1.51,2.17,2.17,0,0,1,.14-.68c.1-.26.18-.47.25-.63-.16.16-.41.44-.75.83s-.7.78-1.09,1.17a10.59,10.59,0,0,1-1.16,1,1.77,1.77,0,0,1-.92.44,2.09,2.09,0,0,1-1.42-.66,2.44,2.44,0,0,1-.7-1.88s0-.27.12-.73a9.34,9.34,0,0,1,.61-1.82,17.25,17.25,0,0,1,1.46-2.61,17,17,0,0,1,2.68-3,12.18,12.18,0,0,1,2.63-2,4.57,4.57,0,0,1,2-.56,2.94,2.94,0,0,1,2.2,1,4.77,4.77,0,0,1,1.21,2.14,1.55,1.55,0,0,1,0,.9,1,1,0,0,1-.34.46.48.48,0,0,1-.39.1q-.18,0-.12-.24a2.16,2.16,0,0,0-.13-1.27c-.17-.49-.46-.73-.85-.73a3.42,3.42,0,0,0-1.14.24,4.38,4.38,0,0,0-1.39.93c-.42.39-1,.95-1.61,1.68s-1.28,1.48-1.9,2.26a26.83,26.83,0,0,0-1.58,2.22,3.53,3.53,0,0,0-.66,1.48c0,.17,0,.25.1.25a.68.68,0,0,0,.31-.15c.14-.1.44-.34.89-.73.22-.23.64-.64,1.27-1.24s1.26-1.24,1.91-1.9,1.23-1.27,1.73-1.83.74-.87.71-1a.44.44,0,0,1,.41-.63,2.08,2.08,0,0,1,1.2.17,1.89,1.89,0,0,1,1,.9c.21.42.08.94-.37,1.56-.13.19-.41.56-.83,1.09s-.83,1.1-1.24,1.68a13.89,13.89,0,0,0-1,1.58c-.25.47-.25.76,0,.86,0,0,0,0,0,0s0,.05,0,.05a2.33,2.33,0,0,0,1.12-.63,19.25,19.25,0,0,0,1.61-1.48l1.58-1.64c.5-.52.87-.87,1.1-1.07C206.07,229.7,206.13,229.72,206.23,229.78Z"/><path class="cls-1" d="M207.74,229.88c0-.16.11-.63.22-1.41a22.37,22.37,0,0,1,.85-3.31,5.12,5.12,0,0,1,.71-1.51,4.14,4.14,0,0,1,1-1.08,2.64,2.64,0,0,1,1.25-.43,2.15,2.15,0,0,1,1.34.39,5.59,5.59,0,0,1,1.38,1.07,4.12,4.12,0,0,1,.71.83.65.65,0,0,1,.07.34.62.62,0,0,0,0,.19.58.58,0,0,1-.29.27.26.26,0,0,1-.3,0,.5.5,0,0,1-.12-.19,1.07,1.07,0,0,0-.07-.19,1.22,1.22,0,0,0-1.58-.35,2,2,0,0,0-.61.49,1.15,1.15,0,0,0-.29.54c-.36,1.13-.62,2-.78,2.65a6.42,6.42,0,0,0-.25,1.19v.25a15.35,15.35,0,0,0,2-.3l1.73-.39.1,0,.12,0,.17,0c.26,0,.39.11.39.34s-.38.65-1.14.88a33.93,33.93,0,0,1-3.48.73c-.13.52-.28,1-.44,1.5s-.35.86-.56,1.3a3.85,3.85,0,0,1-.76,1.09l-.24.2a4.46,4.46,0,0,1-1.32.87,3.9,3.9,0,0,1-1.6.34,2,2,0,0,1-1.44-.46,1.55,1.55,0,0,1-.46-1.14,3.65,3.65,0,0,1,.22-1.12A5.68,5.68,0,0,1,205,232a7.22,7.22,0,0,1,1-1.24,3,3,0,0,1,1.31-.75.94.94,0,0,0,.39-.1v.05Zm-.39,1.36a2.31,2.31,0,0,0-1,.66,5.77,5.77,0,0,0-.68.95,4.59,4.59,0,0,0-.39.88,3.64,3.64,0,0,0-.12.43c0,.1,0,.15.1.15a.91.91,0,0,0,.44-.24,4,4,0,0,0,.6-.69,6.68,6.68,0,0,0,.61-1A5.23,5.23,0,0,0,207.35,231.24Z"/><path class="cls-1" d="M227.85,229.78a.43.43,0,0,1,.15.29,1,1,0,0,1-.17.47c-.12.17-.32.44-.61.8l-1.15,1.27a20.6,20.6,0,0,1-1.63,1.6,14.3,14.3,0,0,1-1.7,1.32,2.17,2.17,0,0,1-1.41.44,4.39,4.39,0,0,1-1.64-.69,1.69,1.69,0,0,1-.7-1.51,2.17,2.17,0,0,1,.14-.68c.1-.26.18-.47.25-.63-.17.16-.42.44-.75.83s-.7.78-1.09,1.17a10.59,10.59,0,0,1-1.16,1,1.77,1.77,0,0,1-.92.44,2.09,2.09,0,0,1-1.42-.66,2.44,2.44,0,0,1-.7-1.88s0-.27.12-.73a9.34,9.34,0,0,1,.61-1.82,16.41,16.41,0,0,1,1.46-2.61,17,17,0,0,1,2.68-3,11.94,11.94,0,0,1,2.63-2,4.57,4.57,0,0,1,2-.56,2.94,2.94,0,0,1,2.2,1,4.77,4.77,0,0,1,1.21,2.14,1.55,1.55,0,0,1,0,.9,1,1,0,0,1-.34.46.48.48,0,0,1-.39.1c-.12,0-.16-.11-.13-.24a2.07,2.07,0,0,0-.12-1.27c-.17-.49-.46-.73-.85-.73a3.42,3.42,0,0,0-1.14.24,4.38,4.38,0,0,0-1.39.93c-.42.39-1,.95-1.61,1.68s-1.28,1.48-1.9,2.26a26.83,26.83,0,0,0-1.58,2.22,3.53,3.53,0,0,0-.66,1.48c0,.17,0,.25.1.25a.68.68,0,0,0,.31-.15c.14-.1.44-.34.89-.73.22-.23.64-.64,1.27-1.24s1.26-1.24,1.91-1.9,1.23-1.27,1.73-1.83.74-.87.71-1a.44.44,0,0,1,.41-.63,2.08,2.08,0,0,1,1.2.17,1.83,1.83,0,0,1,.94.9c.22.42.09.94-.36,1.56-.13.19-.41.56-.83,1.09s-.83,1.1-1.24,1.68a13.89,13.89,0,0,0-1,1.58c-.25.47-.26.76,0,.86,0,0,0,0,0,0s0,.05,0,.05a2.33,2.33,0,0,0,1.12-.63,21,21,0,0,0,1.61-1.48l1.58-1.64c.5-.52.87-.87,1.1-1.07C227.69,229.7,227.75,229.72,227.85,229.78Z"/><path class="cls-1" d="M242.13,114.69H235.7v39.5h30.74v-5.9H242.13Zm-27,59.42c0-4.48,4.35-7.79,9.19-7.79,5.07,0,9.22,3.51,9.22,7.72s-4.26,7.67-9.22,7.67-9.19-3.48-9.19-7.6m-2.14,0c0,5.07,5.24,9.24,11.33,9.24s11.36-4,11.36-9.33-5.33-9.33-11.36-9.33c-5.71,0-11.33,3.75-11.33,9.42M199.89,165h-12v1.64h4.93V183H195V166.64h4.89Zm5.61-50.31-19.57,39.5h7.2l15.16-30.93,15.56,30.93h7.34l-19.41-39.5ZM176,154.19V120.48h15v-5.79h-36.4v5.79h15v33.71Zm-21.6,19.92c0-4.48,4.35-7.79,9.19-7.79,5.07,0,9.22,3.51,9.22,7.72s-4.27,7.67-9.22,7.67-9.19-3.48-9.19-7.6m-2.15,0c0,5.07,5.25,9.24,11.34,9.24s11.36-4,11.36-9.33-5.33-9.33-11.36-9.33c-5.71,0-11.34,3.75-11.34,9.42M130.51,165h-2.15v18h11V181.4h-8.87Zm-14.15-31.83V120.53H136c2.25,0,4.59.1,6.05,2.53a7,7,0,0,1,1,3.73,6,6,0,0,1-1.13,3.7c-1.93,2.67-5.48,2.67-8.07,2.67Zm.06,21V138.9h16.8l12.42,15.29h8.41l-13.67-16.36c3.14-.65,9.33-2.67,9.33-11.25a11.22,11.22,0,0,0-3.47-8.63c-3.33-3.14-7.39-3.2-10.7-3.26H110v39.5ZM105.52,165h-2.14v18h11V181.4h-8.87Zm-17.88,0H75.9v18H87.64V181.4H78v-6.65h9.28v-1.63H78v-6.48h9.6ZM65.43,134.6c0-10.68,8.14-14.72,15.76-14.93h.68c10,0,16.45,5.8,16.45,14.78,0,3.48-1.17,14.83-16.21,14.83-6.14,0-10.71-1.79-13.61-5.31a14.7,14.7,0,0,1-3.07-9.36m-6.43.33c0,8.57,4.18,13.4,7.68,15.94,3.89,2.89,9.08,4.35,15.43,4.35,11.3,0,22.69-6.26,22.69-20.24,0-12.63-9.26-21.15-23-21.21-11.33,0-22.75,6.54-22.75,21.16m-6.2,31.71c2.2,0,3.51.31,4.35,1.12a2.67,2.67,0,0,1,.9,2,2.87,2.87,0,0,1-1.74,2.53,8.79,8.79,0,0,1-3.68.51h-2.7v-6.13Zm-2.87,7.77h2.64a12.1,12.1,0,0,1,4.17.41,3.41,3.41,0,0,1,2.52,3.05A3.32,3.32,0,0,1,57,180.94a12.05,12.05,0,0,1-4.06.46h-3ZM53.18,165H47.79v18H53.7A10.6,10.6,0,0,0,59,182a4.63,4.63,0,0,0-1.11-8.6,4.31,4.31,0,0,0,2.35-3.63c0-.73-.26-4.8-7-4.8m-16.92,0H16.94v18H36.26Zm2.9-44.52c2.56,0,5.76,0,7.71,2a5.84,5.84,0,0,1,1.54,4.23,6,6,0,0,1-2.49,5.08c-1.76,1.24-4.22,1.24-6.19,1.24H23.41V120.48Zm.78-5.79h-23v39.5h6.53V138.9h17c3.53,0,9.43,0,12.82-4.93a12.67,12.67,0,0,0,2-7,12.18,12.18,0,0,0-3.79-9c-2.68-2.38-6-3.35-11.57-3.35M215.21,69.31a8.48,8.48,0,1,1-8.47-8.78,8.64,8.64,0,0,1,8.47,8.78m5.88,33.37h45.43V91h-.13v-.36H228.45a99.4,99.4,0,0,0-7.88-13.38,16.47,16.47,0,0,0,2-7.93c0-9-7.08-16.36-15.78-16.36A15,15,0,0,0,199,55.14a93.83,93.83,0,0,0-56.89-19.23c-36.36,0-69.79,21.69-86.27,55H17v11.69H63.17v-.34h0l.21-.52c13.44-32.81,44.31-54,78.65-54a82.7,82.7,0,0,1,49.75,16.6,16.56,16.56,0,0,0-.81,5.15c0,9,7,16.25,15.67,16.25a15.7,15.7,0,0,0,4.9-.83,90.34,90.34,0,0,1,9.23,16.88l.21.52h.1ZM266.54,165H247.22v18h19.32Z"/></svg>