<svg xmlns="http://www.w3.org/2000/svg" viewBox="0 0 283.46 283.46"><defs><style>.cls-1{fill:#7c7c7b;}.cls-2{fill:#fff;}</style></defs><title>LOGOS PORTAL (BLANCO)</title><g id="Capa_2" data-name="Capa 2"><rect class="cls-1" width="283.46" height="283.46"/></g><g id="Capa_1" data-name="Capa 1"><path class="cls-2" d="M43.21,210.53a3.52,3.52,0,0,1-.83,1,3.79,3.79,0,0,1-1.14.65,4.08,4.08,0,0,1-1.38.22,4.14,4.14,0,0,1-1.54-.29,3.8,3.8,0,0,1-1.28-.86,2.94,2.94,0,0,1-.6-.8,4.15,4.15,0,0,1-.31-.94,7.9,7.9,0,0,1-.11-1.17c0-.44,0-1,0-1.55s0-1.1,0-1.54a7.77,7.77,0,0,1,.11-1.17,4.15,4.15,0,0,1,.31-.94,3.14,3.14,0,0,1,.6-.81,3.9,3.9,0,0,1,2.82-1.14,4.08,4.08,0,0,1,1.38.22,4,4,0,0,1,1.14.64,3.65,3.65,0,0,1,.83,1,4.57,4.57,0,0,1,.48,1.39H42.48a3,3,0,0,0-.9-1.63,2.52,2.52,0,0,0-1.72-.6,2.92,2.92,0,0,0-1,.2A2.69,2.69,0,0,0,38,203a2.41,2.41,0,0,0-.41.57,2.61,2.61,0,0,0-.24.73,8.37,8.37,0,0,0-.1,1c0,.4,0,.89,0,1.46s0,1.07,0,1.47a8.37,8.37,0,0,0,.1,1,2.72,2.72,0,0,0,.24.73,2.18,2.18,0,0,0,.41.56,2.56,2.56,0,0,0,.86.58,2.92,2.92,0,0,0,1,.2,2.55,2.55,0,0,0,1.74-.61,2.9,2.9,0,0,0,.91-1.62h1.18A4.5,4.5,0,0,1,43.21,210.53Z"/><path class="cls-2" d="M55.41,210.21a3.5,3.5,0,0,1-.81,1.18,3.67,3.67,0,0,1-1.22.77,4.56,4.56,0,0,1-3.09,0,3.53,3.53,0,0,1-1.21-.77,3.47,3.47,0,0,1-.8-1.18A3.91,3.91,0,0,1,48,208.7v-7.39h1.18v7.3a3.17,3.17,0,0,0,.19,1.14,2.4,2.4,0,0,0,.53.87,2.47,2.47,0,0,0,.84.56,3,3,0,0,0,1.1.2,3,3,0,0,0,1.1-.2,2.52,2.52,0,0,0,.85-.56,2.56,2.56,0,0,0,.54-.87,3.17,3.17,0,0,0,.19-1.14v-7.3h1.18v7.39A3.9,3.9,0,0,1,55.41,210.21Z"/><path class="cls-2" d="M67,212.34l-.88-2.5H61.31l-.88,2.5H59.18l4.06-11h1l4,11ZM63.75,203l-2.08,5.82h4.12Z"/><path class="cls-2" d="M78.94,212.34l-5.85-8.85v8.85H71.91v-11H73l5.85,8.81v-8.81h1.18v11Z"/><path class="cls-2" d="M92.75,207.91a8.66,8.66,0,0,1-.1,1.25,5.34,5.34,0,0,1-.32,1.17,3.09,3.09,0,0,1-.65,1,3.51,3.51,0,0,1-1.21.76,4.67,4.67,0,0,1-1.58.26H85.11v-11h3.78a4.67,4.67,0,0,1,1.58.26,3.51,3.51,0,0,1,1.21.76,3.28,3.28,0,0,1,.65.95,4.56,4.56,0,0,1,.32,1.09,7.36,7.36,0,0,1,.1,1.16c0,.4,0,.79,0,1.17S92.76,207.49,92.75,207.91Zm-1.18-2.22a5.86,5.86,0,0,0-.07-1,3.73,3.73,0,0,0-.21-.86,2.09,2.09,0,0,0-.44-.7,2.33,2.33,0,0,0-1-.63,3.76,3.76,0,0,0-1.19-.18H86.28v8.92h2.41a3.76,3.76,0,0,0,1.19-.17,2.33,2.33,0,0,0,1-.63,2.08,2.08,0,0,0,.44-.74,4.61,4.61,0,0,0,.21-.94,7.12,7.12,0,0,0,.07-1.05c0-.36,0-.71,0-1.05S91.58,206,91.57,205.69Z"/><path class="cls-2" d="M104.67,208.37a7.9,7.9,0,0,1-.11,1.17,4.15,4.15,0,0,1-.31.94,2.94,2.94,0,0,1-.6.8,3.86,3.86,0,0,1-1.27.86,4.15,4.15,0,0,1-1.55.29A3.82,3.82,0,0,1,98,211.28a2.94,2.94,0,0,1-.6-.8,4.15,4.15,0,0,1-.31-.94,7.9,7.9,0,0,1-.11-1.17c0-.44,0-1,0-1.55s0-1.1,0-1.54a7.77,7.77,0,0,1,.11-1.17,4.15,4.15,0,0,1,.31-.94,3.14,3.14,0,0,1,.6-.81,4.06,4.06,0,0,1,5.64,0,3.14,3.14,0,0,1,.6.81,4.15,4.15,0,0,1,.31.94,7.77,7.77,0,0,1,.11,1.17c0,.44,0,1,0,1.54S104.68,207.93,104.67,208.37Zm-1.18-3a8,8,0,0,0-.1-1,2.84,2.84,0,0,0-.24-.73,2.36,2.36,0,0,0-.41-.56,2.56,2.56,0,0,0-.86-.58,2.73,2.73,0,0,0-2.1,0,2.56,2.56,0,0,0-.86.58,2.36,2.36,0,0,0-.41.56,2.84,2.84,0,0,0-.24.73,8,8,0,0,0-.1,1c0,.4,0,.89,0,1.46s0,1.07,0,1.47a8.19,8.19,0,0,0,.1,1,2.64,2.64,0,0,0,.24.72,2.41,2.41,0,0,0,.41.57,2.56,2.56,0,0,0,.86.58,2.73,2.73,0,0,0,2.1,0,2.56,2.56,0,0,0,.86-.58,2.41,2.41,0,0,0,.41-.57,2.64,2.64,0,0,0,.24-.72,8.19,8.19,0,0,0,.1-1c0-.4,0-.89,0-1.47S103.5,205.76,103.49,205.36Z"/><path class="cls-2" d="M122.07,212.34l-5.86-8.85v8.85H115v-11h1.12l5.86,8.81v-8.81h1.17v11Z"/><path class="cls-2" d="M135.51,208.37a7.9,7.9,0,0,1-.11,1.17,3.71,3.71,0,0,1-.31.94,2.94,2.94,0,0,1-.6.8,3.76,3.76,0,0,1-1.27.86,4.15,4.15,0,0,1-1.55.29,3.83,3.83,0,0,1-2.82-1.15,2.9,2.9,0,0,1-.59-.8,3.35,3.35,0,0,1-.31-.94,6.69,6.69,0,0,1-.12-1.17c0-.44,0-1,0-1.55s0-1.1,0-1.54a6.59,6.59,0,0,1,.12-1.17,3.35,3.35,0,0,1,.31-.94,3.09,3.09,0,0,1,.59-.81,4.06,4.06,0,0,1,5.64,0,3.14,3.14,0,0,1,.6.81,3.71,3.71,0,0,1,.31.94,7.77,7.77,0,0,1,.11,1.17c0,.44,0,1,0,1.54S135.52,207.93,135.51,208.37Zm-1.18-3a8,8,0,0,0-.1-1,2.51,2.51,0,0,0-.24-.73,2.36,2.36,0,0,0-.41-.56,2.56,2.56,0,0,0-.86-.58,2.73,2.73,0,0,0-1.05-.21,2.65,2.65,0,0,0-1,.21,2.38,2.38,0,0,0-.86.58,2.16,2.16,0,0,0-.42.56,2.5,2.5,0,0,0-.23.73,6.35,6.35,0,0,0-.11,1c0,.4,0,.89,0,1.46s0,1.07,0,1.47a6.48,6.48,0,0,0,.11,1,2.34,2.34,0,0,0,.23.72,2.2,2.2,0,0,0,.42.57,2.38,2.38,0,0,0,.86.58,2.65,2.65,0,0,0,1,.21,2.73,2.73,0,0,0,1.05-.21,2.56,2.56,0,0,0,.86-.58A2.41,2.41,0,0,0,134,210a2.34,2.34,0,0,0,.24-.72,8.19,8.19,0,0,0,.1-1c0-.4,0-.89,0-1.47S134.34,205.76,134.33,205.36Z"/><path class="cls-2" d="M146.53,210.61a2.66,2.66,0,0,1-.77,1,3.72,3.72,0,0,1-1.21.61,5.11,5.11,0,0,1-1.56.22,5.86,5.86,0,0,1-2.12-.34,4.94,4.94,0,0,1-1.66-1.11l.81-.81a4.13,4.13,0,0,0,1.38,1,4.72,4.72,0,0,0,1.63.26,3,3,0,0,0,1.9-.54,1.77,1.77,0,0,0,.7-1.51,2.47,2.47,0,0,0-.13-.79,1.51,1.51,0,0,0-.4-.59,1.75,1.75,0,0,0-.55-.33,5,5,0,0,0-.89-.19l-1.29-.2a4.09,4.09,0,0,1-2-.84,2.61,2.61,0,0,1-.84-2.06,3.18,3.18,0,0,1,.25-1.28,2.67,2.67,0,0,1,.7-1,3.35,3.35,0,0,1,1.11-.63,4.45,4.45,0,0,1,1.47-.22,5.14,5.14,0,0,1,1.81.28,4.67,4.67,0,0,1,1.47.92l-.75.76a3.72,3.72,0,0,0-1.1-.7,4,4,0,0,0-1.48-.24,2.38,2.38,0,0,0-1.71.56,1.89,1.89,0,0,0-.61,1.48,1.6,1.6,0,0,0,.5,1.27,2.37,2.37,0,0,0,.65.38,4.87,4.87,0,0,0,.83.23l1.21.18.69.14a3.46,3.46,0,0,1,.54.16,2.74,2.74,0,0,1,.42.21,2.33,2.33,0,0,1,.37.27,2.71,2.71,0,0,1,.93,2.18A3.07,3.07,0,0,1,146.53,210.61Z"/><path class="cls-2" d="M161.31,210.43a3.13,3.13,0,0,1-.71,1.08,3.3,3.3,0,0,1-1.09.68,3.81,3.81,0,0,1-1.38.24,3.77,3.77,0,0,1-1.4-.24,3.28,3.28,0,0,1-1.13-.75l.79-.79a2.67,2.67,0,0,0,.68.52,2.19,2.19,0,0,0,1.06.21,2.12,2.12,0,0,0,1.67-.66,2.75,2.75,0,0,0,.59-1.88v-7.53h1.18V209A3.89,3.89,0,0,1,161.31,210.43Z"/><path class="cls-2" d="M173.72,210.21a3.36,3.36,0,0,1-.81,1.18,3.57,3.57,0,0,1-1.22.77,4.53,4.53,0,0,1-3.08,0,3.57,3.57,0,0,1-1.22-.77,3.47,3.47,0,0,1-.8-1.18,3.9,3.9,0,0,1-.28-1.51v-7.39h1.17v7.3a3.41,3.41,0,0,0,.19,1.14,2.4,2.4,0,0,0,.53.87,2.62,2.62,0,0,0,.85.56,3.12,3.12,0,0,0,2.2,0,2.47,2.47,0,0,0,.84-.56,2.58,2.58,0,0,0,.55-.87,3.41,3.41,0,0,0,.19-1.14v-7.3H174v7.39A3.91,3.91,0,0,1,173.72,210.21Z"/><path class="cls-2" d="M185.93,212.34l-5.85-8.85v8.85H178.9v-11H180l5.85,8.81v-8.81h1.18v11Z"/><path class="cls-2" d="M195.34,202.36v10h-1.18v-10H191v-1.05h7.56v1.05Z"/><path class="cls-2" d="M208,212.34l-.89-2.5h-4.81l-.89,2.5h-1.25l4.06-11h1l4,11ZM204.68,203l-2.08,5.82h4.12Z"/><path class="cls-2" d="M221.11,212.34V204l-3,6.64h-1L214,204v8.38h-1.18v-11H214l3.59,7.82,3.5-7.82h1.18v11Z"/><path class="cls-2" d="M234.62,208.37a6.69,6.69,0,0,1-.12,1.17,3.35,3.35,0,0,1-.31.94,2.9,2.9,0,0,1-.59.8,3.86,3.86,0,0,1-1.27.86,4.15,4.15,0,0,1-1.55.29,3.8,3.8,0,0,1-2.82-1.15,2.94,2.94,0,0,1-.6-.8,3.71,3.71,0,0,1-.31-.94,7.9,7.9,0,0,1-.11-1.17c0-.44,0-1,0-1.55s0-1.1,0-1.54a7.77,7.77,0,0,1,.11-1.17,3.71,3.71,0,0,1,.31-.94,3.14,3.14,0,0,1,.6-.81,4.06,4.06,0,0,1,5.64,0,3.09,3.09,0,0,1,.59.81,3.35,3.35,0,0,1,.31.94,6.59,6.59,0,0,1,.12,1.17c0,.44,0,1,0,1.54S234.63,207.93,234.62,208.37Zm-1.18-3a6.35,6.35,0,0,0-.11-1,2.85,2.85,0,0,0-.23-.73,2.16,2.16,0,0,0-.42-.56,2.38,2.38,0,0,0-.86-.58,2.65,2.65,0,0,0-1-.21,2.73,2.73,0,0,0-1.05.21,2.56,2.56,0,0,0-.86.58,2.73,2.73,0,0,0-.42.56,2.85,2.85,0,0,0-.23.73,8,8,0,0,0-.1,1c0,.4,0,.89,0,1.46s0,1.07,0,1.47a8.19,8.19,0,0,0,.1,1,2.65,2.65,0,0,0,.23.72,2.79,2.79,0,0,0,.42.57,2.56,2.56,0,0,0,.86.58,2.73,2.73,0,0,0,1.05.21,2.65,2.65,0,0,0,1-.21,2.38,2.38,0,0,0,.86-.58,2.2,2.2,0,0,0,.42-.57,2.65,2.65,0,0,0,.23-.72,6.48,6.48,0,0,0,.11-1c0-.4,0-.89,0-1.47S233.45,205.76,233.44,205.36Z"/><path class="cls-2" d="M245.64,210.61a2.77,2.77,0,0,1-.77,1,3.72,3.72,0,0,1-1.21.61,5.11,5.11,0,0,1-1.56.22,5.86,5.86,0,0,1-2.12-.34,4.94,4.94,0,0,1-1.66-1.11l.81-.81a4,4,0,0,0,1.38,1,4.66,4.66,0,0,0,1.62.26,3.05,3.05,0,0,0,1.91-.54,1.8,1.8,0,0,0,.7-1.51,2.22,2.22,0,0,0-.14-.79,1.49,1.49,0,0,0-.39-.59,1.87,1.87,0,0,0-.55-.33,5,5,0,0,0-.89-.19l-1.29-.2a4.13,4.13,0,0,1-2-.84,2.64,2.64,0,0,1-.83-2.06,3.18,3.18,0,0,1,.25-1.28,2.56,2.56,0,0,1,.7-1,3.16,3.16,0,0,1,1.11-.63,4.45,4.45,0,0,1,1.47-.22,5.18,5.18,0,0,1,1.81.28,4.67,4.67,0,0,1,1.47.92l-.76.76a3.6,3.6,0,0,0-1.1-.7,3.9,3.9,0,0,0-1.47-.24,2.43,2.43,0,0,0-1.72.56,1.91,1.91,0,0,0-.6,1.48,1.59,1.59,0,0,0,.49,1.27,2.6,2.6,0,0,0,.66.38,4.63,4.63,0,0,0,.83.23l1.21.18.69.14a3,3,0,0,1,.53.16,2.46,2.46,0,0,1,.43.21,1.88,1.88,0,0,1,.36.27,2.71,2.71,0,0,1,.93,2.18A3.07,3.07,0,0,1,245.64,210.61Z"/><path class="cls-2" d="M69.21,229.63a.41.41,0,0,1,.15.29.9.9,0,0,1-.17.46,9.33,9.33,0,0,1-.61.81l-1.14,1.26a22.55,22.55,0,0,1-1.63,1.61,14,14,0,0,1-1.71,1.31,2,2,0,0,1-1.41.44,4.33,4.33,0,0,1-1.63-.68,1.71,1.71,0,0,1-.71-1.51,2,2,0,0,1,.15-.68l.24-.63c-.16.16-.41.44-.75.83s-.7.77-1.09,1.16a10.86,10.86,0,0,1-1.16,1,1.71,1.71,0,0,1-.91.43,2.1,2.1,0,0,1-1.43-.65,2.49,2.49,0,0,1-.7-1.88s0-.27.13-.73a9.18,9.18,0,0,1,.6-1.82,16.48,16.48,0,0,1,1.47-2.61,16.87,16.87,0,0,1,2.67-3,12.09,12.09,0,0,1,2.63-2,4.65,4.65,0,0,1,2-.56,3,3,0,0,1,2.19,1,4.82,4.82,0,0,1,1.22,2.15,1.62,1.62,0,0,1,0,.9.92.92,0,0,1-.34.46.47.47,0,0,1-.39.1c-.11,0-.15-.12-.12-.25a2,2,0,0,0-.12-1.26c-.18-.49-.46-.73-.85-.73a3.43,3.43,0,0,0-1.15.24,4.21,4.21,0,0,0-1.39.93c-.42.39-1,.95-1.6,1.68s-1.29,1.48-1.9,2.26a22.8,22.8,0,0,0-1.58,2.22,3.48,3.48,0,0,0-.66,1.48q0,.24.09.24a.65.65,0,0,0,.32-.14c.14-.1.43-.34.88-.73.22-.23.65-.64,1.27-1.24s1.27-1.24,1.92-1.9,1.22-1.28,1.73-1.83.73-.87.7-1a.46.46,0,0,1,.42-.64,2.22,2.22,0,0,1,1.19.17,1.83,1.83,0,0,1,1,.91c.21.42.09.94-.37,1.55-.13.2-.4.56-.82,1.1s-.84,1.09-1.25,1.68a14.48,14.48,0,0,0-1,1.58c-.24.47-.25.76,0,.85,0,0,0,0,0,0s0,.05,0,.05a2.37,2.37,0,0,0,1.12-.63,19.29,19.29,0,0,0,1.6-1.49l1.58-1.63c.51-.52.87-.87,1.1-1.07C69.05,229.55,69.12,229.56,69.21,229.63Z"/><path class="cls-2" d="M74.47,226.51q-1.26,2-2.36,3.68a24,24,0,0,0-1.58,2.8c-.1.23-.2.49-.32.8s-.1.48,0,.51.31,0,.65-.31.75-.63,1.22-1.05.94-.87,1.41-1.34.87-.88,1.2-1.24l.14-.15a3.14,3.14,0,0,1,.44-.53c.2-.2.37-.23.54-.1s.21.21.14.44a3.25,3.25,0,0,1-.78,1.07,11.4,11.4,0,0,1-1,1.14c-.51.51-1,1-1.61,1.51a20.34,20.34,0,0,1-1.66,1.34,3,3,0,0,1-1.29.64,1.31,1.31,0,0,1-.65,0l-.61-.17a1.06,1.06,0,0,1-.42-.34l-.17-.29v-.1a1.32,1.32,0,0,1-.24-.71c0-.3-.05-.54-.05-.7a4.34,4.34,0,0,1,.56-1.8c.38-.75.79-1.5,1.24-2.24l.49-.83a12.26,12.26,0,0,1,1-1.73c.37-.57.75-1.16,1.14-1.78q1.71-2.73,2.85-4.6a32.32,32.32,0,0,0,1.73-3.14,6.72,6.72,0,0,0,.49-1.29,4.2,4.2,0,0,0,.1-.71c0-.13.08-.22.26-.26a.94.94,0,0,1,.66.12,5.49,5.49,0,0,1,1.12,1,2,2,0,0,1,.44,1.72c-.07.27-.12.54-.17.83a4.19,4.19,0,0,1-.42,1.12,4.25,4.25,0,0,1-.26.49l-.3.46a7.65,7.65,0,0,1-.48.68q-.31.42-.81,1.2L75,225.73a4.56,4.56,0,0,0-.27.39C74.61,226.25,74.54,226.38,74.47,226.51Z"/><path class="cls-2" d="M89.13,229.63a.41.41,0,0,1,.15.29c0,.23-.2.65-.69,1.27-.22.29-.57.71-1,1.26s-1,1.09-1.51,1.61a11.94,11.94,0,0,1-1.59,1.31,1.87,1.87,0,0,1-1.36.44.69.69,0,0,0-.29-.05q-1.17,1.71-2.51,3.73a41,41,0,0,1-2.8,3.77,20.11,20.11,0,0,1-3,3,4.81,4.81,0,0,1-3,1.19,5,5,0,0,1-2.07-.39,4,4,0,0,1-1.39-1,4.29,4.29,0,0,1-.82-1.41,5.52,5.52,0,0,1-.34-1.68,8.54,8.54,0,0,1,.14-2.8,5.67,5.67,0,0,1,.81-1.87A3.24,3.24,0,0,1,69,237.18a2.77,2.77,0,0,1,1.29-.34,4,4,0,0,1,1.39.21c.38.15.58.32.61.52a.33.33,0,0,1-.15.29.47.47,0,0,1-.24.1.31.31,0,0,1-.19-.08.32.32,0,0,0-.2-.07.75.75,0,0,0-.41.24,4.23,4.23,0,0,0-.71,1.07,7.5,7.5,0,0,0-.75,1.46,8.18,8.18,0,0,0-.39,1.42,10.39,10.39,0,0,0-.15,1.24c0,.37,0,.66,0,.85a3.44,3.44,0,0,0,.22,1.1,2,2,0,0,0,.41.65,1.59,1.59,0,0,0,.54.44A3.64,3.64,0,0,0,72.53,245a29.14,29.14,0,0,0,2.7-3.14c.92-1.23,1.82-2.56,2.7-4s1.62-2.67,2.24-3.77l.68-1.8-.65.83c-.31.38-.66.77-1,1.16a14.5,14.5,0,0,1-1.09,1,1.58,1.58,0,0,1-.83.43,2.29,2.29,0,0,1-1.49-.65,2.7,2.7,0,0,1-.85-1.88s0-.27,0-.73a7.63,7.63,0,0,1,.44-1.82,14.28,14.28,0,0,1,1.24-2.61,14.72,14.72,0,0,1,2.46-3,10.91,10.91,0,0,1,2.48-2,4.36,4.36,0,0,1,2-.56,3.18,3.18,0,0,1,2.26,1,5.34,5.34,0,0,1,1.39,2.15,1.33,1.33,0,0,1,.07.9,1,1,0,0,1-.31.46.42.42,0,0,1-.37.1c-.11,0-.15-.12-.12-.25a1.45,1.45,0,0,0,0-.58,3,3,0,0,0-.22-.66,1.62,1.62,0,0,0-.39-.53.76.76,0,0,0-.54-.22,3.23,3.23,0,0,0-1.12.24,3.8,3.8,0,0,0-1.31.93c-.39.39-.89.95-1.49,1.68s-1.17,1.48-1.73,2.26a25,25,0,0,0-1.41,2.22,2.92,2.92,0,0,0-.53,1.48c.06.16.11.24.14.24a.65.65,0,0,0,.32-.14A7,7,0,0,0,79,233c.23-.23.64-.64,1.22-1.24s1.18-1.24,1.78-1.9,1.12-1.28,1.58-1.83.67-.87.63-1c-.13-.36,0-.57.37-.64a2.22,2.22,0,0,1,1.19.17,2,2,0,0,1,1,.91,1.46,1.46,0,0,1-.22,1.55l-.75,1.1c-.38.53-.74,1.09-1.1,1.68a13.36,13.36,0,0,0-.85,1.58c-.21.47-.21.76,0,.85a0,0,0,0,1,.05,0s0,.05,0,.05a2.13,2.13,0,0,0,1.07-.63,16.09,16.09,0,0,0,1.49-1.49l1.46-1.63c.47-.52.8-.87,1-1.07C89,229.55,89,229.56,89.13,229.63Z"/><path class="cls-2" d="M96.29,234.33a9.31,9.31,0,0,1-1.68,1.09,6.17,6.17,0,0,1-1.51.52,7.57,7.57,0,0,1-1.24.12,5.71,5.71,0,0,1-1-.1l-.39-.1c-.09,0-.16,0-.19-.05a3.32,3.32,0,0,1-1.27-.58,2.91,2.91,0,0,1-.75-.9,3.18,3.18,0,0,1-.34-1.07,5.1,5.1,0,0,1,0-1.1,5.75,5.75,0,0,1,.47-1.92l.46-1.05q.34-.58,1-1.65a16.15,16.15,0,0,1,1.72-2.17,12.75,12.75,0,0,1,2.29-1.92,5.65,5.65,0,0,1,2.78-.93,3.12,3.12,0,0,1,1.56.25,2.16,2.16,0,0,1,.82.61.57.57,0,0,1,.15.56c-.07.16-.21.19-.44.1a1.36,1.36,0,0,0-.85,0,1.72,1.72,0,0,0-.41.12c.09,0,0,0-.15.08a5.6,5.6,0,0,0-.93.58,11.2,11.2,0,0,0-1.53,1.45,22.75,22.75,0,0,0-2,2.64,25.44,25.44,0,0,0-1.66,2.83,6.75,6.75,0,0,0-.63,2c-.1.75.28,1.12,1.12,1.12a2.58,2.58,0,0,0,1.66-.88,14.91,14.91,0,0,0,1.73-2,19,19,0,0,0,1.33-2.13,3,3,0,0,0,.49-1.3,2.25,2.25,0,0,1-.9-.31.75.75,0,0,1-.36-.86,1.76,1.76,0,0,1,.38-1.13,2,2,0,0,1,.69-.46,1.54,1.54,0,0,1,.6-.1l.22,0a2.4,2.4,0,0,1,1.12.29,2.73,2.73,0,0,1,1,.93,10,10,0,0,1,1.53-.61,5.15,5.15,0,0,1,1.53-.27,2.73,2.73,0,0,1,1.17.19,1.46,1.46,0,0,1,.56.44,1,1,0,0,1,.17.63.52.52,0,0,1-.07.2.22.22,0,0,1-.22.14c-.1,0-.15,0-.17-.09s0-.15-.05-.25a.51.51,0,0,0-.1-.24.3.3,0,0,0-.26-.1,1.39,1.39,0,0,1-.34,0,.86.86,0,0,0-.39.07l-1,.34c-.44.16-1.13.41-2.07.73a1.48,1.48,0,0,0,0,.49,6.59,6.59,0,0,1-.39,1.46,9.71,9.71,0,0,1-.63,1.29c-.23.37-.51.79-.83,1.24A13.06,13.06,0,0,1,96.29,234.33Zm.34-6.84h.27a.57.57,0,0,0,.31-.1.56.56,0,0,0-.27-.46.76.76,0,0,0-.36-.12.42.42,0,0,0-.44.34C96.14,227.37,96.3,227.49,96.63,227.49Z"/><path class="cls-2" d="M122.42,229.58s0,0,0,0,0,0,0,.05c0,.19-.3.53-.88,1a8.92,8.92,0,0,1-3.15,1.29l-.68.78c-.23.26-.47.52-.73.77a12,12,0,0,1-1.41,1.37,7.35,7.35,0,0,1-1.46,1,3.8,3.8,0,0,1-1.66.41,1.44,1.44,0,0,1-1.19-.44,1.64,1.64,0,0,1-.37-1.07,2.74,2.74,0,0,1,1-2.07,5.22,5.22,0,0,1,2.9-1.14,21.7,21.7,0,0,0,2.68-4.16,7.57,7.57,0,0,0,.82-2.66c0-.36-.09-.53-.29-.53a1.71,1.71,0,0,0-.75.26,8.34,8.34,0,0,0-1,.68c-.34.28-.68.57-1,.88l-.9.81c-.81,1.1-1.47,2.05-2,2.84s-.91,1.47-1.22,2a13.08,13.08,0,0,0-.68,1.39c-.15.38-.29.71-.41,1,0,.1-.08.23-.13.39s-.1.34-.17.54-.12.38-.17.56a1.51,1.51,0,0,0-.07.36.26.26,0,0,1-.2.27c-.12,0-.3,0-.53-.17a4,4,0,0,1-.68-.64,2.23,2.23,0,0,1-.49-1,5.32,5.32,0,0,1-.1-1,4.34,4.34,0,0,1,.56-1.8c.38-.75.79-1.5,1.24-2.24.52-.91,1.15-1.95,1.88-3.12s1.45-2.34,2.17-3.51,1.36-2.26,1.94-3.29,1-1.84,1.32-2.45a7.25,7.25,0,0,0,.49-1.29,4.09,4.09,0,0,0,.09-.71q0-.2.27-.27a.94.94,0,0,1,.66.12,5.44,5.44,0,0,1,1.1,1,2.09,2.09,0,0,1,.43,1.73,7.22,7.22,0,0,1-.86,2.29,46.82,46.82,0,0,1-2.67,4.23,9.15,9.15,0,0,1,1.27-.73,3.05,3.05,0,0,1,1.35-.33,1.84,1.84,0,0,1,1.51.77,3.45,3.45,0,0,1,.59,2.15,7.21,7.21,0,0,1-.38,2.19,10.75,10.75,0,0,1-1.29,2.63,5.58,5.58,0,0,0,.81-.32l.9-.44.78-.36a1.51,1.51,0,0,1,.43-.15A.44.44,0,0,1,122.42,229.58Zm-10.06,4.77c.51-.52,1-1,1.46-1.6a2.84,2.84,0,0,0-1.59,1,2.9,2.9,0,0,0-.36.68c0,.13,0,.2.1.2a1.19,1.19,0,0,0,.24-.1A.36.36,0,0,0,112.36,234.35Z"/><path class="cls-2" d="M121.85,235.91a1.16,1.16,0,0,1-.54-.29,2,2,0,0,1-.41-.44,3.27,3.27,0,0,1-.27-.78,5.32,5.32,0,0,1-.1-1,3.17,3.17,0,0,1,.39-1.41,3.85,3.85,0,0,1,.39-.83l.1-.2h0v-.05l.73-1.31c.55-1,1-1.81,1.31-2.41s.58-1.07.76-1.41l.39-.73a5.12,5.12,0,0,0,.22-.47,6.72,6.72,0,0,0,.49-1.29,3.9,3.9,0,0,0,.09-.7q0-.19.27-.27a.94.94,0,0,1,.66.12,5.49,5.49,0,0,1,1.12,1,2.08,2.08,0,0,1,.44,1.73l-.2.78c-.26.52-.54,1-.85,1.56s-.6,1-.88,1.43-.52.81-.75,1.12a4.78,4.78,0,0,0-.44.66,13.55,13.55,0,0,1-1,1.41,7.49,7.49,0,0,0-.93,1.56l-.1.39c0,.13.15.19.34.19a1.85,1.85,0,0,0,1-.56,19.47,19.47,0,0,0,1.51-1.46q.86-.9,1.83-2.07l2-2.38,1-1.46.29-.54a5.23,5.23,0,0,1,.22-.51l.31-.71a6.72,6.72,0,0,0,.49-1.29,3.29,3.29,0,0,0,.1-.7c0-.13.09-.22.26-.27a.94.94,0,0,1,.66.12,5.49,5.49,0,0,1,1.12,1,2,2,0,0,1,.44,1.73l-.19.78c-.13.26-.26.5-.37.73a4.91,4.91,0,0,1-.41.68c-.07.16-.16.35-.27.56l-.41.8c-.75,1.2-1.35,2.16-1.81,2.88l-1,1.63a6.45,6.45,0,0,0-.47.78.94.94,0,0,0-.09.31c0,.07,0,.1,0,.1a1.91,1.91,0,0,0,.77-.46,16.49,16.49,0,0,0,1.27-1.12c.46-.44.92-.9,1.39-1.37l1.19-1.19a5.05,5.05,0,0,1,.34-.41.68.68,0,0,1,.49-.27l.07,0a.09.09,0,0,0,.07,0,.41.41,0,0,1,.15.29,1.1,1.1,0,0,1-.17.49,5.73,5.73,0,0,1-.61.78q-.43.48-1.26,1.29c-.56.53-1.12,1.05-1.71,1.55a13.88,13.88,0,0,1-1.7,1.29,2.69,2.69,0,0,1-1.27.54,2.09,2.09,0,0,1-1.31-.41,1.53,1.53,0,0,1-.54-1.29,4.46,4.46,0,0,1,.15-1.27,8.67,8.67,0,0,1,.68-1.46c-.36.42-.78.9-1.27,1.44s-1,1-1.51,1.51a10.37,10.37,0,0,1-1.51,1.16A1.66,1.66,0,0,1,121.85,235.91Z"/><path class="cls-2" d="M145.07,231.14c-.35.36-.85.81-1.48,1.36s-1.31,1.09-2,1.61a13.89,13.89,0,0,1-2.24,1.31,5,5,0,0,1-2.12.54l-.2,0a.63.63,0,0,0-.19,0h-.05a3.28,3.28,0,0,1-2.36-1,2.84,2.84,0,0,1-.61-1.77,5.48,5.48,0,0,1,.41-2.32c.28-.57.56-1.12.85-1.68a16.89,16.89,0,0,1,1.27-1.87,21.59,21.59,0,0,1,2-2.24,14.44,14.44,0,0,1,2.33-1.88,4.26,4.26,0,0,1,2.24-.78,2.3,2.3,0,0,1,.83.2s0,0,.07,0l.32.2a2.5,2.5,0,0,1,.34.24c.1.08.16.12.2.12a2.53,2.53,0,0,1,.73,1.61,3,3,0,0,1-.9,2,13.18,13.18,0,0,1-2.17,1.9,23.47,23.47,0,0,1-2.58,1.61c-.88.47-1.61.83-2.19,1.09-.16.42-.29.77-.37,1a2.9,2.9,0,0,0-.12.87c0,.88.42,1.32,1.27,1.32a3.1,3.1,0,0,0,.7-.22,10.91,10.91,0,0,0,1.42-.71,20.18,20.18,0,0,0,1.94-1.29,21.77,21.77,0,0,0,2.32-2s.14-.11.34-.34a1.4,1.4,0,0,1,.58-.44.79.79,0,0,1,.24,0,.22.22,0,0,1,.15.24,1.19,1.19,0,0,1-.22.51A2.73,2.73,0,0,1,145.07,231.14ZM138.94,229a5.33,5.33,0,0,0-.41.65l-.37.66c1.17-.88,2.12-1.64,2.85-2.29a18.11,18.11,0,0,0,1.7-1.68,4.76,4.76,0,0,0,.81-1.17,1.93,1.93,0,0,0,.19-.7.76.76,0,0,0-.09-.29.32.32,0,0,1-.05-.15s-.06,0-.27.15a8.48,8.48,0,0,0-1,.73,14.65,14.65,0,0,0-1.51,1.53A22.73,22.73,0,0,0,138.94,229Z"/><path class="cls-2" d="M149,229.87c-.32.52-.58.94-.78,1.24l-.53.88c-.17.28-.32.57-.47.88s-.31.7-.51,1.19l-.39,1.17a.55.55,0,0,0-.14-.17s-.05,0-.05,0,.06.07.19.17a2.54,2.54,0,0,0-.14.68q0,.24-.3.24a1.49,1.49,0,0,1-1.09-.75,3.47,3.47,0,0,1-.61-2,5,5,0,0,1,.51-1.71c.34-.78.76-1.61,1.24-2.5s1-1.77,1.46-2.61.86-1.51,1.12-2a4.27,4.27,0,0,0,.44-1c.07-.28.11-.51.15-.68a2.3,2.3,0,0,1,.09-.39c0-.09.13-.13.3-.13a1.43,1.43,0,0,1,.61.2,3,3,0,0,1,.68.51,3.39,3.39,0,0,1,.56.78,2.14,2.14,0,0,1,.24,1,1.79,1.79,0,0,1-.22.51l-.46.9c-.16.32-.33.63-.49.9a3.79,3.79,0,0,0-.29.56c.26-.29.66-.73,1.22-1.31s1.14-1.17,1.77-1.76a23.32,23.32,0,0,1,1.9-1.56,3,3,0,0,1,1.64-.68,1.62,1.62,0,0,1,1.55.78,3.35,3.35,0,0,1,.44,1.66,4.91,4.91,0,0,1-.15,1.22v0c0,.07-.09.24-.19.51a6,6,0,0,1-.49,1c-.48.82-1,1.61-1.43,2.39s-.9,1.47-1.27,2.07l-1.29,2.07c0,.09,0,.14.1.14a1.66,1.66,0,0,0,.73-.43l1.22-1.05c.45-.41.9-.84,1.36-1.29s.83-.86,1.12-1.22l.14-.15.37-.46a.61.61,0,0,1,.46-.27c.2,0,.29.13.29.39s-.21.6-.73,1.22a14.11,14.11,0,0,1-1.26,1.32c-.55.52-1.13,1-1.73,1.53a18.83,18.83,0,0,1-1.73,1.29,2.67,2.67,0,0,1-1.26.54,2.13,2.13,0,0,1-1.27-.42,1.41,1.41,0,0,1-.58-1.24,2.61,2.61,0,0,1,.17-.95,2.5,2.5,0,0,0,.17-.61c.26-.65.58-1.35,1-2.12s.78-1.46,1.17-2.11.92-1.48,1.41-2.19a5.2,5.2,0,0,0,.61-1,1.75,1.75,0,0,0,.17-.63c0-.29-.13-.44-.39-.44a.72.72,0,0,0-.34.1q-1.56,1.37-2.58,2.31c-.68.63-1.36,1.27-2,1.92A13.81,13.81,0,0,0,149,229.87Z"/><path class="cls-2" d="M166.5,234.33a9.31,9.31,0,0,1-1.68,1.09,6.17,6.17,0,0,1-1.51.52,7.57,7.57,0,0,1-1.24.12,5.51,5.51,0,0,1-1-.1l-.39-.1c-.1,0-.17,0-.2-.05a3.2,3.2,0,0,1-1.26-.58,2.81,2.81,0,0,1-.76-.9,3.18,3.18,0,0,1-.34-1.07,5.1,5.1,0,0,1,0-1.1,5.75,5.75,0,0,1,.47-1.92c.24-.54.4-.89.46-1.05q.34-.58,1.05-1.65a15.49,15.49,0,0,1,1.73-2.17,12.35,12.35,0,0,1,2.28-1.92,5.65,5.65,0,0,1,2.78-.93,3.12,3.12,0,0,1,1.56.25,2.29,2.29,0,0,1,.83.61.56.56,0,0,1,.14.56c-.06.16-.21.19-.44.1a1.36,1.36,0,0,0-.85,0,1.72,1.72,0,0,0-.41.12c.09,0,.05,0-.15.08a5.24,5.24,0,0,0-.92.58,10.63,10.63,0,0,0-1.54,1.45,22.75,22.75,0,0,0-2,2.64,23.65,23.65,0,0,0-1.65,2.83,6.52,6.52,0,0,0-.64,2c-.09.75.28,1.12,1.12,1.12a2.58,2.58,0,0,0,1.66-.88,14.23,14.23,0,0,0,1.73-2,20.81,20.81,0,0,0,1.34-2.13,2.89,2.89,0,0,0,.48-1.3,2.25,2.25,0,0,1-.9-.31.75.75,0,0,1-.36-.86,1.71,1.71,0,0,1,.39-1.13,1.86,1.86,0,0,1,.68-.46,1.58,1.58,0,0,1,.61-.1l.22,0a2.46,2.46,0,0,1,1.12.29,2.64,2.64,0,0,1,1,.93,10,10,0,0,1,1.53-.61,5.15,5.15,0,0,1,1.54-.27,2.68,2.68,0,0,1,1.16.19,1.59,1.59,0,0,1,.57.44,1.09,1.09,0,0,1,.16.63.52.52,0,0,1-.07.2.22.22,0,0,1-.22.14c-.09,0-.15,0-.17-.09s0-.15-.05-.25a.5.5,0,0,0-.09-.24.34.34,0,0,0-.27-.1,1.43,1.43,0,0,1-.34,0,.86.86,0,0,0-.39.07l-.95.34c-.44.16-1.13.41-2.07.73a1.82,1.82,0,0,0,0,.49,5.65,5.65,0,0,1-.39,1.46,7.75,7.75,0,0,1-.63,1.29c-.23.37-.51.79-.83,1.24A13.06,13.06,0,0,1,166.5,234.33Zm.34-6.84h.27a.29.29,0,1,0,0-.56.83.83,0,0,0-.37-.12.42.42,0,0,0-.44.34C166.35,227.37,166.51,227.49,166.84,227.49Z"/><path class="cls-2" d="M175.75,241.75a4.31,4.31,0,0,0-.17.78,6.17,6.17,0,0,0-.07.78.28.28,0,0,1-.2.27c-.13,0-.31,0-.53-.17a3.94,3.94,0,0,1-.69-.63,2.31,2.31,0,0,1-.48-1,4.57,4.57,0,0,1-.1-1,4.34,4.34,0,0,1,.56-1.8c.37-.75.79-1.5,1.24-2.24s1-1.65,1.58-2.61l1.83-2.92c.62-1,1.21-2,1.78-2.92s1-1.81,1.43-2.56l.54-1.07.27-.61c.08-.18.15-.33.22-.46a5.7,5.7,0,0,0,.19-.73,3.52,3.52,0,0,0,0-.49c0-.13.09-.22.27-.26a.91.91,0,0,1,.65.12,2.78,2.78,0,0,1,.54.39,3.59,3.59,0,0,1,.54.56,2.8,2.8,0,0,1,.39.7,2.08,2.08,0,0,1,.09.88s0,.1-.17.39-.31.61-.51,1-.36.66-.51.95-.2.42-.17.39a31.79,31.79,0,0,1,3.8-4.17c1-.82,1.83-1,2.58-.61a2.34,2.34,0,0,1,.9,1,3.5,3.5,0,0,1,.36,1.65,7.53,7.53,0,0,1-.39,2.22,9.76,9.76,0,0,1-1.31,2.6,7.13,7.13,0,0,0,1.36-.43c.2-.07.38-.13.54-.2l.44-.17.29-.12c.39-.13.62-.15.71-.05s0,.25-.3.46a7.89,7.89,0,0,1-1.36.78,14.93,14.93,0,0,1-2.51.9c-.23.26-.45.53-.68.81s-.47.54-.73.8a8.41,8.41,0,0,1-1.46,1.41,8.57,8.57,0,0,1-1.51,1,3,3,0,0,1-1.7.32,1.3,1.3,0,0,1-1.2-.66,1.85,1.85,0,0,1-.12-1.36,3.5,3.5,0,0,1,.83-1.46,3.4,3.4,0,0,1,1.75-1l1.22-.24a27,27,0,0,0,1.95-2.85,18.08,18.08,0,0,0,1.17-2.34,4.88,4.88,0,0,0,.38-1.58c0-.39-.09-.59-.29-.59a1.61,1.61,0,0,0-.78.47,13.26,13.26,0,0,0-1.19,1.19c-.44.49-.91,1-1.41,1.63s-1,1.18-1.39,1.73L183.15,230q-.48.66-.63.9a32.66,32.66,0,0,1-1.9,2.88c-.78,1.07-1.62,2.33-2.53,3.8A45.36,45.36,0,0,0,175.75,241.75Zm7.6-8c.51-.52,1-1.06,1.46-1.61a2.84,2.84,0,0,0-1.59,1,2.54,2.54,0,0,0-.36.68c0,.16.08.21.24.14A.86.86,0,0,0,183.35,233.77Z"/><path class="cls-2" d="M206.23,229.63a.41.41,0,0,1,.15.29.9.9,0,0,1-.17.46c-.12.18-.32.45-.61.81l-1.15,1.26a19.09,19.09,0,0,1-1.63,1.61,13.19,13.19,0,0,1-1.7,1.31,2,2,0,0,1-1.41.44,4.38,4.38,0,0,1-1.64-.68,1.7,1.7,0,0,1-.7-1.51,2.17,2.17,0,0,1,.14-.68c.1-.26.18-.47.25-.63-.16.16-.41.44-.75.83s-.7.77-1.09,1.16a11.92,11.92,0,0,1-1.16,1,1.73,1.73,0,0,1-.92.43,2.07,2.07,0,0,1-1.42-.65,2.45,2.45,0,0,1-.7-1.88s0-.27.12-.73a9.34,9.34,0,0,1,.61-1.82,16.33,16.33,0,0,1,1.46-2.61,17,17,0,0,1,2.68-3,11.85,11.85,0,0,1,2.63-2,4.61,4.61,0,0,1,2-.56,3,3,0,0,1,2.19,1,4.8,4.8,0,0,1,1.21,2.15,1.55,1.55,0,0,1,0,.9,1,1,0,0,1-.34.46.48.48,0,0,1-.39.1c-.12,0-.16-.12-.12-.25a2.13,2.13,0,0,0-.13-1.26c-.17-.49-.46-.73-.85-.73a3.42,3.42,0,0,0-1.14.24,4.21,4.21,0,0,0-1.39.93c-.42.39-1,.95-1.61,1.68s-1.28,1.48-1.9,2.26a26.83,26.83,0,0,0-1.58,2.22,3.48,3.48,0,0,0-.66,1.48c0,.16,0,.24.1.24a.63.63,0,0,0,.31-.14c.14-.1.44-.34.89-.73.22-.23.65-.64,1.27-1.24s1.26-1.24,1.91-1.9,1.23-1.28,1.73-1.83.74-.87.71-1c-.1-.36,0-.57.41-.64a2.25,2.25,0,0,1,1.2.17,1.87,1.87,0,0,1,1,.91c.21.42.08.94-.37,1.55-.13.2-.41.56-.83,1.1s-.83,1.09-1.24,1.68a13.07,13.07,0,0,0-1,1.58c-.25.47-.25.76,0,.85,0,0,0,0,0,0s0,.05,0,.05a2.33,2.33,0,0,0,1.12-.63,17.86,17.86,0,0,0,1.61-1.49l1.58-1.63c.5-.52.87-.87,1.1-1.07C206.07,229.55,206.13,229.56,206.23,229.63Z"/><path class="cls-2" d="M207.74,229.73c0-.17.11-.64.22-1.42a23,23,0,0,1,.85-3.31,5.36,5.36,0,0,1,.71-1.51,4,4,0,0,1,1-1.07,2.58,2.58,0,0,1,1.24-.44,2.22,2.22,0,0,1,1.34.39,5.65,5.65,0,0,1,1.38,1.08,4.56,4.56,0,0,1,.71.82.68.68,0,0,1,.07.34,1.36,1.36,0,0,0,0,.2.58.58,0,0,1-.29.27c-.13,0-.23,0-.3,0a.5.5,0,0,1-.12-.19.8.8,0,0,0-.07-.2,1.3,1.3,0,0,0-.8-.48,1.23,1.23,0,0,0-.78.14,1.86,1.86,0,0,0-.61.49,1.23,1.23,0,0,0-.29.53c-.36,1.14-.62,2-.78,2.66a6.42,6.42,0,0,0-.25,1.19v.24a13.74,13.74,0,0,0,2-.29l1.73-.39.1-.05a.3.3,0,0,0,.12,0,.47.47,0,0,1,.17,0c.26,0,.39.11.39.34s-.38.65-1.14.87a31.4,31.4,0,0,1-3.48.73c-.13.52-.28,1-.44,1.51s-.35.85-.56,1.29a3.76,3.76,0,0,1-.76,1.1l-.24.19a4.29,4.29,0,0,1-1.32.88,3.9,3.9,0,0,1-1.6.34,2,2,0,0,1-1.44-.46,1.55,1.55,0,0,1-.46-1.15,3.75,3.75,0,0,1,.22-1.12,5.48,5.48,0,0,1,.66-1.36,6.73,6.73,0,0,1,1-1.24,3.07,3.07,0,0,1,1.31-.76.92.92,0,0,0,.39-.09v.05Zm-.39,1.36a2.31,2.31,0,0,0-1,.66,5.38,5.38,0,0,0-.68.95,4.53,4.53,0,0,0-.39.87,3.5,3.5,0,0,0-.12.44c0,.1,0,.15.1.15a.87.87,0,0,0,.44-.25,3.84,3.84,0,0,0,.6-.68,6.31,6.31,0,0,0,.61-1A5,5,0,0,0,207.35,231.09Z"/><path class="cls-2" d="M227.85,229.63a.41.41,0,0,1,.15.29.9.9,0,0,1-.17.46c-.12.18-.32.45-.61.81l-1.15,1.26a19.09,19.09,0,0,1-1.63,1.61,13.19,13.19,0,0,1-1.7,1.31,2.07,2.07,0,0,1-1.42.44,4.4,4.4,0,0,1-1.63-.68,1.7,1.7,0,0,1-.7-1.51,2.17,2.17,0,0,1,.14-.68c.1-.26.18-.47.25-.63-.17.16-.42.44-.75.83s-.7.77-1.09,1.16a11.92,11.92,0,0,1-1.16,1,1.73,1.73,0,0,1-.92.43,2.07,2.07,0,0,1-1.42-.65,2.45,2.45,0,0,1-.7-1.88s0-.27.12-.73a9.34,9.34,0,0,1,.61-1.82,16.33,16.33,0,0,1,1.46-2.61,17,17,0,0,1,2.68-3,11.63,11.63,0,0,1,2.63-2,4.57,4.57,0,0,1,2-.56,3,3,0,0,1,2.2,1,4.8,4.8,0,0,1,1.21,2.15,1.55,1.55,0,0,1,0,.9,1,1,0,0,1-.34.46.48.48,0,0,1-.39.1c-.12,0-.16-.12-.13-.25a2,2,0,0,0-.12-1.26c-.17-.49-.46-.73-.85-.73a3.42,3.42,0,0,0-1.14.24,4.21,4.21,0,0,0-1.39.93c-.42.39-1,.95-1.61,1.68s-1.28,1.48-1.9,2.26a26.83,26.83,0,0,0-1.58,2.22,3.48,3.48,0,0,0-.66,1.48c0,.16,0,.24.1.24a.63.63,0,0,0,.31-.14c.14-.1.44-.34.89-.73.22-.23.64-.64,1.27-1.24s1.26-1.24,1.91-1.9,1.23-1.28,1.73-1.83.74-.87.71-1c-.1-.36,0-.57.41-.64a2.25,2.25,0,0,1,1.2.17,1.81,1.81,0,0,1,.94.91c.22.42.09.94-.36,1.55-.13.2-.41.56-.83,1.1s-.83,1.09-1.24,1.68a13.07,13.07,0,0,0-1,1.58c-.25.47-.26.76,0,.85,0,0,0,0,0,0s0,.05,0,.05a2.33,2.33,0,0,0,1.12-.63,19.32,19.32,0,0,0,1.61-1.49l1.58-1.63c.5-.52.87-.87,1.1-1.07C227.69,229.55,227.75,229.56,227.85,229.63Z"/><path class="cls-2" d="M266.24,164.83H247v18h19.27Zm-40.39,10.35,4.43-8.23,4.34,8.22ZM229,164.92l-9.66,17.9h2.36l3.3-6h10.52l3.28,6h2.48l-9.74-17.89Zm-26.92,12.91h-2.26c.09,3.94,4,5.31,7,5.31,4,0,6.82-2.49,6.81-5.25v0c0-.58,0-4-5.54-5.15-3-.67-5.38-1.18-5.38-3.36,0-1.55,1.49-3.12,4.1-3.12,2.14,0,4,1.43,4,3.24h2.26c0-2.61-2.57-4.86-6.27-4.86s-6.37,2-6.37,4.82c0,3.55,3.83,4.23,5.88,4.71,1.53.36,5.05,1.06,5.05,3.82,0,2.1-2.17,3.55-4.56,3.55-2.78,0-4.59-1.45-4.71-3.69m-16.29-23.75H193l15.14-30.87,15.56,30.85H231L211.6,114.65h-6.27Zm6.89,10.86H180.28v17.89h12.39v-1.61H182.55v-6.6h9.8V173h-9.79v-6.43h10.13Zm-35.44,0H155v17.89h2.26v-8.39H169v8.39h2.26V165H169v7.88H157.24Zm33.57-50.3-36.39,0v5.78h15l0,33.64h6.43l0-33.64h15ZM146.18,165H133.79v17.9h12.39v-1.62H136.07v-6.6h9.79V173h-9.79v-6.43h10.13Zm-30-31.83V120.53h19.68c2.25,0,4.58.1,6,2.53a7,7,0,0,1,1,3.72,5.93,5.93,0,0,1-1.12,3.69c-1.93,2.67-5.48,2.67-8.07,2.67Zm0,5.72h16.8l12.42,15.25h8.42l-13.68-16.32c3.14-.66,9.33-2.67,9.33-11.23a11.25,11.25,0,0,0-3.48-8.62c-3.32-3.12-7.39-3.19-10.7-3.24H109.83l0,39.42h6.42ZM112.1,166.6c3.33,0,5.44.34,7.46,1.38a7,7,0,0,1,3.86,5.92,7.17,7.17,0,0,1-3.54,5.9c-2.6,1.45-5.72,1.46-7.77,1.46h-3.28V166.61Zm1.07-1.62h-6.61v17.89h6.61a17.25,17.25,0,0,0,7.37-1.48c4.31-2.18,5.14-5.76,5.14-7.43a8.57,8.57,0,0,0-5.15-7.51,17,17,0,0,0-7.37-1.48M70.88,175.26,75.32,167l4.35,8.21ZM74,165,64.37,182.9h2.36l3.3-6H80.55l3.28,6h2.48L76.57,165ZM65.3,134.6c0-10.66,8.13-14.7,15.75-14.92h.68c10,0,16.45,5.79,16.45,14.75,0,3.47-1.16,14.8-16.2,14.8-6.13,0-10.71-1.77-13.61-5.29a14.61,14.61,0,0,1-3.07-9.33m-6.43.32c0,8.56,4.19,13.38,7.68,15.91,3.9,2.88,9.09,4.33,15.44,4.33,11.29,0,22.68-6.25,22.67-20.21,0-12.6-9.27-21.1-23.06-21.15-11.32,0-22.74,6.54-22.73,21.12M46.06,165H43.8v17.89H55.44v-1.62H46.07ZM36.53,165H17.26v18H36.54Zm2.66-44.43c2.54,0,5.7,0,7.63,2a5.81,5.81,0,0,1,1.53,4.22,6,6,0,0,1-2.46,5.07c-1.75,1.24-4.18,1.24-6.13,1.24H23.61V120.52Zm.77-5.78H17.19l0,39.42h6.46V138.91H40.48c3.49,0,9.33,0,12.69-4.92a12.83,12.83,0,0,0,2-6.95,12.16,12.16,0,0,0-3.76-9c-2.65-2.38-6-3.34-11.45-3.34M215.08,69.29a8.51,8.51,0,1,1-8.51-8.81,8.67,8.67,0,0,1,8.51,8.81m5.82,33.37,45.33,0V91h-.13v-.36l-37.86,0a101.28,101.28,0,0,0-7.86-13.35,16.45,16.45,0,0,0,1.95-7.9c0-9-7.07-16.33-15.75-16.32a14.92,14.92,0,0,0-7.76,2.13A93.63,93.63,0,0,0,142,36.06C105.75,36.08,72.4,57.75,56,91L17.24,91v11.68l46.07,0v-.34h0l.21-.51C76.93,69,107.72,47.85,142,47.83a82.47,82.47,0,0,1,49.64,16.54,16.77,16.77,0,0,0-.8,5.13c0,9,7,16.22,15.65,16.22a15.88,15.88,0,0,0,4.88-.83,90,90,0,0,1,9.22,16.84l.22.52h.1ZM266.27,154v-5.89H242V114.63h-6.43l0,39.41Z"/></g></svg>