<svg id="Capa_1" data-name="Capa 1" xmlns="http://www.w3.org/2000/svg" viewBox="0 0 283.46 283.46"><defs><style>.cls-1{fill:#7c7c7b;}</style></defs><title>LOGOS PORTAL (GRIS)</title><path class="cls-1" d="M43.21,210.76a3.52,3.52,0,0,1-.83,1,3.79,3.79,0,0,1-1.14.65,4.33,4.33,0,0,1-2.92-.07,3.8,3.8,0,0,1-1.28-.86,2.94,2.94,0,0,1-.6-.8,4.15,4.15,0,0,1-.31-.94,7.91,7.91,0,0,1-.11-1.18c0-.43,0-1,0-1.54s0-1.1,0-1.54a7.77,7.77,0,0,1,.11-1.17,4.15,4.15,0,0,1,.31-.94,3.14,3.14,0,0,1,.6-.81,3.9,3.9,0,0,1,2.82-1.14,4.12,4.12,0,0,1,1.38.22,4,4,0,0,1,1.14.64,3.65,3.65,0,0,1,.83,1,4.85,4.85,0,0,1,.48,1.39H42.48a3,3,0,0,0-.9-1.63,2.52,2.52,0,0,0-1.72-.6,2.92,2.92,0,0,0-1,.2,2.69,2.69,0,0,0-.86.57,2.41,2.41,0,0,0-.41.57,2.61,2.61,0,0,0-.24.73,8.37,8.37,0,0,0-.1,1c0,.4,0,.89,0,1.46s0,1.07,0,1.47a8.37,8.37,0,0,0,.1,1,2.72,2.72,0,0,0,.24.73,2.18,2.18,0,0,0,.41.56,2.56,2.56,0,0,0,.86.58,2.92,2.92,0,0,0,1,.2A2.55,2.55,0,0,0,41.6,211a2.9,2.9,0,0,0,.91-1.62h1.18A4.78,4.78,0,0,1,43.21,210.76Z"/><path class="cls-1" d="M55.4,210.44a3.47,3.47,0,0,1-.8,1.18,3.67,3.67,0,0,1-1.22.77,4.35,4.35,0,0,1-1.55.27,4.3,4.3,0,0,1-1.54-.27,3.53,3.53,0,0,1-1.21-.77,3.47,3.47,0,0,1-.8-1.18,3.91,3.91,0,0,1-.29-1.51v-7.39h1.18v7.3a3.41,3.41,0,0,0,.18,1.14,2.56,2.56,0,0,0,.54.87,2.47,2.47,0,0,0,.84.56,3,3,0,0,0,1.1.2,3,3,0,0,0,1.1-.2,2.52,2.52,0,0,0,.85-.56,2.56,2.56,0,0,0,.54-.87,3.17,3.17,0,0,0,.19-1.14v-7.3h1.18v7.39A3.73,3.73,0,0,1,55.4,210.44Z"/><path class="cls-1" d="M67,212.57l-.88-2.5H61.31l-.88,2.5H59.18l4-11h1l4,11Zm-3.26-9.34-2.08,5.82h4.12Z"/><path class="cls-1" d="M78.94,212.57l-5.85-8.85v8.85H71.91v-11H73l5.86,8.81v-8.81h1.18v11Z"/><path class="cls-1" d="M92.75,208.14a8.41,8.41,0,0,1-.1,1.24,5.05,5.05,0,0,1-.32,1.17,3,3,0,0,1-.65,1,3.34,3.34,0,0,1-1.21.75,4.44,4.44,0,0,1-1.58.27H85.11v-11h3.78a4.67,4.67,0,0,1,1.58.26,3.51,3.51,0,0,1,1.21.76,3.28,3.28,0,0,1,.65.95,4.56,4.56,0,0,1,.32,1.09,7.36,7.36,0,0,1,.1,1.16c0,.4,0,.79,0,1.17S92.76,207.72,92.75,208.14Zm-1.18-2.22a5.86,5.86,0,0,0-.07-1,4,4,0,0,0-.21-.87,2.14,2.14,0,0,0-.44-.69,2.39,2.39,0,0,0-1-.63,3.78,3.78,0,0,0-1.2-.18h-2.4v8.92h2.4a3.78,3.78,0,0,0,1.2-.17,2.39,2.39,0,0,0,1-.63,2.08,2.08,0,0,0,.44-.74,4.61,4.61,0,0,0,.21-.94,7.22,7.22,0,0,0,.07-1.05c0-.36,0-.71,0-1S91.58,206.25,91.57,205.92Z"/><path class="cls-1" d="M104.67,208.59a7.91,7.91,0,0,1-.11,1.18,4.15,4.15,0,0,1-.31.94,2.94,2.94,0,0,1-.6.8,3.86,3.86,0,0,1-1.27.86,4.15,4.15,0,0,1-1.55.29A3.8,3.8,0,0,1,98,211.51a2.94,2.94,0,0,1-.6-.8,3.71,3.71,0,0,1-.31-.94,7.91,7.91,0,0,1-.11-1.18c0-.43,0-1,0-1.54s0-1.1,0-1.54a7.77,7.77,0,0,1,.11-1.17,3.71,3.71,0,0,1,.31-.94,3.14,3.14,0,0,1,.6-.81,4.06,4.06,0,0,1,5.64,0,3.14,3.14,0,0,1,.6.81,4.15,4.15,0,0,1,.31.94,7.77,7.77,0,0,1,.11,1.17c0,.44,0,1,0,1.54S104.68,208.16,104.67,208.59Zm-1.18-3a8,8,0,0,0-.1-1,2.84,2.84,0,0,0-.24-.73,2.16,2.16,0,0,0-.42-.56,2.42,2.42,0,0,0-.85-.58,2.73,2.73,0,0,0-2.1,0,2.56,2.56,0,0,0-.86.58,2.36,2.36,0,0,0-.41.56,2.84,2.84,0,0,0-.24.73,8,8,0,0,0-.1,1c0,.4,0,.89,0,1.46s0,1.07,0,1.47a8.19,8.19,0,0,0,.1,1,2.64,2.64,0,0,0,.24.72,2.41,2.41,0,0,0,.41.57,2.56,2.56,0,0,0,.86.58,2.73,2.73,0,0,0,2.1,0,2.42,2.42,0,0,0,.85-.58,2.2,2.2,0,0,0,.42-.57,2.64,2.64,0,0,0,.24-.72,8.19,8.19,0,0,0,.1-1c0-.4,0-.89,0-1.47S103.5,206,103.49,205.59Z"/><path class="cls-1" d="M122.07,212.57l-5.86-8.85v8.85H115v-11h1.12l5.86,8.81v-8.81h1.17v11Z"/><path class="cls-1" d="M135.51,208.59a7.91,7.91,0,0,1-.11,1.18,3.71,3.71,0,0,1-.31.94,2.94,2.94,0,0,1-.6.8,3.86,3.86,0,0,1-1.27.86,4.15,4.15,0,0,1-1.55.29,3.83,3.83,0,0,1-2.82-1.15,2.71,2.71,0,0,1-.59-.8,3.71,3.71,0,0,1-.32-.94,7.91,7.91,0,0,1-.11-1.18c0-.43,0-1,0-1.54s0-1.1,0-1.54a7.77,7.77,0,0,1,.11-1.17,3.71,3.71,0,0,1,.32-.94,2.88,2.88,0,0,1,.59-.81,4.06,4.06,0,0,1,5.64,0,3.14,3.14,0,0,1,.6.81,3.71,3.71,0,0,1,.31.94,7.77,7.77,0,0,1,.11,1.17c0,.44,0,1,0,1.54S135.52,208.16,135.51,208.59Zm-1.18-3a8,8,0,0,0-.1-1,2.84,2.84,0,0,0-.24-.73,2.36,2.36,0,0,0-.41-.56,2.56,2.56,0,0,0-.86-.58,2.73,2.73,0,0,0-1.05-.21,2.65,2.65,0,0,0-1,.21,2.38,2.38,0,0,0-.86.58,2.16,2.16,0,0,0-.42.56,2.84,2.84,0,0,0-.24.73,8,8,0,0,0-.1,1c0,.4,0,.89,0,1.46s0,1.07,0,1.47a8.19,8.19,0,0,0,.1,1,2.64,2.64,0,0,0,.24.72,2.2,2.2,0,0,0,.42.57,2.38,2.38,0,0,0,.86.58,2.65,2.65,0,0,0,1,.21,2.73,2.73,0,0,0,1.05-.21,2.56,2.56,0,0,0,.86-.58,2.41,2.41,0,0,0,.41-.57,2.64,2.64,0,0,0,.24-.72,8.19,8.19,0,0,0,.1-1c0-.4,0-.89,0-1.47S134.34,206,134.33,205.59Z"/><path class="cls-1" d="M146.53,210.84a2.66,2.66,0,0,1-.77,1,3.72,3.72,0,0,1-1.21.61,5.11,5.11,0,0,1-1.56.22,5.86,5.86,0,0,1-2.12-.34,4.94,4.94,0,0,1-1.66-1.11l.81-.81a3.86,3.86,0,0,0,1.38.94,4.47,4.47,0,0,0,1.62.27,3,3,0,0,0,1.91-.54,1.8,1.8,0,0,0,.7-1.51,2.47,2.47,0,0,0-.13-.79,1.51,1.51,0,0,0-.4-.59,1.75,1.75,0,0,0-.55-.33,5,5,0,0,0-.89-.19l-1.29-.2a4.09,4.09,0,0,1-2-.84,2.61,2.61,0,0,1-.84-2.06,3.14,3.14,0,0,1,.25-1.28,2.67,2.67,0,0,1,.7-1,3.35,3.35,0,0,1,1.11-.63,4.45,4.45,0,0,1,1.47-.22,5.14,5.14,0,0,1,1.81.28,4.67,4.67,0,0,1,1.47.92l-.75.76a3.72,3.72,0,0,0-1.1-.7,4,4,0,0,0-1.48-.24,2.43,2.43,0,0,0-1.72.56,1.91,1.91,0,0,0-.6,1.48,1.6,1.6,0,0,0,.5,1.27,2.37,2.37,0,0,0,.65.38,4.63,4.63,0,0,0,.83.23l1.21.18.69.14a3.46,3.46,0,0,1,.54.16,2.74,2.74,0,0,1,.42.21,2.33,2.33,0,0,1,.37.27,2.74,2.74,0,0,1,.93,2.18A3.07,3.07,0,0,1,146.53,210.84Z"/><path class="cls-1" d="M161.31,210.66a3.13,3.13,0,0,1-.71,1.08,3.36,3.36,0,0,1-1.08.68,3.9,3.9,0,0,1-1.39.24,3.77,3.77,0,0,1-1.4-.24,3.28,3.28,0,0,1-1.13-.75l.79-.79a2.67,2.67,0,0,0,.68.52,2.19,2.19,0,0,0,1.06.21,2.12,2.12,0,0,0,1.67-.66,2.75,2.75,0,0,0,.59-1.88v-7.53h1.18v7.68A3.89,3.89,0,0,1,161.31,210.66Z"/><path class="cls-1" d="M173.72,210.44a3.36,3.36,0,0,1-.81,1.18,3.57,3.57,0,0,1-1.22.77,4.53,4.53,0,0,1-3.08,0,3.57,3.57,0,0,1-1.22-.77,3.45,3.45,0,0,1-.79-1.18,3.73,3.73,0,0,1-.29-1.51v-7.39h1.18v7.3a3.41,3.41,0,0,0,.18,1.14,2.42,2.42,0,0,0,.54.87,2.47,2.47,0,0,0,.84.56,3.12,3.12,0,0,0,2.2,0,2.47,2.47,0,0,0,.84-.56,2.44,2.44,0,0,0,.55-.87,3.17,3.17,0,0,0,.19-1.14v-7.3H174v7.39A3.91,3.91,0,0,1,173.72,210.44Z"/><path class="cls-1" d="M185.93,212.57l-5.85-8.85v8.85H178.9v-11H180l5.85,8.81v-8.81h1.18v11Z"/><path class="cls-1" d="M195.34,202.59v10h-1.18v-10H191v-1.05h7.56v1.05Z"/><path class="cls-1" d="M208,212.57l-.89-2.5h-4.82l-.88,2.5h-1.25l4.06-11h1l4,11Zm-3.27-9.34-2.08,5.82h4.12Z"/><path class="cls-1" d="M221.11,212.57v-8.38l-3,6.64h-1L214,204.19v8.38h-1.18v-11H214l3.59,7.82,3.5-7.82h1.18v11Z"/><path class="cls-1" d="M234.62,208.59a6.71,6.71,0,0,1-.12,1.18,3.35,3.35,0,0,1-.31.94,2.71,2.71,0,0,1-.59.8,3.86,3.86,0,0,1-1.27.86,4.15,4.15,0,0,1-1.55.29,3.8,3.8,0,0,1-2.82-1.15,2.94,2.94,0,0,1-.6-.8,3.71,3.71,0,0,1-.31-.94,7.91,7.91,0,0,1-.11-1.18c0-.43,0-1,0-1.54s0-1.1,0-1.54a7.77,7.77,0,0,1,.11-1.17,3.71,3.71,0,0,1,.31-.94,3.14,3.14,0,0,1,.6-.81,4.06,4.06,0,0,1,5.64,0,2.88,2.88,0,0,1,.59.81,3.35,3.35,0,0,1,.31.94,6.59,6.59,0,0,1,.12,1.17c0,.44,0,1,0,1.54S234.63,208.16,234.62,208.59Zm-1.18-3a8,8,0,0,0-.1-1,2.84,2.84,0,0,0-.24-.73,2.16,2.16,0,0,0-.42-.56,2.38,2.38,0,0,0-.86-.58,2.65,2.65,0,0,0-1-.21,2.73,2.73,0,0,0-1.05.21,2.56,2.56,0,0,0-.86.58,2.36,2.36,0,0,0-.41.56,2.51,2.51,0,0,0-.24.73,8,8,0,0,0-.1,1c0,.4,0,.89,0,1.46s0,1.07,0,1.47a8.19,8.19,0,0,0,.1,1,2.34,2.34,0,0,0,.24.72,2.41,2.41,0,0,0,.41.57,2.56,2.56,0,0,0,.86.58,2.73,2.73,0,0,0,1.05.21,2.65,2.65,0,0,0,1-.21,2.38,2.38,0,0,0,.86-.58,2.2,2.2,0,0,0,.42-.57,2.64,2.64,0,0,0,.24-.72,8.19,8.19,0,0,0,.1-1c0-.4,0-.89,0-1.47S233.45,206,233.44,205.59Z"/><path class="cls-1" d="M245.64,210.84a2.77,2.77,0,0,1-.77,1,3.72,3.72,0,0,1-1.21.61,5.11,5.11,0,0,1-1.56.22,5.86,5.86,0,0,1-2.12-.34,4.94,4.94,0,0,1-1.66-1.11l.81-.81a3.86,3.86,0,0,0,1.38.94,4.43,4.43,0,0,0,1.62.27,3.05,3.05,0,0,0,1.91-.54,1.8,1.8,0,0,0,.7-1.51,2.22,2.22,0,0,0-.14-.79,1.39,1.39,0,0,0-.39-.59,1.87,1.87,0,0,0-.55-.33,5,5,0,0,0-.89-.19l-1.29-.2a4.13,4.13,0,0,1-2-.84,2.64,2.64,0,0,1-.83-2.06,3.32,3.32,0,0,1,.24-1.28,2.81,2.81,0,0,1,.71-1,3.16,3.16,0,0,1,1.11-.63,4.45,4.45,0,0,1,1.47-.22,5.14,5.14,0,0,1,1.81.28,4.67,4.67,0,0,1,1.47.92l-.76.76a3.6,3.6,0,0,0-1.1-.7,3.9,3.9,0,0,0-1.47-.24,2.43,2.43,0,0,0-1.72.56,1.91,1.91,0,0,0-.6,1.48,1.59,1.59,0,0,0,.49,1.27,2.6,2.6,0,0,0,.66.38,4.63,4.63,0,0,0,.83.23l1.21.18.69.14a3,3,0,0,1,.53.16,2.46,2.46,0,0,1,.43.21,1.88,1.88,0,0,1,.36.27,2.71,2.71,0,0,1,.93,2.18A3.07,3.07,0,0,1,245.64,210.84Z"/><path class="cls-1" d="M69.21,229.86a.41.41,0,0,1,.15.29.93.93,0,0,1-.17.46,9.33,9.33,0,0,1-.61.81l-1.14,1.26c-.51.55-1,1.09-1.63,1.61a14,14,0,0,1-1.71,1.31,2,2,0,0,1-1.41.44,4.5,4.5,0,0,1-1.63-.68,1.71,1.71,0,0,1-.71-1.51,2,2,0,0,1,.15-.68l.24-.63c-.16.16-.41.43-.75.82s-.7.78-1.09,1.17a9.74,9.74,0,0,1-1.16,1,1.67,1.67,0,0,1-.91.44,2.14,2.14,0,0,1-1.43-.65,2.49,2.49,0,0,1-.7-1.88s0-.27.13-.73a9.18,9.18,0,0,1,.6-1.82,17.16,17.16,0,0,1,1.46-2.61,17.36,17.36,0,0,1,2.68-3,12.09,12.09,0,0,1,2.63-2,4.61,4.61,0,0,1,2-.56,2.93,2.93,0,0,1,2.19,1,4.82,4.82,0,0,1,1.22,2.15,1.62,1.62,0,0,1,0,.9.92.92,0,0,1-.34.46.47.47,0,0,1-.39.1.19.19,0,0,1-.12-.25,2,2,0,0,0-.12-1.26c-.18-.49-.46-.73-.85-.73a3.43,3.43,0,0,0-1.15.24,4.21,4.21,0,0,0-1.39.93,23,23,0,0,0-1.6,1.67c-.65.74-1.29,1.49-1.9,2.27a24,24,0,0,0-1.58,2.21,3.55,3.55,0,0,0-.66,1.49q0,.24.09.24a.7.7,0,0,0,.31-.14c.15-.1.44-.34.89-.73.22-.23.65-.64,1.27-1.25s1.27-1.23,1.92-1.89,1.22-1.28,1.73-1.83.73-.88.7-1a.46.46,0,0,1,.42-.64,2.22,2.22,0,0,1,1.19.17,1.85,1.85,0,0,1,1,.9,1.49,1.49,0,0,1-.37,1.56c-.13.2-.4.56-.82,1.1s-.84,1.09-1.25,1.68a14.48,14.48,0,0,0-1,1.58c-.24.47-.25.75,0,.85,0,0,0,0,0,.05s0,0,0,0a2.29,2.29,0,0,0,1.12-.63,17.86,17.86,0,0,0,1.61-1.49l1.58-1.63c.51-.52.87-.88,1.1-1.07C69.05,229.78,69.12,229.79,69.21,229.86Z"/><path class="cls-1" d="M74.47,226.74q-1.26,1.95-2.36,3.68a23.24,23.24,0,0,0-1.58,2.8c-.1.23-.2.49-.32.8s-.1.48,0,.51.31,0,.65-.31.75-.63,1.22-1.05.94-.87,1.41-1.34.87-.88,1.2-1.24l.14-.15a3.14,3.14,0,0,1,.44-.53c.2-.2.37-.23.54-.1s.21.21.14.44a3.36,3.36,0,0,1-.78,1.07,11.4,11.4,0,0,1-1,1.14c-.51.51-1,1-1.61,1.51a20.34,20.34,0,0,1-1.66,1.34,2.87,2.87,0,0,1-1.29.63,1.2,1.2,0,0,1-.65,0l-.61-.17a1.06,1.06,0,0,1-.42-.34l-.17-.29v-.1a1.32,1.32,0,0,1-.24-.71c0-.31-.05-.54-.05-.7a4.42,4.42,0,0,1,.56-1.81c.37-.74.79-1.49,1.24-2.24l.49-.82a12.26,12.26,0,0,1,1-1.73c.37-.57.75-1.16,1.14-1.78q1.71-2.73,2.85-4.6a33.54,33.54,0,0,0,1.73-3.14,6.72,6.72,0,0,0,.49-1.29,4.2,4.2,0,0,0,.1-.71c0-.13.08-.22.26-.27a1,1,0,0,1,.66.13,5.41,5.41,0,0,1,1.12,1,2.06,2.06,0,0,1,.44,1.73c-.07.26-.12.54-.17.83a4.19,4.19,0,0,1-.42,1.12,4.25,4.25,0,0,1-.26.49l-.3.46a7.65,7.65,0,0,1-.48.68c-.21.28-.48.68-.81,1.19L75,226a4.56,4.56,0,0,0-.27.39C74.61,226.48,74.54,226.61,74.47,226.74Z"/><path class="cls-1" d="M89.13,229.86a.41.41,0,0,1,.15.29c0,.23-.2.65-.69,1.27-.22.29-.57.71-1,1.26s-1,1.09-1.51,1.61a11.94,11.94,0,0,1-1.59,1.31,1.88,1.88,0,0,1-1.36.44.69.69,0,0,0-.29,0q-1.17,1.71-2.51,3.73a42.37,42.37,0,0,1-2.8,3.77,20.11,20.11,0,0,1-3,2.95,4.84,4.84,0,0,1-3,1.19,5,5,0,0,1-2.07-.39,4,4,0,0,1-1.39-1,4.29,4.29,0,0,1-.82-1.41,5.52,5.52,0,0,1-.34-1.68,8.54,8.54,0,0,1,.14-2.8,5.58,5.58,0,0,1,.81-1.87A3.24,3.24,0,0,1,69,237.41a2.78,2.78,0,0,1,1.29-.35,3.93,3.93,0,0,1,1.39.22c.38.15.58.32.61.52a.34.34,0,0,1-.15.29.45.45,0,0,1-.24.09.3.3,0,0,1-.19-.07.32.32,0,0,0-.2-.07.75.75,0,0,0-.41.24,4.23,4.23,0,0,0-.71,1.07,7.5,7.5,0,0,0-.75,1.46,8.18,8.18,0,0,0-.39,1.42,10.15,10.15,0,0,0-.15,1.24c0,.37,0,.66,0,.85a3.44,3.44,0,0,0,.22,1.1,2,2,0,0,0,.41.65,1.59,1.59,0,0,0,.54.44,3.59,3.59,0,0,0,2.23-1.29,28.07,28.07,0,0,0,2.71-3.14c.92-1.23,1.82-2.56,2.7-4s1.62-2.67,2.24-3.77l.68-1.8-.66.82a15.22,15.22,0,0,1-1,1.17,12.51,12.51,0,0,1-1.09,1,1.54,1.54,0,0,1-.83.44,2.34,2.34,0,0,1-1.49-.65,2.7,2.7,0,0,1-.85-1.88s0-.27,0-.73a7.63,7.63,0,0,1,.44-1.82,14.28,14.28,0,0,1,1.24-2.61,14.72,14.72,0,0,1,2.46-3,10.91,10.91,0,0,1,2.48-2,4.36,4.36,0,0,1,2-.56,3.14,3.14,0,0,1,2.26,1,5.34,5.34,0,0,1,1.39,2.15,1.33,1.33,0,0,1,.07.9,1,1,0,0,1-.31.46.42.42,0,0,1-.37.1.19.19,0,0,1-.12-.25,1.45,1.45,0,0,0,0-.58,3,3,0,0,0-.22-.66,1.62,1.62,0,0,0-.39-.53.76.76,0,0,0-.54-.22,3.23,3.23,0,0,0-1.12.24,3.8,3.8,0,0,0-1.31.93,21.5,21.5,0,0,0-1.49,1.67c-.6.74-1.17,1.49-1.73,2.27s-1,1.52-1.41,2.21a3,3,0,0,0-.53,1.49c.06.16.11.24.14.24a.77.77,0,0,0,.32-.14,7,7,0,0,0,.8-.73c.23-.23.64-.64,1.22-1.25s1.18-1.23,1.78-1.89,1.12-1.28,1.58-1.83.66-.88.63-1c-.13-.36,0-.57.37-.64a2.22,2.22,0,0,1,1.19.17,2.07,2.07,0,0,1,1,.9,1.48,1.48,0,0,1-.22,1.56l-.75,1.1c-.38.53-.74,1.09-1.1,1.68a13.36,13.36,0,0,0-.85,1.58c-.21.47-.21.75,0,.85a0,0,0,0,1,.05.05,0,0,0,0,0,0,0A2.13,2.13,0,0,0,85,234a16.09,16.09,0,0,0,1.49-1.49c.5-.57,1-1.11,1.46-1.63s.8-.88,1-1.07C89,229.78,89,229.79,89.13,229.86Z"/><path class="cls-1" d="M96.29,234.56a9.31,9.31,0,0,1-1.68,1.09,5.72,5.72,0,0,1-1.51.51,7.69,7.69,0,0,1-1.24.13,5.71,5.71,0,0,1-1-.1l-.39-.1a.29.29,0,0,1-.19-.05,3.32,3.32,0,0,1-1.27-.58,2.91,2.91,0,0,1-.75-.9,3.18,3.18,0,0,1-.34-1.07,5.1,5.1,0,0,1,0-1.1,5.75,5.75,0,0,1,.47-1.92l.46-1.05c.23-.39.57-.94,1-1.66a16.74,16.74,0,0,1,1.72-2.16,13.23,13.23,0,0,1,2.29-1.93,5.64,5.64,0,0,1,2.78-.92,3.24,3.24,0,0,1,1.56.24,2.38,2.38,0,0,1,.82.61.58.58,0,0,1,.15.57c-.07.16-.21.19-.44.09a1.44,1.44,0,0,0-.85,0,1.72,1.72,0,0,0-.41.12c.09,0,0,0-.15.08a5.21,5.21,0,0,0-.93.58,11.67,11.67,0,0,0-1.53,1.44,24.63,24.63,0,0,0-2,2.64,26.37,26.37,0,0,0-1.66,2.84,6.8,6.8,0,0,0-.63,1.95c-.1.76.28,1.13,1.12,1.13a2.58,2.58,0,0,0,1.66-.88,14.91,14.91,0,0,0,1.73-2A19,19,0,0,0,96.38,230a3,3,0,0,0,.49-1.3,2.28,2.28,0,0,1-.9-.32.75.75,0,0,1-.37-.85A1.82,1.82,0,0,1,96,226.4a1.85,1.85,0,0,1,.69-.46,1.54,1.54,0,0,1,.6-.1l.22,0a2.43,2.43,0,0,1,1.12.29,2.73,2.73,0,0,1,1,.93,10,10,0,0,1,1.53-.61,5.15,5.15,0,0,1,1.53-.27,2.73,2.73,0,0,1,1.17.19,1.46,1.46,0,0,1,.56.44,1,1,0,0,1,.17.63.52.52,0,0,1-.07.2.24.24,0,0,1-.22.14c-.1,0-.15,0-.17-.09s0-.15-.05-.25a.47.47,0,0,0-.1-.24c0-.07-.13-.1-.26-.1l-.34,0a.86.86,0,0,0-.39.07l-1,.34c-.44.16-1.13.41-2.07.73a1.48,1.48,0,0,0,0,.49,6.73,6.73,0,0,1-.39,1.46,9.71,9.71,0,0,1-.63,1.29c-.23.37-.51.79-.83,1.24A13.06,13.06,0,0,1,96.29,234.56Zm.34-6.84h.26a.6.6,0,0,0,.32-.1.56.56,0,0,0-.27-.46.79.79,0,0,0-.36-.13.43.43,0,0,0-.44.35C96.14,227.6,96.3,227.72,96.63,227.72Z"/><path class="cls-1" d="M122.42,229.81s0,.05,0,.05,0,0,0,0c0,.19-.3.52-.88,1a8.84,8.84,0,0,1-3.15,1.29c-.23.26-.45.52-.68.77s-.47.52-.73.78a12,12,0,0,1-1.41,1.37,8.17,8.17,0,0,1-1.46.95,3.8,3.8,0,0,1-1.66.41,1.47,1.47,0,0,1-1.19-.44,1.58,1.58,0,0,1-.37-1.07,2.71,2.71,0,0,1,1-2.07,5.22,5.22,0,0,1,2.9-1.14,21.43,21.43,0,0,0,2.68-4.17,7.48,7.48,0,0,0,.82-2.65c0-.36-.09-.54-.29-.54a1.59,1.59,0,0,0-.75.27,8.34,8.34,0,0,0-1,.68c-.34.28-.68.57-1,.88s-.64.58-.9.8c-.81,1.11-1.47,2.06-2,2.85s-.91,1.47-1.22,2a13.08,13.08,0,0,0-.68,1.39c-.15.37-.29.71-.42,1l-.12.39c0,.16-.1.34-.17.53l-.17.56a1.56,1.56,0,0,0-.07.37.26.26,0,0,1-.2.27c-.12.05-.3,0-.53-.17a4,4,0,0,1-.68-.64,2.28,2.28,0,0,1-.49-1,5.32,5.32,0,0,1-.1-1,4.42,4.42,0,0,1,.56-1.81c.38-.74.79-1.49,1.24-2.24.52-.9,1.15-1.94,1.88-3.11s1.45-2.34,2.17-3.51,1.36-2.26,1.94-3.29,1-1.84,1.32-2.46a6.72,6.72,0,0,0,.49-1.29,3.9,3.9,0,0,0,.09-.7q0-.19.27-.27a.94.94,0,0,1,.66.12,5.44,5.44,0,0,1,1.1,1,2.09,2.09,0,0,1,.43,1.73,7.22,7.22,0,0,1-.86,2.29,46.82,46.82,0,0,1-2.67,4.23,9.15,9.15,0,0,1,1.27-.73,2.94,2.94,0,0,1,1.35-.34,1.85,1.85,0,0,1,1.51.78,3.45,3.45,0,0,1,.6,2.15,7.25,7.25,0,0,1-.39,2.19,10.75,10.75,0,0,1-1.29,2.63,5.58,5.58,0,0,0,.81-.32l.9-.44c.29-.14.55-.27.78-.36a1.51,1.51,0,0,1,.43-.15A.44.44,0,0,1,122.42,229.81Zm-10.07,4.77c.52-.52,1-1.05,1.47-1.61a2.84,2.84,0,0,0-1.59,1,2.9,2.9,0,0,0-.36.68c0,.13,0,.19.1.19a.93.93,0,0,0,.24-.09A.29.29,0,0,0,112.35,234.58Z"/><path class="cls-1" d="M121.85,236.14a1.26,1.26,0,0,1-.54-.29,2.24,2.24,0,0,1-.41-.44,3.27,3.27,0,0,1-.27-.78,5.32,5.32,0,0,1-.1-1,3.35,3.35,0,0,1,.39-1.42,4.08,4.08,0,0,1,.39-.82l.1-.2h0v-.05l.73-1.31,1.32-2.41.75-1.41c.18-.35.31-.59.39-.73a5.12,5.12,0,0,0,.22-.47,6,6,0,0,0,.48-1.29,3.38,3.38,0,0,0,.1-.7q0-.19.27-.27a.94.94,0,0,1,.66.12,5.76,5.76,0,0,1,1.12,1,2.08,2.08,0,0,1,.44,1.73l-.2.78c-.26.52-.54,1-.85,1.55s-.6,1-.88,1.44-.53.81-.75,1.12a4.78,4.78,0,0,0-.44.66,13.55,13.55,0,0,1-1,1.41,7,7,0,0,0-.93,1.56l-.1.39c0,.13.15.19.34.19a1.85,1.85,0,0,0,1-.56,19.47,19.47,0,0,0,1.51-1.46q.86-.9,1.83-2.07l2-2.38,1-1.46.3-.54c.06-.16.14-.33.22-.51l.31-.71a6.72,6.72,0,0,0,.49-1.29,4.25,4.25,0,0,0,.1-.7q0-.19.27-.27a.92.92,0,0,1,.65.12,5.49,5.49,0,0,1,1.12,1,2,2,0,0,1,.44,1.73l-.19.78-.37.73a5.58,5.58,0,0,1-.41.68c-.07.16-.16.35-.27.56s-.25.48-.41.8c-.75,1.2-1.35,2.16-1.81,2.87s-.8,1.26-1,1.64a7.56,7.56,0,0,0-.47.77,1.05,1.05,0,0,0-.09.32c0,.07,0,.1,0,.1a2,2,0,0,0,.77-.46c.39-.31.82-.69,1.27-1.12l1.39-1.37,1.19-1.19a3.76,3.76,0,0,1,.34-.41.68.68,0,0,1,.49-.27l.07,0a.1.1,0,0,0,.08,0,.42.42,0,0,1,.14.29,1.1,1.1,0,0,1-.17.49,5.73,5.73,0,0,1-.61.78q-.43.48-1.26,1.29c-.56.53-1.12,1.05-1.71,1.55a13.88,13.88,0,0,1-1.7,1.29,2.73,2.73,0,0,1-1.27.54,2.09,2.09,0,0,1-1.31-.41,1.54,1.54,0,0,1-.54-1.3,4.38,4.38,0,0,1,.15-1.26,7.63,7.63,0,0,1,.68-1.46c-.36.42-.78.9-1.27,1.43a19.56,19.56,0,0,1-1.51,1.51,10.48,10.48,0,0,1-1.51,1.17A1.66,1.66,0,0,1,121.85,236.14Z"/><path class="cls-1" d="M145.08,231.37c-.36.35-.86.81-1.49,1.36s-1.31,1.09-2,1.61a14.33,14.33,0,0,1-2.24,1.31,5,5,0,0,1-2.12.54.69.69,0,0,1-.2,0l-.19,0h-.05a3.28,3.28,0,0,1-2.36-1,2.85,2.85,0,0,1-.61-1.78,5.46,5.46,0,0,1,.41-2.31c.28-.57.56-1.13.85-1.68a16,16,0,0,1,1.27-1.87,19.61,19.61,0,0,1,2-2.24,14.44,14.44,0,0,1,2.33-1.88,4.26,4.26,0,0,1,2.24-.78,2.3,2.3,0,0,1,.83.2s0,0,.07,0l.32.2a2.5,2.5,0,0,1,.34.24c.1.08.16.12.2.12a2.51,2.51,0,0,1,.73,1.61,3,3,0,0,1-.9,2,13.18,13.18,0,0,1-2.17,1.9,23.47,23.47,0,0,1-2.58,1.61c-.88.47-1.61.83-2.19,1.09-.16.42-.29.76-.37,1a3,3,0,0,0-.12.88c0,.88.42,1.31,1.27,1.31a3,3,0,0,0,.7-.21,12.37,12.37,0,0,0,1.42-.71,22.27,22.27,0,0,0,1.94-1.29,21.77,21.77,0,0,0,2.32-2s.14-.12.34-.34a1.4,1.4,0,0,1,.58-.44.79.79,0,0,1,.24.05.22.22,0,0,1,.15.24,1.19,1.19,0,0,1-.22.51A2.83,2.83,0,0,1,145.08,231.37Zm-6.14-2.15a6.3,6.3,0,0,0-.41.66l-.37.66c1.17-.88,2.12-1.64,2.85-2.29a18.11,18.11,0,0,0,1.7-1.68,4.76,4.76,0,0,0,.81-1.17,2,2,0,0,0,.19-.7.69.69,0,0,0-.1-.3.33.33,0,0,1,0-.14s-.06,0-.27.14a9.94,9.94,0,0,0-1,.73,14.9,14.9,0,0,0-1.51,1.54A22.51,22.51,0,0,0,138.94,229.22Z"/><path class="cls-1" d="M149,230.1c-.32.52-.58.94-.78,1.24s-.37.6-.53.88-.32.57-.47.88-.31.7-.51,1.19l-.39,1.17c-.06-.1-.11-.16-.14-.17s-.05,0-.05,0a.88.88,0,0,0,.19.17,2.2,2.2,0,0,0-.14.68q0,.24-.3.24a1.49,1.49,0,0,1-1.09-.75,3.47,3.47,0,0,1-.61-2,5,5,0,0,1,.51-1.71c.34-.78.76-1.61,1.24-2.51s1-1.76,1.46-2.6.86-1.51,1.12-2a4.27,4.27,0,0,0,.44-1q.11-.42.15-.69a1.8,1.8,0,0,1,.1-.39c0-.08.12-.12.29-.12a1.43,1.43,0,0,1,.61.2,3,3,0,0,1,.68.51,3.39,3.39,0,0,1,.56.78,2.14,2.14,0,0,1,.24,1,1.79,1.79,0,0,1-.22.51c-.14.27-.3.57-.46.9s-.33.62-.49.9a3.79,3.79,0,0,0-.29.56l1.22-1.32c.55-.58,1.14-1.16,1.78-1.75a21.64,21.64,0,0,1,1.89-1.56,3,3,0,0,1,1.63-.68,1.63,1.63,0,0,1,1.56.78,3.25,3.25,0,0,1,.44,1.66,5.34,5.34,0,0,1-.14,1.21v0a5.36,5.36,0,0,0-.2.51,6,6,0,0,1-.49,1l-1.43,2.39c-.47.78-.9,1.47-1.27,2.07l-1.29,2.07c0,.09,0,.14.1.14a1.62,1.62,0,0,0,.73-.44c.36-.29.76-.64,1.22-1s.9-.84,1.36-1.29.83-.86,1.12-1.22l.15-.15c.09-.13.21-.28.36-.46a.61.61,0,0,1,.46-.27q.3,0,.3.39c0,.2-.22.6-.74,1.22a14.11,14.11,0,0,1-1.26,1.32c-.55.51-1.13,1-1.73,1.53a18.83,18.83,0,0,1-1.73,1.29,2.63,2.63,0,0,1-1.26.53,2.12,2.12,0,0,1-1.27-.41,1.41,1.41,0,0,1-.58-1.24,2.61,2.61,0,0,1,.17-.95,2.5,2.5,0,0,0,.17-.61c.26-.65.58-1.35,1-2.12s.78-1.47,1.17-2.12.92-1.47,1.41-2.19a5.18,5.18,0,0,0,.61-1,1.75,1.75,0,0,0,.17-.63c0-.3-.13-.44-.39-.44a.72.72,0,0,0-.34.1c-1,.9-1.9,1.68-2.58,2.31s-1.36,1.27-2,1.92A12.93,12.93,0,0,0,149,230.1Z"/><path class="cls-1" d="M166.5,234.56a9.31,9.31,0,0,1-1.68,1.09,5.72,5.72,0,0,1-1.51.51,7.69,7.69,0,0,1-1.24.13,5.51,5.51,0,0,1-1-.1l-.39-.1a.3.3,0,0,1-.2-.05,3.32,3.32,0,0,1-1.27-.58,2.91,2.91,0,0,1-.75-.9,3.18,3.18,0,0,1-.34-1.07,5.1,5.1,0,0,1,0-1.1,5.75,5.75,0,0,1,.47-1.92c.24-.54.4-.89.46-1.05.23-.39.58-.94,1.05-1.66a16,16,0,0,1,1.73-2.16,12.8,12.8,0,0,1,2.28-1.93,5.64,5.64,0,0,1,2.78-.92,3.24,3.24,0,0,1,1.56.24,2.54,2.54,0,0,1,.83.61.57.57,0,0,1,.14.57c-.06.16-.21.19-.44.09a1.44,1.44,0,0,0-.85,0,2,2,0,0,0-.41.12c.1,0,.05,0-.15.08a5.24,5.24,0,0,0-.92.58,11.05,11.05,0,0,0-1.54,1.44,26.08,26.08,0,0,0-3.67,5.48,6.56,6.56,0,0,0-.64,1.95c-.09.76.28,1.13,1.12,1.13a2.58,2.58,0,0,0,1.66-.88,14.91,14.91,0,0,0,1.73-2A20.81,20.81,0,0,0,166.6,230a3,3,0,0,0,.48-1.3,2.28,2.28,0,0,1-.9-.32.73.73,0,0,1-.36-.85,1.71,1.71,0,0,1,.39-1.13,1.75,1.75,0,0,1,.68-.46,1.56,1.56,0,0,1,.61-.1l.22,0a2.46,2.46,0,0,1,1.12.29,2.64,2.64,0,0,1,1,.93,10,10,0,0,1,1.53-.61,5.15,5.15,0,0,1,1.54-.27,2.79,2.79,0,0,1,1.17.19,1.5,1.5,0,0,1,.55.44,1,1,0,0,1,.18.63.6.6,0,0,1-.08.2.24.24,0,0,1-.22.14c-.09,0-.15,0-.17-.09s0-.15-.05-.25a.46.46,0,0,0-.09-.24.31.31,0,0,0-.27-.1l-.34,0a.86.86,0,0,0-.39.07l-.95.34c-.44.16-1.13.41-2.07.73a1.82,1.82,0,0,0,0,.49,5.76,5.76,0,0,1-.39,1.46,8.62,8.62,0,0,1-.63,1.29c-.23.37-.51.79-.83,1.24A13.06,13.06,0,0,1,166.5,234.56Zm.34-6.84h.27a.29.29,0,1,0,0-.56.86.86,0,0,0-.37-.13.43.43,0,0,0-.44.35C166.35,227.6,166.52,227.72,166.84,227.72Z"/><path class="cls-1" d="M175.75,242a3.93,3.93,0,0,0-.17.78,6.17,6.17,0,0,0-.07.78.28.28,0,0,1-.2.27c-.13.05-.31,0-.53-.17a4.38,4.38,0,0,1-.68-.63,2.32,2.32,0,0,1-.49-1,4.57,4.57,0,0,1-.1-1,4.34,4.34,0,0,1,.56-1.8c.37-.75.79-1.5,1.24-2.24s1-1.65,1.58-2.61,1.21-1.93,1.83-2.92,1.21-2,1.78-2.92,1-1.81,1.43-2.56l.54-1.07.27-.61c.08-.18.15-.33.22-.46a5.7,5.7,0,0,0,.19-.73,3.52,3.52,0,0,0,0-.49q0-.19.27-.27a1,1,0,0,1,.66.13,3.58,3.58,0,0,1,.53.38,3.67,3.67,0,0,1,.54.57,2.8,2.8,0,0,1,.39.7,1.93,1.93,0,0,1,.09.88s0,.09-.17.39-.31.61-.51.95-.36.65-.51,1-.2.42-.17.39a31.79,31.79,0,0,1,3.8-4.17c1-.83,1.83-1,2.58-.61a2.27,2.27,0,0,1,.9,1,3.47,3.47,0,0,1,.37,1.65,7.87,7.87,0,0,1-.39,2.22,10.13,10.13,0,0,1-1.32,2.6,6.91,6.91,0,0,0,1.36-.43c.2-.07.38-.13.54-.2l.44-.17.29-.12c.39-.13.63-.15.71-.05s0,.25-.3.46a8.62,8.62,0,0,1-1.36.78,14.93,14.93,0,0,1-2.51.9l-.68.81c-.23.27-.47.54-.73.8a8.41,8.41,0,0,1-1.46,1.41,8.57,8.57,0,0,1-1.51.95,3,3,0,0,1-1.7.32,1.32,1.32,0,0,1-1.2-.66,1.86,1.86,0,0,1-.12-1.36,3.5,3.5,0,0,1,.83-1.46,3.44,3.44,0,0,1,1.75-1l1.22-.25a26,26,0,0,0,1.95-2.84,18.08,18.08,0,0,0,1.17-2.34,4.69,4.69,0,0,0,.39-1.58c0-.39-.1-.59-.3-.59a1.65,1.65,0,0,0-.78.46,15.05,15.05,0,0,0-1.19,1.2c-.44.48-.91,1-1.41,1.63s-1,1.18-1.39,1.73l-1.12,1.48q-.48.66-.63.9a34.2,34.2,0,0,1-1.9,2.88q-1.17,1.6-2.53,3.79A47,47,0,0,0,175.75,242Zm7.6-8c.52-.52,1-1.06,1.46-1.61a2.8,2.8,0,0,0-1.58,1,2.54,2.54,0,0,0-.37.69c0,.16.08.21.24.14A1.09,1.09,0,0,0,183.35,234Z"/><path class="cls-1" d="M206.23,229.86a.41.41,0,0,1,.15.29.93.93,0,0,1-.17.46c-.12.18-.32.45-.61.81l-1.15,1.26a20.7,20.7,0,0,1-1.63,1.61,13.19,13.19,0,0,1-1.7,1.31,2,2,0,0,1-1.41.44,4.5,4.5,0,0,1-1.63-.68,1.69,1.69,0,0,1-.71-1.51,2,2,0,0,1,.15-.68q.14-.39.24-.63c-.16.16-.41.43-.75.82s-.7.78-1.09,1.17a10.59,10.59,0,0,1-1.16,1,1.67,1.67,0,0,1-.91.44,2.12,2.12,0,0,1-1.43-.65,2.49,2.49,0,0,1-.7-1.88s0-.27.12-.73a10.08,10.08,0,0,1,.61-1.82,16.33,16.33,0,0,1,1.46-2.61,17,17,0,0,1,2.68-3,11.85,11.85,0,0,1,2.63-2,4.61,4.61,0,0,1,2-.56,2.93,2.93,0,0,1,2.19,1,4.92,4.92,0,0,1,1.22,2.15,1.62,1.62,0,0,1,0,.9,1,1,0,0,1-.34.46.48.48,0,0,1-.39.1.19.19,0,0,1-.12-.25,2.2,2.2,0,0,0-.12-1.26c-.18-.49-.47-.73-.86-.73a3.42,3.42,0,0,0-1.14.24,4.21,4.21,0,0,0-1.39.93,22.8,22.8,0,0,0-1.61,1.67c-.65.74-1.28,1.49-1.89,2.27a26.36,26.36,0,0,0-1.59,2.21,3.63,3.63,0,0,0-.65,1.49q0,.24.09.24A.7.7,0,0,0,195,234c.15-.1.44-.34.89-.73.22-.23.65-.64,1.27-1.25s1.27-1.23,1.92-1.89,1.22-1.28,1.72-1.83.74-.88.71-1c-.1-.36,0-.57.41-.64a2.25,2.25,0,0,1,1.2.17,1.85,1.85,0,0,1,1,.9,1.49,1.49,0,0,1-.37,1.56c-.13.2-.4.56-.83,1.1s-.83,1.09-1.24,1.68a14.48,14.48,0,0,0-1,1.58c-.25.47-.25.75,0,.85,0,0,0,0,0,.05s0,0,0,0a2.33,2.33,0,0,0,1.12-.63,17.86,17.86,0,0,0,1.61-1.49l1.58-1.63c.5-.52.87-.88,1.1-1.07C206.07,229.78,206.13,229.79,206.23,229.86Z"/><path class="cls-1" d="M207.74,230c0-.17.11-.64.22-1.42a22.68,22.68,0,0,1,.85-3.31,5.66,5.66,0,0,1,.71-1.51,4,4,0,0,1,1-1.07,2.62,2.62,0,0,1,1.24-.44,2.2,2.2,0,0,1,1.34.39,5.65,5.65,0,0,1,1.38,1.07,4.44,4.44,0,0,1,.71.83.58.58,0,0,1,.07.34,1.36,1.36,0,0,0,0,.2.54.54,0,0,1-.29.27c-.13,0-.23,0-.3,0a.5.5,0,0,1-.12-.19.8.8,0,0,0-.07-.2,1.37,1.37,0,0,0-.8-.49,1.31,1.31,0,0,0-.78.15,1.86,1.86,0,0,0-.61.49,1.23,1.23,0,0,0-.29.53c-.36,1.14-.62,2-.78,2.66a6.42,6.42,0,0,0-.25,1.19v.24a13.74,13.74,0,0,0,2-.29l1.73-.39.1,0a.3.3,0,0,0,.12,0,.47.47,0,0,1,.17,0c.26,0,.39.12.39.34s-.38.66-1.14.88a31.4,31.4,0,0,1-3.48.73c-.13.52-.28,1-.44,1.51s-.35.85-.56,1.29a3.9,3.9,0,0,1-.76,1.1l-.24.19a4.37,4.37,0,0,1-1.31.88,4,4,0,0,1-1.61.34,2,2,0,0,1-1.44-.46,1.55,1.55,0,0,1-.46-1.15,3.75,3.75,0,0,1,.22-1.12,5.31,5.31,0,0,1,.66-1.36,6.42,6.42,0,0,1,1-1.24,3,3,0,0,1,1.31-.76.92.92,0,0,0,.39-.09v0Zm-.39,1.36a2.31,2.31,0,0,0-1,.66,5.38,5.38,0,0,0-.68,1,4.53,4.53,0,0,0-.39.87,3.5,3.5,0,0,0-.12.44c0,.1,0,.15.1.15a.83.83,0,0,0,.44-.25,4.29,4.29,0,0,0,.61-.68,7.14,7.14,0,0,0,.6-1A5,5,0,0,0,207.35,231.32Z"/><path class="cls-1" d="M227.85,229.86a.41.41,0,0,1,.15.29.93.93,0,0,1-.17.46c-.12.18-.32.45-.61.81l-1.15,1.26a20.7,20.7,0,0,1-1.63,1.61,13.19,13.19,0,0,1-1.7,1.31,2,2,0,0,1-1.41.44,4.5,4.5,0,0,1-1.63-.68,1.69,1.69,0,0,1-.71-1.51,2,2,0,0,1,.15-.68q.13-.39.24-.63c-.16.16-.41.43-.75.82s-.7.78-1.09,1.17a10.59,10.59,0,0,1-1.16,1,1.67,1.67,0,0,1-.91.44,2.12,2.12,0,0,1-1.43-.65,2.45,2.45,0,0,1-.7-1.88s0-.27.12-.73a9.34,9.34,0,0,1,.61-1.82,16.33,16.33,0,0,1,1.46-2.61,17,17,0,0,1,2.68-3,11.85,11.85,0,0,1,2.63-2,4.61,4.61,0,0,1,2-.56,2.93,2.93,0,0,1,2.19,1,4.8,4.8,0,0,1,1.21,2.15,1.55,1.55,0,0,1,0,.9,1,1,0,0,1-.34.46.48.48,0,0,1-.39.1.17.17,0,0,1-.12-.25,2.2,2.2,0,0,0-.12-1.26c-.18-.49-.47-.73-.86-.73a3.42,3.42,0,0,0-1.14.24,4.21,4.21,0,0,0-1.39.93,22.8,22.8,0,0,0-1.61,1.67c-.65.74-1.28,1.49-1.9,2.27s-1.14,1.52-1.58,2.21a3.49,3.49,0,0,0-.65,1.49q0,.24.09.24a.75.75,0,0,0,.31-.14c.15-.1.44-.34.89-.73.22-.23.64-.64,1.27-1.25s1.26-1.23,1.91-1.89,1.23-1.28,1.73-1.83.74-.88.71-1c-.1-.36,0-.57.41-.64a2.25,2.25,0,0,1,1.2.17,1.89,1.89,0,0,1,.95.9,1.49,1.49,0,0,1-.37,1.56c-.13.2-.41.56-.83,1.1s-.83,1.09-1.24,1.68a13.07,13.07,0,0,0-1,1.58c-.25.47-.25.75,0,.85,0,0,0,0,0,.05s0,0,0,0a2.33,2.33,0,0,0,1.12-.63,17.86,17.86,0,0,0,1.61-1.49l1.58-1.63c.5-.52.87-.88,1.1-1.07C227.69,229.78,227.75,229.79,227.85,229.86Z"/><path class="cls-1" d="M242,114.68h-6.43v39.53h30.7v-5.9H242Zm-24.38,60.71,4.44-8.24,4.35,8.24Zm3.16-10.28-9.68,17.94h2.36l3.3-6h10.54l3.28,6h2.48l-9.74-17.94Zm-27.73-10.9,15.15-30.95,15.53,31h7.33l-19.38-39.53h-6.27l-19.55,39.53Zm-7.28,10.9h-3.06v17.94H185V167.27h.07l13.44,15.78h2.27V165.11h-2.27V180h-.06Zm-9.87-10.9V120.47h15v-5.79H154.55v5.79h14.94v33.74Zm-5.47,10.9h-2.27v17.94h2.27Zm-14.12,0h-12.4v17.94h12.4v-1.62H146.18v-6.62H156v-1.63h-9.8v-6.45h10.14Zm-32.89,0h-5.76v17.94h2.26V166.73h4a10.5,10.5,0,0,1,4.41.68,3.9,3.9,0,0,1,2.48,3.44c0,1.61-1.26,3.25-3.74,3.81a21.31,21.31,0,0,1-4.87.27l7.69,8.12h2.85l-6.41-6.69c4.38-.22,6.74-2.86,6.74-5.46,0-2.2-1.5-4.17-4-5.11a15.73,15.73,0,0,0-5.57-.68m-7-44.58h19.65c2.25,0,4.58.11,6,2.54a7,7,0,0,1,1,3.73,6,6,0,0,1-1.13,3.7c-1.93,2.68-5.48,2.68-8.06,2.68H116.4Zm19.14-5.85H110v39.53h6.42v-15.3h16.78l12.4,15.3H154l-13.66-16.37c3.14-.66,9.32-2.67,9.32-11.26a11.29,11.29,0,0,0-3.46-8.64c-3.33-3.14-7.38-3.2-10.7-3.26M76,175.39l4.44-8.25,4.35,8.25Zm3.15-10.28-9.68,17.94h2.36l3.31-6H85.63l3.28,6h2.48l-9.74-17.94Zm-13.59-30.5c0-10.69,8.14-14.73,15.75-15h.67c10,0,16.44,5.81,16.44,14.8,0,3.48-1.17,14.84-16.19,14.84-6.13,0-10.7-1.79-13.6-5.32a14.7,14.7,0,0,1-3.07-9.36m-6.41.32c0,8.58,4.17,13.42,7.66,16,3.89,2.89,9.07,4.35,15.42,4.35,11.28,0,22.66-6.26,22.66-20.25,0-12.64-9.25-21.17-23-21.23-11.31,0-22.71,6.55-22.71,21.17M52,165.11H49.77v17.94H61.41v-1.62H52ZM36.39,165H17.1v18.05H36.39Zm2.9-44.56c2.56,0,5.75,0,7.7,2a5.84,5.84,0,0,1,1.54,4.23A6,6,0,0,1,46,131.83c-1.76,1.24-4.21,1.24-6.18,1.24H23.56v-12.6Zm.77-5.79h-23v39.53h6.52v-15.3h17c3.52,0,9.42,0,12.81-4.93a12.69,12.69,0,0,0,2-7,12.24,12.24,0,0,0-3.78-9c-2.68-2.38-6-3.35-11.57-3.35M215.12,69.26a8.47,8.47,0,1,1-8.46-8.79,8.64,8.64,0,0,1,8.46,8.79m5.87,33.4h45.37V91h-.13v-.36H228.34a100.2,100.2,0,0,0-7.87-13.4,16.42,16.42,0,0,0,2-7.92c0-9-7.06-16.38-15.75-16.38a14.9,14.9,0,0,0-7.77,2.14,93.55,93.55,0,0,0-56.82-19.26c-36.31,0-69.7,21.71-86.16,55H17.17v11.7h46.1v-.34h0l.22-.52C76.92,68.86,107.75,47.64,142,47.64a82.44,82.44,0,0,1,49.68,16.61,16.9,16.9,0,0,0-.8,5.15c0,9,7,16.26,15.65,16.26a16,16,0,0,0,4.89-.82,90,90,0,0,1,9.22,16.89l.21.52h.1ZM266.38,165H247.09v18.05h19.29Z"/><path class="cls-1" d="M242,114.68h-6.43v39.53h30.7v-5.9H242Zm-24.38,60.71,4.44-8.24,4.35,8.24Zm3.16-10.28-9.68,17.94h2.36l3.3-6h10.54l3.28,6h2.48l-9.74-17.94Zm-27.73-10.9,15.15-30.95,15.53,31h7.33l-19.38-39.53h-6.27l-19.55,39.53Zm-7.28,10.9h-3.06v17.94H185V167.27h.07l13.44,15.78h2.27V165.11h-2.27V180h-.06Zm-9.87-10.9V120.47h15v-5.79H154.55v5.79h14.94v33.74Zm-5.47,10.9h-2.27v17.94h2.27Zm-14.12,0h-12.4v17.94h12.4v-1.62H146.18v-6.62H156v-1.63h-9.8v-6.45h10.14Zm-32.89,0h-5.76v17.94h2.26V166.73h4a10.5,10.5,0,0,1,4.41.68,3.9,3.9,0,0,1,2.48,3.44c0,1.61-1.26,3.25-3.74,3.81a21.31,21.31,0,0,1-4.87.27l7.69,8.12h2.85l-6.41-6.69c4.38-.22,6.74-2.86,6.74-5.46,0-2.2-1.5-4.17-4-5.11a15.73,15.73,0,0,0-5.57-.68m-7-44.58h19.65c2.25,0,4.58.11,6,2.54a7,7,0,0,1,1,3.73,6,6,0,0,1-1.13,3.7c-1.93,2.68-5.48,2.68-8.06,2.68H116.4Zm19.14-5.85H110v39.53h6.42v-15.3h16.78l12.4,15.3H154l-13.66-16.37c3.14-.66,9.32-2.67,9.32-11.26a11.29,11.29,0,0,0-3.46-8.64c-3.33-3.14-7.38-3.2-10.7-3.26M76,175.39l4.44-8.25,4.35,8.25Zm3.15-10.28-9.68,17.94h2.36l3.31-6H85.63l3.28,6h2.48l-9.74-17.94Zm-13.59-30.5c0-10.69,8.14-14.73,15.75-15h.67c10,0,16.44,5.81,16.44,14.8,0,3.48-1.17,14.84-16.19,14.84-6.13,0-10.7-1.79-13.6-5.32a14.7,14.7,0,0,1-3.07-9.36m-6.41.32c0,8.58,4.17,13.42,7.66,16,3.89,2.89,9.07,4.35,15.42,4.35,11.28,0,22.66-6.26,22.66-20.25,0-12.64-9.25-21.17-23-21.23-11.31,0-22.71,6.55-22.71,21.17M52,165.11H49.77v17.94H61.41v-1.62H52ZM36.39,165H17.1v18.05H36.39Zm2.9-44.56c2.56,0,5.75,0,7.7,2a5.84,5.84,0,0,1,1.54,4.23A6,6,0,0,1,46,131.83c-1.76,1.24-4.21,1.24-6.18,1.24H23.56v-12.6Zm.77-5.79h-23v39.53h6.52v-15.3h17c3.52,0,9.42,0,12.81-4.93a12.69,12.69,0,0,0,2-7,12.24,12.24,0,0,0-3.78-9c-2.68-2.38-6-3.35-11.57-3.35M215.12,69.26a8.47,8.47,0,1,1-8.46-8.79,8.64,8.64,0,0,1,8.46,8.79m5.87,33.4h45.37V91h-.13v-.36H228.34a100.2,100.2,0,0,0-7.87-13.4,16.42,16.42,0,0,0,2-7.92c0-9-7.06-16.38-15.75-16.38a14.9,14.9,0,0,0-7.77,2.14,93.55,93.55,0,0,0-56.82-19.26c-36.31,0-69.7,21.71-86.16,55H17.17v11.7h46.1v-.34h0l.22-.52C76.92,68.86,107.75,47.64,142,47.64a82.44,82.44,0,0,1,49.68,16.61,16.9,16.9,0,0,0-.8,5.15c0,9,7,16.26,15.65,16.26a16,16,0,0,0,4.89-.82,90,90,0,0,1,9.22,16.89l.21.52h.1ZM266.38,165H247.09v18.05h19.29Z"/></svg>