<svg id="Capa_1" data-name="Capa 1" xmlns="http://www.w3.org/2000/svg" viewBox="0 0 283.46 283.46"><defs><style>.cls-1{fill:#7c7c7b;}</style></defs><title>LOGOS PORTAL (GRIS)</title><path class="cls-1" d="M43.21,210.93a3.52,3.52,0,0,1-.83,1,3.76,3.76,0,0,1-1.14.64,4.12,4.12,0,0,1-1.38.23A4,4,0,0,1,37,211.68a3.14,3.14,0,0,1-.6-.81,4.23,4.23,0,0,1-.31-.93,8,8,0,0,1-.11-1.18c0-.44,0-.95,0-1.54s0-1.1,0-1.54a8,8,0,0,1,.11-1.18,4.15,4.15,0,0,1,.31-.94,2.94,2.94,0,0,1,.6-.8,3.8,3.8,0,0,1,1.28-.86,4.14,4.14,0,0,1,1.54-.29,4.39,4.39,0,0,1,1.38.22,3.79,3.79,0,0,1,1.14.65,3.52,3.52,0,0,1,.83,1,4.6,4.6,0,0,1,.48,1.38H42.48a3,3,0,0,0-.9-1.62,2.53,2.53,0,0,0-1.72-.61,2.73,2.73,0,0,0-1,.21,2.4,2.4,0,0,0-.86.57,2.18,2.18,0,0,0-.41.56,2.84,2.84,0,0,0-.24.73,8.8,8.8,0,0,0-.1,1c0,.4,0,.89,0,1.47s0,1.06,0,1.46a8.37,8.37,0,0,0,.1,1,2.61,2.61,0,0,0,.24.73,2.41,2.41,0,0,0,1.27,1.14,2.72,2.72,0,0,0,1,.2,2.59,2.59,0,0,0,1.74-.6,3,3,0,0,0,.91-1.63h1.18A4.57,4.57,0,0,1,43.21,210.93Z"/><path class="cls-1" d="M55.4,210.6a3.52,3.52,0,0,1-.8,1.19,3.65,3.65,0,0,1-1.22.76,4.4,4.4,0,0,1-3.09,0,3.45,3.45,0,0,1-2-2,3.91,3.91,0,0,1-.29-1.51V201.7h1.18V209a3.51,3.51,0,0,0,.18,1.15,2.43,2.43,0,0,0,.54.86,2.34,2.34,0,0,0,.84.56,2.8,2.8,0,0,0,1.1.2,2.77,2.77,0,0,0,1.1-.2,2.38,2.38,0,0,0,.85-.56,2.43,2.43,0,0,0,.54-.86,3.27,3.27,0,0,0,.19-1.15v-7.3h1.18v7.39A3.73,3.73,0,0,1,55.4,210.6Z"/><path class="cls-1" d="M67,212.73l-.89-2.49H61.31l-.88,2.49H59.18l4.06-11h1l4,11Zm-3.27-9.34-2.08,5.83h4.12Z"/><path class="cls-1" d="M78.94,212.73l-5.85-8.84v8.84H71.91v-11H73l5.86,8.82V201.7h1.18v11Z"/><path class="cls-1" d="M92.75,208.3a8.55,8.55,0,0,1-.1,1.25,5.05,5.05,0,0,1-.32,1.17,3.09,3.09,0,0,1-.65,1,3.41,3.41,0,0,1-1.21.76,4.67,4.67,0,0,1-1.58.26H85.11v-11h3.78a4.44,4.44,0,0,1,1.58.27,3.28,3.28,0,0,1,1.21.76,3,3,0,0,1,.65,1,4.48,4.48,0,0,1,.32,1.08,7.46,7.46,0,0,1,.1,1.16c0,.4,0,.79,0,1.17S92.76,207.88,92.75,208.3Zm-1.18-2.22a7.27,7.27,0,0,0-.06-1,4.51,4.51,0,0,0-.22-.86,2,2,0,0,0-.44-.7,2.39,2.39,0,0,0-1-.63,4.07,4.07,0,0,0-1.19-.17H86.28v8.92h2.41a3.76,3.76,0,0,0,1.19-.18,2.39,2.39,0,0,0,1-.63,1.9,1.9,0,0,0,.44-.73,5.5,5.5,0,0,0,.22-.95,8.69,8.69,0,0,0,.06-1c0-.36,0-.72,0-1.06S91.58,206.42,91.57,206.08Z"/><path class="cls-1" d="M104.67,208.76a8,8,0,0,1-.11,1.18,4.23,4.23,0,0,1-.31.93,3.14,3.14,0,0,1-.6.81,3.92,3.92,0,0,1-2.82,1.15A3.84,3.84,0,0,1,98,211.68a3.14,3.14,0,0,1-.6-.81,3.77,3.77,0,0,1-.31-.93,8,8,0,0,1-.11-1.18c0-.44,0-.95,0-1.54s0-1.1,0-1.54a8,8,0,0,1,.11-1.18,3.71,3.71,0,0,1,.31-.94,2.94,2.94,0,0,1,.6-.8,4,4,0,0,1,5.64,0,2.94,2.94,0,0,1,.6.8,4.15,4.15,0,0,1,.31.94,8,8,0,0,1,.11,1.18c0,.44,0,.95,0,1.54S104.68,208.32,104.67,208.76Zm-1.18-3a8.39,8.39,0,0,0-.1-1,2.64,2.64,0,0,0-.24-.72,2.41,2.41,0,0,0-.41-.57,2.7,2.7,0,0,0-3.82,0,2.41,2.41,0,0,0-.41.57,2.64,2.64,0,0,0-.24.72,8.39,8.39,0,0,0-.1,1c0,.4,0,.89,0,1.47s0,1.06,0,1.46a8.37,8.37,0,0,0,.1,1,2.9,2.9,0,0,0,.24.72,2.18,2.18,0,0,0,.41.56,2.56,2.56,0,0,0,.86.58,2.73,2.73,0,0,0,2.1,0,2.56,2.56,0,0,0,.86-.58,2.18,2.18,0,0,0,.41-.56,2.9,2.9,0,0,0,.24-.72,8.37,8.37,0,0,0,.1-1c0-.4,0-.88,0-1.46S103.5,206.15,103.49,205.75Z"/><path class="cls-1" d="M122.07,212.73l-5.86-8.84v8.84H115v-11h1.12l5.86,8.82V201.7h1.17v11Z"/><path class="cls-1" d="M135.51,208.76a8,8,0,0,1-.11,1.18,3.77,3.77,0,0,1-.31.93,3.14,3.14,0,0,1-.6.81,4,4,0,0,1-1.27.85,3.93,3.93,0,0,1-1.55.3,3.87,3.87,0,0,1-2.82-1.15,3.09,3.09,0,0,1-.59-.81,3.39,3.39,0,0,1-.31-.93,6.81,6.81,0,0,1-.12-1.18c0-.44,0-.95,0-1.54s0-1.1,0-1.54a6.81,6.81,0,0,1,.12-1.18,3.35,3.35,0,0,1,.31-.94,2.9,2.9,0,0,1,.59-.8,4,4,0,0,1,5.64,0,2.94,2.94,0,0,1,.6.8,3.71,3.71,0,0,1,.31.94,8,8,0,0,1,.11,1.18c0,.44,0,.95,0,1.54S135.52,208.32,135.51,208.76Zm-1.18-3a8.39,8.39,0,0,0-.1-1A2.34,2.34,0,0,0,134,204a2.41,2.41,0,0,0-.41-.57,2.68,2.68,0,0,0-1.91-.79,2.65,2.65,0,0,0-1,.21,2.51,2.51,0,0,0-.86.58,2.2,2.2,0,0,0-.42.57,2.64,2.64,0,0,0-.24.72,6.88,6.88,0,0,0-.09,1q0,.6,0,1.47c0,.58,0,1.06,0,1.46a6.9,6.9,0,0,0,.09,1,2.9,2.9,0,0,0,.24.72,2,2,0,0,0,.42.56,2.38,2.38,0,0,0,.86.58,2.65,2.65,0,0,0,1,.21,2.73,2.73,0,0,0,1.05-.21,2.56,2.56,0,0,0,.86-.58,2.18,2.18,0,0,0,.41-.56,2.54,2.54,0,0,0,.24-.72,8.37,8.37,0,0,0,.1-1c0-.4,0-.88,0-1.46S134.34,206.15,134.33,205.75Z"/><path class="cls-1" d="M146.53,211a2.66,2.66,0,0,1-.77,1,3.74,3.74,0,0,1-1.21.62,5.44,5.44,0,0,1-1.56.22,5.85,5.85,0,0,1-2.12-.35,4.66,4.66,0,0,1-1.66-1.11l.81-.81a4.08,4.08,0,0,0,1.38.95,4.72,4.72,0,0,0,1.63.26,3.08,3.08,0,0,0,1.9-.53,1.79,1.79,0,0,0,.7-1.51,2.42,2.42,0,0,0-.13-.79,1.38,1.38,0,0,0-.4-.59,1.44,1.44,0,0,0-.55-.33,4.84,4.84,0,0,0-.89-.2l-1.29-.2a3.92,3.92,0,0,1-2-.84,2.6,2.6,0,0,1-.84-2.06,3.1,3.1,0,0,1,.25-1.27,2.7,2.7,0,0,1,.7-1,3.35,3.35,0,0,1,1.11-.63,4.73,4.73,0,0,1,1.47-.22,5.13,5.13,0,0,1,1.81.29,4.83,4.83,0,0,1,1.48.92l-.76.76a3.76,3.76,0,0,0-1.1-.71,4,4,0,0,0-1.48-.24,2.47,2.47,0,0,0-1.72.56,1.94,1.94,0,0,0-.6,1.49,1.6,1.6,0,0,0,.5,1.27,2.28,2.28,0,0,0,.66.37,4.31,4.31,0,0,0,.82.23l1.21.19c.26,0,.49.08.69.13a5,5,0,0,1,.54.16,2.74,2.74,0,0,1,.42.21,3.18,3.18,0,0,1,.37.27,2.73,2.73,0,0,1,.93,2.19A3,3,0,0,1,146.53,211Z"/><path class="cls-1" d="M161.31,210.82a3,3,0,0,1-.71,1.08,3.19,3.19,0,0,1-1.08.68,3.7,3.7,0,0,1-1.39.25,3.57,3.57,0,0,1-1.4-.25,3.28,3.28,0,0,1-1.13-.75l.79-.79a2.67,2.67,0,0,0,.68.52,2.19,2.19,0,0,0,1.06.21,2.12,2.12,0,0,0,1.67-.66,2.73,2.73,0,0,0,.59-1.88V201.7h1.18v7.69A3.87,3.87,0,0,1,161.31,210.82Z"/><path class="cls-1" d="M173.72,210.6a3.4,3.4,0,0,1-.81,1.19,3.55,3.55,0,0,1-1.22.76,4.38,4.38,0,0,1-3.08,0,3.43,3.43,0,0,1-2-2,3.9,3.9,0,0,1-.28-1.51V201.7h1.17V209a3.51,3.51,0,0,0,.19,1.15,2.27,2.27,0,0,0,.53.86,2.47,2.47,0,0,0,.85.56,3.12,3.12,0,0,0,2.2,0,2.34,2.34,0,0,0,.84-.56,2.31,2.31,0,0,0,.55-.86,3.51,3.51,0,0,0,.19-1.15v-7.3H174v7.39A3.91,3.91,0,0,1,173.72,210.6Z"/><path class="cls-1" d="M185.93,212.73l-5.85-8.84v8.84H178.9v-11H180l5.85,8.82V201.7h1.18v11Z"/><path class="cls-1" d="M195.34,202.76v10h-1.18v-10H191V201.7h7.56v1.06Z"/><path class="cls-1" d="M208,212.73l-.89-2.49h-4.81l-.89,2.49h-1.25l4.06-11h1l4,11Zm-3.27-9.34-2.08,5.83h4.12Z"/><path class="cls-1" d="M221.11,212.73v-8.38l-3,6.65h-1L214,204.35v8.38h-1.18v-11H214l3.59,7.83,3.5-7.83h1.18v11Z"/><path class="cls-1" d="M234.62,208.76a6.81,6.81,0,0,1-.12,1.18,3.39,3.39,0,0,1-.31.93,3.09,3.09,0,0,1-.59.81,3.92,3.92,0,0,1-2.82,1.15,3.84,3.84,0,0,1-2.82-1.15,3.14,3.14,0,0,1-.6-.81,3.77,3.77,0,0,1-.31-.93,8,8,0,0,1-.11-1.18c0-.44,0-.95,0-1.54s0-1.1,0-1.54a8,8,0,0,1,.11-1.18,3.71,3.71,0,0,1,.31-.94,2.94,2.94,0,0,1,.6-.8,4,4,0,0,1,5.64,0,2.9,2.9,0,0,1,.59.8,3.35,3.35,0,0,1,.31.94,6.81,6.81,0,0,1,.12,1.18c0,.44,0,.95,0,1.54S234.63,208.32,234.62,208.76Zm-1.18-3a6.63,6.63,0,0,0-.11-1,2.65,2.65,0,0,0-.23-.72,2.2,2.2,0,0,0-.42-.57,2.51,2.51,0,0,0-.86-.58,2.65,2.65,0,0,0-1-.21,2.68,2.68,0,0,0-1.91.79,2.79,2.79,0,0,0-.42.57,2.65,2.65,0,0,0-.23.72,8.39,8.39,0,0,0-.1,1c0,.4,0,.89,0,1.47s0,1.06,0,1.46a8.37,8.37,0,0,0,.1,1,2.9,2.9,0,0,0,.23.72,2.49,2.49,0,0,0,.42.56,2.56,2.56,0,0,0,.86.58,2.73,2.73,0,0,0,1.05.21,2.65,2.65,0,0,0,1-.21,2.38,2.38,0,0,0,.86-.58,2,2,0,0,0,.42-.56,2.9,2.9,0,0,0,.23-.72,6.63,6.63,0,0,0,.11-1c0-.4,0-.88,0-1.46S233.45,206.15,233.44,205.75Z"/><path class="cls-1" d="M245.64,211a2.77,2.77,0,0,1-.77,1,3.74,3.74,0,0,1-1.21.62,5.44,5.44,0,0,1-1.56.22,5.85,5.85,0,0,1-2.12-.35,4.66,4.66,0,0,1-1.66-1.11l.81-.81a3.9,3.9,0,0,0,1.38.95,4.66,4.66,0,0,0,1.62.26,3.12,3.12,0,0,0,1.91-.53,1.81,1.81,0,0,0,.7-1.51,2.18,2.18,0,0,0-.14-.79,1.36,1.36,0,0,0-.39-.59,1.52,1.52,0,0,0-.55-.33,4.84,4.84,0,0,0-.89-.2l-1.29-.2a4,4,0,0,1-2-.84,2.62,2.62,0,0,1-.83-2.06,3.27,3.27,0,0,1,.24-1.27,2.85,2.85,0,0,1,.71-1,3.16,3.16,0,0,1,1.11-.63,4.73,4.73,0,0,1,1.47-.22,5.17,5.17,0,0,1,1.81.29,4.67,4.67,0,0,1,1.47.92l-.76.76a3.63,3.63,0,0,0-1.1-.71,3.9,3.9,0,0,0-1.47-.24,2.47,2.47,0,0,0-1.72.56,1.94,1.94,0,0,0-.6,1.49,1.59,1.59,0,0,0,.49,1.27,2.59,2.59,0,0,0,.66.37,4.63,4.63,0,0,0,.83.23l1.21.19c.26,0,.49.08.69.13a4.24,4.24,0,0,1,.53.16,2.46,2.46,0,0,1,.43.21,2.42,2.42,0,0,1,.36.27,2.73,2.73,0,0,1,.93,2.19A3,3,0,0,1,245.64,211Z"/><path class="cls-1" d="M69.21,230a.43.43,0,0,1,.15.29,1,1,0,0,1-.17.47,9.58,9.58,0,0,1-.61.8l-1.14,1.27c-.51.55-1,1.08-1.63,1.6a15.21,15.21,0,0,1-1.71,1.32,2.09,2.09,0,0,1-1.41.44,4.35,4.35,0,0,1-1.63-.69,1.7,1.7,0,0,1-.71-1.51,2,2,0,0,1,.15-.68l.24-.63c-.16.16-.41.44-.75.83s-.7.78-1.09,1.17a10.53,10.53,0,0,1-1.15,1,1.8,1.8,0,0,1-.92.44,2.11,2.11,0,0,1-1.43-.66,2.47,2.47,0,0,1-.7-1.87s0-.28.13-.74a8.7,8.7,0,0,1,.61-1.82,16.3,16.3,0,0,1,4.13-5.62,12.19,12.19,0,0,1,2.63-2,4.61,4.61,0,0,1,2-.56,2.94,2.94,0,0,1,2.19,1A4.79,4.79,0,0,1,67.61,226a1.62,1.62,0,0,1,0,.9.92.92,0,0,1-.34.46.47.47,0,0,1-.39.1q-.16,0-.12-.24a2.07,2.07,0,0,0-.12-1.27c-.18-.49-.46-.73-.85-.73a3.43,3.43,0,0,0-1.15.24,4.38,4.38,0,0,0-1.39.93c-.42.39-1,1-1.6,1.68s-1.29,1.48-1.9,2.26a22.8,22.8,0,0,0-1.58,2.22,3.53,3.53,0,0,0-.66,1.48c0,.17,0,.25.09.25a.7.7,0,0,0,.32-.15c.14-.1.43-.34.88-.73.22-.23.65-.64,1.28-1.24s1.26-1.23,1.91-1.9,1.22-1.27,1.73-1.83.73-.87.7-1a.45.45,0,0,1,.42-.63,2,2,0,0,1,1.19.17,1.85,1.85,0,0,1,1,.9c.21.42.09.94-.37,1.56-.13.19-.4.56-.82,1.09s-.84,1.1-1.25,1.68a15.5,15.5,0,0,0-1,1.58c-.24.48-.25.76,0,.86,0,0,0,0,0,.05s0,0,0,0a2.29,2.29,0,0,0,1.12-.63,19.25,19.25,0,0,0,1.61-1.48L67.92,231c.51-.51.87-.87,1.1-1.07C69.05,229.94,69.12,230,69.21,230Z"/><path class="cls-1" d="M74.47,226.91c-.84,1.29-1.63,2.52-2.36,3.67a24,24,0,0,0-1.58,2.8c-.1.23-.2.5-.32.81s-.1.47,0,.51.31,0,.65-.32.75-.63,1.22-1,.94-.87,1.41-1.34.87-.88,1.2-1.24l.14-.14a3.17,3.17,0,0,1,.44-.54c.2-.19.37-.23.54-.1s.21.21.14.44a3.15,3.15,0,0,1-.78,1.07,12.42,12.42,0,0,1-1,1.15c-.51.5-1,1-1.61,1.51s-1.12,1-1.66,1.34a2.87,2.87,0,0,1-1.29.63,1.31,1.31,0,0,1-.65,0,5.43,5.43,0,0,1-.61-.17,1,1,0,0,1-.42-.34l-.17-.29v-.1a1.32,1.32,0,0,1-.24-.7c0-.31-.05-.55-.05-.71A4.42,4.42,0,0,1,68,232c.38-.75.79-1.49,1.24-2.24l.49-.83a12.84,12.84,0,0,1,1-1.73l1.14-1.77q1.71-2.73,2.85-4.61a32.32,32.32,0,0,0,1.73-3.14,6.72,6.72,0,0,0,.49-1.29,4.25,4.25,0,0,0,.1-.7c0-.13.08-.22.26-.27a.94.94,0,0,1,.66.12,5.49,5.49,0,0,1,1.12,1,2,2,0,0,1,.44,1.73c-.07.26-.12.53-.17.83a4.32,4.32,0,0,1-.42,1.12,5,5,0,0,1-.26.48c-.08.13-.18.29-.3.46s-.27.41-.48.69-.48.67-.81,1.19L75,226.13a4.56,4.56,0,0,0-.27.39C74.61,226.65,74.54,226.78,74.47,226.91Z"/><path class="cls-1" d="M89.13,230a.43.43,0,0,1,.15.29c0,.23-.2.65-.69,1.27-.22.29-.57.71-1,1.27s-1,1.08-1.51,1.6a12.9,12.9,0,0,1-1.59,1.32,1.92,1.92,0,0,1-1.36.44.56.56,0,0,0-.29-.05c-.78,1.13-1.61,2.38-2.51,3.72a41.13,41.13,0,0,1-2.8,3.78,20,20,0,0,1-3,2.94,4.78,4.78,0,0,1-3,1.19,5,5,0,0,1-2.07-.38,4.17,4.17,0,0,1-1.38-1,4.34,4.34,0,0,1-.83-1.41,5.64,5.64,0,0,1-.34-1.68,8.52,8.52,0,0,1,.14-2.8,5.64,5.64,0,0,1,.81-1.88A3.33,3.33,0,0,1,69,237.57a2.77,2.77,0,0,1,1.29-.34,3.72,3.72,0,0,1,1.39.22c.38.14.58.31.61.51a.33.33,0,0,1-.14.29.45.45,0,0,1-.25.1.37.37,0,0,1-.19-.07.34.34,0,0,0-.2-.08c-.1,0-.23.08-.41.25a4,4,0,0,0-.71,1.07,7,7,0,0,0-.75,1.46,7.85,7.85,0,0,0-.39,1.41,10.39,10.39,0,0,0-.15,1.24c0,.37,0,.66,0,.85a3.38,3.38,0,0,0,.22,1.1,2.12,2.12,0,0,0,.41.66,1.56,1.56,0,0,0,.54.43,3.59,3.59,0,0,0,2.23-1.29,27.2,27.2,0,0,0,2.71-3.14q1.38-1.85,2.7-4c.88-1.42,1.62-2.67,2.24-3.78l.68-1.8-.66.83a15.22,15.22,0,0,1-1,1.17,12.51,12.51,0,0,1-1.09,1,1.62,1.62,0,0,1-.83.44,2.3,2.3,0,0,1-1.49-.66,2.68,2.68,0,0,1-.85-1.87s0-.28,0-.74a7.63,7.63,0,0,1,.44-1.82,14.92,14.92,0,0,1,1.24-2.61,14.42,14.42,0,0,1,2.46-3,11,11,0,0,1,2.48-2,4.36,4.36,0,0,1,2-.56,3.15,3.15,0,0,1,2.26,1A5.31,5.31,0,0,1,87.18,226a1.41,1.41,0,0,1,.08.9,1.1,1.1,0,0,1-.32.46.42.42,0,0,1-.37.1q-.16,0-.12-.24a1.5,1.5,0,0,0,0-.59,3.41,3.41,0,0,0-.22-.66,1.74,1.74,0,0,0-.39-.53.76.76,0,0,0-.54-.22,3.23,3.23,0,0,0-1.12.24,3.94,3.94,0,0,0-1.31.93c-.39.39-.89,1-1.49,1.68s-1.17,1.48-1.73,2.26a25,25,0,0,0-1.41,2.22,3,3,0,0,0-.53,1.48c.06.17.11.25.14.25a.7.7,0,0,0,.32-.15,7,7,0,0,0,.8-.73c.23-.23.64-.64,1.22-1.24s1.18-1.23,1.78-1.9,1.13-1.27,1.58-1.83.66-.87.63-1c-.13-.36,0-.57.37-.63a2,2,0,0,1,1.19.17,2.07,2.07,0,0,1,1,.9,1.48,1.48,0,0,1-.22,1.56l-.75,1.09c-.38.54-.74,1.1-1.1,1.68a14.2,14.2,0,0,0-.85,1.58c-.21.48-.2.76,0,.86,0,0,.05,0,.05.05s0,0,0,0a2.13,2.13,0,0,0,1.07-.63,17.24,17.24,0,0,0,1.49-1.48L87.94,231c.47-.51.8-.87,1-1.07C89,229.94,89,230,89.13,230Z"/><path class="cls-1" d="M96.29,234.72a9.4,9.4,0,0,1-1.68,1.1,5.72,5.72,0,0,1-1.51.51,7.57,7.57,0,0,1-1.24.12,4.93,4.93,0,0,1-1-.1l-.39-.1a.3.3,0,0,1-.19,0,3.33,3.33,0,0,1-1.27-.59,2.91,2.91,0,0,1-.75-.9,3.18,3.18,0,0,1-.34-1.07,5.08,5.08,0,0,1,0-1.1,5.88,5.88,0,0,1,.47-1.92c.24-.54.39-.88.46-1,.23-.39.57-.94,1-1.65a16.15,16.15,0,0,1,1.72-2.17,12.75,12.75,0,0,1,2.29-1.92,5.76,5.76,0,0,1,2.78-.93,3.12,3.12,0,0,1,1.56.25,2.26,2.26,0,0,1,.82.61.57.57,0,0,1,.15.56c-.07.16-.21.2-.44.1a1.36,1.36,0,0,0-.85,0,1.87,1.87,0,0,0-.41.13l-.15.07a5.44,5.44,0,0,0-.93.59,11.67,11.67,0,0,0-1.53,1.44,22.75,22.75,0,0,0-2,2.64,25.44,25.44,0,0,0-1.66,2.83,6.75,6.75,0,0,0-.63,2c-.1.75.28,1.12,1.12,1.12a2.58,2.58,0,0,0,1.66-.88,14.32,14.32,0,0,0,1.73-2,19.92,19.92,0,0,0,1.33-2.12,3,3,0,0,0,.49-1.3,2.45,2.45,0,0,1-.9-.32.77.77,0,0,1-.37-.86,1.76,1.76,0,0,1,.39-1.12,1.89,1.89,0,0,1,.69-.47,1.54,1.54,0,0,1,.6-.1l.22,0a2.56,2.56,0,0,1,1.12.29,2.91,2.91,0,0,1,1,.93,10,10,0,0,1,1.53-.61,5.15,5.15,0,0,1,1.53-.27,2.89,2.89,0,0,1,1.17.19,1.56,1.56,0,0,1,.56.44,1.07,1.07,0,0,1,.17.64.55.55,0,0,1-.07.19.23.23,0,0,1-.22.15c-.1,0-.15,0-.17-.1s0-.15-.05-.24a.62.62,0,0,0-.09-.25.34.34,0,0,0-.27-.1,1.39,1.39,0,0,1-.34,0,.86.86,0,0,0-.39.07l-1,.34c-.44.17-1.13.41-2.07.74a1.41,1.41,0,0,0,0,.48,6.44,6.44,0,0,1-.39,1.46,9.71,9.71,0,0,1-.63,1.29c-.23.38-.51.79-.83,1.24A13.06,13.06,0,0,1,96.29,234.72Zm.34-6.84h.27a.52.52,0,0,0,.31-.1.57.57,0,0,0-.27-.46.76.76,0,0,0-.36-.12.42.42,0,0,0-.44.34C96.14,227.77,96.3,227.88,96.63,227.88Z"/><path class="cls-1" d="M122.42,230s0,.05,0,.05,0,0,0,0c0,.2-.3.53-.88,1a8.84,8.84,0,0,1-3.15,1.29l-.68.78c-.23.26-.47.52-.73.78a11.92,11.92,0,0,1-1.41,1.36,7.65,7.65,0,0,1-1.46.95,3.66,3.66,0,0,1-1.66.41,1.47,1.47,0,0,1-1.19-.43,1.61,1.61,0,0,1-.37-1.08,2.7,2.7,0,0,1,1-2.06,5.15,5.15,0,0,1,2.9-1.15,21.4,21.4,0,0,0,2.68-4.16,7.51,7.51,0,0,0,.82-2.66c0-.35-.09-.53-.29-.53a1.59,1.59,0,0,0-.75.27,6.47,6.47,0,0,0-1,.68c-.34.27-.68.57-1,.87l-.9.81c-.81,1.1-1.47,2.05-2,2.85s-.91,1.47-1.22,2a11.44,11.44,0,0,0-.68,1.39c-.15.37-.28.7-.42,1l-.12.39c0,.17-.1.34-.17.54s-.12.38-.17.56a1.6,1.6,0,0,0-.07.36.26.26,0,0,1-.2.27c-.12.05-.3,0-.53-.17a3.91,3.91,0,0,1-.68-.63,2.32,2.32,0,0,1-.49-1,5.32,5.32,0,0,1-.1-1,4.42,4.42,0,0,1,.56-1.8c.38-.75.79-1.49,1.24-2.24.52-.91,1.15-1.95,1.88-3.12l2.17-3.5c.71-1.17,1.36-2.27,1.94-3.29s1-1.84,1.32-2.46a6.72,6.72,0,0,0,.49-1.29,4,4,0,0,0,.09-.71q0-.19.27-.27a1,1,0,0,1,.66.13,5.36,5.36,0,0,1,1.1,1,2.09,2.09,0,0,1,.43,1.73,7.14,7.14,0,0,1-.86,2.29,46.66,46.66,0,0,1-2.67,4.24,9.19,9.19,0,0,1,1.27-.74,3.05,3.05,0,0,1,1.35-.33,1.83,1.83,0,0,1,1.51.78,3.42,3.42,0,0,1,.6,2.14,7.25,7.25,0,0,1-.39,2.19,10.75,10.75,0,0,1-1.29,2.63,4.63,4.63,0,0,0,.81-.32l.9-.43c.29-.15.55-.27.78-.37a1.51,1.51,0,0,1,.43-.15A.44.44,0,0,1,122.42,230Zm-10.07,4.78c.52-.52,1-1.06,1.47-1.61a2.84,2.84,0,0,0-1.59,1,2.9,2.9,0,0,0-.36.68c0,.13,0,.2.1.2a.77.77,0,0,0,.24-.1A.32.32,0,0,0,112.35,234.75Z"/><path class="cls-1" d="M121.85,236.3a1.16,1.16,0,0,1-.54-.29,2,2,0,0,1-.41-.44,3.27,3.27,0,0,1-.27-.78,5.32,5.32,0,0,1-.1-1,3.35,3.35,0,0,1,.39-1.41,4.09,4.09,0,0,1,.39-.83l.1-.19h0v0l.73-1.32,1.32-2.41.75-1.41.39-.73c.08-.15.15-.3.22-.46a6,6,0,0,0,.48-1.29,3.45,3.45,0,0,0,.1-.71q0-.19.27-.27a1,1,0,0,1,.66.12,5.76,5.76,0,0,1,1.12,1,2.09,2.09,0,0,1,.44,1.73l-.2.78c-.26.52-.54,1-.85,1.56s-.6,1-.88,1.43-.53.82-.75,1.12a4.78,4.78,0,0,0-.44.66,13.55,13.55,0,0,1-1,1.41,7.49,7.49,0,0,0-.93,1.56l-.1.39c0,.13.15.2.34.2a1.92,1.92,0,0,0,1-.56c.44-.38.94-.86,1.51-1.46s1.18-1.29,1.83-2.07,1.31-1.58,2-2.39l1-1.46.29-.54c.06-.16.14-.33.22-.51s.18-.41.31-.7a6.72,6.72,0,0,0,.49-1.29,4.34,4.34,0,0,0,.1-.71q0-.19.27-.27a1,1,0,0,1,.65.12,5.49,5.49,0,0,1,1.12,1,2.06,2.06,0,0,1,.44,1.73l-.19.78-.37.73a4.39,4.39,0,0,1-.41.68c-.07.17-.16.35-.27.56s-.25.48-.41.81c-.75,1.2-1.35,2.15-1.81,2.87l-1,1.63a6.45,6.45,0,0,0-.47.78,1,1,0,0,0-.09.32c0,.06,0,.09,0,.09a1.8,1.8,0,0,0,.78-.46,16.49,16.49,0,0,0,1.27-1.12c.45-.44.92-.89,1.39-1.36l1.19-1.2c.07-.09.18-.23.34-.41a.68.68,0,0,1,.49-.27.09.09,0,0,1,.07,0l.07,0a.43.43,0,0,1,.15.29,1.06,1.06,0,0,1-.17.49,5.73,5.73,0,0,1-.61.78q-.43.48-1.26,1.29c-.56.54-1.12,1.05-1.71,1.56a16.25,16.25,0,0,1-1.7,1.29,2.65,2.65,0,0,1-1.27.53,2,2,0,0,1-1.31-.41,1.53,1.53,0,0,1-.54-1.29,4.46,4.46,0,0,1,.15-1.27,7.92,7.92,0,0,1,.68-1.46c-.36.42-.78.9-1.27,1.44s-1,1-1.51,1.51a11.25,11.25,0,0,1-1.51,1.17A1.69,1.69,0,0,1,121.85,236.3Z"/><path class="cls-1" d="M145.08,231.53c-.36.36-.86.81-1.49,1.36a25.84,25.84,0,0,1-2,1.61,15.25,15.25,0,0,1-2.24,1.32,5.16,5.16,0,0,1-2.12.53l-.2,0a.63.63,0,0,0-.19,0h-.05a3.28,3.28,0,0,1-2.36-1,2.82,2.82,0,0,1-.61-1.77,5.48,5.48,0,0,1,.41-2.32c.28-.56.56-1.12.85-1.67a16,16,0,0,1,1.27-1.88,21.59,21.59,0,0,1,2-2.24,14.37,14.37,0,0,1,2.33-1.87,4.26,4.26,0,0,1,2.24-.78,2.26,2.26,0,0,1,.83.19s0,0,.07,0l.32.19a2.5,2.5,0,0,1,.34.24c.1.09.16.13.2.13a2.49,2.49,0,0,1,.73,1.6,3,3,0,0,1-.9,2,13.18,13.18,0,0,1-2.17,1.9,23.47,23.47,0,0,1-2.58,1.61c-.88.47-1.61.84-2.19,1.1-.17.42-.29.76-.37,1a3,3,0,0,0-.12.87c0,.88.42,1.32,1.27,1.32a2.74,2.74,0,0,0,.7-.22,10.91,10.91,0,0,0,1.42-.71,20.18,20.18,0,0,0,1.94-1.29,20.69,20.69,0,0,0,2.32-2s.14-.11.34-.34a1.4,1.4,0,0,1,.58-.44.79.79,0,0,1,.24.05.23.23,0,0,1,.15.25,1.29,1.29,0,0,1-.22.51A3,3,0,0,1,145.08,231.53Zm-6.14-2.14a6.3,6.3,0,0,0-.41.66l-.37.65c1.17-.87,2.12-1.64,2.85-2.28a18.11,18.11,0,0,0,1.7-1.68,5,5,0,0,0,.81-1.17,2,2,0,0,0,.19-.71.7.7,0,0,0-.1-.29.37.37,0,0,1,0-.15s-.06,0-.27.15a8.48,8.48,0,0,0-1,.73,15.72,15.72,0,0,0-1.51,1.53A24,24,0,0,0,138.94,229.39Z"/><path class="cls-1" d="M149,230.27c-.32.52-.58.93-.78,1.24l-.53.87c-.17.28-.32.57-.47.88s-.31.71-.51,1.19l-.39,1.17a.55.55,0,0,0-.14-.17h-.05s.06.07.19.17a2.2,2.2,0,0,0-.14.68c0,.17-.1.25-.3.25s-.72-.26-1.09-.76a3.47,3.47,0,0,1-.61-2,4.88,4.88,0,0,1,.51-1.7c.34-.78.76-1.62,1.24-2.51s1-1.76,1.46-2.61.86-1.51,1.12-2a4.31,4.31,0,0,0,.44-1c.07-.28.11-.5.15-.68a1.52,1.52,0,0,1,.1-.39c0-.08.12-.12.29-.12a1.39,1.39,0,0,1,.61.19,3,3,0,0,1,.68.51,3.39,3.39,0,0,1,.56.78,2.14,2.14,0,0,1,.24,1,1.58,1.58,0,0,1-.22.51l-.46.9c-.16.33-.33.63-.49.9a4.38,4.38,0,0,0-.29.56c.26-.29.67-.73,1.22-1.31s1.14-1.17,1.77-1.75a19.78,19.78,0,0,1,1.9-1.56,3,3,0,0,1,1.63-.68,1.64,1.64,0,0,1,1.56.77,3.38,3.38,0,0,1,.44,1.66,4.91,4.91,0,0,1-.15,1.22v.05c0,.06-.09.23-.19.51a6.4,6.4,0,0,1-.49,1c-.48.81-1,1.6-1.43,2.38s-.9,1.47-1.27,2.07l-1.29,2.07c0,.1,0,.15.1.15a1.72,1.72,0,0,0,.73-.44c.36-.29.76-.64,1.22-1s.9-.83,1.36-1.29a16,16,0,0,0,1.12-1.22l.14-.14c.1-.13.22-.29.37-.47a.63.63,0,0,1,.46-.26q.3,0,.3.39c0,.19-.22.6-.74,1.21a14.11,14.11,0,0,1-1.26,1.32c-.55.52-1.13,1-1.73,1.53a15.76,15.76,0,0,1-1.73,1.29,2.66,2.66,0,0,1-1.27.54,2.12,2.12,0,0,1-1.26-.42,1.4,1.4,0,0,1-.58-1.24,2.61,2.61,0,0,1,.17-.95,2.39,2.39,0,0,0,.17-.61c.25-.64.58-1.35,1-2.11s.78-1.47,1.17-2.12.92-1.48,1.41-2.19a5.79,5.79,0,0,0,.61-1,1.75,1.75,0,0,0,.17-.63c0-.29-.13-.44-.39-.44a.85.85,0,0,0-.34.1q-1.56,1.36-2.58,2.31c-.68.64-1.36,1.28-2,1.93A12.93,12.93,0,0,0,149,230.27Z"/><path class="cls-1" d="M166.5,234.72a9.4,9.4,0,0,1-1.68,1.1,5.72,5.72,0,0,1-1.51.51,7.47,7.47,0,0,1-1.24.12,4.77,4.77,0,0,1-1-.1l-.39-.1a.31.31,0,0,1-.2,0,3.33,3.33,0,0,1-1.27-.59,2.91,2.91,0,0,1-.75-.9,3.18,3.18,0,0,1-.34-1.07,4.51,4.51,0,0,1,0-1.1,5.64,5.64,0,0,1,.46-1.92c.24-.54.4-.88.46-1q.34-.59,1.05-1.65a15.49,15.49,0,0,1,1.73-2.17,12.35,12.35,0,0,1,2.28-1.92,5.76,5.76,0,0,1,2.78-.93,3.12,3.12,0,0,1,1.56.25,2.41,2.41,0,0,1,.83.61.56.56,0,0,1,.14.56c-.06.16-.21.2-.44.1a1.36,1.36,0,0,0-.85,0,1.87,1.87,0,0,0-.41.13c.1,0,.05,0-.15.07a5.48,5.48,0,0,0-.92.59,11.05,11.05,0,0,0-1.54,1.44,22.75,22.75,0,0,0-2,2.64,23.65,23.65,0,0,0-1.65,2.83,6.52,6.52,0,0,0-.64,2c-.09.75.28,1.12,1.12,1.12a2.58,2.58,0,0,0,1.66-.88,13.69,13.69,0,0,0,1.73-2,21.89,21.89,0,0,0,1.34-2.12,3.07,3.07,0,0,0,.48-1.3,2.45,2.45,0,0,1-.9-.32.75.75,0,0,1-.36-.86,1.66,1.66,0,0,1,.39-1.12,1.78,1.78,0,0,1,.68-.47,1.56,1.56,0,0,1,.61-.1l.22,0a2.59,2.59,0,0,1,1.12.29,2.8,2.8,0,0,1,1,.93,10,10,0,0,1,1.53-.61,5.15,5.15,0,0,1,1.54-.27,3,3,0,0,1,1.17.19,1.61,1.61,0,0,1,.55.44,1.08,1.08,0,0,1,.18.64.68.68,0,0,1-.08.19.23.23,0,0,1-.22.15c-.09,0-.15,0-.17-.1s0-.15-.05-.24a.5.5,0,0,0-.09-.25.34.34,0,0,0-.27-.1,1.43,1.43,0,0,1-.34,0,.86.86,0,0,0-.39.07l-.95.34c-.44.17-1.13.41-2.07.74a1.73,1.73,0,0,0,0,.48,5.55,5.55,0,0,1-.39,1.46,8.62,8.62,0,0,1-.63,1.29c-.23.38-.51.79-.83,1.24A13.06,13.06,0,0,1,166.5,234.72Zm.34-6.84h.27a.5.5,0,0,0,.31-.1.59.59,0,0,0-.26-.46.83.83,0,0,0-.37-.12.42.42,0,0,0-.44.34C166.35,227.77,166.52,227.88,166.84,227.88Z"/><path class="cls-1" d="M175.75,242.15a3.93,3.93,0,0,0-.17.78,5.9,5.9,0,0,0-.07.77.28.28,0,0,1-.2.27c-.13.05-.31,0-.53-.17a3.94,3.94,0,0,1-.69-.63,2.33,2.33,0,0,1-.48-1,4.73,4.73,0,0,1-.1-1,4.42,4.42,0,0,1,.56-1.8c.37-.75.79-1.49,1.24-2.24s1-1.65,1.58-2.6,1.21-1.94,1.83-2.93,1.21-2,1.78-2.92,1-1.81,1.43-2.55l.54-1.08.27-.6c.08-.18.15-.34.22-.47a5.31,5.31,0,0,0,.19-.73,3.26,3.26,0,0,0,0-.48q0-.19.27-.27a.91.91,0,0,1,.65.12,4,4,0,0,1,.54.39,4.12,4.12,0,0,1,.54.56,2.87,2.87,0,0,1,.39.71,2,2,0,0,1,.09.87s0,.1-.17.39-.31.61-.51.95-.36.66-.51,1-.2.42-.17.39a30.92,30.92,0,0,1,3.8-4.16c1-.83,1.83-1,2.58-.61a2.37,2.37,0,0,1,.9,1,3.54,3.54,0,0,1,.36,1.66,7.42,7.42,0,0,1-.39,2.21,10,10,0,0,1-1.31,2.61,8,8,0,0,0,1.36-.44c.2-.07.38-.13.54-.2l.44-.17a1.41,1.41,0,0,0,.29-.12c.39-.13.62-.14.71,0s0,.26-.3.47a8.62,8.62,0,0,1-1.36.78,17,17,0,0,1-2.51.9c-.23.26-.45.52-.68.8s-.47.54-.73.8a8.47,8.47,0,0,1-1.46,1.42,9.15,9.15,0,0,1-1.51.94,2.92,2.92,0,0,1-1.7.32,1.3,1.3,0,0,1-1.2-.66A1.85,1.85,0,0,1,182,234a3.56,3.56,0,0,1,.83-1.46,3.47,3.47,0,0,1,1.75-1l1.22-.24a27,27,0,0,0,1.95-2.85,15.67,15.67,0,0,0,1.16-2.34,4.63,4.63,0,0,0,.39-1.58c0-.39-.09-.58-.29-.58a1.56,1.56,0,0,0-.78.46,14.74,14.74,0,0,0-1.19,1.19c-.44.49-.91,1-1.41,1.63s-1,1.18-1.39,1.73l-1.12,1.49a9.67,9.67,0,0,0-.63.9,34.2,34.2,0,0,1-1.9,2.87q-1.17,1.6-2.53,3.8A44.25,44.25,0,0,0,175.75,242.15Zm7.6-8c.51-.52,1-1,1.46-1.61a2.84,2.84,0,0,0-1.59,1,2.71,2.71,0,0,0-.36.68q0,.24.24.15A1.2,1.2,0,0,0,183.35,234.16Z"/><path class="cls-1" d="M206.23,230a.43.43,0,0,1,.15.29,1,1,0,0,1-.17.47c-.12.18-.32.44-.61.8l-1.15,1.27a20.6,20.6,0,0,1-1.63,1.6,14.3,14.3,0,0,1-1.7,1.32,2.09,2.09,0,0,1-1.41.44,4.39,4.39,0,0,1-1.64-.69,1.69,1.69,0,0,1-.7-1.51,2,2,0,0,1,.15-.68q.14-.39.24-.63c-.16.16-.41.44-.75.83s-.7.78-1.09,1.17a10.59,10.59,0,0,1-1.16,1,1.78,1.78,0,0,1-.91.44,2.09,2.09,0,0,1-1.43-.66,2.43,2.43,0,0,1-.7-1.87s0-.28.12-.74a9.34,9.34,0,0,1,.61-1.82,17.25,17.25,0,0,1,1.46-2.61,16.59,16.59,0,0,1,2.68-3,12,12,0,0,1,2.63-2,4.61,4.61,0,0,1,2-.56,2.94,2.94,0,0,1,2.19,1,4.77,4.77,0,0,1,1.21,2.14,1.55,1.55,0,0,1,0,.9,1,1,0,0,1-.34.46.48.48,0,0,1-.39.1q-.18,0-.12-.24a2.16,2.16,0,0,0-.13-1.27c-.17-.49-.46-.73-.85-.73a3.42,3.42,0,0,0-1.14.24,4.38,4.38,0,0,0-1.39.93c-.42.39-1,1-1.61,1.68s-1.28,1.48-1.9,2.26a26.83,26.83,0,0,0-1.58,2.22,3.53,3.53,0,0,0-.66,1.48c0,.17,0,.25.1.25a.68.68,0,0,0,.31-.15c.15-.1.44-.34.89-.73.22-.23.64-.64,1.27-1.24s1.26-1.23,1.91-1.9,1.23-1.27,1.73-1.83.74-.87.71-1a.44.44,0,0,1,.41-.63,2.08,2.08,0,0,1,1.2.17,1.89,1.89,0,0,1,1,.9c.21.42.08.94-.37,1.56-.13.19-.41.56-.83,1.09s-.83,1.1-1.24,1.68a13.89,13.89,0,0,0-1,1.58c-.25.48-.26.76,0,.86,0,0,0,0,0,.05s0,0,0,0a2.33,2.33,0,0,0,1.12-.63,19.25,19.25,0,0,0,1.61-1.48l1.58-1.64c.5-.51.87-.87,1.1-1.07C206.07,229.94,206.13,230,206.23,230Z"/><path class="cls-1" d="M207.74,230.12c0-.16.11-.63.22-1.41a22.68,22.68,0,0,1,.85-3.31,5.12,5.12,0,0,1,.71-1.51,3.94,3.94,0,0,1,1-1.07,2.55,2.55,0,0,1,1.25-.44,2.15,2.15,0,0,1,1.34.39,5.42,5.42,0,0,1,1.38,1.07,4.12,4.12,0,0,1,.71.83.65.65,0,0,1,.07.34,1.23,1.23,0,0,0,0,.19.58.58,0,0,1-.29.27.28.28,0,0,1-.3,0,.53.53,0,0,1-.12-.2,1.46,1.46,0,0,0-.07-.19,1.28,1.28,0,0,0-.8-.49,1.3,1.3,0,0,0-.78.14,2,2,0,0,0-.61.49,1.35,1.35,0,0,0-.3.54c-.35,1.13-.61,2-.77,2.65a6.42,6.42,0,0,0-.25,1.19v.25a15.24,15.24,0,0,0,2-.29l1.73-.39.1-.05.12,0,.17,0c.26,0,.39.11.39.34s-.38.65-1.14.88a33.93,33.93,0,0,1-3.48.73c-.14.52-.28,1-.44,1.5s-.35.86-.56,1.3a4.06,4.06,0,0,1-.76,1.09l-.24.2a4.34,4.34,0,0,1-1.31.87,4,4,0,0,1-1.61.34,2,2,0,0,1-1.44-.46,1.55,1.55,0,0,1-.46-1.14,3.65,3.65,0,0,1,.22-1.12,5.37,5.37,0,0,1,.66-1.37,6.73,6.73,0,0,1,1-1.24,3,3,0,0,1,1.31-.75.94.94,0,0,0,.39-.1v0Zm-.39,1.36a2.31,2.31,0,0,0-1,.66,5.77,5.77,0,0,0-.68,1,4.59,4.59,0,0,0-.39.88,3.64,3.64,0,0,0-.12.43c0,.1,0,.15.1.15a.91.91,0,0,0,.44-.24,4.24,4.24,0,0,0,.6-.68,7.38,7.38,0,0,0,.61-1A5.23,5.23,0,0,0,207.35,231.48Z"/><path class="cls-1" d="M227.85,230a.43.43,0,0,1,.15.29,1,1,0,0,1-.17.47c-.12.18-.32.44-.61.8l-1.15,1.27a20.6,20.6,0,0,1-1.63,1.6,14.3,14.3,0,0,1-1.7,1.32,2.1,2.1,0,0,1-1.41.44,4.39,4.39,0,0,1-1.64-.69A1.69,1.69,0,0,1,219,234a2.17,2.17,0,0,1,.14-.68c.1-.26.18-.47.25-.63-.17.16-.42.44-.75.83s-.7.78-1.09,1.17a10.59,10.59,0,0,1-1.16,1,1.77,1.77,0,0,1-.92.44,2.09,2.09,0,0,1-1.42-.66,2.43,2.43,0,0,1-.7-1.87s0-.28.12-.74a9.34,9.34,0,0,1,.61-1.82,17.25,17.25,0,0,1,1.46-2.61,16.59,16.59,0,0,1,2.68-3,11.72,11.72,0,0,1,2.63-2,4.57,4.57,0,0,1,2-.56,2.94,2.94,0,0,1,2.2,1,4.77,4.77,0,0,1,1.21,2.14,1.55,1.55,0,0,1,0,.9,1,1,0,0,1-.34.46.48.48,0,0,1-.39.1q-.18,0-.12-.24a2.16,2.16,0,0,0-.13-1.27c-.18-.49-.46-.73-.85-.73a3.42,3.42,0,0,0-1.14.24,4.38,4.38,0,0,0-1.39.93c-.42.39-1,1-1.61,1.68s-1.28,1.48-1.9,2.26a26.83,26.83,0,0,0-1.58,2.22,3.53,3.53,0,0,0-.66,1.48c0,.17,0,.25.1.25a.68.68,0,0,0,.31-.15c.14-.1.44-.34.89-.73.22-.23.64-.64,1.27-1.24s1.26-1.23,1.91-1.9,1.23-1.27,1.73-1.83.74-.87.71-1a.44.44,0,0,1,.41-.63,2.09,2.09,0,0,1,1.2.17,1.83,1.83,0,0,1,.94.9c.22.42.09.94-.36,1.56-.13.19-.41.56-.83,1.09s-.84,1.1-1.24,1.68a13.89,13.89,0,0,0-1,1.58c-.25.48-.26.76,0,.86,0,0,0,0,0,.05s0,0,0,0a2.33,2.33,0,0,0,1.12-.63,19.25,19.25,0,0,0,1.61-1.48l1.58-1.64c.5-.51.87-.87,1.1-1.07C227.69,229.94,227.75,230,227.85,230Z"/><path class="cls-1" d="M266.62,164.89H247.29v18.05h19.33Zm-24.38-50.36h-6.43v39.53h30.76v-5.9H242.24Zm-24.9,60.72,4.45-8.25,4.36,8.25ZM220.5,165l-9.7,17.95h2.37l3.31-6H227l3.29,6h2.48L223.05,165ZM186,154.06h7.21l15.17-30.95,15.57,31h7.35l-19.43-39.53h-6.28Zm-15.53,20c0-4.46,4.61-7.76,9.74-7.76,5.37,0,9.76,3.5,9.76,7.69s-4.52,7.64-9.76,7.64-9.74-3.47-9.74-7.57m-2.27,0c0,5.05,5.56,9.19,12,9.19s12-4,12-9.28-5.65-9.29-12-9.29c-6,0-12,3.73-12,9.38M191,114.53H154.61v5.79h15v33.74H176V120.32h15ZM132.64,165h-3.07v17.95h2.27V167.12h.06l13.48,15.79h2.27V165h-2.27v14.89h-.06Zm5.83-2.3a7.71,7.71,0,0,0,2.46.51,6.29,6.29,0,0,0,3-.95L142.83,161a4.15,4.15,0,0,1-1.93.64,7,7,0,0,1-1.91-.47,6.15,6.15,0,0,0-2.45-.53,5.24,5.24,0,0,0-3.19,1l1.07,1.21a3.62,3.62,0,0,1,2.06-.73,5.28,5.28,0,0,1,2,.49m-22.1-42.28h19.7c2.25.05,4.58.1,6,2.53a7,7,0,0,1,1,3.74,6,6,0,0,1-1.13,3.7C140,133,136.49,133,133.9,133H116.37Zm19.19-5.85H110v39.53h6.43v-15.3h16.82l12.42,15.3h8.43L140.4,137.69c3.15-.65,9.34-2.67,9.34-11.26a11.22,11.22,0,0,0-3.47-8.64c-3.33-3.14-7.4-3.21-10.71-3.26M94.85,165H92.58v11.18a7.42,7.42,0,0,0,.86,3.74c1.56,2.69,4.75,3.34,6.87,3.34s5.31-.65,6.88-3.34a7.52,7.52,0,0,0,.86-3.74V165h-2.27v11.18a5.92,5.92,0,0,1-.77,3.25,6.09,6.09,0,0,1-9.39,0,5.84,5.84,0,0,1-.77-3.25ZM68.46,143.82a14.7,14.7,0,0,1-3.07-9.36c0-10.69,8.15-14.73,15.78-15h.67c10,0,16.47,5.81,16.47,14.8,0,3.48-1.17,14.84-16.22,14.84-6.14,0-10.72-1.79-13.63-5.32m-1.82,6.92c3.9,2.89,9.09,4.35,15.45,4.35,11.3,0,22.71-6.26,22.71-20.25,0-12.64-9.27-21.18-23.08-21.24C70.39,113.6,59,120.15,59,134.78c0,8.58,4.18,13.42,7.68,16M62.4,161.2a6.24,6.24,0,0,0-2.46-.53,5.24,5.24,0,0,0-3.19,1l1.07,1.21a3.65,3.65,0,0,1,2.06-.73,5.37,5.37,0,0,1,2,.49,7.58,7.58,0,0,0,2.45.51,6.29,6.29,0,0,0,3-.95L66.24,161a4.15,4.15,0,0,1-1.94.63,6.48,6.48,0,0,1-1.9-.46M56,165H53v17.95h2.28V167.12h.06l13.47,15.79h2.27V165H68.78v14.89h-.06Zm-32.7-32.05V120.32H39.1c2.57,0,5.76,0,7.71,2a5.8,5.8,0,0,1,1.55,4.23,6,6,0,0,1-2.5,5.08c-1.76,1.24-4.22,1.24-6.19,1.24Zm.05,5.85h17c3.53,0,9.44,0,12.84-4.93a12.72,12.72,0,0,0,2-7,12.18,12.18,0,0,0-3.8-9c-2.68-2.38-6-3.35-11.58-3.35h-23v39.53h6.54Zm12.77,26.12H16.83v18.06H36.16ZM215.28,69a8.48,8.48,0,1,1-8.48-8.79A8.65,8.65,0,0,1,215.28,69m51.36,33.5V90.85h-.14v-.36h-38a100.14,100.14,0,0,0-7.88-13.39,16.58,16.58,0,0,0,2-7.93c0-9-7.08-16.38-15.79-16.38A15.06,15.06,0,0,0,199,54.92a93.9,93.9,0,0,0-57-19.25c-36.39,0-69.86,21.71-86.37,55H16.84v11.71H63.05v-.34h0l.21-.52C76.74,68.7,107.64,47.48,142,47.48a82.79,82.79,0,0,1,49.8,16.61,16.61,16.61,0,0,0-.81,5.15c0,9,7,16.27,15.69,16.27a15.7,15.7,0,0,0,4.9-.83,90,90,0,0,1,9.24,16.9l.22.52h.1v.41Z"/></svg>