<svg id="Capa_1" data-name="Capa 1" xmlns="http://www.w3.org/2000/svg" viewBox="0 0 283.46 283.46"><defs><style>.cls-1{fill:#7c7c7b;}</style></defs><title>LOGOS PORTAL (GRIS)</title><path class="cls-1" d="M43.21,210.39a3.52,3.52,0,0,1-.83,1,3.79,3.79,0,0,1-1.14.65,4.33,4.33,0,0,1-2.92-.07,3.8,3.8,0,0,1-1.28-.86,2.94,2.94,0,0,1-.6-.8,3.71,3.71,0,0,1-.31-.94,7.91,7.91,0,0,1-.11-1.18c0-.43,0-.95,0-1.54s0-1.1,0-1.54a8,8,0,0,1,.11-1.18,3.77,3.77,0,0,1,.31-.93,3.14,3.14,0,0,1,.6-.81,3.9,3.9,0,0,1,2.82-1.14,4.12,4.12,0,0,1,1.38.22,3.76,3.76,0,0,1,1.14.64,3.52,3.52,0,0,1,.83,1,4.57,4.57,0,0,1,.48,1.39H42.48a3,3,0,0,0-.9-1.63,2.52,2.52,0,0,0-1.72-.6,2.92,2.92,0,0,0-1,.2,2.54,2.54,0,0,0-.86.57,2.41,2.41,0,0,0-.41.57,2.61,2.61,0,0,0-.24.73,8.37,8.37,0,0,0-.1,1c0,.4,0,.88,0,1.46s0,1.07,0,1.47a8.8,8.8,0,0,0,.1,1,2.72,2.72,0,0,0,.24.73,2.18,2.18,0,0,0,.41.56,2.56,2.56,0,0,0,.86.58,2.92,2.92,0,0,0,1,.2,2.51,2.51,0,0,0,1.73-.61,2.85,2.85,0,0,0,.92-1.62h1.18A4.6,4.6,0,0,1,43.21,210.39Z"/><path class="cls-1" d="M55.4,210.07a3.47,3.47,0,0,1-.8,1.18,3.71,3.71,0,0,1-1.23.77,4.22,4.22,0,0,1-1.54.27,4.3,4.3,0,0,1-1.54-.27,3.53,3.53,0,0,1-1.21-.77,3.47,3.47,0,0,1-.8-1.18,3.94,3.94,0,0,1-.29-1.51v-7.39h1.18v7.29a3.19,3.19,0,0,0,.19,1.15,2.4,2.4,0,0,0,.53.87,2.47,2.47,0,0,0,.84.56,3,3,0,0,0,1.1.2,3,3,0,0,0,1.1-.2,2.52,2.52,0,0,0,.85-.56,2.56,2.56,0,0,0,.54-.87,3.19,3.19,0,0,0,.19-1.15v-7.29h1.18v7.39A3.76,3.76,0,0,1,55.4,210.07Z"/><path class="cls-1" d="M67,212.2l-.88-2.5H61.31l-.88,2.5H59.18l4.06-11h1l4,11Zm-3.26-9.34-2.08,5.82h4.12Z"/><path class="cls-1" d="M78.94,212.2l-5.85-8.85v8.85H71.91v-11H73L78.88,210v-8.81h1.18v11Z"/><path class="cls-1" d="M92.75,207.77a8.41,8.41,0,0,1-.1,1.24,5.05,5.05,0,0,1-.32,1.17,2.91,2.91,0,0,1-.66,1,3.22,3.22,0,0,1-1.2.75,4.48,4.48,0,0,1-1.58.27H85.11v-11h3.78a4.72,4.72,0,0,1,1.58.26,3.37,3.37,0,0,1,1.2.76,3.13,3.13,0,0,1,.66.95,4.56,4.56,0,0,1,.32,1.09,7.26,7.26,0,0,1,.1,1.16c0,.4,0,.79,0,1.17S92.76,207.34,92.75,207.77Zm-1.18-2.23a6,6,0,0,0-.07-1,4,4,0,0,0-.21-.86,2.14,2.14,0,0,0-.44-.69,2.39,2.39,0,0,0-1-.63,3.76,3.76,0,0,0-1.19-.18H86.28v8.92h2.41a3.76,3.76,0,0,0,1.19-.17,2.39,2.39,0,0,0,1-.63,2.08,2.08,0,0,0,.44-.74,4.61,4.61,0,0,0,.21-.94,7.22,7.22,0,0,0,.07-1c0-.36,0-.71,0-1.05S91.58,205.88,91.57,205.54Z"/><path class="cls-1" d="M104.67,208.22a6.71,6.71,0,0,1-.12,1.18,3.35,3.35,0,0,1-.31.94,2.71,2.71,0,0,1-.59.8,3.86,3.86,0,0,1-1.27.86,4.15,4.15,0,0,1-1.55.29A3.8,3.8,0,0,1,98,211.14a2.94,2.94,0,0,1-.6-.8,3.71,3.71,0,0,1-.31-.94,7.91,7.91,0,0,1-.11-1.18c0-.43,0-.95,0-1.54s0-1.1,0-1.54A8,8,0,0,1,97.1,204a3.77,3.77,0,0,1,.31-.93,3.14,3.14,0,0,1,.6-.81,4.06,4.06,0,0,1,5.64,0,2.88,2.88,0,0,1,.59.81,3.39,3.39,0,0,1,.31.93,6.81,6.81,0,0,1,.12,1.18c0,.44,0,1,0,1.54S104.68,207.79,104.67,208.22Zm-1.18-3a8.37,8.37,0,0,0-.1-1,2.9,2.9,0,0,0-.24-.72,2.18,2.18,0,0,0-.41-.56,2.51,2.51,0,0,0-.87-.58,2.65,2.65,0,0,0-1-.21,2.73,2.73,0,0,0-1,.21,2.56,2.56,0,0,0-.86.58,2.18,2.18,0,0,0-.41.56,2.9,2.9,0,0,0-.24.72,8.37,8.37,0,0,0-.1,1c0,.4,0,.88,0,1.46s0,1.07,0,1.47a8.39,8.39,0,0,0,.1,1,2.64,2.64,0,0,0,.24.72,2.41,2.41,0,0,0,.41.57,2.68,2.68,0,0,0,1.91.79,2.73,2.73,0,0,0,1.91-.79,2.41,2.41,0,0,0,.41-.57,2.64,2.64,0,0,0,.24-.72,8.39,8.39,0,0,0,.1-1c0-.4,0-.89,0-1.47S103.5,205.62,103.49,205.22Z"/><path class="cls-1" d="M122.07,212.2l-5.86-8.85v8.85H115v-11h1.12L122,210v-8.81h1.18v11Z"/><path class="cls-1" d="M135.51,208.22a7.91,7.91,0,0,1-.11,1.18,3.71,3.71,0,0,1-.31.94,2.94,2.94,0,0,1-.6.8,3.86,3.86,0,0,1-1.27.86,4.15,4.15,0,0,1-1.55.29,3.83,3.83,0,0,1-2.82-1.15,2.94,2.94,0,0,1-.6-.8,3.7,3.7,0,0,1-.3-.94,6.71,6.71,0,0,1-.12-1.18c0-.43,0-.95,0-1.54s0-1.1,0-1.54A6.81,6.81,0,0,1,128,204a3.76,3.76,0,0,1,.3-.93,3.14,3.14,0,0,1,.6-.81,4.06,4.06,0,0,1,5.64,0,3.14,3.14,0,0,1,.6.81,3.77,3.77,0,0,1,.31.93,8,8,0,0,1,.11,1.18c0,.44,0,1,0,1.54S135.52,207.79,135.51,208.22Zm-1.18-3a8.37,8.37,0,0,0-.1-1,2.9,2.9,0,0,0-.24-.72,2.18,2.18,0,0,0-.41-.56,2.56,2.56,0,0,0-.86-.58,2.73,2.73,0,0,0-2.1,0,2.42,2.42,0,0,0-.85.58,2,2,0,0,0-.42.56,2.54,2.54,0,0,0-.23.72,6.63,6.63,0,0,0-.11,1c0,.4,0,.88,0,1.46s0,1.07,0,1.47a6.63,6.63,0,0,0,.11,1,2.34,2.34,0,0,0,.23.72,2.2,2.2,0,0,0,.42.57,2.57,2.57,0,0,0,.85.58,2.7,2.7,0,0,0,3-.58,2.41,2.41,0,0,0,.41-.57,2.64,2.64,0,0,0,.24-.72,8.39,8.39,0,0,0,.1-1c0-.4,0-.89,0-1.47S134.34,205.62,134.33,205.22Z"/><path class="cls-1" d="M146.53,210.47a2.65,2.65,0,0,1-.77,1,3.55,3.55,0,0,1-1.21.62,5.11,5.11,0,0,1-1.56.22,5.86,5.86,0,0,1-2.12-.34,4.83,4.83,0,0,1-1.66-1.12l.81-.8a3.86,3.86,0,0,0,1.38.94,4.49,4.49,0,0,0,1.63.27,3,3,0,0,0,1.9-.54,1.77,1.77,0,0,0,.7-1.51,2.47,2.47,0,0,0-.13-.79,1.51,1.51,0,0,0-.4-.59,1.75,1.75,0,0,0-.55-.33,5,5,0,0,0-.89-.19l-1.29-.2a4.09,4.09,0,0,1-2-.84,2.61,2.61,0,0,1-.84-2.06,3.14,3.14,0,0,1,.25-1.28,2.67,2.67,0,0,1,.7-1,3.35,3.35,0,0,1,1.11-.63,4.45,4.45,0,0,1,1.47-.22,5.14,5.14,0,0,1,1.81.28,4.83,4.83,0,0,1,1.48.92l-.76.76a3.72,3.72,0,0,0-1.1-.7,4,4,0,0,0-1.48-.24,2.38,2.38,0,0,0-1.71.56,1.89,1.89,0,0,0-.61,1.48,1.6,1.6,0,0,0,.5,1.27,2.07,2.07,0,0,0,.66.37,3.7,3.7,0,0,0,.82.24l1.21.18.69.13a3.44,3.44,0,0,1,.54.17,2.74,2.74,0,0,1,.42.21,1.84,1.84,0,0,1,.37.27,2.72,2.72,0,0,1,.92,2.18A3.07,3.07,0,0,1,146.53,210.47Z"/><path class="cls-1" d="M161.31,210.28a3.17,3.17,0,0,1-.71,1.09,3.3,3.3,0,0,1-1.09.68,3.81,3.81,0,0,1-1.38.24,3.77,3.77,0,0,1-1.4-.24,3.28,3.28,0,0,1-1.13-.75l.79-.79a2.67,2.67,0,0,0,.68.52,2.19,2.19,0,0,0,1.06.21,2.12,2.12,0,0,0,1.67-.66,2.75,2.75,0,0,0,.59-1.88v-7.53h1.18v7.68A3.8,3.8,0,0,1,161.31,210.28Z"/><path class="cls-1" d="M173.72,210.07a3.36,3.36,0,0,1-.81,1.18,3.57,3.57,0,0,1-1.22.77,4.53,4.53,0,0,1-3.08,0,3.57,3.57,0,0,1-1.22-.77,3.47,3.47,0,0,1-.8-1.18,3.94,3.94,0,0,1-.28-1.51v-7.39h1.17v7.29a3.42,3.42,0,0,0,.19,1.15,2.4,2.4,0,0,0,.53.87,2.62,2.62,0,0,0,.85.56,3.12,3.12,0,0,0,2.2,0,2.47,2.47,0,0,0,.84-.56,2.29,2.29,0,0,0,.54-.87,3.19,3.19,0,0,0,.2-1.15v-7.29H174v7.39A3.94,3.94,0,0,1,173.72,210.07Z"/><path class="cls-1" d="M185.93,212.2l-5.85-8.85v8.85H178.9v-11H180l5.85,8.81v-8.81h1.18v11Z"/><path class="cls-1" d="M195.34,202.22v10h-1.18v-10H191v-1.05h7.56v1.05Z"/><path class="cls-1" d="M208,212.2l-.89-2.5h-4.82l-.88,2.5h-1.25l4.06-11h1l4,11Zm-3.27-9.34-2.08,5.82h4.12Z"/><path class="cls-1" d="M221.11,212.2v-8.38l-3,6.64h-1L214,203.82v8.38h-1.18v-11H214l3.59,7.82,3.5-7.82h1.18v11Z"/><path class="cls-1" d="M234.62,208.22a6.71,6.71,0,0,1-.12,1.18,3.35,3.35,0,0,1-.31.94,2.9,2.9,0,0,1-.59.8,3.86,3.86,0,0,1-1.27.86,4.15,4.15,0,0,1-1.55.29,3.8,3.8,0,0,1-2.82-1.15,2.94,2.94,0,0,1-.6-.8,3.71,3.71,0,0,1-.31-.94,7.91,7.91,0,0,1-.11-1.18c0-.43,0-.95,0-1.54s0-1.1,0-1.54a8,8,0,0,1,.11-1.18,3.77,3.77,0,0,1,.31-.93,3.14,3.14,0,0,1,.6-.81,4.06,4.06,0,0,1,5.64,0,3.09,3.09,0,0,1,.59.81,3.39,3.39,0,0,1,.31.93,6.81,6.81,0,0,1,.12,1.18c0,.44,0,1,0,1.54S234.63,207.79,234.62,208.22Zm-1.19-3a5.67,5.67,0,0,0-.1-1,2.9,2.9,0,0,0-.23-.72,2,2,0,0,0-.42-.56,2.38,2.38,0,0,0-.86-.58,2.65,2.65,0,0,0-1-.21,2.73,2.73,0,0,0-1.05.21,2.56,2.56,0,0,0-.86.58,2.49,2.49,0,0,0-.42.56,2.9,2.9,0,0,0-.23.72,8.37,8.37,0,0,0-.1,1c0,.4,0,.88,0,1.46s0,1.07,0,1.47a8.39,8.39,0,0,0,.1,1,2.65,2.65,0,0,0,.23.72,2.79,2.79,0,0,0,.42.57,2.68,2.68,0,0,0,1.91.79,2.65,2.65,0,0,0,1-.21,2.51,2.51,0,0,0,.86-.58,2.2,2.2,0,0,0,.42-.57,2.65,2.65,0,0,0,.23-.72,5.64,5.64,0,0,0,.1-1q0-.6,0-1.47C233.46,206.1,233.45,205.62,233.43,205.22Z"/><path class="cls-1" d="M245.64,210.47a2.65,2.65,0,0,1-.77,1,3.55,3.55,0,0,1-1.21.62,5.11,5.11,0,0,1-1.56.22A5.86,5.86,0,0,1,240,212a4.83,4.83,0,0,1-1.66-1.12l.81-.8a3.86,3.86,0,0,0,1.38.94,4.43,4.43,0,0,0,1.62.27,3.05,3.05,0,0,0,1.91-.54,1.8,1.8,0,0,0,.7-1.51,2.22,2.22,0,0,0-.14-.79,1.49,1.49,0,0,0-.39-.59,1.87,1.87,0,0,0-.55-.33,5,5,0,0,0-.89-.19l-1.29-.2a4.13,4.13,0,0,1-2-.84,2.64,2.64,0,0,1-.83-2.06,3.32,3.32,0,0,1,.24-1.28,2.69,2.69,0,0,1,.71-1,3.16,3.16,0,0,1,1.11-.63,4.45,4.45,0,0,1,1.47-.22,5.18,5.18,0,0,1,1.81.28,4.67,4.67,0,0,1,1.47.92l-.76.76a3.6,3.6,0,0,0-1.1-.7,3.9,3.9,0,0,0-1.47-.24,2.41,2.41,0,0,0-1.72.56,1.91,1.91,0,0,0-.6,1.48,1.59,1.59,0,0,0,.49,1.27,2.32,2.32,0,0,0,.66.37,4,4,0,0,0,.83.24l1.21.18.69.13a3,3,0,0,1,.53.17,2.46,2.46,0,0,1,.43.21,1.54,1.54,0,0,1,.36.27,2.69,2.69,0,0,1,.93,2.18A3.07,3.07,0,0,1,245.64,210.47Z"/><path class="cls-1" d="M69.21,229.49a.4.4,0,0,1,.15.29.93.93,0,0,1-.17.46,9.33,9.33,0,0,1-.61.81l-1.14,1.26c-.51.55-1,1.09-1.63,1.61a14,14,0,0,1-1.71,1.31,2,2,0,0,1-1.41.44,4.5,4.5,0,0,1-1.63-.68,1.71,1.71,0,0,1-.71-1.51,2,2,0,0,1,.15-.68l.24-.63c-.16.16-.41.43-.75.82s-.7.78-1.09,1.17a9.74,9.74,0,0,1-1.16,1,1.67,1.67,0,0,1-.91.44A2.14,2.14,0,0,1,55.4,235a2.49,2.49,0,0,1-.7-1.88s0-.28.13-.73a9.45,9.45,0,0,1,.6-1.83,16.79,16.79,0,0,1,4.14-5.62,11.85,11.85,0,0,1,2.63-2,4.61,4.61,0,0,1,2-.56,2.93,2.93,0,0,1,2.19,1,4.84,4.84,0,0,1,1.22,2.14,1.62,1.62,0,0,1,0,.9.9.9,0,0,1-.34.47.48.48,0,0,1-.39.1.19.19,0,0,1-.12-.25,2,2,0,0,0-.12-1.26c-.18-.49-.46-.73-.85-.73a3.43,3.43,0,0,0-1.15.24,4.33,4.33,0,0,0-1.39.92c-.42.39-1,1-1.6,1.68s-1.29,1.49-1.9,2.27A24,24,0,0,0,58.19,232a3.55,3.55,0,0,0-.66,1.49q0,.24.09.24a.77.77,0,0,0,.32-.14c.14-.1.43-.34.88-.73.22-.23.65-.64,1.27-1.25s1.27-1.23,1.92-1.89,1.22-1.28,1.73-1.83.73-.88.7-1c-.1-.36,0-.57.42-.64a2.13,2.13,0,0,1,1.19.17,1.85,1.85,0,0,1,1,.9,1.49,1.49,0,0,1-.37,1.56c-.13.2-.4.56-.82,1.1s-.84,1.09-1.25,1.68a14.48,14.48,0,0,0-1,1.58c-.24.47-.25.75,0,.85,0,0,0,0,0,.05s0,0,0,0a2.33,2.33,0,0,0,1.12-.63,19.46,19.46,0,0,0,1.61-1.49l1.58-1.63c.51-.52.87-.88,1.1-1.07C69.05,229.41,69.12,229.42,69.21,229.49Z"/><path class="cls-1" d="M74.47,226.37c-.84,1.3-1.63,2.52-2.36,3.68a23.24,23.24,0,0,0-1.58,2.8c-.1.22-.2.49-.32.8s-.1.48,0,.51.31,0,.65-.32.75-.62,1.22-1,.94-.87,1.41-1.34.87-.88,1.2-1.24l.14-.15a3.14,3.14,0,0,1,.44-.53c.19-.2.37-.23.54-.1s.21.21.14.44A3.36,3.36,0,0,1,75.2,231a11.4,11.4,0,0,1-1,1.14c-.51.51-1,1-1.61,1.51a20.34,20.34,0,0,1-1.66,1.34,2.87,2.87,0,0,1-1.29.63,1.2,1.2,0,0,1-.65,0l-.61-.17a1,1,0,0,1-.42-.34c-.08-.13-.13-.23-.17-.3v-.09a1.32,1.32,0,0,1-.24-.71c0-.31-.05-.54-.05-.7a4.42,4.42,0,0,1,.56-1.81c.37-.74.79-1.49,1.24-2.24l.49-.82a12.26,12.26,0,0,1,1-1.73c.37-.57.75-1.16,1.14-1.78q1.71-2.73,2.85-4.6a33.54,33.54,0,0,0,1.73-3.14,6.72,6.72,0,0,0,.49-1.29,4.09,4.09,0,0,0,.09-.71q0-.19.27-.27a1,1,0,0,1,.66.13,5.41,5.41,0,0,1,1.12,1,2.06,2.06,0,0,1,.44,1.73c-.07.26-.12.54-.17.83a4.19,4.19,0,0,1-.42,1.12,5.29,5.29,0,0,1-.26.49l-.3.46a7.65,7.65,0,0,1-.48.68c-.21.28-.48.68-.81,1.19L75,225.59a4.56,4.56,0,0,0-.27.39C74.61,226.11,74.54,226.24,74.47,226.37Z"/><path class="cls-1" d="M89.13,229.49a.4.4,0,0,1,.15.29c0,.23-.2.65-.69,1.27-.22.29-.57.71-1,1.26s-1,1.09-1.51,1.61a11.94,11.94,0,0,1-1.59,1.31,1.87,1.87,0,0,1-1.36.44.69.69,0,0,0-.29,0q-1.17,1.71-2.51,3.73a42.37,42.37,0,0,1-2.8,3.77,20.11,20.11,0,0,1-3,2.95,4.81,4.81,0,0,1-3,1.19,5,5,0,0,1-2.07-.39,4,4,0,0,1-1.39-1,4.29,4.29,0,0,1-.82-1.41,5.64,5.64,0,0,1-.34-1.68,8.54,8.54,0,0,1,.14-2.8,5.79,5.79,0,0,1,.8-1.87A3.48,3.48,0,0,1,69,237a2.89,2.89,0,0,1,1.29-.34,3.93,3.93,0,0,1,1.39.22c.38.15.58.32.61.51a.34.34,0,0,1-.15.3.45.45,0,0,1-.24.09.3.3,0,0,1-.19-.07.32.32,0,0,0-.2-.07.75.75,0,0,0-.41.24,4.23,4.23,0,0,0-.71,1.07,7.5,7.5,0,0,0-.75,1.46,8.33,8.33,0,0,0-.39,1.41,10.54,10.54,0,0,0-.15,1.25c0,.37,0,.65,0,.85a3.31,3.31,0,0,0,.22,1.09,1.91,1.91,0,0,0,.41.66,1.66,1.66,0,0,0,.53.44,3.63,3.63,0,0,0,2.25-1.29,29.14,29.14,0,0,0,2.7-3.14q1.38-1.86,2.7-4c.88-1.41,1.62-2.67,2.24-3.77l.68-1.8-.66.82a15.22,15.22,0,0,1-1,1.17,12.51,12.51,0,0,1-1.09,1,1.54,1.54,0,0,1-.83.44,2.34,2.34,0,0,1-1.49-.65,2.7,2.7,0,0,1-.85-1.88s0-.28,0-.73a7.8,7.8,0,0,1,.44-1.83,14.54,14.54,0,0,1,1.24-2.6,14.72,14.72,0,0,1,2.46-3,10.91,10.91,0,0,1,2.48-2,4.36,4.36,0,0,1,2-.56,3.14,3.14,0,0,1,2.26,1,5.37,5.37,0,0,1,1.39,2.14,1.39,1.39,0,0,1,.07.9,1,1,0,0,1-.31.47.42.42,0,0,1-.37.1.19.19,0,0,1-.12-.25,1.45,1.45,0,0,0,0-.58,3,3,0,0,0-.22-.66,1.78,1.78,0,0,0-.39-.54.8.8,0,0,0-.54-.21,3.23,3.23,0,0,0-1.12.24,3.89,3.89,0,0,0-1.31.92c-.39.39-.89,1-1.49,1.68s-1.17,1.49-1.73,2.27-1,1.52-1.41,2.21a3,3,0,0,0-.53,1.49c.06.16.11.24.14.24a.77.77,0,0,0,.32-.14,8,8,0,0,0,.8-.73c.23-.23.64-.64,1.22-1.25s1.18-1.23,1.78-1.89,1.13-1.28,1.58-1.83.66-.88.63-1c-.13-.36,0-.57.37-.64a2.13,2.13,0,0,1,1.19.17,2.07,2.07,0,0,1,1,.9A1.48,1.48,0,0,1,86.5,229c-.13.2-.38.56-.76,1.1s-.73,1.09-1.09,1.68a13.36,13.36,0,0,0-.85,1.58c-.21.47-.21.75,0,.85a0,0,0,0,1,.05.05,0,0,0,0,0,0,0,2.13,2.13,0,0,0,1.07-.63,17.43,17.43,0,0,0,1.49-1.49c.5-.57,1-1.11,1.46-1.63s.8-.88,1-1.07C89,229.41,89,229.42,89.13,229.49Z"/><path class="cls-1" d="M96.29,234.19a9.31,9.31,0,0,1-1.68,1.09,5.72,5.72,0,0,1-1.51.51,7.57,7.57,0,0,1-1.24.12,5.72,5.72,0,0,1-1-.09l-.39-.1a.29.29,0,0,1-.19-.05,3.32,3.32,0,0,1-1.27-.58,2.91,2.91,0,0,1-.75-.9,3.24,3.24,0,0,1-.34-1.08,5,5,0,0,1,0-1.09,5.75,5.75,0,0,1,.47-1.92l.46-1c.23-.39.58-.94,1-1.66a17.78,17.78,0,0,1,1.73-2.16,12.87,12.87,0,0,1,2.29-1.93,5.64,5.64,0,0,1,2.78-.92,3.24,3.24,0,0,1,1.56.24,2.38,2.38,0,0,1,.82.61.58.58,0,0,1,.15.57c-.07.16-.21.19-.44.09a1.44,1.44,0,0,0-.85,0l-.42.12c.1,0,0,0-.14.07a6.18,6.18,0,0,0-.93.59,11.67,11.67,0,0,0-1.53,1.44,24.63,24.63,0,0,0-2,2.64,25.43,25.43,0,0,0-1.66,2.84,6.8,6.8,0,0,0-.63,2c-.1.75.28,1.13,1.12,1.13a2.63,2.63,0,0,0,1.66-.88,14.18,14.18,0,0,0,1.72-2,17.83,17.83,0,0,0,1.34-2.13,3,3,0,0,0,.49-1.3A2.28,2.28,0,0,1,96,228a.74.74,0,0,1-.36-.85A1.76,1.76,0,0,1,96,226a1.85,1.85,0,0,1,.69-.46,1.37,1.37,0,0,1,.6-.1l.22,0a2.45,2.45,0,0,1,1.12.3,2.73,2.73,0,0,1,1,.93,9.94,9.94,0,0,1,1.53-.62,5.44,5.44,0,0,1,1.53-.26,2.73,2.73,0,0,1,1.17.19,1.46,1.46,0,0,1,.56.44,1,1,0,0,1,.17.63.57.57,0,0,1-.07.2.24.24,0,0,1-.22.14c-.1,0-.15,0-.17-.1a2.42,2.42,0,0,1-.05-.24.53.53,0,0,0-.1-.24c0-.07-.13-.1-.26-.1l-.34,0a.74.74,0,0,0-.39.07c-.2.06-.52.18-1,.34s-1.13.41-2.07.73a1.48,1.48,0,0,0,0,.49,6.73,6.73,0,0,1-.39,1.46,10.36,10.36,0,0,1-.63,1.29c-.23.37-.51.79-.83,1.24A13.06,13.06,0,0,1,96.29,234.19Zm.34-6.85h.27a.59.59,0,0,0,.31-.09.59.59,0,0,0-.27-.47.76.76,0,0,0-.36-.12.42.42,0,0,0-.44.34C96.14,227.23,96.3,227.34,96.63,227.34Z"/><path class="cls-1" d="M122.42,229.44s0,.05,0,.05,0,0,0,0q0,.28-.87,1a8.74,8.74,0,0,1-3.15,1.29l-.68.78c-.23.26-.47.52-.73.78a12,12,0,0,1-1.41,1.37,7.82,7.82,0,0,1-1.46.95,3.8,3.8,0,0,1-1.66.41,1.47,1.47,0,0,1-1.19-.44,1.58,1.58,0,0,1-.37-1.07,2.74,2.74,0,0,1,1-2.07,5.22,5.22,0,0,1,2.9-1.14,21.43,21.43,0,0,0,2.68-4.17,7.48,7.48,0,0,0,.82-2.65c0-.36-.09-.54-.29-.54a1.63,1.63,0,0,0-.75.27,8.34,8.34,0,0,0-1,.68c-.34.28-.68.57-1,.88s-.64.58-.9.8c-.81,1.11-1.47,2.06-2,2.85s-.91,1.47-1.22,2a10.72,10.72,0,0,0-.68,1.39l-.41,1c0,.1-.08.23-.13.39s-.1.34-.17.53-.12.38-.17.56a1.56,1.56,0,0,0-.07.37.28.28,0,0,1-.2.27c-.13.05-.3,0-.53-.17a4,4,0,0,1-.68-.64,2.28,2.28,0,0,1-.49-1,5.41,5.41,0,0,1-.1-1,4.42,4.42,0,0,1,.56-1.81c.38-.74.79-1.49,1.24-2.24.52-.9,1.15-1.94,1.88-3.11s1.45-2.34,2.17-3.51,1.36-2.27,1.94-3.29,1-1.84,1.32-2.46a6.72,6.72,0,0,0,.49-1.29,4,4,0,0,0,.09-.7q0-.19.27-.27a.94.94,0,0,1,.66.12,5.44,5.44,0,0,1,1.1,1,2.08,2.08,0,0,1,.43,1.73,7.22,7.22,0,0,1-.86,2.29A46.82,46.82,0,0,1,116.2,224a10.33,10.33,0,0,1,1.27-.74,3.05,3.05,0,0,1,1.35-.33,1.83,1.83,0,0,1,1.51.78,3.45,3.45,0,0,1,.59,2.15,7.26,7.26,0,0,1-.38,2.19,10.75,10.75,0,0,1-1.29,2.63,5.1,5.1,0,0,0,.8-.32l.91-.44c.29-.14.55-.27.78-.36a1.51,1.51,0,0,1,.43-.15A.44.44,0,0,1,122.42,229.44Zm-10.07,4.77c.52-.52,1-1.05,1.47-1.61a2.84,2.84,0,0,0-1.59,1,2.71,2.71,0,0,0-.36.68c0,.13,0,.19.09.19a.83.83,0,0,0,.25-.09A.34.34,0,0,0,112.35,234.21Z"/><path class="cls-1" d="M121.85,235.77a1.26,1.26,0,0,1-.54-.29,2.24,2.24,0,0,1-.41-.44,3.27,3.27,0,0,1-.27-.78,5.41,5.41,0,0,1-.1-1,3.21,3.21,0,0,1,.39-1.42,3.84,3.84,0,0,1,.39-.82l.1-.2h0v0l.73-1.31c.55-1,1-1.81,1.31-2.41s.58-1.07.76-1.42l.39-.73a4.91,4.91,0,0,0,.22-.46,6.72,6.72,0,0,0,.49-1.29,4,4,0,0,0,.09-.7q0-.19.27-.27a.94.94,0,0,1,.66.12,5.76,5.76,0,0,1,1.12,1,2.08,2.08,0,0,1,.44,1.73l-.2.78c-.26.51-.54,1-.85,1.55s-.6,1-.88,1.44-.53.81-.75,1.12a4.78,4.78,0,0,0-.44.66,16.08,16.08,0,0,1-1,1.41,7,7,0,0,0-.93,1.56l-.1.39c0,.13.15.19.34.19a1.92,1.92,0,0,0,1-.56,19.47,19.47,0,0,0,1.51-1.46q.86-.9,1.83-2.07l2-2.38,1-1.47.29-.53a5.23,5.23,0,0,1,.22-.51l.31-.71a6.72,6.72,0,0,0,.49-1.29,4.25,4.25,0,0,0,.1-.7c0-.13.09-.22.26-.27a.94.94,0,0,1,.66.12,5.49,5.49,0,0,1,1.12,1,2,2,0,0,1,.44,1.73l-.19.78-.37.73a5.58,5.58,0,0,1-.41.68c-.07.16-.16.35-.27.56s-.25.48-.42.8c-.74,1.2-1.34,2.16-1.8,2.87s-.8,1.26-1,1.63a8.58,8.58,0,0,0-.47.78,1.05,1.05,0,0,0-.09.32c0,.07,0,.1,0,.1a2,2,0,0,0,.77-.47,16.23,16.23,0,0,0,1.27-1.12c.45-.43.92-.89,1.39-1.36l1.19-1.19a3.76,3.76,0,0,1,.34-.41.68.68,0,0,1,.49-.27l.07,0a.09.09,0,0,0,.07,0,.4.4,0,0,1,.15.29,1,1,0,0,1-.17.48,4.71,4.71,0,0,1-.61.78q-.43.49-1.26,1.29c-.56.54-1.12,1.06-1.71,1.56a13.88,13.88,0,0,1-1.7,1.29,2.73,2.73,0,0,1-1.27.54,2,2,0,0,1-1.31-.42,1.51,1.51,0,0,1-.54-1.29,4.38,4.38,0,0,1,.15-1.26,7.63,7.63,0,0,1,.68-1.46c-.36.42-.78.9-1.27,1.43a19.56,19.56,0,0,1-1.51,1.51,11.25,11.25,0,0,1-1.51,1.17A1.66,1.66,0,0,1,121.85,235.77Z"/><path class="cls-1" d="M145.08,231c-.36.35-.86.81-1.49,1.36a24.75,24.75,0,0,1-2.05,1.61,13.47,13.47,0,0,1-2.24,1.31,5,5,0,0,1-2.11.54.69.69,0,0,1-.2,0l-.19,0h-.05a3.28,3.28,0,0,1-2.36-1,2.87,2.87,0,0,1-.61-1.78,5.46,5.46,0,0,1,.41-2.31c.28-.57.56-1.13.85-1.68a14.82,14.82,0,0,1,1.27-1.87,19.61,19.61,0,0,1,2-2.24,14.44,14.44,0,0,1,2.33-1.88,4.23,4.23,0,0,1,2.24-.78,2.3,2.3,0,0,1,.83.2s0,0,.07,0l.32.2a3.33,3.33,0,0,1,.34.24c.1.08.16.12.2.12a2.51,2.51,0,0,1,.73,1.61,3,3,0,0,1-.9,2,13.66,13.66,0,0,1-2.17,1.9,24.35,24.35,0,0,1-2.58,1.6c-.88.48-1.61.84-2.19,1.1-.16.42-.29.76-.37,1a3,3,0,0,0-.12.88c0,.88.42,1.31,1.27,1.31a2.74,2.74,0,0,0,.7-.22,10.06,10.06,0,0,0,1.41-.7,23.08,23.08,0,0,0,2-1.29,21.77,21.77,0,0,0,2.32-2s.14-.12.34-.34a1.32,1.32,0,0,1,.58-.44.79.79,0,0,1,.24.05.22.22,0,0,1,.15.24,1.19,1.19,0,0,1-.22.51A3,3,0,0,1,145.08,231Zm-6.14-2.15a6.3,6.3,0,0,0-.41.66l-.37.66c1.17-.88,2.12-1.64,2.85-2.29a18.11,18.11,0,0,0,1.7-1.68,4.76,4.76,0,0,0,.81-1.17,2,2,0,0,0,.19-.7.69.69,0,0,0-.1-.3.33.33,0,0,1,0-.14s-.06,0-.27.14a9.94,9.94,0,0,0-1,.73,14.9,14.9,0,0,0-1.51,1.54A22.51,22.51,0,0,0,138.94,228.85Z"/><path class="cls-1" d="M149,229.73l-.78,1.24c-.19.31-.37.6-.53.88s-.32.57-.47.87-.31.71-.51,1.2l-.39,1.17c-.06-.1-.11-.16-.14-.17s-.05,0-.05,0a.88.88,0,0,0,.19.17,2.2,2.2,0,0,0-.14.68q0,.24-.3.24a1.49,1.49,0,0,1-1.09-.75,3.42,3.42,0,0,1-.61-2,5,5,0,0,1,.51-1.71c.34-.78.75-1.61,1.24-2.51s1-1.76,1.46-2.6.86-1.51,1.12-2a4.27,4.27,0,0,0,.44-1c.07-.28.11-.51.15-.69a2.57,2.57,0,0,1,.09-.39c0-.08.13-.12.3-.12a1.43,1.43,0,0,1,.61.2,3.18,3.18,0,0,1,.68.51,3.39,3.39,0,0,1,.56.78,2.14,2.14,0,0,1,.24,1,1.79,1.79,0,0,1-.22.51c-.14.27-.3.57-.46.9s-.33.62-.49.9a3.34,3.34,0,0,0-.29.56c.26-.29.66-.73,1.22-1.32s1.14-1.17,1.77-1.75A23.32,23.32,0,0,1,155,223a3,3,0,0,1,1.63-.68,1.63,1.63,0,0,1,1.56.78,3.35,3.35,0,0,1,.44,1.66,4.83,4.83,0,0,1-.15,1.21v0c0,.07-.09.24-.19.51a6,6,0,0,1-.49,1l-1.43,2.39c-.47.78-.9,1.47-1.27,2.07L153.79,234c0,.09,0,.14.1.14a1.62,1.62,0,0,0,.73-.44c.35-.29.76-.64,1.21-1s.91-.84,1.37-1.29.83-.86,1.12-1.22l.14-.15.37-.46a.61.61,0,0,1,.46-.27c.2,0,.29.13.29.39s-.21.6-.73,1.22a14.2,14.2,0,0,1-1.26,1.31c-.55.52-1.13,1-1.73,1.54a18.83,18.83,0,0,1-1.73,1.29,2.73,2.73,0,0,1-1.26.53,2.18,2.18,0,0,1-1.27-.41,1.43,1.43,0,0,1-.59-1.24,2.59,2.59,0,0,1,.18-.95,2.5,2.5,0,0,0,.17-.61c.26-.65.58-1.35,1-2.12s.78-1.47,1.17-2.12.92-1.47,1.41-2.19a5.77,5.77,0,0,0,.61-1,1.75,1.75,0,0,0,.17-.63c0-.3-.13-.44-.39-.44a.82.82,0,0,0-.34.09c-1,.91-1.9,1.68-2.58,2.32s-1.36,1.27-2,1.92A12.93,12.93,0,0,0,149,229.73Z"/><path class="cls-1" d="M166.5,234.19a9.31,9.31,0,0,1-1.68,1.09,5.72,5.72,0,0,1-1.51.51,7.57,7.57,0,0,1-1.24.12,5.72,5.72,0,0,1-1-.09l-.38-.1a.3.3,0,0,1-.2-.05,3.32,3.32,0,0,1-1.27-.58,2.91,2.91,0,0,1-.75-.9,3.24,3.24,0,0,1-.34-1.08,4.43,4.43,0,0,1,0-1.09,5.53,5.53,0,0,1,.46-1.92c.24-.54.4-.89.46-1,.23-.39.58-.94,1.05-1.66a16,16,0,0,1,1.73-2.16,12.8,12.8,0,0,1,2.28-1.93,5.64,5.64,0,0,1,2.78-.92,3.24,3.24,0,0,1,1.56.24,2.54,2.54,0,0,1,.83.61.57.57,0,0,1,.14.57c-.06.16-.21.19-.44.09a1.44,1.44,0,0,0-.85,0,1.72,1.72,0,0,0-.41.12c.09,0,.05,0-.15.07a6.24,6.24,0,0,0-.92.59,11.05,11.05,0,0,0-1.54,1.44,24.63,24.63,0,0,0-2,2.64,23.65,23.65,0,0,0-1.65,2.84,6.56,6.56,0,0,0-.64,2c-.09.75.28,1.13,1.12,1.13a2.63,2.63,0,0,0,1.66-.88,14.91,14.91,0,0,0,1.73-2,20.81,20.81,0,0,0,1.34-2.13,2.89,2.89,0,0,0,.48-1.3,2.28,2.28,0,0,1-.9-.32.74.74,0,0,1-.36-.85,1.71,1.71,0,0,1,.39-1.13,1.75,1.75,0,0,1,.68-.46,1.41,1.41,0,0,1,.61-.1l.22,0a2.48,2.48,0,0,1,1.12.3,2.64,2.64,0,0,1,1,.93,9.94,9.94,0,0,1,1.53-.62,5.45,5.45,0,0,1,1.54-.26,2.68,2.68,0,0,1,1.16.19,1.46,1.46,0,0,1,.56.44,1,1,0,0,1,.18.63.7.7,0,0,1-.08.2.24.24,0,0,1-.22.14c-.09,0-.15,0-.17-.1s0-.14-.05-.24a.52.52,0,0,0-.09-.24.31.31,0,0,0-.27-.1l-.34,0a.74.74,0,0,0-.39.07c-.2.06-.51.18-.95.34s-1.13.41-2.07.73a1.82,1.82,0,0,0,0,.49,6.21,6.21,0,0,1-.39,1.46,9.13,9.13,0,0,1-.63,1.29c-.23.37-.51.79-.83,1.24A13.06,13.06,0,0,1,166.5,234.19Zm.34-6.85h.27a.56.56,0,0,0,.31-.09.61.61,0,0,0-.26-.47.83.83,0,0,0-.37-.12.43.43,0,0,0-.44.34C166.35,227.23,166.51,227.34,166.84,227.34Z"/><path class="cls-1" d="M175.75,241.61a3.32,3.32,0,0,0-.17.78,6.17,6.17,0,0,0-.07.78.28.28,0,0,1-.2.27c-.13.05-.31,0-.53-.17a4.48,4.48,0,0,1-.69-.64,2.27,2.27,0,0,1-.48-1,4.57,4.57,0,0,1-.1-1,4.42,4.42,0,0,1,.56-1.81c.37-.74.79-1.49,1.24-2.24s1-1.64,1.58-2.6l1.83-2.92c.62-1,1.21-2,1.78-2.92s1-1.81,1.43-2.56l.54-1.07.27-.61c.08-.18.15-.33.22-.46a5.7,5.7,0,0,0,.19-.73,3.52,3.52,0,0,0,0-.49q0-.19.27-.27a1,1,0,0,1,.65.12,4.74,4.74,0,0,1,.54.39,4.79,4.79,0,0,1,.54.56,2.7,2.7,0,0,1,.38.71,1.93,1.93,0,0,1,.1.88s0,.09-.17.39-.31.6-.51.95-.36.65-.51,1-.2.42-.17.38a32.23,32.23,0,0,1,3.8-4.16c1-.83,1.83-1,2.58-.61a2.34,2.34,0,0,1,.9,1,3.47,3.47,0,0,1,.36,1.65,7.53,7.53,0,0,1-.39,2.22,9.91,9.91,0,0,1-1.31,2.6,6.53,6.53,0,0,0,1.36-.44,4.8,4.8,0,0,0,.54-.19l.44-.17.29-.12c.39-.13.62-.15.7,0s0,.25-.29.46a8.62,8.62,0,0,1-1.36.78,14.93,14.93,0,0,1-2.51.9c-.23.26-.45.53-.68.8s-.47.55-.73.81a8.78,8.78,0,0,1-1.46,1.41,9.19,9.19,0,0,1-1.51.95,3.09,3.09,0,0,1-1.7.32,1.34,1.34,0,0,1-1.2-.66,1.86,1.86,0,0,1-.12-1.36,3.59,3.59,0,0,1,.83-1.47,3.38,3.38,0,0,1,1.75-1l1.22-.25a25.11,25.11,0,0,0,1.95-2.85,20.22,20.22,0,0,0,1.17-2.33,4.92,4.92,0,0,0,.38-1.59c0-.39-.09-.58-.29-.58a1.56,1.56,0,0,0-.78.46,15.05,15.05,0,0,0-1.19,1.2c-.44.48-.91,1-1.41,1.63s-1,1.17-1.39,1.73-.8,1-1.12,1.48-.53.74-.63.9a34.2,34.2,0,0,1-1.9,2.88q-1.17,1.6-2.53,3.79A47,47,0,0,0,175.75,241.61Zm7.6-8c.51-.52,1-1.06,1.46-1.61a2.84,2.84,0,0,0-1.59,1,2.68,2.68,0,0,0-.36.69c0,.16.08.21.24.14A1.09,1.09,0,0,0,183.35,233.63Z"/><path class="cls-1" d="M206.23,229.49a.4.4,0,0,1,.15.29.93.93,0,0,1-.17.46c-.12.18-.32.45-.61.81l-1.15,1.26a20.7,20.7,0,0,1-1.63,1.61,13.19,13.19,0,0,1-1.7,1.31,2,2,0,0,1-1.41.44,4.55,4.55,0,0,1-1.64-.68,1.7,1.7,0,0,1-.7-1.51,2.17,2.17,0,0,1,.14-.68c.1-.26.18-.47.25-.63a10.69,10.69,0,0,0-.75.82c-.34.39-.7.78-1.09,1.17a10.59,10.59,0,0,1-1.16,1,1.69,1.69,0,0,1-.92.44,2.12,2.12,0,0,1-1.42-.65,2.45,2.45,0,0,1-.7-1.88s0-.28.12-.73a9.62,9.62,0,0,1,.61-1.83,16.73,16.73,0,0,1,1.46-2.6,17,17,0,0,1,2.68-3,11.63,11.63,0,0,1,2.63-2,4.57,4.57,0,0,1,2-.56,2.93,2.93,0,0,1,2.2,1,4.82,4.82,0,0,1,1.21,2.14,1.55,1.55,0,0,1,0,.9,1,1,0,0,1-.34.47.48.48,0,0,1-.39.1.17.17,0,0,1-.12-.25,2.12,2.12,0,0,0-.13-1.26c-.18-.49-.46-.73-.85-.73a3.42,3.42,0,0,0-1.14.24,4.33,4.33,0,0,0-1.39.92c-.42.39-1,1-1.61,1.68s-1.28,1.49-1.9,2.27-1.14,1.52-1.58,2.21a3.55,3.55,0,0,0-.66,1.49c0,.16,0,.24.1.24a.75.75,0,0,0,.31-.14c.14-.1.44-.34.89-.73.22-.23.64-.64,1.27-1.25s1.26-1.23,1.91-1.89,1.23-1.28,1.73-1.83.74-.88.71-1c-.1-.36,0-.57.41-.64a2.17,2.17,0,0,1,1.2.17,1.83,1.83,0,0,1,.94.9c.22.43.09,1-.36,1.56-.13.2-.41.56-.83,1.1s-.83,1.09-1.24,1.68a13.07,13.07,0,0,0-1,1.58c-.25.47-.26.75,0,.85,0,0,0,0,0,.05s0,0,0,0a2.33,2.33,0,0,0,1.12-.63,19.46,19.46,0,0,0,1.61-1.49l1.58-1.63c.5-.52.87-.88,1.1-1.07C206.07,229.41,206.13,229.42,206.23,229.49Z"/><path class="cls-1" d="M207.74,229.58c0-.16.11-.63.22-1.41a22.68,22.68,0,0,1,.85-3.31,5.36,5.36,0,0,1,.71-1.51,3.94,3.94,0,0,1,1-1.07,2.65,2.65,0,0,1,1.25-.44,2.22,2.22,0,0,1,1.34.39,5.84,5.84,0,0,1,1.38,1.07,4.44,4.44,0,0,1,.71.83.66.66,0,0,1,.07.34.68.68,0,0,0,0,.2.51.51,0,0,1-.3.26.25.25,0,0,1-.29,0,.59.59,0,0,1-.12-.19,1.59,1.59,0,0,0-.07-.2,1.36,1.36,0,0,0-.81-.49,1.29,1.29,0,0,0-.77.15,1.86,1.86,0,0,0-.61.49,1.13,1.13,0,0,0-.29.53c-.36,1.14-.62,2-.78,2.66a6.42,6.42,0,0,0-.25,1.19v.24a14,14,0,0,0,2-.29l1.73-.39.1-.05.12,0a.47.47,0,0,1,.17,0c.26,0,.39.12.39.34s-.38.65-1.14.88a31.4,31.4,0,0,1-3.48.73c-.13.52-.28,1-.44,1.51s-.35.85-.56,1.29a4.12,4.12,0,0,1-.76,1.1l-.24.19a4.29,4.29,0,0,1-1.32.88,4.07,4.07,0,0,1-1.6.34,2,2,0,0,1-1.44-.46,1.55,1.55,0,0,1-.46-1.15,3.75,3.75,0,0,1,.22-1.12,5.62,5.62,0,0,1,.65-1.36,6.86,6.86,0,0,1,1-1.24,3,3,0,0,1,1.31-.76.81.81,0,0,0,.39-.1v0Zm-.39,1.37a2.31,2.31,0,0,0-1,.66,5.31,5.31,0,0,0-.68.94,4.88,4.88,0,0,0-.39.88,3.5,3.5,0,0,0-.12.44c0,.1,0,.15.1.15a1,1,0,0,0,.44-.25,3.84,3.84,0,0,0,.6-.68,6.31,6.31,0,0,0,.61-1A5,5,0,0,0,207.35,231Z"/><path class="cls-1" d="M227.85,229.49a.4.4,0,0,1,.15.29.93.93,0,0,1-.17.46c-.12.18-.32.45-.61.81l-1.15,1.26a20.7,20.7,0,0,1-1.63,1.61,13.19,13.19,0,0,1-1.7,1.31,2.06,2.06,0,0,1-1.41.44,4.55,4.55,0,0,1-1.64-.68,1.7,1.7,0,0,1-.7-1.51,2.17,2.17,0,0,1,.14-.68c.1-.26.18-.47.25-.63a10.69,10.69,0,0,0-.75.82c-.34.39-.7.78-1.09,1.17a10.59,10.59,0,0,1-1.16,1,1.69,1.69,0,0,1-.92.44A2.12,2.12,0,0,1,214,235a2.45,2.45,0,0,1-.7-1.88s0-.28.12-.73a9,9,0,0,1,.61-1.83,15.94,15.94,0,0,1,1.46-2.6,17,17,0,0,1,2.68-3,11.63,11.63,0,0,1,2.63-2,4.57,4.57,0,0,1,2-.56,2.93,2.93,0,0,1,2.2,1,4.82,4.82,0,0,1,1.21,2.14,1.55,1.55,0,0,1,0,.9,1,1,0,0,1-.34.47.48.48,0,0,1-.39.1.18.18,0,0,1-.13-.25,2,2,0,0,0-.12-1.26c-.18-.49-.46-.73-.85-.73a3.42,3.42,0,0,0-1.14.24,4.33,4.33,0,0,0-1.39.92c-.42.39-1,1-1.61,1.68s-1.28,1.49-1.9,2.27-1.14,1.52-1.58,2.21a3.55,3.55,0,0,0-.66,1.49c0,.16,0,.24.1.24a.75.75,0,0,0,.31-.14c.14-.1.44-.34.89-.73.22-.23.64-.64,1.27-1.25s1.26-1.23,1.91-1.89,1.23-1.28,1.73-1.83.74-.88.71-1c-.1-.36,0-.57.41-.64a2.13,2.13,0,0,1,1.19.17,1.81,1.81,0,0,1,.95.9,1.5,1.5,0,0,1-.36,1.56c-.13.2-.41.56-.83,1.1s-.83,1.09-1.24,1.68a13.07,13.07,0,0,0-1,1.58c-.25.47-.26.75,0,.85,0,0,0,0,0,.05s0,0,0,0a2.33,2.33,0,0,0,1.12-.63,21.2,21.2,0,0,0,1.61-1.49l1.58-1.63c.5-.52.87-.88,1.1-1.07C227.69,229.41,227.75,229.42,227.85,229.49Z"/><path class="cls-1" d="M266.6,165.4H247.25v18.06H266.6Zm-30.81-10.82h30.78v-5.9H242.22V115.06h-6.43ZM218.88,174.7c0-4.46,4.55-7.75,9.61-7.75,5.31,0,9.64,3.49,9.64,7.68s-4.45,7.64-9.64,7.64-9.61-3.47-9.61-7.57m-2.24,0c0,5.05,5.49,9.19,11.85,9.19s11.89-4,11.89-9.28-5.58-9.29-11.89-9.29c-6,0-11.85,3.74-11.85,9.38m-23.49-20.12,15.18-30.94,15.58,30.94h7.36l-19.45-39.52h-6.28l-19.6,39.52Zm-8.08,11.06h-3v17.94h2.24V167.8h.06l13.31,15.78h2.24V165.64h-2.24v14.88h-.06Zm-30.53-44.79h15v33.73H176V120.85h15v-5.79H154.54Zm1.5,44.79h-5.7v17.94h2.25V167.26h3.91a10.23,10.23,0,0,1,4.36.68,3.89,3.89,0,0,1,2.46,3.44c0,1.6-1.24,3.25-3.7,3.81a20.88,20.88,0,0,1-4.82.27l7.61,8.12h2.82l-6.34-6.69c4.34-.22,6.67-2.87,6.67-5.46a5.58,5.58,0,0,0-4-5.11,15.43,15.43,0,0,0-5.52-.68m-43.75,9.06c0-4.46,4.55-7.75,9.61-7.75,5.31,0,9.64,3.49,9.64,7.68s-4.46,7.64-9.64,7.64-9.61-3.47-9.61-7.57m-2.24,0c0,5.05,5.48,9.19,11.85,9.19s11.88-4,11.88-9.28-5.58-9.29-11.88-9.29c-6,0-11.85,3.74-11.85,9.38m6.23-53.8H136c2.25,0,4.59.11,6,2.54a7,7,0,0,1,1,3.73,6,6,0,0,1-1.12,3.7c-1.94,2.68-5.5,2.68-8.09,2.68H116.28Zm19.2-5.84H109.9v39.52h6.44V139.29h16.82l12.44,15.29H154l-13.69-16.37c3.15-.65,9.35-2.67,9.35-11.26a11.25,11.25,0,0,0-3.48-8.64c-3.33-3.14-7.4-3.2-10.72-3.25m-52.06,63.5H81.18c.09,3.95,4,5.33,6.91,5.33,4,0,6.76-2.49,6.76-5.26v0c0-.58,0-4-5.49-5.17-2.94-.68-5.33-1.19-5.33-3.37,0-1.55,1.48-3.12,4.06-3.12,2.12,0,4,1.43,4,3.25h2.25c0-2.62-2.55-4.88-6.22-4.88s-6.31,2-6.31,4.83c0,3.56,3.8,4.24,5.83,4.72,1.51.37,5,1.07,5,3.83,0,2.11-2.15,3.57-4.52,3.57-2.76,0-4.55-1.46-4.67-3.71M65.28,135c0-10.69,8.15-14.73,15.79-14.95h.67c10,0,16.48,5.81,16.48,14.8,0,3.48-1.17,14.84-16.23,14.84-6.15,0-10.73-1.79-13.64-5.32A14.68,14.68,0,0,1,65.28,135m1.25,16.28c3.9,2.89,9.09,4.36,15.46,4.36,11.31,0,22.72-6.27,22.72-20.26,0-12.64-9.28-21.17-23.09-21.23-11.34,0-22.77,6.55-22.77,21.18,0,8.58,4.18,13.41,7.68,15.95m-22,23.44c0-4.46,4.55-7.75,9.61-7.75,5.3,0,9.64,3.49,9.64,7.68s-4.46,7.64-9.64,7.64-9.61-3.47-9.61-7.57m-2.24,0c0,5.05,5.48,9.19,11.85,9.19s11.88-4,11.88-9.28-5.57-9.29-11.88-9.29c-6,0-11.85,3.74-11.85,9.38m-6.27-9.3H16.72v18.06H36.07ZM39,120.85c2.57,0,5.77,0,7.72,2a5.83,5.83,0,0,1,1.55,4.24,6,6,0,0,1-2.5,5.08c-1.76,1.24-4.22,1.24-6.2,1.24H23.2V120.85Zm.78-5.79h-23v39.52h6.55V139.29h17c3.53,0,9.44,0,12.84-4.94a12.67,12.67,0,0,0,2-7,12.14,12.14,0,0,0-3.8-9c-2.68-2.39-6-3.35-11.59-3.35M215.37,69.54a8.49,8.49,0,1,1-8.48-8.79,8.65,8.65,0,0,1,8.48,8.79M266.75,103V91H228.61a100.26,100.26,0,0,0-7.88-13.4,16.43,16.43,0,0,0,2-7.92c0-9-7.09-16.38-15.8-16.38a15,15,0,0,0-7.8,2.14,94,94,0,0,0-57-19.26c-36.41,0-69.89,21.72-86.41,55H16.83v11.7H63.07v-.34h0l.21-.51C76.76,69.23,107.68,48,142.07,48a82.82,82.82,0,0,1,49.82,16.61,16.9,16.9,0,0,0-.8,5.15c0,9,7,16.26,15.69,16.26a16,16,0,0,0,4.91-.82,89.6,89.6,0,0,1,9.24,16.89l.22.52h.1V103Z"/></svg>