<svg id="Capa_1" data-name="Capa 1" xmlns="http://www.w3.org/2000/svg" viewBox="0 0 283.46 283.46"><defs><style>.cls-1{fill:#7c7c7b;}</style></defs><title>LOGOS PORTAL (GRIS)</title><path class="cls-1" d="M185.67,167.55h7.19L208,136.76l15.52,30.79h7.32l-19.36-39.33H205.2Zm5-39.33H154.39V134h14.92v33.56h6.41V134h15Zm-74.43,18.41V134h19.64c2.24.05,4.57.11,6,2.53a6.91,6.91,0,0,1,1,3.71A6,6,0,0,1,141.8,144c-1.93,2.67-5.47,2.67-8.05,2.67Zm.06,5.7h16.76l12.39,15.22h8.39l-13.64-16.28c3.14-.66,9.31-2.66,9.31-11.21a11.19,11.19,0,0,0-3.46-8.59c-3.32-3.13-7.37-3.19-10.68-3.25H109.91v39.33h6.42Zm-50.87-4.28c0-10.64,8.13-14.66,15.73-14.87h.67c10,0,16.42,5.78,16.42,14.72,0,3.46-1.17,14.76-16.18,14.76-6.12,0-10.68-1.77-13.57-5.28a14.58,14.58,0,0,1-3.07-9.32m-6.41.32c0,8.54,4.17,13.35,7.66,15.88,3.88,2.87,9.06,4.33,15.39,4.33,11.27,0,22.64-6.23,22.64-20.15,0-12.58-9.24-21.07-23-21.13-11.29,0-22.69,6.52-22.69,21.07M39.42,134c2.53,0,5.69,0,7.61,2a5.84,5.84,0,0,1,1.52,4.21,6,6,0,0,1-2.46,5.06c-1.74,1.23-4.16,1.23-6.11,1.23H23.87V134Zm.77-5.77H17.47v39.33h6.45V152.33H40.7c3.48,0,9.31,0,12.66-4.9a12.77,12.77,0,0,0,2-6.94,12.17,12.17,0,0,0-3.74-8.93c-2.65-2.37-6-3.34-11.43-3.34M215,83a8.48,8.48,0,1,1-8.48-8.8A8.64,8.64,0,0,1,215,83m5.79,33.3H266V104.67h-.14v-.36H228.07A101.38,101.38,0,0,0,220.23,91a16.41,16.41,0,0,0,2-7.89c0-9-7-16.29-15.71-16.29a15,15,0,0,0-7.75,2.12,93.38,93.38,0,0,0-56.65-19.15c-36.19,0-69.48,21.6-85.9,54.75H17.53v11.64h46v-.34h0l.21-.51C77.1,82.63,107.84,61.51,142,61.51A82.33,82.33,0,0,1,191.56,78a16.72,16.72,0,0,0-.8,5.13c0,8.92,7,16.18,15.6,16.18a15.86,15.86,0,0,0,4.88-.82,89.28,89.28,0,0,1,9.19,16.81l.21.51h.1ZM266,167.55v-5.87H241.74V128.22h-6.41v39.33Z"/><path class="cls-1" d="M43.21,196.83a3.65,3.65,0,0,1-.83,1,3.76,3.76,0,0,1-1.14.64,4.08,4.08,0,0,1-1.38.22A3.9,3.9,0,0,1,37,197.58a3.14,3.14,0,0,1-.6-.81,4.23,4.23,0,0,1-.31-.93,8,8,0,0,1-.11-1.18c0-.44,0-.95,0-1.54s0-1.11,0-1.54a7.91,7.91,0,0,1,.11-1.18,4.15,4.15,0,0,1,.31-.94,2.94,2.94,0,0,1,.6-.8,3.8,3.8,0,0,1,1.28-.86,4.14,4.14,0,0,1,1.54-.29,4.08,4.08,0,0,1,1.38.22,3.79,3.79,0,0,1,1.14.65,3.52,3.52,0,0,1,.83,1,4.5,4.5,0,0,1,.48,1.38H42.48a3,3,0,0,0-.9-1.62,2.48,2.48,0,0,0-1.72-.61,2.92,2.92,0,0,0-1,.2,2.56,2.56,0,0,0-.86.58,2.18,2.18,0,0,0-.41.56,2.72,2.72,0,0,0-.24.73,8.58,8.58,0,0,0-.1,1c0,.4,0,.89,0,1.47s0,1.06,0,1.46a8.37,8.37,0,0,0,.1,1,2.61,2.61,0,0,0,.24.73,2.41,2.41,0,0,0,.41.57,2.54,2.54,0,0,0,.86.57,2.92,2.92,0,0,0,1,.2,2.59,2.59,0,0,0,1.74-.6,3,3,0,0,0,.91-1.63h1.18A4.57,4.57,0,0,1,43.21,196.83Z"/><path class="cls-1" d="M55.41,196.5a3.54,3.54,0,0,1-.81,1.19,3.65,3.65,0,0,1-1.22.76,4.56,4.56,0,0,1-3.09,0,3.45,3.45,0,0,1-2-1.95A3.91,3.91,0,0,1,48,195V187.6h1.18v7.3a3.17,3.17,0,0,0,.19,1.14,2.35,2.35,0,0,0,1.37,1.43,3,3,0,0,0,1.1.2,3,3,0,0,0,1.1-.2,2.38,2.38,0,0,0,.85-.56,2.47,2.47,0,0,0,.54-.87,3.17,3.17,0,0,0,.19-1.14v-7.3h1.18V195A3.9,3.9,0,0,1,55.41,196.5Z"/><path class="cls-1" d="M67,198.63l-.88-2.49H61.31l-.88,2.49H59.18l4.06-11h1l4,11Zm-3.26-9.34-2.08,5.82h4.12Z"/><path class="cls-1" d="M78.94,198.63l-5.85-8.84v8.84H71.91v-11H73l5.85,8.82V187.6h1.18v11Z"/><path class="cls-1" d="M92.75,194.2a8.66,8.66,0,0,1-.1,1.25,5.05,5.05,0,0,1-.32,1.17,3.09,3.09,0,0,1-.65,1,3.51,3.51,0,0,1-1.21.76,4.67,4.67,0,0,1-1.58.26H85.11v-11h3.78a4.44,4.44,0,0,1,1.58.27,3.34,3.34,0,0,1,1.21.75,3.2,3.2,0,0,1,.65,1,4.35,4.35,0,0,1,.32,1.08,7.46,7.46,0,0,1,.1,1.16c0,.4,0,.79,0,1.17S92.76,193.78,92.75,194.2ZM91.57,192a5.86,5.86,0,0,0-.07-1,3.87,3.87,0,0,0-.21-.86,2.19,2.19,0,0,0-.44-.7,2.33,2.33,0,0,0-1-.63,4.07,4.07,0,0,0-1.19-.17H86.28v8.92h2.41a3.76,3.76,0,0,0,1.19-.18,2.33,2.33,0,0,0,1-.63,2,2,0,0,0,.44-.73,4.7,4.7,0,0,0,.21-.95,7,7,0,0,0,.07-1c0-.37,0-.72,0-1.06S91.58,192.31,91.57,192Z"/><path class="cls-1" d="M104.67,194.66a8,8,0,0,1-.11,1.18,4.23,4.23,0,0,1-.31.93,3.14,3.14,0,0,1-.6.81,3.86,3.86,0,0,1-2.82,1.14A3.85,3.85,0,0,1,98,197.58a3.14,3.14,0,0,1-.6-.81,4.23,4.23,0,0,1-.31-.93,8,8,0,0,1-.11-1.18c0-.44,0-.95,0-1.54s0-1.11,0-1.54a7.91,7.91,0,0,1,.11-1.18,4.15,4.15,0,0,1,.31-.94,2.94,2.94,0,0,1,.6-.8,4,4,0,0,1,5.64,0,2.94,2.94,0,0,1,.6.8,4.15,4.15,0,0,1,.31.94,7.91,7.91,0,0,1,.11,1.18c0,.43,0,.95,0,1.54S104.68,194.22,104.67,194.66Zm-1.18-3a8.39,8.39,0,0,0-.1-1,2.64,2.64,0,0,0-.24-.72,2.41,2.41,0,0,0-.41-.57,2.56,2.56,0,0,0-.86-.58,2.73,2.73,0,0,0-2.1,0,2.56,2.56,0,0,0-.86.58,2.41,2.41,0,0,0-.41.57,2.64,2.64,0,0,0-.24.72,8.39,8.39,0,0,0-.1,1c0,.4,0,.89,0,1.47s0,1.06,0,1.46a8.37,8.37,0,0,0,.1,1,2.9,2.9,0,0,0,.24.72,2.18,2.18,0,0,0,.41.56,2.56,2.56,0,0,0,.86.58,2.73,2.73,0,0,0,2.1,0,2.56,2.56,0,0,0,.86-.58,2.18,2.18,0,0,0,.41-.56,2.9,2.9,0,0,0,.24-.72,8.37,8.37,0,0,0,.1-1c0-.4,0-.89,0-1.46S103.5,192.05,103.49,191.65Z"/><path class="cls-1" d="M122.07,198.63l-5.86-8.84v8.84H115v-11h1.12l5.86,8.82V187.6h1.17v11Z"/><path class="cls-1" d="M135.51,194.66a8,8,0,0,1-.11,1.18,3.77,3.77,0,0,1-.31.93,3.14,3.14,0,0,1-.6.81,3.88,3.88,0,0,1-1.27.85,4,4,0,0,1-1.55.29,3.86,3.86,0,0,1-2.82-1.14,3.09,3.09,0,0,1-.59-.81,3.39,3.39,0,0,1-.31-.93,6.81,6.81,0,0,1-.12-1.18c0-.44,0-.95,0-1.54s0-1.11,0-1.54a6.71,6.71,0,0,1,.12-1.18,3.35,3.35,0,0,1,.31-.94,2.9,2.9,0,0,1,.59-.8,4,4,0,0,1,5.64,0,2.94,2.94,0,0,1,.6.8,3.71,3.71,0,0,1,.31.94,7.91,7.91,0,0,1,.11,1.18c0,.43,0,.95,0,1.54S135.52,194.22,135.51,194.66Zm-1.18-3a8.39,8.39,0,0,0-.1-1,2.34,2.34,0,0,0-.24-.72,2.41,2.41,0,0,0-.41-.57,2.56,2.56,0,0,0-.86-.58,2.73,2.73,0,0,0-1.05-.21,2.65,2.65,0,0,0-1,.21,2.38,2.38,0,0,0-.86.58,2.2,2.2,0,0,0-.42.57,2.34,2.34,0,0,0-.23.72,6.63,6.63,0,0,0-.11,1c0,.4,0,.89,0,1.47s0,1.06,0,1.46a6.63,6.63,0,0,0,.11,1,2.54,2.54,0,0,0,.23.72,2,2,0,0,0,.42.56,2.38,2.38,0,0,0,.86.58,2.65,2.65,0,0,0,1,.21,2.73,2.73,0,0,0,1.05-.21,2.56,2.56,0,0,0,.86-.58,2.18,2.18,0,0,0,.41-.56,2.54,2.54,0,0,0,.24-.72,8.37,8.37,0,0,0,.1-1c0-.4,0-.89,0-1.46S134.34,192.05,134.33,191.65Z"/><path class="cls-1" d="M146.53,196.9a2.66,2.66,0,0,1-.77,1,3.74,3.74,0,0,1-1.21.62,5.45,5.45,0,0,1-1.56.21,5.86,5.86,0,0,1-2.12-.34,4.79,4.79,0,0,1-1.66-1.11l.81-.81a4,4,0,0,0,1.38.95,4.72,4.72,0,0,0,1.63.26,3.08,3.08,0,0,0,1.9-.53,1.79,1.79,0,0,0,.7-1.51,2.42,2.42,0,0,0-.13-.79,1.38,1.38,0,0,0-.4-.59,1.62,1.62,0,0,0-.55-.34,6.12,6.12,0,0,0-.89-.19l-1.29-.2a4,4,0,0,1-2-.84,2.6,2.6,0,0,1-.84-2.06,3.18,3.18,0,0,1,.25-1.28,2.75,2.75,0,0,1,.7-1,3.35,3.35,0,0,1,1.11-.63,4.45,4.45,0,0,1,1.47-.22,4.91,4.91,0,0,1,1.81.29,4.5,4.5,0,0,1,1.47.92l-.75.76a3.76,3.76,0,0,0-1.1-.71,4,4,0,0,0-1.48-.24,2.43,2.43,0,0,0-1.71.56,1.91,1.91,0,0,0-.61,1.49,1.61,1.61,0,0,0,.5,1.27,2.64,2.64,0,0,0,.65.37,4.87,4.87,0,0,0,.83.23l1.21.19c.26,0,.49.08.69.13a3.46,3.46,0,0,1,.54.16,2.74,2.74,0,0,1,.42.21,3.18,3.18,0,0,1,.37.27,2.73,2.73,0,0,1,.93,2.19A3,3,0,0,1,146.53,196.9Z"/><path class="cls-1" d="M161.31,196.72a3,3,0,0,1-.71,1.08,3.14,3.14,0,0,1-1.09.68,3.81,3.81,0,0,1-1.38.24,3.77,3.77,0,0,1-1.4-.24,3.28,3.28,0,0,1-1.13-.75l.79-.79a2.67,2.67,0,0,0,.68.52,2.19,2.19,0,0,0,1.06.21,2.12,2.12,0,0,0,1.67-.66,2.73,2.73,0,0,0,.59-1.88V187.6h1.18v7.69A3.87,3.87,0,0,1,161.31,196.72Z"/><path class="cls-1" d="M173.72,196.5a3.4,3.4,0,0,1-.81,1.19,3.55,3.55,0,0,1-1.22.76,4.53,4.53,0,0,1-3.08,0,3.43,3.43,0,0,1-2-1.95,3.9,3.9,0,0,1-.28-1.51V187.6h1.17v7.3a3.41,3.41,0,0,0,.19,1.14,2.32,2.32,0,0,0,.53.87,2.47,2.47,0,0,0,.85.56,3.13,3.13,0,0,0,2.2,0,2.34,2.34,0,0,0,.84-.56,2.49,2.49,0,0,0,.55-.87,3.41,3.41,0,0,0,.19-1.14v-7.3H174V195A3.91,3.91,0,0,1,173.72,196.5Z"/><path class="cls-1" d="M185.93,198.63l-5.85-8.84v8.84H178.9v-11H180l5.85,8.82V187.6h1.18v11Z"/><path class="cls-1" d="M195.34,188.66v10h-1.18v-10H191V187.6h7.56v1.06Z"/><path class="cls-1" d="M208,198.63l-.89-2.49h-4.81l-.89,2.49h-1.25l4.06-11h1l4,11Zm-3.27-9.34-2.08,5.82h4.12Z"/><path class="cls-1" d="M221.11,198.63v-8.38l-3,6.65h-1L214,190.25v8.38h-1.18v-11H214l3.59,7.82,3.5-7.82h1.18v11Z"/><path class="cls-1" d="M234.62,194.66a6.81,6.81,0,0,1-.12,1.18,3.39,3.39,0,0,1-.31.93,3.09,3.09,0,0,1-.59.81,3.86,3.86,0,0,1-2.82,1.14,3.83,3.83,0,0,1-2.82-1.14,3.14,3.14,0,0,1-.6-.81,3.77,3.77,0,0,1-.31-.93,8,8,0,0,1-.11-1.18c0-.44,0-.95,0-1.54s0-1.11,0-1.54a7.91,7.91,0,0,1,.11-1.18,3.71,3.71,0,0,1,.31-.94,2.94,2.94,0,0,1,.6-.8,4,4,0,0,1,5.64,0,2.9,2.9,0,0,1,.59.8,3.35,3.35,0,0,1,.31.94,6.71,6.71,0,0,1,.12,1.18c0,.43,0,.95,0,1.54S234.63,194.22,234.62,194.66Zm-1.18-3a6.63,6.63,0,0,0-.11-1,2.65,2.65,0,0,0-.23-.72,2.2,2.2,0,0,0-.42-.57,2.38,2.38,0,0,0-.86-.58,2.65,2.65,0,0,0-1-.21,2.73,2.73,0,0,0-1.05.21,2.56,2.56,0,0,0-.86.58,2.79,2.79,0,0,0-.42.57,2.65,2.65,0,0,0-.23.72,8.39,8.39,0,0,0-.1,1c0,.4,0,.89,0,1.47s0,1.06,0,1.46a8.37,8.37,0,0,0,.1,1,2.9,2.9,0,0,0,.23.72,2.49,2.49,0,0,0,.42.56,2.56,2.56,0,0,0,.86.58,2.73,2.73,0,0,0,1.05.21,2.65,2.65,0,0,0,1-.21,2.38,2.38,0,0,0,.86-.58,2,2,0,0,0,.42-.56,2.9,2.9,0,0,0,.23-.72,6.63,6.63,0,0,0,.11-1c0-.4,0-.89,0-1.46S233.45,192.05,233.44,191.65Z"/><path class="cls-1" d="M245.64,196.9a2.77,2.77,0,0,1-.77,1,3.74,3.74,0,0,1-1.21.62,5.45,5.45,0,0,1-1.56.21,5.86,5.86,0,0,1-2.12-.34,4.79,4.79,0,0,1-1.66-1.11l.81-.81a3.9,3.9,0,0,0,1.38.95,4.66,4.66,0,0,0,1.62.26,3.12,3.12,0,0,0,1.91-.53,1.81,1.81,0,0,0,.7-1.51,2.18,2.18,0,0,0-.14-.79,1.36,1.36,0,0,0-.39-.59,1.72,1.72,0,0,0-.55-.34,6.12,6.12,0,0,0-.89-.19l-1.29-.2a4,4,0,0,1-2-.84,2.62,2.62,0,0,1-.83-2.06,3.18,3.18,0,0,1,.25-1.28,2.63,2.63,0,0,1,.7-1,3.16,3.16,0,0,1,1.11-.63,4.45,4.45,0,0,1,1.47-.22,5,5,0,0,1,1.81.29,4.5,4.5,0,0,1,1.47.92l-.76.76a3.63,3.63,0,0,0-1.1-.71,3.9,3.9,0,0,0-1.47-.24,2.47,2.47,0,0,0-1.72.56,1.94,1.94,0,0,0-.6,1.49,1.61,1.61,0,0,0,.49,1.27,2.93,2.93,0,0,0,.66.37,4.63,4.63,0,0,0,.83.23l1.21.19c.26,0,.49.08.69.13a3,3,0,0,1,.53.16,2.46,2.46,0,0,1,.43.21,2.42,2.42,0,0,1,.36.27,2.73,2.73,0,0,1,.93,2.19A3,3,0,0,1,245.64,196.9Z"/><path class="cls-1" d="M69.21,215.92a.43.43,0,0,1,.15.29,1,1,0,0,1-.17.47c-.11.17-.32.44-.61.8l-1.14,1.27c-.51.55-1,1.08-1.63,1.6a15.21,15.21,0,0,1-1.71,1.32,2.14,2.14,0,0,1-1.41.44,4.35,4.35,0,0,1-1.63-.69,1.7,1.7,0,0,1-.71-1.51,2,2,0,0,1,.15-.68l.24-.63c-.16.16-.41.44-.75.83s-.7.78-1.09,1.17a9.74,9.74,0,0,1-1.16,1,1.75,1.75,0,0,1-.91.44,2.11,2.11,0,0,1-1.43-.66,2.47,2.47,0,0,1-.7-1.88s0-.27.13-.73a9.18,9.18,0,0,1,.6-1.82,17.4,17.4,0,0,1,1.47-2.61,16.5,16.5,0,0,1,2.67-3,12,12,0,0,1,2.63-2,4.61,4.61,0,0,1,2-.56,2.94,2.94,0,0,1,2.19,1,4.79,4.79,0,0,1,1.22,2.14,1.62,1.62,0,0,1,0,.9.92.92,0,0,1-.34.46.48.48,0,0,1-.39.1q-.16,0-.12-.24a2.07,2.07,0,0,0-.12-1.27c-.18-.49-.46-.73-.85-.73a3.43,3.43,0,0,0-1.15.24,4.38,4.38,0,0,0-1.39.93c-.42.39-1,1-1.6,1.68s-1.29,1.48-1.9,2.26a22.8,22.8,0,0,0-1.58,2.22,3.53,3.53,0,0,0-.66,1.48c0,.17,0,.25.09.25a.7.7,0,0,0,.32-.15c.14-.1.43-.34.88-.73.22-.23.65-.64,1.27-1.24s1.27-1.24,1.92-1.9,1.22-1.27,1.73-1.83.73-.87.7-1q-.15-.54.42-.63a2,2,0,0,1,1.19.17,1.85,1.85,0,0,1,1,.9c.21.42.09.94-.37,1.56-.13.19-.4.56-.82,1.09s-.84,1.1-1.25,1.68a15.5,15.5,0,0,0-1,1.58c-.24.48-.25.76,0,.86,0,0,0,0,0,0s0,.05,0,.05a2.33,2.33,0,0,0,1.12-.63,19.25,19.25,0,0,0,1.61-1.48l1.58-1.64c.51-.51.87-.87,1.1-1.07C69.05,215.84,69.12,215.86,69.21,215.92Z"/><path class="cls-1" d="M74.47,212.81c-.84,1.29-1.63,2.52-2.36,3.67a24,24,0,0,0-1.58,2.8c-.1.23-.2.5-.32.81s-.1.47,0,.51.31,0,.65-.32.75-.63,1.22-1.05.94-.87,1.41-1.34.87-.88,1.2-1.24l.14-.14a3.17,3.17,0,0,1,.44-.54c.19-.19.37-.23.54-.1s.21.21.14.44a3.15,3.15,0,0,1-.78,1.07,12.42,12.42,0,0,1-1,1.15c-.51.5-1,1-1.61,1.51s-1.12,1-1.66,1.34a2.87,2.87,0,0,1-1.29.63,1.31,1.31,0,0,1-.65,0,5.43,5.43,0,0,1-.61-.17.93.93,0,0,1-.42-.34l-.17-.29v-.1a1.32,1.32,0,0,1-.24-.7c0-.31-.05-.55-.05-.71a4.42,4.42,0,0,1,.56-1.8c.37-.75.79-1.49,1.24-2.24l.49-.83a12.84,12.84,0,0,1,1-1.73l1.14-1.77q1.71-2.73,2.85-4.61a32.32,32.32,0,0,0,1.73-3.14,6.72,6.72,0,0,0,.49-1.29,4,4,0,0,0,.09-.7q0-.2.27-.27a.94.94,0,0,1,.66.12,5.49,5.49,0,0,1,1.12,1,2,2,0,0,1,.44,1.73c-.07.26-.12.53-.17.83a4.32,4.32,0,0,1-.42,1.12,5,5,0,0,1-.26.48c-.09.13-.18.29-.3.46s-.27.41-.48.69-.48.67-.81,1.19L75,212a4.56,4.56,0,0,0-.27.39C74.61,212.55,74.54,212.68,74.47,212.81Z"/><path class="cls-1" d="M89.13,215.92a.43.43,0,0,1,.15.29c0,.23-.2.65-.69,1.27-.22.29-.57.71-1,1.27s-1,1.08-1.51,1.6a12.9,12.9,0,0,1-1.59,1.32,2,2,0,0,1-1.36.44.56.56,0,0,0-.29-.05q-1.17,1.69-2.51,3.72a41.13,41.13,0,0,1-2.8,3.78,20,20,0,0,1-3,2.94,4.76,4.76,0,0,1-3,1.19,5.14,5.14,0,0,1-2.07-.38,4.32,4.32,0,0,1-1.39-1,4.44,4.44,0,0,1-.82-1.42,5.52,5.52,0,0,1-.34-1.67,8.52,8.52,0,0,1,.14-2.8,5.85,5.85,0,0,1,.8-1.88A3.44,3.44,0,0,1,69,223.47a2.77,2.77,0,0,1,1.29-.34,3.72,3.72,0,0,1,1.39.22c.38.14.58.31.61.51a.32.32,0,0,1-.15.29.4.4,0,0,1-.24.1.37.37,0,0,1-.19-.07.34.34,0,0,0-.2-.08c-.1,0-.23.08-.41.25a4,4,0,0,0-.71,1.07,7,7,0,0,0-.75,1.46,7.85,7.85,0,0,0-.39,1.41,10.39,10.39,0,0,0-.15,1.24c0,.37,0,.66,0,.85a3.38,3.38,0,0,0,.22,1.1,2.12,2.12,0,0,0,.41.66,1.62,1.62,0,0,0,.53.43,3.63,3.63,0,0,0,2.25-1.29,28.2,28.2,0,0,0,2.7-3.14q1.38-1.84,2.7-4c.88-1.42,1.62-2.67,2.24-3.78l.68-1.8-.66.83a15.22,15.22,0,0,1-1,1.17,12.51,12.51,0,0,1-1.09,1,1.62,1.62,0,0,1-.83.44,2.3,2.3,0,0,1-1.49-.66,2.68,2.68,0,0,1-.85-1.88s0-.27,0-.73A7.63,7.63,0,0,1,75.4,217a14.92,14.92,0,0,1,1.24-2.61,14.42,14.42,0,0,1,2.46-3,11,11,0,0,1,2.48-2,4.36,4.36,0,0,1,2-.56,3.15,3.15,0,0,1,2.26,1,5.31,5.31,0,0,1,1.39,2.14,1.39,1.39,0,0,1,.07.9,1,1,0,0,1-.31.46.42.42,0,0,1-.37.1q-.16,0-.12-.24a1.5,1.5,0,0,0,0-.59,3.41,3.41,0,0,0-.22-.66,1.74,1.74,0,0,0-.39-.53.76.76,0,0,0-.54-.22,3.23,3.23,0,0,0-1.12.24,3.94,3.94,0,0,0-1.31.93c-.39.39-.89,1-1.49,1.68s-1.17,1.48-1.73,2.26a25,25,0,0,0-1.41,2.22,3,3,0,0,0-.53,1.48c.06.17.11.25.14.25a.7.7,0,0,0,.32-.15,8,8,0,0,0,.8-.73c.23-.23.64-.64,1.22-1.24s1.18-1.24,1.78-1.9,1.12-1.27,1.58-1.83.66-.87.63-1c-.13-.36,0-.57.37-.63a2,2,0,0,1,1.19.17,2.07,2.07,0,0,1,1,.9,1.48,1.48,0,0,1-.22,1.56c-.13.19-.38.56-.76,1.09s-.73,1.1-1.09,1.68a14.2,14.2,0,0,0-.85,1.58c-.21.48-.21.76,0,.86,0,0,.05,0,.05,0s0,.05,0,.05a2.13,2.13,0,0,0,1.07-.63,17.24,17.24,0,0,0,1.49-1.48l1.46-1.64,1-1.07S89,215.86,89.13,215.92Z"/><path class="cls-1" d="M96.29,220.62a9.4,9.4,0,0,1-1.68,1.1,5.72,5.72,0,0,1-1.51.51,7.57,7.57,0,0,1-1.24.12,4.93,4.93,0,0,1-1-.1l-.39-.1a.3.3,0,0,1-.19,0,3.33,3.33,0,0,1-1.27-.59,2.91,2.91,0,0,1-.75-.9,3.18,3.18,0,0,1-.34-1.07,5.08,5.08,0,0,1,0-1.1,6.15,6.15,0,0,1,.46-1.92c.25-.54.4-.88.47-1.05.23-.39.58-.94,1-1.65a17.1,17.1,0,0,1,1.73-2.17,12.41,12.41,0,0,1,2.29-1.92,5.76,5.76,0,0,1,2.78-.93,3.12,3.12,0,0,1,1.56.25,2.36,2.36,0,0,1,.82.61.57.57,0,0,1,.15.56c-.07.16-.21.2-.44.1a1.36,1.36,0,0,0-.85,0l-.42.13c.1,0,0,0-.14.07a5.44,5.44,0,0,0-.93.59,11.67,11.67,0,0,0-1.53,1.44,22.75,22.75,0,0,0-2,2.64A25.44,25.44,0,0,0,91.17,218a6.75,6.75,0,0,0-.63,2c-.1.75.28,1.12,1.12,1.12a2.58,2.58,0,0,0,1.66-.88,13.64,13.64,0,0,0,1.72-2,17.83,17.83,0,0,0,1.34-2.13,3,3,0,0,0,.49-1.29,2.45,2.45,0,0,1-.9-.32.75.75,0,0,1-.36-.86,1.71,1.71,0,0,1,.38-1.12,1.89,1.89,0,0,1,.69-.47,1.54,1.54,0,0,1,.6-.1l.22,0a2.56,2.56,0,0,1,1.12.29,2.91,2.91,0,0,1,1,.93,10,10,0,0,1,1.53-.61,5.15,5.15,0,0,1,1.53-.27,2.89,2.89,0,0,1,1.17.19,1.56,1.56,0,0,1,.56.44,1.07,1.07,0,0,1,.17.64.55.55,0,0,1-.07.19.23.23,0,0,1-.22.15c-.1,0-.15,0-.17-.1s0-.15-.05-.24a.63.63,0,0,0-.1-.25.3.3,0,0,0-.26-.1,1.39,1.39,0,0,1-.34,0,.86.86,0,0,0-.39.07l-1,.34c-.44.17-1.13.41-2.07.73a1.52,1.52,0,0,0,0,.49,6.44,6.44,0,0,1-.39,1.46,9.71,9.71,0,0,1-.63,1.29c-.23.38-.51.79-.83,1.24A13.06,13.06,0,0,1,96.29,220.62Zm.34-6.84h.27a.52.52,0,0,0,.31-.1.57.57,0,0,0-.27-.46.76.76,0,0,0-.36-.12.41.41,0,0,0-.44.34C96.14,213.67,96.3,213.78,96.63,213.78Z"/><path class="cls-1" d="M122.42,215.87s0,0,0,0,0,0,0,.05c0,.2-.29.53-.87,1a8.92,8.92,0,0,1-3.15,1.29l-.68.78c-.23.26-.47.52-.73.78a11.92,11.92,0,0,1-1.41,1.36,7.35,7.35,0,0,1-1.46.95,3.66,3.66,0,0,1-1.66.41,1.47,1.47,0,0,1-1.19-.43,1.61,1.61,0,0,1-.37-1.08,2.74,2.74,0,0,1,1-2.06,5.15,5.15,0,0,1,2.9-1.15,21.4,21.4,0,0,0,2.68-4.16,7.51,7.51,0,0,0,.82-2.66c0-.35-.09-.53-.29-.53a1.63,1.63,0,0,0-.75.27,6.47,6.47,0,0,0-1,.68c-.34.27-.68.57-1,.87l-.9.81c-.81,1.1-1.47,2.05-2,2.85s-.91,1.47-1.22,2a10.69,10.69,0,0,0-.68,1.38c-.15.38-.29.71-.41,1,0,.1-.08.23-.13.39s-.1.34-.17.54-.12.38-.17.56a1.6,1.6,0,0,0-.07.36.28.28,0,0,1-.2.27c-.13.05-.3,0-.53-.17a3.58,3.58,0,0,1-.68-.63,2.32,2.32,0,0,1-.49-1,5.32,5.32,0,0,1-.1-1,4.42,4.42,0,0,1,.56-1.8c.38-.75.79-1.49,1.24-2.24.52-.91,1.15-2,1.88-3.12l2.17-3.5c.71-1.17,1.36-2.27,1.94-3.29s1-1.84,1.32-2.46a6.72,6.72,0,0,0,.49-1.29,4,4,0,0,0,.09-.71q0-.19.27-.27a1,1,0,0,1,.66.13,5.36,5.36,0,0,1,1.1,1,2.12,2.12,0,0,1,.43,1.73,7.14,7.14,0,0,1-.86,2.29,46.66,46.66,0,0,1-2.67,4.24,9.19,9.19,0,0,1,1.27-.74,3.05,3.05,0,0,1,1.35-.33,1.83,1.83,0,0,1,1.51.78,3.42,3.42,0,0,1,.59,2.14,7.21,7.21,0,0,1-.38,2.19,10.75,10.75,0,0,1-1.29,2.63,4.28,4.28,0,0,0,.8-.32l.91-.43c.29-.15.55-.27.78-.37a1.51,1.51,0,0,1,.43-.15A.44.44,0,0,1,122.42,215.87Zm-10.07,4.77c.52-.51,1-1,1.47-1.6a2.84,2.84,0,0,0-1.59,1,2.9,2.9,0,0,0-.36.68c0,.13,0,.2.09.2a.7.7,0,0,0,.25-.1A.29.29,0,0,0,112.35,220.64Z"/><path class="cls-1" d="M121.85,222.2a1.16,1.16,0,0,1-.54-.29,2,2,0,0,1-.41-.44,3.27,3.27,0,0,1-.27-.78,5.32,5.32,0,0,1-.1-1,3.21,3.21,0,0,1,.39-1.41,4.09,4.09,0,0,1,.39-.83l.1-.19h0v0l.73-1.32c.55-1,1-1.81,1.31-2.41s.58-1.07.76-1.41l.39-.73c.08-.15.15-.3.22-.46a7,7,0,0,0,.49-1.29,4.09,4.09,0,0,0,.09-.71q0-.19.27-.27a1,1,0,0,1,.66.12,5.76,5.76,0,0,1,1.12,1,2.09,2.09,0,0,1,.44,1.73l-.2.78c-.26.52-.54,1-.85,1.56s-.6,1-.88,1.43-.53.82-.75,1.12a4.78,4.78,0,0,0-.44.66,13.55,13.55,0,0,1-1,1.41,7.49,7.49,0,0,0-.93,1.56l-.1.39c0,.13.15.2.34.2a1.92,1.92,0,0,0,1-.56c.44-.38.94-.86,1.51-1.46s1.18-1.29,1.83-2.07l2-2.39,1-1.46.29-.54a5.23,5.23,0,0,1,.22-.51l.31-.7a7,7,0,0,0,.49-1.29,4.34,4.34,0,0,0,.1-.71c0-.13.09-.22.26-.27a1,1,0,0,1,.66.12,5.49,5.49,0,0,1,1.12,1,2.06,2.06,0,0,1,.44,1.73l-.19.78-.37.73a4.39,4.39,0,0,1-.41.68c-.07.17-.16.35-.27.56s-.25.48-.42.81c-.74,1.2-1.34,2.15-1.8,2.87l-1,1.63a6.45,6.45,0,0,0-.47.78,1,1,0,0,0-.09.31c0,.07,0,.1,0,.1a1.91,1.91,0,0,0,.77-.46c.39-.31.81-.68,1.27-1.12s.92-.89,1.39-1.36l1.19-1.2c.07-.09.18-.23.34-.41a.68.68,0,0,1,.49-.27.09.09,0,0,1,.07,0l.07,0a.43.43,0,0,1,.15.29,1.06,1.06,0,0,1-.17.49,5.73,5.73,0,0,1-.61.78q-.43.48-1.26,1.29c-.56.53-1.12,1.05-1.71,1.56a16.25,16.25,0,0,1-1.7,1.29,2.8,2.8,0,0,1-1.27.53,2.09,2.09,0,0,1-1.31-.41,1.53,1.53,0,0,1-.54-1.29,4.46,4.46,0,0,1,.15-1.27,7.92,7.92,0,0,1,.68-1.46c-.36.42-.78.9-1.27,1.44s-1,1-1.51,1.51a11.25,11.25,0,0,1-1.51,1.17A1.69,1.69,0,0,1,121.85,222.2Z"/><path class="cls-1" d="M145.07,217.43c-.35.36-.85.81-1.48,1.36a22.8,22.8,0,0,1-2.05,1.61,14.27,14.27,0,0,1-2.24,1.32,5.08,5.08,0,0,1-2.11.53l-.2,0a.63.63,0,0,0-.19,0h-.05a3.28,3.28,0,0,1-2.36-1,2.82,2.82,0,0,1-.61-1.77,5.48,5.48,0,0,1,.41-2.32c.28-.56.56-1.12.85-1.68a15.58,15.58,0,0,1,1.27-1.87,20.49,20.49,0,0,1,2-2.24,14.37,14.37,0,0,1,2.33-1.87,4.23,4.23,0,0,1,2.24-.78,2.26,2.26,0,0,1,.83.19s0,0,.07,0a3.27,3.27,0,0,1,.32.19,3.33,3.33,0,0,1,.34.24c.1.09.16.13.2.13a2.49,2.49,0,0,1,.73,1.6,3,3,0,0,1-.9,2,13.18,13.18,0,0,1-2.17,1.9,24.45,24.45,0,0,1-2.58,1.61c-.88.47-1.61.84-2.19,1.1-.16.42-.29.76-.37,1a3,3,0,0,0-.12.87c0,.88.42,1.32,1.27,1.32a2.74,2.74,0,0,0,.7-.22,10.29,10.29,0,0,0,1.41-.71,19,19,0,0,0,2-1.29,20.69,20.69,0,0,0,2.32-2s.14-.11.34-.34a1.4,1.4,0,0,1,.58-.44.79.79,0,0,1,.24,0,.23.23,0,0,1,.15.25,1.29,1.29,0,0,1-.22.51A3,3,0,0,1,145.07,217.43Zm-6.13-2.14a6.3,6.3,0,0,0-.41.66l-.37.65c1.17-.87,2.12-1.64,2.85-2.29a17,17,0,0,0,1.7-1.67,5,5,0,0,0,.81-1.17,2,2,0,0,0,.19-.71.7.7,0,0,0-.1-.29.41.41,0,0,1,0-.15s-.06,0-.27.15a8.48,8.48,0,0,0-1,.73,15.72,15.72,0,0,0-1.51,1.53A22.73,22.73,0,0,0,138.94,215.29Z"/><path class="cls-1" d="M149,216.17c-.33.51-.58.93-.78,1.24l-.53.87c-.17.28-.32.57-.47.88s-.31.71-.51,1.19l-.39,1.17a.55.55,0,0,0-.14-.17h-.05s.06.07.19.17a2.2,2.2,0,0,0-.14.68c0,.17-.1.25-.3.25s-.72-.26-1.09-.76a3.39,3.39,0,0,1-.61-2,4.88,4.88,0,0,1,.51-1.7c.34-.78.75-1.62,1.24-2.51s1-1.76,1.46-2.61.86-1.51,1.12-2a4.31,4.31,0,0,0,.44-1c.07-.28.11-.5.15-.68a2.3,2.3,0,0,1,.09-.39c0-.08.13-.12.3-.12a1.39,1.39,0,0,1,.61.19,3.18,3.18,0,0,1,.68.51,3.39,3.39,0,0,1,.56.78,2.14,2.14,0,0,1,.24,1,1.58,1.58,0,0,1-.22.51l-.46.9c-.16.33-.33.63-.49.9a4.38,4.38,0,0,0-.29.56c.26-.29.66-.73,1.22-1.31s1.14-1.17,1.77-1.75a19.78,19.78,0,0,1,1.9-1.56,3,3,0,0,1,1.63-.68,1.64,1.64,0,0,1,1.56.77,3.38,3.38,0,0,1,.44,1.66,4.91,4.91,0,0,1-.15,1.22v0c0,.06-.09.23-.19.51a6.4,6.4,0,0,1-.49,1c-.48.81-1,1.6-1.43,2.38s-.9,1.47-1.27,2.07l-1.29,2.07c0,.1,0,.15.1.15a1.72,1.72,0,0,0,.73-.44c.35-.29.76-.64,1.21-1s.91-.83,1.37-1.29a16,16,0,0,0,1.12-1.22l.14-.14c.1-.13.22-.29.37-.47a.63.63,0,0,1,.46-.26c.2,0,.29.13.29.39s-.21.6-.73,1.21a14.11,14.11,0,0,1-1.26,1.32c-.55.52-1.13,1-1.73,1.53a15.76,15.76,0,0,1-1.73,1.29,2.67,2.67,0,0,1-1.26.54,2.13,2.13,0,0,1-1.27-.42,1.4,1.4,0,0,1-.59-1.24,2.62,2.62,0,0,1,.18-.95,2.39,2.39,0,0,0,.17-.61c.26-.64.58-1.35,1-2.11s.78-1.47,1.17-2.12.92-1.48,1.41-2.19a5.79,5.79,0,0,0,.61-1,1.75,1.75,0,0,0,.17-.63c0-.29-.13-.44-.39-.44a.72.72,0,0,0-.34.1q-1.56,1.37-2.58,2.31c-.68.64-1.36,1.28-2,1.93A12.93,12.93,0,0,0,149,216.17Z"/><path class="cls-1" d="M166.5,220.62a9.4,9.4,0,0,1-1.68,1.1,5.72,5.72,0,0,1-1.51.51,7.57,7.57,0,0,1-1.24.12,4.93,4.93,0,0,1-1-.1l-.38-.1a.31.31,0,0,1-.2,0,3.33,3.33,0,0,1-1.27-.59,2.91,2.91,0,0,1-.75-.9,3.18,3.18,0,0,1-.34-1.07,5.08,5.08,0,0,1,0-1.1,5.88,5.88,0,0,1,.47-1.92c.24-.54.4-.88.46-1.05q.34-.58,1.05-1.65a15.49,15.49,0,0,1,1.73-2.17,12.35,12.35,0,0,1,2.28-1.92,5.76,5.76,0,0,1,2.78-.93,3.12,3.12,0,0,1,1.56.25,2.41,2.41,0,0,1,.83.61.56.56,0,0,1,.14.56c-.06.16-.21.2-.44.1a1.36,1.36,0,0,0-.85,0,1.87,1.87,0,0,0-.41.13c.09,0,.05,0-.15.07a5.48,5.48,0,0,0-.92.59,11.05,11.05,0,0,0-1.54,1.44,22.75,22.75,0,0,0-2,2.64,23.65,23.65,0,0,0-1.65,2.83,6.52,6.52,0,0,0-.64,2c-.09.75.28,1.12,1.12,1.12a2.58,2.58,0,0,0,1.66-.88,14.32,14.32,0,0,0,1.73-2,20.81,20.81,0,0,0,1.34-2.13,2.91,2.91,0,0,0,.48-1.29,2.45,2.45,0,0,1-.9-.32.75.75,0,0,1-.36-.86,1.66,1.66,0,0,1,.39-1.12,1.78,1.78,0,0,1,.68-.47,1.58,1.58,0,0,1,.61-.1l.22,0a2.59,2.59,0,0,1,1.12.29,2.8,2.8,0,0,1,1,.93,10,10,0,0,1,1.53-.61,5.15,5.15,0,0,1,1.54-.27,2.84,2.84,0,0,1,1.16.19,1.56,1.56,0,0,1,.56.44,1.07,1.07,0,0,1,.17.64.55.55,0,0,1-.07.19.23.23,0,0,1-.22.15c-.09,0-.15,0-.17-.1s0-.15-.05-.24a.62.62,0,0,0-.09-.25.34.34,0,0,0-.27-.1,1.43,1.43,0,0,1-.34,0,.86.86,0,0,0-.39.07l-.95.34c-.44.17-1.13.41-2.07.73a1.87,1.87,0,0,0,0,.49,6,6,0,0,1-.39,1.46,8.62,8.62,0,0,1-.63,1.29c-.23.38-.51.79-.83,1.24A13.06,13.06,0,0,1,166.5,220.62Zm.34-6.84h.27a.5.5,0,0,0,.31-.1.59.59,0,0,0-.26-.46.83.83,0,0,0-.37-.12.42.42,0,0,0-.44.34C166.35,213.67,166.51,213.78,166.84,213.78Z"/><path class="cls-1" d="M175.75,228.05a3.32,3.32,0,0,0-.17.78,5.9,5.9,0,0,0-.07.77.28.28,0,0,1-.2.27c-.13,0-.31,0-.53-.17a3.94,3.94,0,0,1-.69-.63,2.33,2.33,0,0,1-.48-1,4.73,4.73,0,0,1-.1-1,4.42,4.42,0,0,1,.56-1.8c.37-.75.79-1.49,1.24-2.24s1-1.65,1.58-2.6l1.83-2.93c.62-1,1.21-2,1.78-2.92s1-1.81,1.43-2.55l.54-1.08.27-.61c.08-.17.15-.33.22-.46a5.31,5.31,0,0,0,.19-.73,3.26,3.26,0,0,0,0-.48q0-.19.27-.27a.91.91,0,0,1,.65.12,4.74,4.74,0,0,1,.54.39,4.12,4.12,0,0,1,.54.56,2.55,2.55,0,0,1,.38.71,1.89,1.89,0,0,1,.1.87s0,.1-.17.39-.31.61-.51.95-.36.66-.51.95-.2.42-.17.39a30.92,30.92,0,0,1,3.8-4.16c1-.83,1.83-1,2.58-.61a2.31,2.31,0,0,1,.9,1,3.54,3.54,0,0,1,.36,1.66,7.47,7.47,0,0,1-.39,2.21,10,10,0,0,1-1.31,2.61,8,8,0,0,0,1.36-.44c.2-.07.38-.13.54-.2l.44-.17.29-.12c.39-.13.62-.14.7-.05s0,.26-.29.47a8.62,8.62,0,0,1-1.36.78,17,17,0,0,1-2.51.9c-.23.26-.45.52-.68.8s-.47.54-.73.8a8,8,0,0,1-1.46,1.41,8.57,8.57,0,0,1-1.51,1,2.92,2.92,0,0,1-1.7.32,1.3,1.3,0,0,1-1.2-.66,1.85,1.85,0,0,1-.12-1.36,3.56,3.56,0,0,1,.83-1.46,3.47,3.47,0,0,1,1.75-1l1.22-.24a27,27,0,0,0,1.95-2.85A19.49,19.49,0,0,0,189,212a4.82,4.82,0,0,0,.38-1.58c0-.39-.09-.58-.29-.58a1.56,1.56,0,0,0-.78.46,14.74,14.74,0,0,0-1.19,1.19c-.44.49-.91,1-1.41,1.63s-1,1.18-1.39,1.73-.8,1.05-1.12,1.49a9.67,9.67,0,0,0-.63.9,34.2,34.2,0,0,1-1.9,2.87q-1.17,1.6-2.53,3.8A44.25,44.25,0,0,0,175.75,228.05Zm7.6-8c.51-.52,1-1.05,1.46-1.61a2.84,2.84,0,0,0-1.59,1,2.71,2.71,0,0,0-.36.68q0,.24.24.15A1.2,1.2,0,0,0,183.35,220.06Z"/><path class="cls-1" d="M206.23,215.92a.43.43,0,0,1,.15.29,1,1,0,0,1-.17.47c-.12.17-.32.44-.61.8l-1.15,1.27a20.6,20.6,0,0,1-1.63,1.6,14.3,14.3,0,0,1-1.7,1.32,2.14,2.14,0,0,1-1.41.44,4.39,4.39,0,0,1-1.64-.69,1.69,1.69,0,0,1-.7-1.51,2.17,2.17,0,0,1,.14-.68c.1-.26.18-.47.25-.63-.17.16-.42.44-.75.83s-.7.78-1.09,1.17a10.59,10.59,0,0,1-1.16,1,1.77,1.77,0,0,1-.92.44,2.09,2.09,0,0,1-1.42-.66,2.44,2.44,0,0,1-.7-1.88s0-.27.12-.73a9.34,9.34,0,0,1,.61-1.82,17.25,17.25,0,0,1,1.46-2.61,16.59,16.59,0,0,1,2.68-3,11.72,11.72,0,0,1,2.63-2,4.57,4.57,0,0,1,2-.56,2.94,2.94,0,0,1,2.2,1,4.77,4.77,0,0,1,1.21,2.14,1.55,1.55,0,0,1,0,.9,1,1,0,0,1-.34.46.48.48,0,0,1-.39.1q-.18,0-.12-.24a2.16,2.16,0,0,0-.13-1.27c-.18-.49-.46-.73-.85-.73a3.42,3.42,0,0,0-1.14.24,4.38,4.38,0,0,0-1.39.93c-.42.39-1,1-1.61,1.68s-1.28,1.48-1.9,2.26a26.83,26.83,0,0,0-1.58,2.22,3.53,3.53,0,0,0-.66,1.48c0,.17,0,.25.1.25a.68.68,0,0,0,.31-.15c.14-.1.44-.34.89-.73.22-.23.64-.64,1.27-1.24s1.26-1.24,1.91-1.9,1.23-1.27,1.73-1.83.74-.87.71-1a.44.44,0,0,1,.41-.63,2.09,2.09,0,0,1,1.2.17,1.83,1.83,0,0,1,.94.9c.22.42.09.94-.36,1.56-.13.19-.41.56-.83,1.09s-.83,1.1-1.24,1.68a13.89,13.89,0,0,0-1,1.58c-.25.48-.26.76,0,.86,0,0,0,0,0,0s0,.05,0,.05a2.33,2.33,0,0,0,1.12-.63,19.25,19.25,0,0,0,1.61-1.48l1.58-1.64c.5-.51.87-.87,1.1-1.07C206.07,215.84,206.13,215.86,206.23,215.92Z"/><path class="cls-1" d="M207.74,216c0-.16.11-.63.22-1.41a22.68,22.68,0,0,1,.85-3.31,5.12,5.12,0,0,1,.71-1.51,3.8,3.8,0,0,1,1-1.07,2.55,2.55,0,0,1,1.25-.44,2.15,2.15,0,0,1,1.34.39,5.59,5.59,0,0,1,1.38,1.07,4.12,4.12,0,0,1,.71.83.65.65,0,0,1,.07.34.62.62,0,0,0,0,.19.56.56,0,0,1-.3.27.27.27,0,0,1-.29,0,.53.53,0,0,1-.12-.2,1.46,1.46,0,0,0-.07-.19,1.22,1.22,0,0,0-1.58-.35,2,2,0,0,0-.61.49,1.2,1.2,0,0,0-.29.54c-.36,1.13-.62,2-.78,2.65a6.42,6.42,0,0,0-.25,1.19v.25a15.35,15.35,0,0,0,2-.3l1.73-.38.1-.05.12,0,.17,0c.26,0,.39.11.39.34s-.38.65-1.14.88a33.93,33.93,0,0,1-3.48.73c-.13.52-.28,1-.44,1.5s-.35.86-.56,1.3a4.06,4.06,0,0,1-.76,1.09l-.24.2a4.27,4.27,0,0,1-1.32.87,3.9,3.9,0,0,1-1.6.34,2,2,0,0,1-1.44-.46,1.55,1.55,0,0,1-.46-1.14,3.65,3.65,0,0,1,.22-1.12,5.68,5.68,0,0,1,.65-1.37,7.22,7.22,0,0,1,1-1.24,3,3,0,0,1,1.31-.75.94.94,0,0,0,.39-.1v0Zm-.39,1.36a2.31,2.31,0,0,0-1,.66,5.77,5.77,0,0,0-.68,1,4.59,4.59,0,0,0-.39.88,3.64,3.64,0,0,0-.12.43c0,.1,0,.15.1.15a.91.91,0,0,0,.44-.24,4,4,0,0,0,.6-.69,6.68,6.68,0,0,0,.61-1A5.23,5.23,0,0,0,207.35,217.38Z"/><path class="cls-1" d="M227.85,215.92a.43.43,0,0,1,.15.29.9.9,0,0,1-.18.47c-.11.17-.31.44-.6.8l-1.15,1.27a20.6,20.6,0,0,1-1.63,1.6,14.3,14.3,0,0,1-1.7,1.32,2.18,2.18,0,0,1-1.42.44,4.42,4.42,0,0,1-1.63-.69,1.69,1.69,0,0,1-.7-1.51,2.17,2.17,0,0,1,.14-.68c.1-.26.18-.47.25-.63-.17.16-.42.44-.75.83s-.7.78-1.09,1.17a10.59,10.59,0,0,1-1.16,1,1.77,1.77,0,0,1-.92.44,2.09,2.09,0,0,1-1.42-.66,2.44,2.44,0,0,1-.7-1.88s0-.27.12-.73a8.7,8.7,0,0,1,.61-1.82,16.41,16.41,0,0,1,1.46-2.61,16.59,16.59,0,0,1,2.68-3,11.72,11.72,0,0,1,2.63-2,4.57,4.57,0,0,1,2-.56,2.94,2.94,0,0,1,2.2,1,4.77,4.77,0,0,1,1.21,2.14,1.55,1.55,0,0,1,0,.9,1,1,0,0,1-.34.46.48.48,0,0,1-.39.1c-.12,0-.16-.11-.13-.24a2.07,2.07,0,0,0-.12-1.27c-.18-.49-.46-.73-.85-.73a3.42,3.42,0,0,0-1.14.24,4.38,4.38,0,0,0-1.39.93c-.42.39-1,1-1.61,1.68s-1.28,1.48-1.9,2.26a26.83,26.83,0,0,0-1.58,2.22,3.53,3.53,0,0,0-.66,1.48c0,.17,0,.25.1.25a.68.68,0,0,0,.31-.15c.14-.1.44-.34.89-.73.22-.23.64-.64,1.27-1.24s1.26-1.24,1.91-1.9,1.23-1.27,1.73-1.83.74-.87.71-1a.44.44,0,0,1,.41-.63,2,2,0,0,1,1.19.17,1.81,1.81,0,0,1,.95.9q.31.63-.36,1.56c-.13.19-.41.56-.83,1.09s-.83,1.1-1.24,1.68a13.89,13.89,0,0,0-1,1.58c-.25.48-.26.76,0,.86,0,0,0,0,0,0s0,.05,0,.05a2.33,2.33,0,0,0,1.12-.63,21,21,0,0,0,1.61-1.48l1.58-1.64c.5-.51.87-.87,1.1-1.07C227.69,215.84,227.75,215.86,227.85,215.92Z"/></svg>