<svg id="Capa_1" data-name="Capa 1" xmlns="http://www.w3.org/2000/svg" viewBox="0 0 283.46 283.46"><defs><style>.cls-1{fill:#7c7c7b;}</style></defs><title>LOGOS PORTAL (GRIS)</title><rect class="cls-1" x="252.3" y="166.97" width="13.64" height="12.73"/><path class="cls-1" d="M228,92.53a100.17,100.17,0,0,0-7.84-13.32,16.35,16.35,0,0,0,2-7.88c0-9-7.05-16.28-15.71-16.28a14.88,14.88,0,0,0-7.74,2.13A93.34,93.34,0,0,0,142.07,38c-36.18,0-69.45,21.58-85.86,54.7H17.59v11.63H63.53V104h0l.22-.51C77.13,70.87,107.85,49.77,142,49.77a82.27,82.27,0,0,1,49.51,16.52,16.6,16.6,0,0,0-.8,5.11c0,8.92,7,16.17,15.59,16.17a15.86,15.86,0,0,0,4.88-.82,90.6,90.6,0,0,1,9.19,16.79l.21.52h.1v.41h45.21V92.53ZM206.44,80a8.79,8.79,0,1,1,8.48-8.78A8.64,8.64,0,0,1,206.44,80Z"/><rect class="cls-1" x="17.53" y="166.97" width="13.64" height="12.73"/><path class="cls-1" d="M24,155.71H17.53V116.42h22.7c5.47,0,8.78,1,11.43,3.33a12.15,12.15,0,0,1,3.74,8.93,12.7,12.7,0,0,1-2,6.92c-3.35,4.91-9.17,4.91-12.65,4.91H24v15.2Zm0-21H40c1.95,0,4.37,0,6.11-1.23a6,6,0,0,0,2.46-5.05,5.79,5.79,0,0,0-1.53-4.21c-1.92-2-5.07-2-7.61-2H23.92v12.51Z"/><path class="cls-1" d="M82.13,156.74c-6.33,0-11.51-1.46-15.39-4.33-3.49-2.53-7.65-7.33-7.65-15.86,0-14.54,11.39-21.05,22.68-21.05,13.75.06,23,8.54,23,21.1,0,13.91-11.37,20.14-22.63,20.14Zm-.24-35.38h-.68c-7.59.21-15.71,4.23-15.71,14.86a14.52,14.52,0,0,0,3.06,9.3c2.89,3.51,7.45,5.29,13.57,5.29,15,0,16.17-11.29,16.17-14.75,0-8.94-6.44-14.71-16.41-14.71Z"/><path class="cls-1" d="M153.87,155.71h-8.4l-12.38-15.2H116.34v15.2h-6.41V116.42h25.48c3.3,0,7.35.12,10.67,3.24a11.17,11.17,0,0,1,3.46,8.59c0,8.53-6.17,10.54-9.31,11.19l13.64,16.27ZM116.29,134.8h17.46c2.58,0,6.12,0,8.05-2.66a6,6,0,0,0,1.13-3.68,7.05,7.05,0,0,0-1-3.71c-1.46-2.41-3.78-2.47-6-2.52H116.29V134.8Z"/><path class="cls-1" d="M175.71,155.71H169.3V122.18H154.38v-5.76h36.3v5.76h-15v33.53Z"/><path class="cls-1" d="M230.78,155.71h-7.32L208,125l-15.12,30.76h-7.18l19.52-39.29h6.26l19.35,39.29Z"/><path class="cls-1" d="M265.94,155.71H235.29V116.42h6.41v33.42h24.24v5.87Z"/><path class="cls-1" d="M43.94,167h8.25v1.78H46.46v3.69H52.1v1.76H46.46v5.42H43.94Z"/><path class="cls-1" d="M56.42,167h2.52v10.87h5.58v1.78h-8.1Z"/><path class="cls-1" d="M66.92,173.41c0-4,3.83-6.63,8.27-6.63,4.72,0,8.29,2.92,8.29,6.56s-3.57,6.56-8.31,6.56-8.25-3-8.25-6.47Zm2.5-.07c0,2.63,2.44,4.79,5.81,4.79S81,175.82,81,173.36s-2.29-4.8-5.75-4.8-5.79,2.22-5.79,4.77Z"/><path class="cls-1" d="M88,167h4.47c2.48,0,3.76.27,4.59.74a3.85,3.85,0,0,1,2.09,3.41,3.7,3.7,0,0,1-.89,2.41A4.62,4.62,0,0,1,95.19,175l3.72,4.7H96.24L91.9,174h.56a6.2,6.2,0,0,0,3.16-.55,2.43,2.43,0,0,0-.26-4.2,6.12,6.12,0,0,0-2.69-.41H90.51v10.87H88Z"/><path class="cls-1" d="M103.53,167h2.53v12.65h-2.53Z"/><path class="cls-1" d="M111.35,167h4.9c2.11,0,4.74.26,6.49,2a5.65,5.65,0,0,1,1.73,4.26c0,3.69-2.5,6.34-8,6.34h-5.07Zm2.52,10.87h2.68c3.71,0,5.42-1.9,5.42-4.53a4.41,4.41,0,0,0-1.28-3.23,5.75,5.75,0,0,0-4.12-1.33h-2.7Z"/><path class="cls-1" d="M129.59,179.67h-2.74l6.5-12.65h2.28L142,179.67h-2.73l-1.5-3H131Zm4.8-10.31-2.67,5.69h5.39Z"/><path class="cls-1" d="M166.37,175.82c-1,2.31-3.91,4.08-7.49,4.08-4.77,0-8.27-3-8.27-6.57s3.35-6.55,8.24-6.55c4.26,0,6.78,2.41,7.55,4.15h-2.67a5.81,5.81,0,0,0-4.9-2.37c-3.35,0-5.7,2.2-5.7,4.77s2.39,4.8,5.72,4.8a5.92,5.92,0,0,0,4.88-2.31Z"/><path class="cls-1" d="M170.75,167h8.85v1.78h-6.33v3.59h6.24v1.76h-6.24v3.74h6.33v1.78h-8.85Z"/><path class="cls-1" d="M195,176.64l-.05-9.62h2.44v12.65h-2.31L186.78,170l.05,9.64h-2.44V167h2.37Z"/><path class="cls-1" d="M204.81,168.8h-3.64V167H211v1.78h-3.63v10.87h-2.52Z"/><path class="cls-1" d="M214.75,167h8.85v1.78h-6.33v3.59h6.24v1.76h-6.24v3.74h6.33v1.78h-8.85Z"/><path class="cls-1" d="M228.35,167h4.47c2.48,0,3.76.27,4.59.74a3.84,3.84,0,0,1,2.1,3.41,3.65,3.65,0,0,1-.9,2.41,4.62,4.62,0,0,1-3.06,1.39l3.72,4.7H236.6L232.26,174h.56a6.2,6.2,0,0,0,3.16-.55,2.43,2.43,0,0,0-.26-4.2,6.12,6.12,0,0,0-2.69-.41h-2.16v10.87h-2.52Z"/><path class="cls-1" d="M44.29,208.67a3.55,3.55,0,0,1-.84,1,3.6,3.6,0,0,1-1.13.64,4.12,4.12,0,0,1-1.38.22,3.9,3.9,0,0,1-2.81-1.14,3.22,3.22,0,0,1-.59-.8,3.71,3.71,0,0,1-.31-.94,6.59,6.59,0,0,1-.12-1.17c0-.44,0-.95,0-1.54s0-1.1,0-1.53a6.81,6.81,0,0,1,.12-1.18,3.77,3.77,0,0,1,.31-.93,3.09,3.09,0,0,1,.59-.81,3.92,3.92,0,0,1,1.28-.85,4.22,4.22,0,0,1,2.91-.06,3.41,3.41,0,0,1,1.13.64,3.5,3.5,0,0,1,.84,1,4.84,4.84,0,0,1,.47,1.39H43.55a2.94,2.94,0,0,0-.89-1.63,2.52,2.52,0,0,0-1.72-.6,2.83,2.83,0,0,0-1,.2,2.69,2.69,0,0,0-.86.57,2.41,2.41,0,0,0-.41.57,2.64,2.64,0,0,0-.24.72,8.8,8.8,0,0,0-.1,1c0,.4,0,.89,0,1.46s0,1.07,0,1.46a8.37,8.37,0,0,0,.1,1,2.72,2.72,0,0,0,.24.73,2.18,2.18,0,0,0,.41.56,2.4,2.4,0,0,0,.86.57,2.64,2.64,0,0,0,1,.2,2.55,2.55,0,0,0,1.73-.6,2.79,2.79,0,0,0,.91-1.62h1.18A4.88,4.88,0,0,1,44.29,208.67Z"/><path class="cls-1" d="M56.44,208.35a3.57,3.57,0,0,1-.8,1.18,3.65,3.65,0,0,1-1.22.76,4.53,4.53,0,0,1-3.08,0,3.51,3.51,0,0,1-1.21-.76,3.55,3.55,0,0,1-.79-1.18,3.91,3.91,0,0,1-.29-1.51v-7.37h1.17v7.28a3.41,3.41,0,0,0,.19,1.14,2.4,2.4,0,0,0,.53.87,2.45,2.45,0,0,0,.84.55,3.13,3.13,0,0,0,2.2,0,2.45,2.45,0,0,0,.84-.55,2.56,2.56,0,0,0,.54-.87,3.17,3.17,0,0,0,.19-1.14v-7.28h1.18v7.37A3.91,3.91,0,0,1,56.44,208.35Z"/><path class="cls-1" d="M68,210.47,67.13,208h-4.8l-.88,2.49H60.2l4-11h1l4,11Zm-3.25-9.31L62.69,207h4.1Z"/><path class="cls-1" d="M79.91,210.47l-5.84-8.82v8.82H72.89v-11H74l5.83,8.79v-8.79H81v11Z"/><path class="cls-1" d="M93.67,206.05a8.55,8.55,0,0,1-.1,1.25,5.09,5.09,0,0,1-.31,1.16,3,3,0,0,1-.66,1,3.33,3.33,0,0,1-1.21.76,4.57,4.57,0,0,1-1.57.26H86.05v-11h3.77a4.35,4.35,0,0,1,1.57.27,3.18,3.18,0,0,1,1.21.75,3.13,3.13,0,0,1,.66.95,4.59,4.59,0,0,1,.31,1.08,7.46,7.46,0,0,1,.1,1.16c0,.4,0,.79,0,1.17S93.68,205.63,93.67,206.05Zm-1.17-2.21a9.41,9.41,0,0,0-.07-1,3.5,3.5,0,0,0-.22-.86,1.88,1.88,0,0,0-.43-.69,2.39,2.39,0,0,0-1-.63,3.76,3.76,0,0,0-1.19-.18H87.23v8.9h2.39a3.76,3.76,0,0,0,1.19-.18,2.37,2.37,0,0,0,1-.62,1.93,1.93,0,0,0,.43-.74,3.92,3.92,0,0,0,.22-.94c0-.33.06-.68.07-1s0-.71,0-1.05S92.5,204.17,92.5,203.84Z"/><path class="cls-1" d="M105.56,206.51a6.59,6.59,0,0,1-.12,1.17,3.71,3.71,0,0,1-.31.94,3.5,3.5,0,0,1-.59.8,4,4,0,0,1-1.27.85,3.91,3.91,0,0,1-1.54.29,3.81,3.81,0,0,1-2.81-1.14,3.28,3.28,0,0,1-.6-.8,3.71,3.71,0,0,1-.31-.94,7.77,7.77,0,0,1-.11-1.17c0-.44,0-.95,0-1.54s0-1.1,0-1.53a8,8,0,0,1,.11-1.18,3.77,3.77,0,0,1,.31-.93,3.14,3.14,0,0,1,.6-.81,4,4,0,0,1,5.62,0,3.34,3.34,0,0,1,.59.81,3.77,3.77,0,0,1,.31.93,6.81,6.81,0,0,1,.12,1.18c0,.43,0,.95,0,1.53S105.57,206.07,105.56,206.51Zm-1.19-3a5.64,5.64,0,0,0-.1-1,2.34,2.34,0,0,0-.23-.72,2.18,2.18,0,0,0-.41-.56,2.56,2.56,0,0,0-.86-.58,2.68,2.68,0,0,0-1-.21,2.73,2.73,0,0,0-1,.21,2.42,2.42,0,0,0-.85.58,2,2,0,0,0-.42.56,2.65,2.65,0,0,0-.23.72,6.75,6.75,0,0,0-.1,1c0,.4,0,.89,0,1.46s0,1.07,0,1.46a6.48,6.48,0,0,0,.1,1,2.65,2.65,0,0,0,.23.72,2,2,0,0,0,.42.56,2.42,2.42,0,0,0,.85.58,2.73,2.73,0,0,0,1,.21,2.68,2.68,0,0,0,1-.21,2.56,2.56,0,0,0,.86-.58,2.18,2.18,0,0,0,.41-.56,2.34,2.34,0,0,0,.23-.72,5.45,5.45,0,0,0,.1-1c0-.39,0-.88,0-1.46S104.39,203.91,104.37,203.51Z"/><path class="cls-1" d="M122.9,210.47l-5.84-8.82v8.82h-1.17v-11H117l5.84,8.79v-8.79H124v11Z"/><path class="cls-1" d="M136.3,206.51a6.65,6.65,0,0,1-.11,1.17,3.71,3.71,0,0,1-.31.94,3.28,3.28,0,0,1-.6.8,3.82,3.82,0,0,1-2.81,1.14,3.84,3.84,0,0,1-2.81-1.14,3.5,3.5,0,0,1-.59-.8,3.71,3.71,0,0,1-.31-.94,6.59,6.59,0,0,1-.12-1.17c0-.44,0-.95,0-1.54s0-1.1,0-1.53a6.81,6.81,0,0,1,.12-1.18,3.77,3.77,0,0,1,.31-.93,3.34,3.34,0,0,1,.59-.81,4,4,0,0,1,5.62,0,3.14,3.14,0,0,1,.6.81,3.77,3.77,0,0,1,.31.93,6.87,6.87,0,0,1,.11,1.18c0,.43,0,.95,0,1.53S136.31,206.07,136.3,206.51Zm-1.18-3a6.75,6.75,0,0,0-.1-1,2.65,2.65,0,0,0-.23-.72,2,2,0,0,0-.42-.56,2.42,2.42,0,0,0-.85-.58,2.73,2.73,0,0,0-1.05-.21,2.68,2.68,0,0,0-1,.21,2.56,2.56,0,0,0-.86.58,2.18,2.18,0,0,0-.41.56,2.34,2.34,0,0,0-.23.72,5.64,5.64,0,0,0-.1,1c0,.4,0,.89,0,1.46s0,1.07,0,1.46a5.45,5.45,0,0,0,.1,1,2.34,2.34,0,0,0,.23.72,2.18,2.18,0,0,0,.41.56,2.56,2.56,0,0,0,.86.58,2.68,2.68,0,0,0,1,.21,2.73,2.73,0,0,0,1.05-.21,2.42,2.42,0,0,0,.85-.58,2,2,0,0,0,.42-.56,2.65,2.65,0,0,0,.23-.72,6.48,6.48,0,0,0,.1-1c0-.39,0-.88,0-1.46S135.14,203.91,135.12,203.51Z"/><path class="cls-1" d="M147.29,208.75a2.82,2.82,0,0,1-.77,1,3.79,3.79,0,0,1-1.2.62,5.45,5.45,0,0,1-1.56.21,5.76,5.76,0,0,1-2.11-.34,4.66,4.66,0,0,1-1.66-1.11l.81-.8a4.06,4.06,0,0,0,1.37.94,4.75,4.75,0,0,0,1.62.26,3.06,3.06,0,0,0,1.9-.53,1.79,1.79,0,0,0,.7-1.51,2.41,2.41,0,0,0-.13-.78,1.38,1.38,0,0,0-.4-.59,1.41,1.41,0,0,0-.54-.33,6.17,6.17,0,0,0-.89-.2l-1.28-.2a4,4,0,0,1-2-.83,2.62,2.62,0,0,1-.83-2,3.14,3.14,0,0,1,.25-1.28,2.63,2.63,0,0,1,.7-1,3,3,0,0,1,1.1-.62,4.45,4.45,0,0,1,1.47-.23,5.17,5.17,0,0,1,1.81.29,4.56,4.56,0,0,1,1.46.92l-.75.75a3.72,3.72,0,0,0-1.1-.7,3.9,3.9,0,0,0-1.47-.24,2.43,2.43,0,0,0-1.71.56,1.91,1.91,0,0,0-.6,1.48,1.59,1.59,0,0,0,.49,1.27,2.72,2.72,0,0,0,.66.37,4.53,4.53,0,0,0,.82.23l1.21.18.69.13a4.74,4.74,0,0,1,.53.17,2.74,2.74,0,0,1,.42.21,1.84,1.84,0,0,1,.37.27,2.71,2.71,0,0,1,.92,2.17A3.07,3.07,0,0,1,147.29,208.75Z"/><path class="cls-1" d="M162,208.56a2.91,2.91,0,0,1-.71,1.08,3,3,0,0,1-1.08.68,3.77,3.77,0,0,1-1.38.24,3.84,3.84,0,0,1-1.4-.24,3.34,3.34,0,0,1-1.12-.75l.79-.78a3,3,0,0,0,.67.51,2.21,2.21,0,0,0,1.06.21,2.15,2.15,0,0,0,1.67-.65,2.75,2.75,0,0,0,.59-1.88v-7.51h1.17v7.66A3.8,3.8,0,0,1,162,208.56Z"/><path class="cls-1" d="M174.39,208.35a3.43,3.43,0,0,1-.8,1.18,3.55,3.55,0,0,1-1.22.76,4.5,4.5,0,0,1-3.07,0,3.51,3.51,0,0,1-1.21-.76,3.57,3.57,0,0,1-.8-1.18,3.9,3.9,0,0,1-.28-1.51v-7.37h1.17v7.28a3.41,3.41,0,0,0,.18,1.14,2.56,2.56,0,0,0,.54.87,2.45,2.45,0,0,0,.84.55,3.1,3.1,0,0,0,2.19,0,2.45,2.45,0,0,0,.84-.55,2.56,2.56,0,0,0,.54-.87,3.17,3.17,0,0,0,.2-1.14v-7.28h1.17v7.37A3.91,3.91,0,0,1,174.39,208.35Z"/><path class="cls-1" d="M186.57,210.47l-5.84-8.82v8.82h-1.17v-11h1.11l5.84,8.79v-8.79h1.17v11Z"/><path class="cls-1" d="M196,200.52v9.95h-1.18v-9.95h-3.18v-1.05h7.54v1.05Z"/><path class="cls-1" d="M208.52,210.47l-.88-2.49h-4.81l-.88,2.49H200.7l4.05-11h1l4,11Zm-3.26-9.31-2.07,5.8h4.11Z"/><path class="cls-1" d="M221.64,210.47v-8.35l-3,6.62h-1l-3.06-6.62v8.35H213.4v-11h1.17l3.58,7.8,3.49-7.8h1.18v11Z"/><path class="cls-1" d="M235.11,206.51a6.59,6.59,0,0,1-.12,1.17,3.35,3.35,0,0,1-.31.94,3,3,0,0,1-.59.8,3.86,3.86,0,0,1-2.81,1.14,3.82,3.82,0,0,1-2.81-1.14,3.28,3.28,0,0,1-.6-.8,3.34,3.34,0,0,1-.3-.94,6.59,6.59,0,0,1-.12-1.17c0-.44,0-.95,0-1.54s0-1.1,0-1.53a6.81,6.81,0,0,1,.12-1.18,3.38,3.38,0,0,1,.3-.93,3.14,3.14,0,0,1,.6-.81,4,4,0,0,1,5.62,0,2.88,2.88,0,0,1,.59.81,3.39,3.39,0,0,1,.31.93,6.81,6.81,0,0,1,.12,1.18c0,.43,0,.95,0,1.53S235.12,206.07,235.11,206.51Zm-1.18-3a8.39,8.39,0,0,0-.1-1,2.65,2.65,0,0,0-.23-.72,2.61,2.61,0,0,0-1.28-1.14,2.68,2.68,0,0,0-2.08,0,2.47,2.47,0,0,0-.86.58,2.22,2.22,0,0,0-.42.56,2.65,2.65,0,0,0-.23.72,8.39,8.39,0,0,0-.1,1c0,.4,0,.89,0,1.46s0,1.07,0,1.46a8,8,0,0,0,.1,1,2.65,2.65,0,0,0,.23.72,2.22,2.22,0,0,0,.42.56,2.47,2.47,0,0,0,.86.58,2.68,2.68,0,0,0,2.08,0,2.61,2.61,0,0,0,1.28-1.14,2.65,2.65,0,0,0,.23-.72,8,8,0,0,0,.1-1c0-.39,0-.88,0-1.46S233.94,203.91,233.93,203.51Z"/><path class="cls-1" d="M246.1,208.75a2.74,2.74,0,0,1-.78,1,3.59,3.59,0,0,1-1.2.62,5.43,5.43,0,0,1-1.55.21,5.82,5.82,0,0,1-2.12-.34,4.62,4.62,0,0,1-1.65-1.11l.8-.8a4.09,4.09,0,0,0,1.38.94,4.66,4.66,0,0,0,1.62.26,3.08,3.08,0,0,0,1.9-.53,1.8,1.8,0,0,0,.69-1.51,2.16,2.16,0,0,0-.13-.78,1.45,1.45,0,0,0-.39-.59,1.52,1.52,0,0,0-.55-.33,5.86,5.86,0,0,0-.89-.2l-1.28-.2a4,4,0,0,1-2-.83,2.59,2.59,0,0,1-.84-2,3.32,3.32,0,0,1,.25-1.28,2.75,2.75,0,0,1,.7-1,3.16,3.16,0,0,1,1.11-.62,4.43,4.43,0,0,1,1.46-.23,5.13,5.13,0,0,1,1.81.29,4.6,4.6,0,0,1,1.47.92l-.76.75a3.68,3.68,0,0,0-1.09-.7,4,4,0,0,0-1.47-.24,2.47,2.47,0,0,0-1.72.56,1.91,1.91,0,0,0-.6,1.48,1.6,1.6,0,0,0,.5,1.27,2.64,2.64,0,0,0,.65.37,4.41,4.41,0,0,0,.83.23l1.2.18.69.13a4.15,4.15,0,0,1,.53.17,2.46,2.46,0,0,1,.43.21,1.54,1.54,0,0,1,.36.27,2.69,2.69,0,0,1,.93,2.17A3.07,3.07,0,0,1,246.1,208.75Z"/><path class="cls-1" d="M70.21,227.71a.42.42,0,0,1,.14.29.84.84,0,0,1-.17.46,8.94,8.94,0,0,1-.6.8l-1.14,1.26c-.51.55-1,1.09-1.63,1.61a15.27,15.27,0,0,1-1.7,1.31,2.07,2.07,0,0,1-1.41.43,4.29,4.29,0,0,1-1.62-.68,1.69,1.69,0,0,1-.71-1.5,1.91,1.91,0,0,1,.15-.68c.09-.26.18-.47.24-.63-.16.16-.41.43-.75.82s-.7.78-1.08,1.17a10.59,10.59,0,0,1-1.16,1,1.71,1.71,0,0,1-.91.43,2.06,2.06,0,0,1-1.42-.65,2.43,2.43,0,0,1-.7-1.87s0-.28.12-.73a9.34,9.34,0,0,1,.61-1.82,15.94,15.94,0,0,1,1.46-2.6,16.45,16.45,0,0,1,2.67-3,11.83,11.83,0,0,1,2.62-2,4.54,4.54,0,0,1,2-.56,2.89,2.89,0,0,1,2.18,1,4.79,4.79,0,0,1,1.22,2.14,1.59,1.59,0,0,1,0,.89.9.9,0,0,1-.34.47.47.47,0,0,1-.39.09q-.16,0-.12-.24a2,2,0,0,0-.12-1.26c-.18-.49-.46-.73-.85-.73a3.42,3.42,0,0,0-1.14.24,4.5,4.5,0,0,0-1.39.92c-.42.39-1,.95-1.6,1.68s-1.28,1.48-1.89,2.26a23.24,23.24,0,0,0-1.58,2.21,3.56,3.56,0,0,0-.65,1.48q0,.24.09.24a.64.64,0,0,0,.31-.15c.14-.09.44-.34.89-.72.22-.23.64-.64,1.26-1.24s1.26-1.23,1.91-1.9,1.22-1.27,1.73-1.82.73-.87.7-1c-.1-.35,0-.56.41-.63a2.13,2.13,0,0,1,1.19.17,1.85,1.85,0,0,1,1,.9c.21.42.09.94-.37,1.55-.13.2-.4.56-.82,1.1s-.83,1.09-1.24,1.67a14.48,14.48,0,0,0-1,1.58c-.24.47-.25.75,0,.85,0,0,0,0,0,0s0,0,0,0a2.33,2.33,0,0,0,1.12-.63,17.63,17.63,0,0,0,1.6-1.48l1.58-1.62c.5-.52.87-.88,1.09-1.07C70,227.63,70.11,227.64,70.21,227.71Z"/><path class="cls-1" d="M75.45,224.6c-.84,1.3-1.63,2.52-2.35,3.67a23.25,23.25,0,0,0-1.58,2.79c-.1.22-.2.49-.32.8s-.1.48,0,.51.31,0,.65-.32.75-.62,1.22-1,.93-.87,1.4-1.34.87-.88,1.19-1.23l.15-.15a3,3,0,0,1,.43-.53c.2-.2.38-.23.54-.1s.21.21.14.44a3.33,3.33,0,0,1-.77,1.06,11.82,11.82,0,0,1-1.05,1.14c-.5.51-1,1-1.6,1.51a18.51,18.51,0,0,1-1.65,1.33,3.06,3.06,0,0,1-1.28.64,1.35,1.35,0,0,1-.66,0l-.61-.17a1,1,0,0,1-.41-.34l-.17-.29v-.1a1.29,1.29,0,0,1-.24-.7c0-.31-.05-.54-.05-.71A4.35,4.35,0,0,1,69,229.7c.37-.75.78-1.49,1.24-2.24l.48-.82a12.16,12.16,0,0,1,1-1.72c.37-.57.75-1.16,1.14-1.78q1.69-2.71,2.84-4.58a33.13,33.13,0,0,0,1.72-3.13,6.72,6.72,0,0,0,.49-1.29,4,4,0,0,0,.09-.7q0-.19.27-.27a.94.94,0,0,1,.66.12,6,6,0,0,1,1.11,1,2.06,2.06,0,0,1,.44,1.73c-.07.26-.12.53-.17.82a4.47,4.47,0,0,1-.41,1.12c-.1.19-.19.36-.27.49l-.29.46c-.11.17-.28.4-.49.68s-.47.67-.8,1.19l-2.08,3a4.56,4.56,0,0,0-.27.39A3.84,3.84,0,0,0,75.45,224.6Z"/><path class="cls-1" d="M90.06,227.71a.4.4,0,0,1,.15.29c0,.23-.2.65-.68,1.26q-.34.44-1,1.26c-.47.55-1,1.09-1.5,1.61a13.67,13.67,0,0,1-1.58,1.31,1.91,1.91,0,0,1-1.36.43.69.69,0,0,0-.29-.05c-.78,1.14-1.61,2.37-2.5,3.72a44.16,44.16,0,0,1-2.79,3.76,21,21,0,0,1-3,2.94,4.81,4.81,0,0,1-3,1.19,5,5,0,0,1-2.07-.39,4.09,4.09,0,0,1-1.38-1,4.31,4.31,0,0,1-.83-1.41,5.83,5.83,0,0,1-.33-1.67,8.48,8.48,0,0,1,.14-2.79,5.58,5.58,0,0,1,.8-1.87A3.27,3.27,0,0,1,70,235.23a2.82,2.82,0,0,1,1.28-.34,3.75,3.75,0,0,1,1.39.22q.56.22.6.51a.33.33,0,0,1-.14.29.45.45,0,0,1-.24.1.4.4,0,0,1-.2-.07.31.31,0,0,0-.19-.08.74.74,0,0,0-.42.25,4.46,4.46,0,0,0-.7,1.06,7.23,7.23,0,0,0-.75,1.46,7.85,7.85,0,0,0-.39,1.41,10.15,10.15,0,0,0-.15,1.24c0,.37,0,.65,0,.85a3.66,3.66,0,0,0,.22,1.09,2,2,0,0,0,.41.65,1.59,1.59,0,0,0,.54.44A3.62,3.62,0,0,0,73.51,243a27,27,0,0,0,2.69-3.13q1.38-1.84,2.7-3.95t2.23-3.77l.68-1.79-.66.82a13.32,13.32,0,0,1-1,1.17,11.22,11.22,0,0,1-1.09,1,1.52,1.52,0,0,1-.82.43,2.24,2.24,0,0,1-1.48-.65,2.6,2.6,0,0,1-.85-1.87s0-.28,0-.73a7.52,7.52,0,0,1,.43-1.82,14.23,14.23,0,0,1,3.69-5.61,10.89,10.89,0,0,1,2.48-2,4.28,4.28,0,0,1,1.94-.56,3.16,3.16,0,0,1,2.26,1,5.39,5.39,0,0,1,1.38,2.14,1.36,1.36,0,0,1,.07.89,1,1,0,0,1-.31.47.41.41,0,0,1-.37.09q-.17,0-.12-.24a1.45,1.45,0,0,0,0-.58,3,3,0,0,0-.22-.66,1.62,1.62,0,0,0-.39-.53.76.76,0,0,0-.53-.22,3.18,3.18,0,0,0-1.12.24,4,4,0,0,0-1.31.92c-.39.39-.88.95-1.48,1.68s-1.17,1.48-1.73,2.26a23.33,23.33,0,0,0-1.4,2.21,3.07,3.07,0,0,0-.54,1.48q.1.24.15.24a.68.68,0,0,0,.31-.15,6.39,6.39,0,0,0,.81-.72l1.21-1.24c.58-.6,1.17-1.23,1.77-1.9s1.13-1.27,1.58-1.82.66-.87.63-1q-.19-.52.36-.63a2.12,2.12,0,0,1,1.19.17,2.07,2.07,0,0,1,1,.9,1.46,1.46,0,0,1-.22,1.55l-.75,1.1c-.37.53-.74,1.09-1.09,1.67a13.36,13.36,0,0,0-.85,1.58c-.22.47-.21.75,0,.85,0,0,0,0,0,0s0,0,.05,0a2.17,2.17,0,0,0,1.07-.63,17.19,17.19,0,0,0,1.48-1.48c.5-.56,1-1.11,1.45-1.62s.8-.88,1-1.07C89.9,227.63,90,227.64,90.06,227.71Z"/><path class="cls-1" d="M97.2,232.39a8.49,8.49,0,0,1-1.68,1.09A5.55,5.55,0,0,1,94,234a7.47,7.47,0,0,1-1.24.12,5.53,5.53,0,0,1-1-.09l-.39-.1a.27.27,0,0,1-.19,0,3.2,3.2,0,0,1-1.26-.58,2.81,2.81,0,0,1-.76-.9,3.35,3.35,0,0,1-.34-1.07,5,5,0,0,1,0-1.09,5.88,5.88,0,0,1,.46-1.92c.24-.53.4-.88.46-1q.34-.59,1-1.65a15.92,15.92,0,0,1,1.72-2.16,12.35,12.35,0,0,1,2.28-1.92,5.67,5.67,0,0,1,2.77-.92,3.22,3.22,0,0,1,1.55.24,2.54,2.54,0,0,1,.83.61.56.56,0,0,1,.14.56c-.06.17-.21.2-.44.1a1.36,1.36,0,0,0-.85,0l-.41.12c.1,0,0,0-.14.07a5.08,5.08,0,0,0-.93.59,10.33,10.33,0,0,0-1.52,1.43,21.69,21.69,0,0,0-2,2.64,26.78,26.78,0,0,0-1.65,2.82,6.23,6.23,0,0,0-.63,1.95c-.1.75.27,1.12,1.12,1.12a2.59,2.59,0,0,0,1.65-.88A13.55,13.55,0,0,0,96,230a19,19,0,0,0,1.33-2.12,3,3,0,0,0,.49-1.29,2.45,2.45,0,0,1-.9-.32.74.74,0,0,1-.36-.85,1.68,1.68,0,0,1,.39-1.13,1.75,1.75,0,0,1,.68-.46,1.51,1.51,0,0,1,.6-.1l.22,0a2.43,2.43,0,0,1,1.12.29,2.64,2.64,0,0,1,1,.93,9,9,0,0,1,1.53-.61,5,5,0,0,1,1.52-.27,2.73,2.73,0,0,1,1.17.19,1.54,1.54,0,0,1,.56.44,1.09,1.09,0,0,1,.17.63.76.76,0,0,1-.07.19.24.24,0,0,1-.22.15c-.1,0-.16,0-.17-.1a1.11,1.11,0,0,1-.05-.24.53.53,0,0,0-.1-.24.31.31,0,0,0-.27-.1,1.35,1.35,0,0,1-.34,0,.91.91,0,0,0-.38.08c-.2.06-.51.18-1,.34l-2.06.73a1.38,1.38,0,0,0,0,.48,6.59,6.59,0,0,1-.39,1.46,9,9,0,0,1-.63,1.28c-.23.38-.5.79-.83,1.24A12.4,12.4,0,0,1,97.2,232.39Zm.34-6.82h.26a.53.53,0,0,0,.32-.1.57.57,0,0,0-.27-.46.76.76,0,0,0-.36-.12.43.43,0,0,0-.44.34C97.05,225.46,97.21,225.57,97.54,225.57Z"/><path class="cls-1" d="M123.25,227.66s0,.05,0,.05,0,0,0,0c0,.19-.3.52-.88,1a8.77,8.77,0,0,1-3.14,1.29c-.22.26-.45.52-.68.77s-.47.52-.72.78a11.92,11.92,0,0,1-1.41,1.36,7.35,7.35,0,0,1-1.46,1,3.72,3.72,0,0,1-1.65.41,1.47,1.47,0,0,1-1.19-.44,1.61,1.61,0,0,1-.36-1.07,2.73,2.73,0,0,1,1-2.06,5.22,5.22,0,0,1,2.89-1.14,20.79,20.79,0,0,0,2.67-4.15,7.49,7.49,0,0,0,.83-2.65c0-.35-.1-.53-.29-.53a1.62,1.62,0,0,0-.76.27,7.92,7.92,0,0,0-1,.68q-.51.41-1,.87c-.34.31-.64.58-.9.8-.8,1.1-1.46,2.05-2,2.84s-.91,1.47-1.22,2a11.87,11.87,0,0,0-.67,1.38c-.15.37-.29.7-.42,1l-.12.38c0,.17-.1.34-.17.54s-.12.38-.17.56a1.43,1.43,0,0,0-.07.36.28.28,0,0,1-.2.27.66.66,0,0,1-.53-.17,4.88,4.88,0,0,1-.68-.63,2.2,2.2,0,0,1-.48-1,4.5,4.5,0,0,1-.1-1,4.2,4.2,0,0,1,.56-1.79c.37-.75.78-1.49,1.23-2.24.52-.9,1.15-1.94,1.87-3.1s1.45-2.33,2.16-3.5,1.36-2.26,2-3.28,1-1.83,1.31-2.45a6.74,6.74,0,0,0,.48-1.28,3.45,3.45,0,0,0,.1-.71c0-.13.09-.22.27-.26a.92.92,0,0,1,.65.12,5.08,5.08,0,0,1,1.1,1,2.1,2.1,0,0,1,.43,1.72,7.3,7.3,0,0,1-.86,2.29,48.75,48.75,0,0,1-2.66,4.22,9.7,9.7,0,0,1,1.26-.74,3.12,3.12,0,0,1,1.35-.33,1.8,1.8,0,0,1,1.5.78,3.42,3.42,0,0,1,.6,2.14,7.52,7.52,0,0,1-.38,2.18,11.07,11.07,0,0,1-1.29,2.62,5.34,5.34,0,0,0,.8-.31l.9-.44a8.35,8.35,0,0,1,.78-.36,1.51,1.51,0,0,1,.43-.15A.44.44,0,0,1,123.25,227.66Zm-10,4.76c.51-.52,1-1.06,1.45-1.61a2.5,2.5,0,0,0-1.94,1.65c0,.13,0,.2.1.2a.77.77,0,0,0,.24-.1A.4.4,0,0,0,113.22,232.42Z"/><path class="cls-1" d="M122.68,234a1.28,1.28,0,0,1-.53-.29,2.08,2.08,0,0,1-.42-.44,3.39,3.39,0,0,1-.26-.78,4.5,4.5,0,0,1-.1-1,3.13,3.13,0,0,1,.39-1.4,3.05,3.05,0,0,1,.39-.83l.09-.19h.05v0l.73-1.31c.55-1,1-1.81,1.31-2.41s.58-1.06.75-1.4l.39-.73a3.88,3.88,0,0,0,.22-.46,6.72,6.72,0,0,0,.49-1.29,4,4,0,0,0,.09-.7q0-.19.27-.27a.94.94,0,0,1,.66.12,5.74,5.74,0,0,1,1.11,1,2,2,0,0,1,.44,1.72l-.19.78c-.26.51-.55,1-.85,1.55s-.6,1-.88,1.43-.52.81-.75,1.12a6.17,6.17,0,0,0-.44.65,12.17,12.17,0,0,1-1,1.41,7.83,7.83,0,0,0-.92,1.55l-.1.39c0,.13.15.2.34.2a1.92,1.92,0,0,0,1.05-.56c.43-.37.93-.86,1.5-1.46s1.17-1.28,1.82-2.06l2-2.38,1-1.46.29-.53.22-.51.32-.7a6.54,6.54,0,0,0,.48-1.29,3.38,3.38,0,0,0,.1-.7q0-.19.27-.27a.92.92,0,0,1,.65.12,5.49,5.49,0,0,1,1.12,1,2,2,0,0,1,.43,1.72l-.19.78-.36.72a5.43,5.43,0,0,1-.42.68,4.44,4.44,0,0,1-.26.56c-.12.21-.25.48-.42.8-.74,1.2-1.34,2.16-1.79,2.87s-.8,1.25-1.05,1.62a8.73,8.73,0,0,0-.46.78,1,1,0,0,0-.09.32c0,.06,0,.09,0,.09a1.85,1.85,0,0,0,.78-.46q.58-.47,1.26-1.11c.46-.44.92-.89,1.39-1.36l1.19-1.19a2.68,2.68,0,0,1,.34-.42.69.69,0,0,1,.48-.26l.07,0a.1.1,0,0,0,.08,0,.42.42,0,0,1,.14.29.93.93,0,0,1-.17.48,4.54,4.54,0,0,1-.6.78c-.3.32-.72.75-1.27,1.29s-1.11,1.05-1.7,1.55a16.18,16.18,0,0,1-1.69,1.29,2.8,2.8,0,0,1-1.27.53,2.13,2.13,0,0,1-1.31-.41,1.56,1.56,0,0,1-.53-1.29,4.76,4.76,0,0,1,.14-1.26,9.57,9.57,0,0,1,.68-1.46c-.35.42-.77.9-1.26,1.43s-1,1-1.5,1.51a10.37,10.37,0,0,1-1.51,1.16A1.66,1.66,0,0,1,122.68,234Z"/><path class="cls-1" d="M145.84,229.21c-.36.36-.85.81-1.48,1.36a24.05,24.05,0,0,1-2,1.6,13.89,13.89,0,0,1-2.24,1.31A5,5,0,0,1,138,234a.63.63,0,0,1-.19,0l-.2,0h0a3.3,3.3,0,0,1-2.36-1,2.88,2.88,0,0,1-.61-1.77,5.22,5.22,0,0,1,.42-2.3c.27-.57.56-1.13.85-1.68a15.29,15.29,0,0,1,1.26-1.87,20.3,20.3,0,0,1,2-2.23,14.37,14.37,0,0,1,2.33-1.87,4.2,4.2,0,0,1,2.23-.78,2.35,2.35,0,0,1,.83.2s0,0,.07,0l.32.2a3.33,3.33,0,0,1,.34.24.43.43,0,0,0,.19.12,2.46,2.46,0,0,1,.73,1.6,3,3,0,0,1-.9,2,13.53,13.53,0,0,1-2.16,1.89,24.23,24.23,0,0,1-2.57,1.6c-.88.47-1.61.84-2.19,1.09q-.24.65-.36,1a3,3,0,0,0-.12.88c0,.87.42,1.31,1.26,1.31a2.63,2.63,0,0,0,.7-.22,12.86,12.86,0,0,0,1.41-.7,23.08,23.08,0,0,0,1.94-1.29,20.63,20.63,0,0,0,2.31-2s.14-.12.34-.34a1.32,1.32,0,0,1,.58-.44.79.79,0,0,1,.24.05.22.22,0,0,1,.15.24,1.19,1.19,0,0,1-.22.51A3.16,3.16,0,0,1,145.84,229.21Zm-6.12-2.13a5.33,5.33,0,0,0-.41.65l-.37.66c1.17-.88,2.12-1.64,2.84-2.28a18.11,18.11,0,0,0,1.7-1.68,4.84,4.84,0,0,0,.8-1.16,2.09,2.09,0,0,0,.2-.71.7.7,0,0,0-.1-.29.37.37,0,0,1,0-.15s-.06,0-.27.15a8.61,8.61,0,0,0-.94.73,15.71,15.71,0,0,0-1.51,1.53A22.87,22.87,0,0,0,139.72,227.08Z"/><path class="cls-1" d="M149.72,228c-.32.52-.58.93-.78,1.24l-.53.87c-.16.28-.32.57-.46.88s-.32.7-.51,1.19l-.39,1.16a.43.43,0,0,0-.15-.17s0,0,0,0,.06.07.19.17a2.28,2.28,0,0,0-.15.68c0,.16-.09.24-.29.24a1.49,1.49,0,0,1-1.09-.75,3.54,3.54,0,0,1-.61-2,5,5,0,0,1,.51-1.7c.34-.77.76-1.6,1.24-2.5s1-1.75,1.46-2.59.86-1.51,1.11-2a4.16,4.16,0,0,0,.44-1.05c.07-.27.11-.5.15-.68a2.39,2.39,0,0,1,.09-.38c0-.08.13-.13.3-.13a1.35,1.35,0,0,1,.6.2,2.75,2.75,0,0,1,.68.51,3.25,3.25,0,0,1,.56.77,2.14,2.14,0,0,1,.24,1,1.58,1.58,0,0,1-.22.51c-.14.28-.3.57-.46.9s-.32.62-.48.9a3.87,3.87,0,0,0-.29.55l1.21-1.31q.82-.87,1.77-1.74a18.87,18.87,0,0,1,1.9-1.56,3,3,0,0,1,1.62-.68,1.61,1.61,0,0,1,1.55.78,3.24,3.24,0,0,1,.44,1.65,5.28,5.28,0,0,1-.14,1.21v.05a5.36,5.36,0,0,0-.2.51,6.71,6.71,0,0,1-.48,1l-1.44,2.38-1.26,2.06-1.28,2.06q0,.15.09.15a1.67,1.67,0,0,0,.73-.44c.36-.29.76-.64,1.21-1s.91-.84,1.36-1.29a15.84,15.84,0,0,0,1.12-1.21l.15-.15c.09-.13.21-.28.36-.46a.61.61,0,0,1,.46-.27c.2,0,.29.13.29.39s-.21.6-.73,1.21a14.11,14.11,0,0,1-1.26,1.32c-.55.51-1.12,1-1.72,1.52a15.71,15.71,0,0,1-1.72,1.29,2.73,2.73,0,0,1-1.27.54,2.12,2.12,0,0,1-1.26-.42,1.39,1.39,0,0,1-.58-1.23,2.8,2.8,0,0,1,.17-.95,2.5,2.5,0,0,0,.17-.61c.26-.65.58-1.35,1-2.11s.78-1.46,1.16-2.11.93-1.47,1.41-2.19a4.88,4.88,0,0,0,.61-1,1.75,1.75,0,0,0,.17-.63c0-.29-.13-.44-.39-.44a.85.85,0,0,0-.34.1c-1,.91-1.89,1.68-2.57,2.31s-1.35,1.27-2,1.92A12.83,12.83,0,0,0,149.72,228Z"/><path class="cls-1" d="M167.2,232.39a8.79,8.79,0,0,1-1.68,1.09,5.67,5.67,0,0,1-1.5.51,7.57,7.57,0,0,1-1.24.12,5.53,5.53,0,0,1-1-.09l-.39-.1a.27.27,0,0,1-.19,0,3.32,3.32,0,0,1-1.27-.58,2.91,2.91,0,0,1-.75-.9,3.11,3.11,0,0,1-.34-1.07,5,5,0,0,1,0-1.09,5.88,5.88,0,0,1,.46-1.92c.24-.53.4-.88.46-1,.23-.39.57-.94,1-1.65a16.86,16.86,0,0,1,1.73-2.16,12.35,12.35,0,0,1,2.28-1.92,5.67,5.67,0,0,1,2.77-.92,3.22,3.22,0,0,1,1.55.24,2.38,2.38,0,0,1,.82.61.57.57,0,0,1,.15.56c-.07.17-.21.2-.44.1a1.36,1.36,0,0,0-.85,0l-.41.12c.1,0,0,0-.14.07a5.08,5.08,0,0,0-.93.59,10.84,10.84,0,0,0-1.53,1.43,21.74,21.74,0,0,0-2,2.64,23.66,23.66,0,0,0-1.65,2.82,6.23,6.23,0,0,0-.63,1.95c-.1.75.27,1.12,1.11,1.12a2.54,2.54,0,0,0,1.65-.88,13.6,13.6,0,0,0,1.73-2,19,19,0,0,0,1.33-2.12,3,3,0,0,0,.49-1.29,2.45,2.45,0,0,1-.9-.32.74.74,0,0,1-.36-.85,1.74,1.74,0,0,1,.38-1.13,1.9,1.9,0,0,1,.68-.46,1.58,1.58,0,0,1,.61-.1l.22,0a2.46,2.46,0,0,1,1.12.29,2.78,2.78,0,0,1,1,.93,9.26,9.26,0,0,1,1.52-.61,5.15,5.15,0,0,1,1.53-.27,2.73,2.73,0,0,1,1.17.19,1.54,1.54,0,0,1,.56.44,1.09,1.09,0,0,1,.17.63.58.58,0,0,1-.08.19.22.22,0,0,1-.21.15c-.1,0-.16,0-.17-.1a1.11,1.11,0,0,1,0-.24.53.53,0,0,0-.1-.24.31.31,0,0,0-.27-.1,1.35,1.35,0,0,1-.34,0,1,1,0,0,0-.39.08l-.94.34-2.07.73a1.79,1.79,0,0,0,0,.48,6.59,6.59,0,0,1-.39,1.46,10.19,10.19,0,0,1-.63,1.28c-.23.38-.51.79-.83,1.24A12.4,12.4,0,0,1,167.2,232.39Zm.34-6.82h.26a.53.53,0,0,0,.32-.1.57.57,0,0,0-.27-.46.83.83,0,0,0-.36-.12.42.42,0,0,0-.44.34C167.05,225.46,167.21,225.57,167.54,225.57Z"/><path class="cls-1" d="M176.42,239.79a3.59,3.59,0,0,0-.17.78,6.73,6.73,0,0,0-.08.78.27.27,0,0,1-.19.27.62.62,0,0,1-.53-.18,3.58,3.58,0,0,1-.68-.63,2.28,2.28,0,0,1-.49-1,5.23,5.23,0,0,1-.1-1,4.35,4.35,0,0,1,.56-1.79c.38-.75.79-1.49,1.24-2.24s1-1.64,1.58-2.59l1.82-2.92q.92-1.47,1.77-2.91c.57-.95,1-1.8,1.43-2.55l.54-1.07c.09-.22.18-.42.26-.6s.16-.33.22-.46a6,6,0,0,0,.2-.73,3.29,3.29,0,0,0,0-.49c0-.13.09-.22.27-.26a.94.94,0,0,1,.66.12,3.08,3.08,0,0,1,.53.39,3.52,3.52,0,0,1,.54.55,2.55,2.55,0,0,1,.38.71,1.9,1.9,0,0,1,.1.87s0,.1-.17.39-.31.61-.51,1-.36.65-.51.94-.2.42-.17.39a32.83,32.83,0,0,1,3.79-4.15c1-.82,1.83-1,2.57-.61a2.3,2.3,0,0,1,.9,1,3.54,3.54,0,0,1,.36,1.66,7.41,7.41,0,0,1-.39,2.2,9.48,9.48,0,0,1-1.31,2.6,7,7,0,0,0,1.36-.44,5.63,5.63,0,0,0,.54-.19l.43-.17.3-.12c.38-.13.62-.15.7,0s0,.25-.29.46a9.13,9.13,0,0,1-1.36.78,16.09,16.09,0,0,1-2.5.9c-.23.26-.45.52-.68.8s-.47.54-.73.8a8.41,8.41,0,0,1-1.46,1.41,8.66,8.66,0,0,1-1.5.94,3,3,0,0,1-1.7.32,1.3,1.3,0,0,1-1.19-.66,1.85,1.85,0,0,1-.12-1.36,3.5,3.5,0,0,1,.82-1.45,3.55,3.55,0,0,1,1.75-1l1.22-.24a27.27,27.27,0,0,0,1.94-2.84,17.21,17.21,0,0,0,1.16-2.33,4.63,4.63,0,0,0,.39-1.58c0-.39-.1-.58-.29-.58a1.56,1.56,0,0,0-.78.46,14.74,14.74,0,0,0-1.19,1.19c-.43.49-.9,1-1.4,1.63s-1,1.17-1.39,1.72-.79,1-1.11,1.48a10.47,10.47,0,0,0-.63.9,34.21,34.21,0,0,1-1.9,2.86c-.77,1.07-1.62,2.33-2.52,3.79A44.13,44.13,0,0,0,176.42,239.79Zm7.57-8c.52-.51,1-1.05,1.46-1.6a2.8,2.8,0,0,0-1.58,1,3.2,3.2,0,0,0-.37.68c0,.16.09.21.25.15A1.12,1.12,0,0,0,184,231.83Z"/><path class="cls-1" d="M206.81,227.71a.42.42,0,0,1,.14.29.93.93,0,0,1-.17.46,7.75,7.75,0,0,1-.61.8q-.37.44-1.14,1.26a22.4,22.4,0,0,1-1.62,1.61,15.27,15.27,0,0,1-1.7,1.31,2.07,2.07,0,0,1-1.41.43,4.4,4.4,0,0,1-1.63-.68,1.71,1.71,0,0,1-.7-1.5,1.91,1.91,0,0,1,.15-.68q.13-.39.24-.63c-.16.16-.41.43-.75.82s-.7.78-1.08,1.17a10.59,10.59,0,0,1-1.16,1,1.71,1.71,0,0,1-.91.43,2.06,2.06,0,0,1-1.42-.65,2.43,2.43,0,0,1-.7-1.87s0-.28.12-.73a8.7,8.7,0,0,1,.61-1.82,16.58,16.58,0,0,1,1.45-2.6,17.24,17.24,0,0,1,2.67-3,12.08,12.08,0,0,1,2.63-2,4.54,4.54,0,0,1,2-.56,2.89,2.89,0,0,1,2.18,1,4.77,4.77,0,0,1,1.21,2.14,1.52,1.52,0,0,1,0,.89,1,1,0,0,1-.34.47.47.47,0,0,1-.39.09q-.17,0-.12-.24a2,2,0,0,0-.12-1.26c-.18-.49-.46-.73-.85-.73a3.33,3.33,0,0,0-1.14.24,4.5,4.5,0,0,0-1.39.92c-.42.39-.95.95-1.6,1.68s-1.28,1.48-1.89,2.26a23.24,23.24,0,0,0-1.58,2.21,3.42,3.42,0,0,0-.65,1.48q0,.24.09.24a.68.68,0,0,0,.31-.15c.14-.09.44-.34.88-.72l1.27-1.24c.63-.6,1.26-1.23,1.91-1.9s1.22-1.27,1.72-1.82.74-.87.71-1c-.1-.35,0-.56.41-.63a2.13,2.13,0,0,1,1.19.17,1.85,1.85,0,0,1,.95.9c.21.42.09.94-.37,1.55-.13.2-.4.56-.82,1.1s-.84,1.09-1.24,1.67a13.07,13.07,0,0,0-1,1.58c-.24.47-.25.75,0,.85,0,0,0,0,0,0s0,0,0,0a2.33,2.33,0,0,0,1.12-.63,17.63,17.63,0,0,0,1.6-1.48l1.58-1.62c.5-.52.87-.88,1.09-1.07C206.64,227.63,206.71,227.64,206.81,227.71Z"/><path class="cls-1" d="M208.31,227.8c0-.16.11-.63.22-1.4a22.31,22.31,0,0,1,.85-3.3,5.49,5.49,0,0,1,.7-1.51,4,4,0,0,1,1-1.07,2.5,2.5,0,0,1,1.23-.43,2.11,2.11,0,0,1,1.34.38,5.47,5.47,0,0,1,1.38,1.07,4.94,4.94,0,0,1,.71.83.65.65,0,0,1,.07.34.62.62,0,0,0,0,.19.56.56,0,0,1-.3.27.25.25,0,0,1-.29,0,.44.44,0,0,1-.12-.19.73.73,0,0,0-.07-.19,1.28,1.28,0,0,0-.8-.49,1.31,1.31,0,0,0-.78.15,2.24,2.24,0,0,0-.61.48,1.37,1.37,0,0,0-.29.54c-.35,1.13-.61,2-.77,2.64a6.42,6.42,0,0,0-.25,1.19v.24a14,14,0,0,0,2-.29l1.72-.39.1-.05a.3.3,0,0,0,.12,0,.44.44,0,0,1,.17,0c.26,0,.39.11.39.34s-.38.64-1.14.87a30.62,30.62,0,0,1-3.47.73c-.13.52-.28,1-.44,1.5s-.35.85-.56,1.29a3.89,3.89,0,0,1-.75,1.09l-.24.2a4.54,4.54,0,0,1-1.31.87,4,4,0,0,1-1.61.34,2,2,0,0,1-1.43-.46,1.55,1.55,0,0,1-.46-1.14,3.7,3.7,0,0,1,.22-1.12,5.8,5.8,0,0,1,.65-1.36,8.11,8.11,0,0,1,1-1.24,3,3,0,0,1,1.31-.75.81.81,0,0,0,.39-.1v0Zm-.39,1.36a2.22,2.22,0,0,0-1,.66,4.91,4.91,0,0,0-.68,1,4.53,4.53,0,0,0-.39.87,3.07,3.07,0,0,0-.12.44c0,.09,0,.14.1.14a.85.85,0,0,0,.43-.24,3.49,3.49,0,0,0,.61-.68,8.25,8.25,0,0,0,.61-1A4.94,4.94,0,0,0,207.92,229.16Z"/><path class="cls-1" d="M228.36,227.71a.4.4,0,0,1,.15.29.93.93,0,0,1-.17.46c-.12.18-.32.44-.61.8l-1.14,1.26a22.57,22.57,0,0,1-1.63,1.61,15.27,15.27,0,0,1-1.7,1.31,2.06,2.06,0,0,1-1.4.43,4.33,4.33,0,0,1-1.63-.68,1.69,1.69,0,0,1-.71-1.5,1.91,1.91,0,0,1,.15-.68l.24-.63c-.16.16-.41.43-.75.82s-.69.78-1.08,1.17a10.53,10.53,0,0,1-1.15,1,1.73,1.73,0,0,1-.92.43,2.07,2.07,0,0,1-1.42-.65,2.47,2.47,0,0,1-.7-1.87s0-.28.12-.73a10.08,10.08,0,0,1,.61-1.82,16.4,16.4,0,0,1,4.13-5.61,11.83,11.83,0,0,1,2.62-2,4.57,4.57,0,0,1,2-.56,2.89,2.89,0,0,1,2.18,1,4.79,4.79,0,0,1,1.22,2.14,1.5,1.5,0,0,1,0,.89.9.9,0,0,1-.34.47.46.46,0,0,1-.39.09q-.17,0-.12-.24a2,2,0,0,0-.12-1.26c-.18-.49-.46-.73-.85-.73a3.42,3.42,0,0,0-1.14.24,4.36,4.36,0,0,0-1.38.92c-.42.39-1,.95-1.6,1.68s-1.28,1.48-1.9,2.26a25.18,25.18,0,0,0-1.58,2.21,3.56,3.56,0,0,0-.65,1.48q0,.24.09.24a.7.7,0,0,0,.32-.15c.14-.09.43-.34.88-.72.22-.23.64-.64,1.27-1.24s1.26-1.23,1.91-1.9,1.22-1.27,1.72-1.82.73-.87.7-1c-.09-.35,0-.56.42-.63a2.09,2.09,0,0,1,1.18.17,1.85,1.85,0,0,1,1,.9,1.49,1.49,0,0,1-.36,1.55c-.13.2-.41.56-.83,1.1s-.83,1.09-1.24,1.67a16.24,16.24,0,0,0-1,1.58c-.24.47-.25.75,0,.85,0,0,0,0,0,0s0,0,0,0a2.31,2.31,0,0,0,1.11-.63,17.67,17.67,0,0,0,1.61-1.48l1.57-1.62c.5-.52.87-.88,1.1-1.07C228.2,227.63,228.26,227.64,228.36,227.71Z"/></svg>