<svg xmlns="http://www.w3.org/2000/svg" viewBox="0 0 283.46 283.46"><defs><style>.cls-1{fill:#7c7c7b;}.cls-2{fill:#fff;}</style></defs><title>LOGOS PORTAL (BLANCO)</title><g id="Capa_2" data-name="Capa 2"><rect class="cls-1" width="283.46" height="283.46"/></g><g id="Capa_1" data-name="Capa 1"><path class="cls-2" d="M43.21,210.8a3.52,3.52,0,0,1-.83,1,3.76,3.76,0,0,1-1.14.64,4.12,4.12,0,0,1-1.38.23,4,4,0,0,1-1.54-.3,3.77,3.77,0,0,1-1.28-.85,3.28,3.28,0,0,1-.6-.8,3.84,3.84,0,0,1-.31-.94,8,8,0,0,1-.11-1.18c0-.44,0-.95,0-1.54s0-1.1,0-1.54a8,8,0,0,1,.11-1.18,3.71,3.71,0,0,1,.31-.94,3.1,3.1,0,0,1,.6-.8,3.77,3.77,0,0,1,1.28-.85,4,4,0,0,1,1.54-.3,4.12,4.12,0,0,1,1.38.23,3.76,3.76,0,0,1,1.14.64,3.52,3.52,0,0,1,.83,1,4.57,4.57,0,0,1,.48,1.39H42.48a2.94,2.94,0,0,0-.9-1.63,2.53,2.53,0,0,0-1.72-.61,2.73,2.73,0,0,0-1,.21,2.4,2.4,0,0,0-.86.57,2.06,2.06,0,0,0-.41.57,2.64,2.64,0,0,0-.24.72,8.77,8.77,0,0,0-.1,1c0,.39,0,.88,0,1.46s0,1.07,0,1.46a8.77,8.77,0,0,0,.1,1,2.64,2.64,0,0,0,.24.72,2.22,2.22,0,0,0,.41.57,2.4,2.4,0,0,0,.86.57,2.72,2.72,0,0,0,1,.2,2.55,2.55,0,0,0,1.73-.6,2.88,2.88,0,0,0,.92-1.63h1.18A4.57,4.57,0,0,1,43.21,210.8Z"/><path class="cls-2" d="M55.4,210.47a3.52,3.52,0,0,1-.8,1.19,3.71,3.71,0,0,1-1.23.77,4.53,4.53,0,0,1-3.08,0,3.5,3.5,0,0,1-2-2A3.91,3.91,0,0,1,48,209v-7.39h1.18v7.3a3.23,3.23,0,0,0,.19,1.15,2.27,2.27,0,0,0,.53.86,2.34,2.34,0,0,0,.84.56,2.8,2.8,0,0,0,1.1.2,2.77,2.77,0,0,0,1.1-.2,2.47,2.47,0,0,0,.85-.56,2.43,2.43,0,0,0,.54-.86,3.23,3.23,0,0,0,.19-1.15v-7.3h1.18V209A3.73,3.73,0,0,1,55.4,210.47Z"/><path class="cls-2" d="M67,212.6l-.88-2.49H61.31l-.88,2.49H59.18l4-11h1l4,11Zm-3.26-9.34-2.08,5.83h4.12Z"/><path class="cls-2" d="M78.94,212.6l-5.85-8.84v8.84H71.91v-11H73l5.86,8.82v-8.82h1.18v11Z"/><path class="cls-2" d="M92.75,208.17a8.55,8.55,0,0,1-.1,1.25,5.05,5.05,0,0,1-.32,1.17,3,3,0,0,1-.66,1,3.24,3.24,0,0,1-1.2.76,4.48,4.48,0,0,1-1.58.26H85.11v-11h3.78a4.48,4.48,0,0,1,1.58.27,3.24,3.24,0,0,1,1.2.76,3,3,0,0,1,.66,1,4.62,4.62,0,0,1,.32,1.08,7.49,7.49,0,0,1,.1,1.17c0,.39,0,.78,0,1.17S92.76,207.75,92.75,208.17ZM91.57,206a7.48,7.48,0,0,0-.07-1,4,4,0,0,0-.21-.86,2.19,2.19,0,0,0-.44-.7,2.37,2.37,0,0,0-1-.62,3.76,3.76,0,0,0-1.19-.18H86.28v8.92h2.41a3.76,3.76,0,0,0,1.19-.18,2.47,2.47,0,0,0,1-.62,2.17,2.17,0,0,0,.44-.74,4.56,4.56,0,0,0,.21-.95,8.64,8.64,0,0,0,.07-1c0-.36,0-.71,0-1.05S91.58,206.29,91.57,206Z"/><path class="cls-2" d="M104.67,208.63a6.81,6.81,0,0,1-.12,1.18,3.46,3.46,0,0,1-.31.94,3,3,0,0,1-.59.8,3.83,3.83,0,0,1-1.27.85,4,4,0,0,1-1.55.3A3.84,3.84,0,0,1,98,211.55a3.28,3.28,0,0,1-.6-.8,3.84,3.84,0,0,1-.31-.94,8,8,0,0,1-.11-1.18c0-.44,0-.95,0-1.54s0-1.1,0-1.54a8,8,0,0,1,.11-1.18,3.71,3.71,0,0,1,.31-.94,3.1,3.1,0,0,1,.6-.8,4,4,0,0,1,5.64,0,2.84,2.84,0,0,1,.59.8,3.35,3.35,0,0,1,.31.94,6.81,6.81,0,0,1,.12,1.18c0,.44,0,.95,0,1.54S104.68,208.19,104.67,208.63Zm-1.18-3a6.63,6.63,0,0,0-.11-1,2.34,2.34,0,0,0-.23-.72,2.2,2.2,0,0,0-.42-.57,2.51,2.51,0,0,0-.86-.58,2.65,2.65,0,0,0-1-.21,2.68,2.68,0,0,0-1.91.79,2.41,2.41,0,0,0-.41.57,2.64,2.64,0,0,0-.24.72,8.37,8.37,0,0,0-.1,1c0,.39,0,.88,0,1.46s0,1.07,0,1.46a8.37,8.37,0,0,0,.1,1,2.64,2.64,0,0,0,.24.72,2.18,2.18,0,0,0,.41.56,2.42,2.42,0,0,0,.86.58,2.73,2.73,0,0,0,1,.21,2.65,2.65,0,0,0,1-.21,2.26,2.26,0,0,0,.86-.58,2,2,0,0,0,.42-.56,2.34,2.34,0,0,0,.23-.72,6.63,6.63,0,0,0,.11-1c0-.39,0-.88,0-1.46S103.5,206,103.49,205.63Z"/><path class="cls-2" d="M122.07,212.6l-5.86-8.84v8.84H115v-11h1.12l5.85,8.82v-8.82h1.18v11Z"/><path class="cls-2" d="M135.51,208.63a8,8,0,0,1-.11,1.18,3.84,3.84,0,0,1-.31.94,3.28,3.28,0,0,1-.6.8,3.83,3.83,0,0,1-1.27.85,4,4,0,0,1-1.55.3,3.86,3.86,0,0,1-2.82-1.15,3.28,3.28,0,0,1-.6-.8,3.83,3.83,0,0,1-.3-.94,6.81,6.81,0,0,1-.12-1.18c0-.44,0-.95,0-1.54s0-1.1,0-1.54a6.81,6.81,0,0,1,.12-1.18,3.7,3.7,0,0,1,.3-.94,3.1,3.1,0,0,1,.6-.8,4,4,0,0,1,5.64,0,3.1,3.1,0,0,1,.6.8,3.71,3.71,0,0,1,.31.94,8,8,0,0,1,.11,1.18c0,.44,0,.95,0,1.54S135.52,208.19,135.51,208.63Zm-1.18-3a8.37,8.37,0,0,0-.1-1,2.64,2.64,0,0,0-.24-.72,2.41,2.41,0,0,0-.41-.57,2.71,2.71,0,0,0-3-.58,2.57,2.57,0,0,0-.85.58,2.2,2.2,0,0,0-.42.57,2.34,2.34,0,0,0-.23.72,6.63,6.63,0,0,0-.11,1c0,.39,0,.88,0,1.46s0,1.07,0,1.46a6.63,6.63,0,0,0,.11,1,2.34,2.34,0,0,0,.23.72,2,2,0,0,0,.42.56,2.3,2.3,0,0,0,.85.58,2.73,2.73,0,0,0,2.1,0,2.42,2.42,0,0,0,.86-.58,2.18,2.18,0,0,0,.41-.56,2.64,2.64,0,0,0,.24-.72,8.37,8.37,0,0,0,.1-1c0-.39,0-.88,0-1.46S134.34,206,134.33,205.63Z"/><path class="cls-2" d="M146.53,210.88a2.82,2.82,0,0,1-.77,1,3.55,3.55,0,0,1-1.21.62,5.44,5.44,0,0,1-1.56.22,6.08,6.08,0,0,1-2.12-.34,4.83,4.83,0,0,1-1.66-1.12l.81-.81a3.9,3.9,0,0,0,1.38.95,4.5,4.5,0,0,0,1.63.26,3,3,0,0,0,1.9-.53,1.79,1.79,0,0,0,.7-1.51,2.47,2.47,0,0,0-.13-.79,1.57,1.57,0,0,0-.95-.92,5.86,5.86,0,0,0-.89-.2l-1.29-.2a4,4,0,0,1-2-.83,2.63,2.63,0,0,1-.84-2.06,3.11,3.11,0,0,1,.25-1.28,2.7,2.7,0,0,1,.7-1,3.23,3.23,0,0,1,1.11-.62,4.45,4.45,0,0,1,1.47-.23,5.13,5.13,0,0,1,1.81.29,4.67,4.67,0,0,1,1.47.92l-.75.76a3.89,3.89,0,0,0-1.1-.71,4,4,0,0,0-1.48-.24,2.43,2.43,0,0,0-1.71.56,1.91,1.91,0,0,0-.61,1.49,1.6,1.6,0,0,0,.5,1.27,2.36,2.36,0,0,0,.65.37,4.63,4.63,0,0,0,.83.23l1.21.19c.26,0,.49.08.69.13a5,5,0,0,1,.54.16,4.11,4.11,0,0,1,.42.21,2.42,2.42,0,0,1,.36.27,2.73,2.73,0,0,1,.93,2.19A3.1,3.1,0,0,1,146.53,210.88Z"/><path class="cls-2" d="M161.31,210.69a3,3,0,0,1-.71,1.08,3.16,3.16,0,0,1-1.09.69,3.81,3.81,0,0,1-1.38.24,3.77,3.77,0,0,1-1.4-.24,3.28,3.28,0,0,1-1.13-.75l.79-.79a2.63,2.63,0,0,0,.68.51,2.19,2.19,0,0,0,1.06.21,2.12,2.12,0,0,0,1.67-.66,2.72,2.72,0,0,0,.59-1.88v-7.53h1.18v7.69A3.87,3.87,0,0,1,161.31,210.69Z"/><path class="cls-2" d="M173.72,210.47a3.4,3.4,0,0,1-.81,1.19,3.57,3.57,0,0,1-1.22.77,4.53,4.53,0,0,1-3.08,0,3.57,3.57,0,0,1-1.22-.77,3.52,3.52,0,0,1-.8-1.19,3.9,3.9,0,0,1-.28-1.51v-7.39h1.17v7.3a3.47,3.47,0,0,0,.19,1.15,2.27,2.27,0,0,0,.53.86,2.47,2.47,0,0,0,.85.56,3.12,3.12,0,0,0,2.2,0,2.34,2.34,0,0,0,.84-.56,2.29,2.29,0,0,0,.54-.86,3.23,3.23,0,0,0,.2-1.15v-7.3H174V209A3.91,3.91,0,0,1,173.72,210.47Z"/><path class="cls-2" d="M185.93,212.6l-5.85-8.84v8.84H178.9v-11H180l5.85,8.82v-8.82h1.18v11Z"/><path class="cls-2" d="M195.34,202.63v10h-1.18v-10H191v-1.06h7.56v1.06Z"/><path class="cls-2" d="M208,212.6l-.89-2.49h-4.82l-.88,2.49h-1.25l4.06-11h1l4,11Zm-3.27-9.34-2.08,5.83h4.12Z"/><path class="cls-2" d="M221.11,212.6v-8.38l-3,6.65h-1L214,204.22v8.38h-1.18v-11H214l3.59,7.83,3.5-7.83h1.18v11Z"/><path class="cls-2" d="M234.62,208.63a6.81,6.81,0,0,1-.12,1.18,3.46,3.46,0,0,1-.31.94,3.22,3.22,0,0,1-.59.8,3.83,3.83,0,0,1-1.27.85,4,4,0,0,1-1.55.3,3.84,3.84,0,0,1-2.82-1.15,3.28,3.28,0,0,1-.6-.8,3.84,3.84,0,0,1-.31-.94,8,8,0,0,1-.11-1.18c0-.44,0-.95,0-1.54s0-1.1,0-1.54a8,8,0,0,1,.11-1.18,3.71,3.71,0,0,1,.31-.94,3.1,3.1,0,0,1,.6-.8,4,4,0,0,1,5.64,0,3.05,3.05,0,0,1,.59.8,3.35,3.35,0,0,1,.31.94,6.81,6.81,0,0,1,.12,1.18c0,.44,0,.95,0,1.54S234.63,208.19,234.62,208.63Zm-1.19-3a5.67,5.67,0,0,0-.1-1,2.65,2.65,0,0,0-.23-.72,2.2,2.2,0,0,0-.42-.57,2.51,2.51,0,0,0-.86-.58,2.65,2.65,0,0,0-1-.21,2.68,2.68,0,0,0-1.91.79,2.79,2.79,0,0,0-.42.57,2.65,2.65,0,0,0-.23.72,8.37,8.37,0,0,0-.1,1c0,.39,0,.88,0,1.46s0,1.07,0,1.46a8.37,8.37,0,0,0,.1,1,2.65,2.65,0,0,0,.23.72,2.49,2.49,0,0,0,.42.56,2.42,2.42,0,0,0,.86.58,2.73,2.73,0,0,0,1.05.21,2.65,2.65,0,0,0,1-.21,2.26,2.26,0,0,0,.86-.58,2,2,0,0,0,.42-.56,2.65,2.65,0,0,0,.23-.72,5.67,5.67,0,0,0,.1-1c0-.39,0-.88,0-1.46S233.45,206,233.43,205.63Z"/><path class="cls-2" d="M245.64,210.88a2.82,2.82,0,0,1-.77,1,3.55,3.55,0,0,1-1.21.62,5.44,5.44,0,0,1-1.56.22,6.08,6.08,0,0,1-2.12-.34,4.83,4.83,0,0,1-1.66-1.12l.81-.81a3.9,3.9,0,0,0,1.38.95,4.44,4.44,0,0,0,1.62.26,3.05,3.05,0,0,0,1.91-.53,1.8,1.8,0,0,0,.69-1.51,2.22,2.22,0,0,0-.13-.79,1.42,1.42,0,0,0-.39-.59,1.52,1.52,0,0,0-.55-.33,5.86,5.86,0,0,0-.89-.2l-1.29-.2a4,4,0,0,1-2-.83,2.62,2.62,0,0,1-.83-2.06,3.28,3.28,0,0,1,.24-1.28,2.73,2.73,0,0,1,.71-1,3.14,3.14,0,0,1,1.11-.62,4.45,4.45,0,0,1,1.47-.23,5.17,5.17,0,0,1,1.81.29,4.67,4.67,0,0,1,1.47.92l-.76.76a3.63,3.63,0,0,0-1.1-.71,3.9,3.9,0,0,0-1.47-.24,2.47,2.47,0,0,0-1.72.56,1.94,1.94,0,0,0-.6,1.49,1.59,1.59,0,0,0,.49,1.27,2.59,2.59,0,0,0,.66.37,4.63,4.63,0,0,0,.83.23l1.21.19c.26,0,.49.08.69.13a4.24,4.24,0,0,1,.53.16,3.45,3.45,0,0,1,.43.21,2.42,2.42,0,0,1,.36.27,2.73,2.73,0,0,1,.93,2.19A3.1,3.1,0,0,1,245.64,210.88Z"/><path class="cls-2" d="M69.21,229.89a.43.43,0,0,1,.15.3.93.93,0,0,1-.17.46,8.15,8.15,0,0,1-.61.8l-1.14,1.27a22.74,22.74,0,0,1-1.64,1.61,14.16,14.16,0,0,1-1.7,1.31,2.09,2.09,0,0,1-1.41.44,4.5,4.5,0,0,1-1.63-.68,1.72,1.72,0,0,1-.71-1.51,1.91,1.91,0,0,1,.15-.68c.1-.26.18-.47.24-.64-.16.17-.41.44-.75.83s-.7.78-1.09,1.17a9.74,9.74,0,0,1-1.16,1,1.75,1.75,0,0,1-.91.44,2.11,2.11,0,0,1-1.43-.66,2.47,2.47,0,0,1-.7-1.87s0-.28.13-.73a9,9,0,0,1,.6-1.83,17.6,17.6,0,0,1,1.46-2.6,17,17,0,0,1,2.68-3,11.85,11.85,0,0,1,2.63-2,4.48,4.48,0,0,1,2-.56,2.93,2.93,0,0,1,2.19,1,4.79,4.79,0,0,1,1.22,2.14,1.62,1.62,0,0,1,0,.9.94.94,0,0,1-.34.47.51.51,0,0,1-.39.09q-.16,0-.12-.24a2.07,2.07,0,0,0-.12-1.27c-.18-.48-.46-.73-.86-.73a3.23,3.23,0,0,0-1.14.25,4.33,4.33,0,0,0-1.39.92c-.42.39-1,1-1.6,1.68s-1.29,1.49-1.9,2.27a21.58,21.58,0,0,0-1.58,2.21,3.5,3.5,0,0,0-.66,1.49q0,.24.09.24a.64.64,0,0,0,.31-.15,9.8,9.8,0,0,0,.89-.73l1.27-1.24c.63-.6,1.27-1.23,1.92-1.9s1.22-1.27,1.73-1.82.73-.88.7-1q-.15-.53.42-.63a2,2,0,0,1,1.19.17,1.85,1.85,0,0,1,1,.9c.21.42.09.94-.37,1.56-.13.19-.4.56-.83,1.09s-.83,1.1-1.24,1.68a15.53,15.53,0,0,0-1,1.59c-.24.47-.25.75,0,.85,0,0,0,0,0,.05s0,0,0,0a2.29,2.29,0,0,0,1.12-.64,17.67,17.67,0,0,0,1.61-1.48l1.58-1.63c.51-.52.87-.88,1.1-1.07C69.05,229.81,69.12,229.83,69.21,229.89Z"/><path class="cls-2" d="M74.47,226.78q-1.26,2-2.36,3.67a24.89,24.89,0,0,0-1.58,2.8c-.1.23-.2.5-.32.81s-.1.48,0,.51.31,0,.65-.32.75-.62,1.22-1,.94-.87,1.41-1.34.87-.89,1.2-1.25l.14-.14a3.61,3.61,0,0,1,.44-.54q.28-.28.54-.09c.16.06.21.21.14.43a3.15,3.15,0,0,1-.78,1.07,10.25,10.25,0,0,1-1,1.15c-.51.5-1,1-1.61,1.51s-1.12,1-1.66,1.34a2.87,2.87,0,0,1-1.29.63,1.31,1.31,0,0,1-.65,0c-.22,0-.42-.11-.61-.17a1,1,0,0,1-.42-.35l-.17-.29v-.1a1.29,1.29,0,0,1-.24-.7c0-.31-.05-.55-.05-.71a4.42,4.42,0,0,1,.56-1.8c.37-.75.79-1.49,1.24-2.24l.49-.83a12.16,12.16,0,0,1,1-1.72l1.14-1.78q1.71-2.73,2.85-4.6a33.54,33.54,0,0,0,1.73-3.14,7,7,0,0,0,.49-1.3,3.9,3.9,0,0,0,.09-.7q0-.2.27-.27a.94.94,0,0,1,.66.12,5.49,5.49,0,0,1,1.12,1,2.09,2.09,0,0,1,.44,1.73c-.07.26-.12.54-.17.83a4.32,4.32,0,0,1-.42,1.12,2.93,2.93,0,0,1-.27.48c-.08.13-.17.29-.29.47s-.27.4-.48.68-.48.67-.81,1.19L75,226a4.56,4.56,0,0,0-.27.39C74.61,226.52,74.54,226.65,74.47,226.78Z"/><path class="cls-2" d="M89.13,229.89a.43.43,0,0,1,.15.3c0,.22-.2.65-.69,1.26-.22.29-.57.72-1,1.27s-1,1.09-1.51,1.61a12.77,12.77,0,0,1-1.59,1.31,1.93,1.93,0,0,1-1.36.44.69.69,0,0,0-.29-.05q-1.17,1.71-2.51,3.72a43.05,43.05,0,0,1-2.8,3.78,19.54,19.54,0,0,1-3,2.94,4.79,4.79,0,0,1-3,1.2,5,5,0,0,1-2.07-.39,4.17,4.17,0,0,1-1.39-1,4.5,4.5,0,0,1-.82-1.41,6,6,0,0,1-.35-1.68,8.77,8.77,0,0,1,.15-2.8,5.85,5.85,0,0,1,.8-1.88A3.46,3.46,0,0,1,69,237.44a2.77,2.77,0,0,1,1.29-.34,3.72,3.72,0,0,1,1.39.22c.37.15.58.32.61.51a.32.32,0,0,1-.15.29.4.4,0,0,1-.24.1.28.28,0,0,1-.19-.07.34.34,0,0,0-.2-.08c-.1,0-.23.09-.41.25a4.23,4.23,0,0,0-.71,1.07,7.23,7.23,0,0,0-.75,1.46,8.33,8.33,0,0,0-.39,1.41,10.64,10.64,0,0,0-.15,1.24c0,.38,0,.66,0,.86a3.31,3.31,0,0,0,.22,1.09,1.91,1.91,0,0,0,.41.66,1.72,1.72,0,0,0,.54.44,3.59,3.59,0,0,0,2.23-1.29,28.07,28.07,0,0,0,2.71-3.14q1.38-1.86,2.7-4c.88-1.41,1.62-2.67,2.24-3.78l.68-1.8-.66.83q-.47.58-1,1.17a12.51,12.51,0,0,1-1.09,1,1.62,1.62,0,0,1-.83.44,2.3,2.3,0,0,1-1.49-.66,2.68,2.68,0,0,1-.85-1.87s0-.28,0-.73a7.58,7.58,0,0,1,.44-1.83,14.24,14.24,0,0,1,3.7-5.62,10.91,10.91,0,0,1,2.48-2,4.2,4.2,0,0,1,2-.56,3.14,3.14,0,0,1,2.26,1,5.31,5.31,0,0,1,1.39,2.14,1.39,1.39,0,0,1,.07.9,1,1,0,0,1-.31.47.44.44,0,0,1-.37.09q-.16,0-.12-.24a1.72,1.72,0,0,0,0-.59,3.83,3.83,0,0,0-.22-.65,1.78,1.78,0,0,0-.39-.54.83.83,0,0,0-.54-.22,3,3,0,0,0-1.12.25,3.89,3.89,0,0,0-1.31.92c-.39.39-.89,1-1.49,1.68s-1.17,1.49-1.73,2.27a23.54,23.54,0,0,0-1.41,2.21,2.94,2.94,0,0,0-.53,1.49c.06.16.11.24.14.24a.7.7,0,0,0,.32-.15,6.85,6.85,0,0,0,.8-.73c.23-.22.63-.64,1.22-1.24s1.18-1.23,1.78-1.9,1.12-1.27,1.58-1.82.66-.88.63-1c-.13-.35,0-.56.37-.63a2,2,0,0,1,1.19.17,2.12,2.12,0,0,1,1,.9,1.48,1.48,0,0,1-.22,1.56c-.13.19-.38.56-.76,1.09s-.73,1.1-1.09,1.68a14.25,14.25,0,0,0-.85,1.59c-.21.47-.21.75,0,.85a0,0,0,0,1,.05.05,0,0,0,0,0,0,0A2.09,2.09,0,0,0,85,234a14.75,14.75,0,0,0,1.48-1.48c.51-.57,1-1.11,1.47-1.63s.8-.88,1-1.07C89,229.81,89,229.83,89.13,229.89Z"/><path class="cls-2" d="M96.29,234.59a9.4,9.4,0,0,1-1.68,1.1,5.72,5.72,0,0,1-1.51.51,7.67,7.67,0,0,1-1.24.12,4.93,4.93,0,0,1-1-.1l-.39-.09a.29.29,0,0,1-.19,0,3.33,3.33,0,0,1-1.27-.59,2.91,2.91,0,0,1-.75-.9,3.11,3.11,0,0,1-.34-1.07,5,5,0,0,1,0-1.09,6.15,6.15,0,0,1,.46-1.93c.25-.53.4-.88.47-1,.22-.39.57-.94,1-1.66a16.92,16.92,0,0,1,1.73-2.17,12.41,12.41,0,0,1,2.29-1.92,5.64,5.64,0,0,1,2.78-.92,3.15,3.15,0,0,1,1.56.24,2.49,2.49,0,0,1,.82.61.59.59,0,0,1,.15.56c-.07.17-.21.2-.44.1a1.36,1.36,0,0,0-.85,0l-.42.12c.1,0,0,0-.14.07a5.08,5.08,0,0,0-.93.59,11.67,11.67,0,0,0-1.53,1.44,22.75,22.75,0,0,0-2,2.64A25.43,25.43,0,0,0,91.17,232a6.8,6.8,0,0,0-.63,2c-.1.75.28,1.13,1.12,1.13a2.63,2.63,0,0,0,1.66-.88,14.18,14.18,0,0,0,1.72-2A17.83,17.83,0,0,0,96.38,230a3,3,0,0,0,.49-1.3,2.28,2.28,0,0,1-.9-.32.76.76,0,0,1-.37-.86,1.79,1.79,0,0,1,.39-1.12,1.85,1.85,0,0,1,.69-.46,1.24,1.24,0,0,1,.6-.1l.22,0a2.56,2.56,0,0,1,1.12.29,2.91,2.91,0,0,1,1,.93,10,10,0,0,1,1.53-.61,5.15,5.15,0,0,1,1.53-.27,2.7,2.7,0,0,1,1.17.2,1.37,1.37,0,0,1,.56.44,1.09,1.09,0,0,1,.17.63.49.49,0,0,1-.07.19.23.23,0,0,1-.22.15c-.1,0-.15,0-.17-.1a2.42,2.42,0,0,1-.05-.24.53.53,0,0,0-.1-.24.29.29,0,0,0-.26-.1,1.39,1.39,0,0,1-.35,0,.91.91,0,0,0-.38.08c-.2.06-.52.17-1,.34l-2.07.73a1.45,1.45,0,0,0,0,.48,6.67,6.67,0,0,1-.39,1.47,11.1,11.1,0,0,1-.63,1.29c-.23.37-.51.78-.83,1.24A13.5,13.5,0,0,1,96.29,234.59Zm.34-6.84h.26a.53.53,0,0,0,.32-.1.57.57,0,0,0-.27-.46.76.76,0,0,0-.36-.12.41.41,0,0,0-.44.34C96.14,227.64,96.3,227.75,96.63,227.75Z"/><path class="cls-2" d="M122.42,229.85s0,0,0,0,0,0,0,.05c0,.2-.29.53-.87,1a8.92,8.92,0,0,1-3.15,1.29l-.68.78c-.23.26-.47.52-.73.78a11.92,11.92,0,0,1-1.41,1.36,7.2,7.2,0,0,1-1.46.95,3.68,3.68,0,0,1-1.66.42,1.47,1.47,0,0,1-1.19-.44,1.58,1.58,0,0,1-.37-1.07,2.71,2.71,0,0,1,1-2.07,5.3,5.3,0,0,1,2.9-1.15,21.1,21.1,0,0,0,2.68-4.16,7.53,7.53,0,0,0,.82-2.65c0-.36-.09-.54-.29-.54a1.59,1.59,0,0,0-.75.27,7.28,7.28,0,0,0-1,.68c-.34.28-.68.57-1,.88l-.9.8c-.81,1.1-1.47,2.05-2,2.85s-.91,1.47-1.22,2a10.12,10.12,0,0,0-.68,1.39c-.15.37-.29.7-.42,1l-.12.39c0,.16-.1.34-.17.53s-.12.38-.17.56a1.56,1.56,0,0,0-.07.37.26.26,0,0,1-.2.26c-.13.05-.3,0-.53-.17a3.58,3.58,0,0,1-.68-.63,2.28,2.28,0,0,1-.49-1,5.43,5.43,0,0,1-.1-1,4.42,4.42,0,0,1,.56-1.8c.38-.75.79-1.49,1.24-2.24.52-.91,1.15-2,1.88-3.12s1.45-2.33,2.17-3.5,1.36-2.27,1.94-3.29,1-1.84,1.32-2.46a6,6,0,0,0,.48-1.29,3.37,3.37,0,0,0,.1-.71c0-.12.09-.21.27-.26a.94.94,0,0,1,.66.12,5.44,5.44,0,0,1,1.1,1,2.1,2.1,0,0,1,.43,1.73,7.1,7.1,0,0,1-.86,2.28,45.29,45.29,0,0,1-2.67,4.24,9.19,9.19,0,0,1,1.27-.74,3.05,3.05,0,0,1,1.35-.33,1.83,1.83,0,0,1,1.51.78,3.49,3.49,0,0,1,.59,2.14,7.21,7.21,0,0,1-.38,2.19,10.58,10.58,0,0,1-1.29,2.63,5,5,0,0,0,.8-.31l.9-.44.78-.37a1.89,1.89,0,0,1,.44-.14C122.3,229.8,122.38,229.81,122.42,229.85Zm-10.07,4.77c.52-.52,1-1.06,1.46-1.61a2.9,2.9,0,0,0-1.58,1,2.68,2.68,0,0,0-.36.69c0,.13,0,.19.09.19a.7.7,0,0,0,.25-.1A.32.32,0,0,0,112.35,234.62Z"/><path class="cls-2" d="M121.85,236.18a1.27,1.27,0,0,1-.54-.3,2,2,0,0,1-.41-.43,3.27,3.27,0,0,1-.27-.78,5.43,5.43,0,0,1-.1-1,3.21,3.21,0,0,1,.39-1.41,4.09,4.09,0,0,1,.39-.83l.1-.19h0v0l.73-1.32c.55-1,1-1.8,1.31-2.41s.58-1.07.76-1.41l.39-.73a4.91,4.91,0,0,0,.22-.46,6,6,0,0,0,.48-1.29,3.37,3.37,0,0,0,.1-.71q0-.19.27-.27a1,1,0,0,1,.66.13,5.68,5.68,0,0,1,1.12,1,2.09,2.09,0,0,1,.44,1.73l-.2.78c-.26.52-.54,1-.85,1.56s-.6,1-.88,1.44-.53.81-.75,1.12a5.65,5.65,0,0,0-.44.65,13.31,13.31,0,0,1-1,1.42,7.56,7.56,0,0,0-.92,1.55l-.1.39c0,.13.15.2.34.2a1.92,1.92,0,0,0,1-.56,19.47,19.47,0,0,0,1.51-1.46c.57-.6,1.18-1.29,1.82-2.07l2-2.39,1-1.46.3-.53a3.74,3.74,0,0,1,.22-.51l.31-.71a6.72,6.72,0,0,0,.49-1.29,4.2,4.2,0,0,0,.1-.71c0-.13.09-.22.26-.27a1,1,0,0,1,.66.13,5.41,5.41,0,0,1,1.12,1,2.06,2.06,0,0,1,.44,1.73l-.19.78c-.14.26-.26.51-.37.73a4.39,4.39,0,0,1-.41.68c-.07.17-.16.35-.27.56s-.25.48-.42.81c-.74,1.2-1.34,2.16-1.8,2.87s-.8,1.26-1.05,1.63a8.73,8.73,0,0,0-.46.78,1,1,0,0,0-.09.32c0,.06,0,.1,0,.1a1.93,1.93,0,0,0,.78-.47,16.49,16.49,0,0,0,1.27-1.12c.45-.44.92-.89,1.39-1.36l1.19-1.19a3.45,3.45,0,0,1,.34-.42.68.68,0,0,1,.49-.27.09.09,0,0,1,.07,0,.08.08,0,0,0,.07,0,.43.43,0,0,1,.15.3,1,1,0,0,1-.17.48,4.71,4.71,0,0,1-.61.78c-.29.33-.71.76-1.27,1.29s-1.11,1.06-1.7,1.56a16.25,16.25,0,0,1-1.7,1.29,2.73,2.73,0,0,1-1.27.54,2,2,0,0,1-1.31-.42,1.51,1.51,0,0,1-.54-1.29,4.34,4.34,0,0,1,.15-1.26,7.65,7.65,0,0,1,.68-1.47c-.36.43-.78.91-1.27,1.44a19.56,19.56,0,0,1-1.51,1.51,11.25,11.25,0,0,1-1.51,1.17A1.7,1.7,0,0,1,121.85,236.18Z"/><path class="cls-2" d="M145.07,231.4c-.35.36-.85.82-1.48,1.37s-1.32,1.08-2.05,1.6a14.27,14.27,0,0,1-2.24,1.32,4.93,4.93,0,0,1-2.11.53.68.68,0,0,1-.2,0,.62.62,0,0,0-.19,0h-.05a3.32,3.32,0,0,1-2.36-1,2.87,2.87,0,0,1-.61-1.78,5.46,5.46,0,0,1,.41-2.31c.28-.57.56-1.13.85-1.68a15.55,15.55,0,0,1,1.27-1.88,20.49,20.49,0,0,1,2-2.24,14.37,14.37,0,0,1,2.33-1.87,4.23,4.23,0,0,1,2.24-.78,2.26,2.26,0,0,1,.83.19s0,0,.07,0l.32.19a3.34,3.34,0,0,1,.34.25c.1.08.16.12.2.12a2.51,2.51,0,0,1,.73,1.6,3,3,0,0,1-.9,2,13.14,13.14,0,0,1-2.17,1.89,23.85,23.85,0,0,1-2.58,1.61c-.88.47-1.61.84-2.19,1.1-.17.42-.29.76-.37,1a3,3,0,0,0-.12.88,1.14,1.14,0,0,0,1.27,1.31,2.74,2.74,0,0,0,.7-.22,10.63,10.63,0,0,0,1.41-.7,23.08,23.08,0,0,0,2-1.29,20.87,20.87,0,0,0,2.32-2s.14-.11.34-.34a1.31,1.31,0,0,1,.58-.43.8.8,0,0,1,.24,0,.24.24,0,0,1,.15.25,1.19,1.19,0,0,1-.22.51A3,3,0,0,1,145.07,231.4Zm-6.13-2.14a6.3,6.3,0,0,0-.41.66l-.37.66c1.17-.88,2.12-1.64,2.85-2.29a18.11,18.11,0,0,0,1.7-1.68,4.76,4.76,0,0,0,.81-1.17,2,2,0,0,0,.19-.71.7.7,0,0,0-.1-.29.39.39,0,0,1-.05-.14s-.05,0-.26.14a8.48,8.48,0,0,0-1,.73,14.9,14.9,0,0,0-1.51,1.54A21.64,21.64,0,0,0,138.94,229.26Z"/><path class="cls-2" d="M149,230.14l-.78,1.24c-.2.31-.37.6-.54.88s-.31.56-.46.87-.32.71-.51,1.2l-.39,1.16a.53.53,0,0,0-.15-.17h0s.06.08.19.17a2.33,2.33,0,0,0-.15.69c0,.16-.09.24-.29.24s-.72-.25-1.09-.76a3.39,3.39,0,0,1-.61-2,5,5,0,0,1,.51-1.7c.34-.78.75-1.62,1.24-2.51s1-1.76,1.46-2.6.86-1.51,1.12-2a4.16,4.16,0,0,0,.44-1l.15-.68a2.3,2.3,0,0,1,.09-.39c0-.08.13-.12.3-.12a1.32,1.32,0,0,1,.6.19,2.61,2.61,0,0,1,.69.52,3.55,3.55,0,0,1,.56.77,2.17,2.17,0,0,1,.24,1,1.58,1.58,0,0,1-.22.51c-.15.28-.3.58-.46.9s-.33.63-.49.91a3.34,3.34,0,0,0-.29.56c.26-.3.66-.73,1.22-1.32s1.14-1.17,1.77-1.75a19.78,19.78,0,0,1,1.9-1.56,3,3,0,0,1,1.63-.68,1.63,1.63,0,0,1,1.56.78,3.34,3.34,0,0,1,.44,1.65,4.85,4.85,0,0,1-.15,1.22v0c0,.06-.09.23-.19.51a6,6,0,0,1-.49,1c-.49.81-1,1.61-1.43,2.38l-1.27,2.07-1.29,2.07c0,.1,0,.15.1.15a1.72,1.72,0,0,0,.73-.44c.35-.29.76-.64,1.21-1s.91-.83,1.37-1.29.83-.86,1.12-1.21l.14-.15.37-.46a.6.6,0,0,1,.46-.27c.2,0,.29.13.29.39s-.21.6-.73,1.22a15.6,15.6,0,0,1-1.26,1.31c-.55.52-1.13,1-1.73,1.53a17.35,17.35,0,0,1-1.73,1.3,2.72,2.72,0,0,1-1.27.53,2.18,2.18,0,0,1-1.26-.41,1.43,1.43,0,0,1-.59-1.24,2.75,2.75,0,0,1,.17-1,2.35,2.35,0,0,0,.18-.61,22.18,22.18,0,0,1,1-2.12c.39-.76.78-1.47,1.17-2.12s.92-1.48,1.41-2.19a5.77,5.77,0,0,0,.61-1,1.74,1.74,0,0,0,.17-.64c0-.29-.13-.43-.39-.43a.82.82,0,0,0-.34.09c-1,.91-1.9,1.68-2.58,2.32s-1.36,1.27-2,1.92A12.93,12.93,0,0,0,149,230.14Z"/><path class="cls-2" d="M166.5,234.59a9.4,9.4,0,0,1-1.68,1.1,5.72,5.72,0,0,1-1.51.51,7.57,7.57,0,0,1-1.24.12,4.93,4.93,0,0,1-1-.1l-.39-.09a.29.29,0,0,1-.19,0,3.33,3.33,0,0,1-1.27-.59,2.91,2.91,0,0,1-.75-.9,3.11,3.11,0,0,1-.34-1.07,5,5,0,0,1,0-1.09,5.88,5.88,0,0,1,.47-1.93c.24-.53.39-.88.46-1,.23-.39.58-.94,1.05-1.66a16.09,16.09,0,0,1,1.73-2.17,12.35,12.35,0,0,1,2.28-1.92,5.64,5.64,0,0,1,2.78-.92,3.13,3.13,0,0,1,1.56.24,2.38,2.38,0,0,1,.82.61.54.54,0,0,1,.15.56c-.07.17-.21.2-.44.1a1.36,1.36,0,0,0-.85,0,1.72,1.72,0,0,0-.41.12c.09,0,0,0-.15.07a5.48,5.48,0,0,0-.92.59,11.05,11.05,0,0,0-1.54,1.44,22.75,22.75,0,0,0-2,2.64,25.43,25.43,0,0,0-1.66,2.84,6.8,6.8,0,0,0-.63,2c-.1.75.28,1.13,1.12,1.13a2.63,2.63,0,0,0,1.66-.88,14.91,14.91,0,0,0,1.73-2A20.81,20.81,0,0,0,166.6,230a3,3,0,0,0,.48-1.3,2.28,2.28,0,0,1-.9-.32.75.75,0,0,1-.36-.86,1.73,1.73,0,0,1,.38-1.12,1.85,1.85,0,0,1,.69-.46,1.26,1.26,0,0,1,.61-.1l.21,0a2.52,2.52,0,0,1,1.12.29,2.83,2.83,0,0,1,1,.93,10,10,0,0,1,1.53-.61,5.15,5.15,0,0,1,1.54-.27,2.69,2.69,0,0,1,1.16.2,1.37,1.37,0,0,1,.56.44,1,1,0,0,1,.17.63.49.49,0,0,1-.07.19.23.23,0,0,1-.22.15c-.1,0-.15,0-.17-.1a2.42,2.42,0,0,1-.05-.24.52.52,0,0,0-.09-.24.31.31,0,0,0-.27-.1,1.3,1.3,0,0,1-.34,0,.92.92,0,0,0-.39.08c-.2.06-.51.17-.95.34l-2.07.73a1.79,1.79,0,0,0,0,.48,6.67,6.67,0,0,1-.39,1.47,9.7,9.7,0,0,1-.63,1.29c-.23.37-.51.78-.83,1.24A13.5,13.5,0,0,1,166.5,234.59Zm.34-6.84h.27a.5.5,0,0,0,.31-.1.59.59,0,0,0-.26-.46.83.83,0,0,0-.37-.12.42.42,0,0,0-.44.34C166.35,227.64,166.51,227.75,166.84,227.75Z"/><path class="cls-2" d="M175.75,242a3.32,3.32,0,0,0-.17.78,5.88,5.88,0,0,0-.07.78.28.28,0,0,1-.2.27.62.62,0,0,1-.53-.18,3.94,3.94,0,0,1-.69-.63,2.27,2.27,0,0,1-.48-1,4.66,4.66,0,0,1-.1-1,4.42,4.42,0,0,1,.56-1.8c.37-.74.79-1.49,1.24-2.24s1-1.65,1.58-2.6l1.83-2.92c.62-1,1.21-2,1.78-2.93s1-1.8,1.43-2.55l.54-1.07c.1-.23.18-.43.27-.61l.21-.46a4.9,4.9,0,0,0,.2-.73,3.52,3.52,0,0,0,0-.49q0-.19.27-.27a.92.92,0,0,1,.65.12,4.74,4.74,0,0,1,.54.39,4.12,4.12,0,0,1,.54.56,2.55,2.55,0,0,1,.38.71,1.9,1.9,0,0,1,.1.87s0,.1-.17.39-.31.61-.51.95-.37.66-.51,1-.2.42-.17.39a31.56,31.56,0,0,1,3.8-4.16c1-.83,1.83-1,2.58-.61a2.43,2.43,0,0,1,.9,1,3.54,3.54,0,0,1,.36,1.66,7.42,7.42,0,0,1-.39,2.21,10.28,10.28,0,0,1-1.31,2.61,7.17,7.17,0,0,0,1.36-.44c.2-.06.37-.13.54-.19l.44-.17.29-.12c.39-.13.62-.15.7,0s0,.25-.29.46a8.62,8.62,0,0,1-1.36.78,14.93,14.93,0,0,1-2.51.9c-.23.26-.45.53-.68.8s-.47.55-.73.81a8.78,8.78,0,0,1-1.46,1.41,9.19,9.19,0,0,1-1.51.95,3,3,0,0,1-1.71.31,1.31,1.31,0,0,1-1.19-.65,1.88,1.88,0,0,1-.12-1.37,3.56,3.56,0,0,1,.83-1.46,3.47,3.47,0,0,1,1.75-1l1.22-.24a26,26,0,0,0,1.95-2.85,18.48,18.48,0,0,0,1.16-2.33,4.73,4.73,0,0,0,.39-1.59c0-.39-.09-.58-.29-.58a1.56,1.56,0,0,0-.78.46,14.75,14.75,0,0,0-1.19,1.19c-.44.49-.91,1-1.41,1.64s-1,1.17-1.39,1.72-.8,1.05-1.12,1.49a10.47,10.47,0,0,0-.63.9,34.2,34.2,0,0,1-1.9,2.87c-.78,1.07-1.63,2.34-2.53,3.8A47,47,0,0,0,175.75,242Zm7.59-8c.52-.52,1-1.05,1.46-1.6a2.84,2.84,0,0,0-1.58,1,2.9,2.9,0,0,0-.36.68q0,.24.24.15A.79.79,0,0,0,183.34,234Z"/><path class="cls-2" d="M206.23,229.89a.43.43,0,0,1,.15.3.87.87,0,0,1-.18.46,7.68,7.68,0,0,1-.6.8l-1.15,1.27a20.7,20.7,0,0,1-1.63,1.61,14.16,14.16,0,0,1-1.7,1.31,2.12,2.12,0,0,1-1.42.44,4.58,4.58,0,0,1-1.63-.68,1.71,1.71,0,0,1-.7-1.51,2.11,2.11,0,0,1,.14-.68l.25-.64c-.17.17-.42.44-.75.83s-.7.78-1.09,1.17a10.59,10.59,0,0,1-1.16,1,1.77,1.77,0,0,1-.92.44,2.09,2.09,0,0,1-1.42-.66,2.43,2.43,0,0,1-.7-1.87s0-.28.12-.73a8.57,8.57,0,0,1,.61-1.83,16.42,16.42,0,0,1,4.14-5.62,11.63,11.63,0,0,1,2.63-2,4.44,4.44,0,0,1,2-.56,2.93,2.93,0,0,1,2.2,1,4.77,4.77,0,0,1,1.21,2.14,1.55,1.55,0,0,1,0,.9,1,1,0,0,1-.34.47.51.51,0,0,1-.39.09c-.12,0-.16-.11-.13-.24a2.07,2.07,0,0,0-.12-1.27c-.18-.48-.46-.73-.85-.73a3.23,3.23,0,0,0-1.14.25,4.33,4.33,0,0,0-1.39.92c-.42.39-1,1-1.61,1.68s-1.28,1.49-1.9,2.27a25.18,25.18,0,0,0-1.58,2.21,3.5,3.5,0,0,0-.66,1.49c0,.16,0,.24.1.24A.68.68,0,0,0,195,234c.14-.09.44-.34.89-.73.22-.22.64-.64,1.27-1.24s1.26-1.23,1.91-1.9,1.23-1.27,1.73-1.82.74-.88.71-1c-.1-.35,0-.56.41-.63a2,2,0,0,1,1.19.17,1.81,1.81,0,0,1,.95.9q.31.63-.36,1.56c-.13.19-.41.56-.83,1.09s-.83,1.1-1.24,1.68a13.93,13.93,0,0,0-1,1.59c-.25.47-.26.75,0,.85,0,0,0,0,0,.05s0,0,0,0a2.29,2.29,0,0,0,1.12-.64,19.1,19.1,0,0,0,1.61-1.48l1.58-1.63c.5-.52.87-.88,1.1-1.07C206.07,229.81,206.13,229.83,206.23,229.89Z"/><path class="cls-2" d="M207.74,230c0-.16.1-.63.22-1.41a22.68,22.68,0,0,1,.85-3.31,5.24,5.24,0,0,1,.71-1.51,3.94,3.94,0,0,1,1-1.07,2.55,2.55,0,0,1,1.25-.44,2.17,2.17,0,0,1,1.33.39,5.69,5.69,0,0,1,1.39,1.07,4.94,4.94,0,0,1,.71.83.65.65,0,0,1,.07.34.62.62,0,0,0,0,.19.56.56,0,0,1-.3.27.27.27,0,0,1-.29,0,.53.53,0,0,1-.12-.2,1.46,1.46,0,0,0-.07-.19,1.32,1.32,0,0,0-.81-.49,1.29,1.29,0,0,0-.77.15,2,2,0,0,0-.61.48,1.35,1.35,0,0,0-.3.54c-.35,1.14-.61,2-.77,2.65a6.46,6.46,0,0,0-.25,1.2v.24a14,14,0,0,0,2-.29l1.73-.39.1-.05.12,0,.17,0c.26,0,.39.11.39.34s-.38.65-1.14.88a31.18,31.18,0,0,1-3.49.73c-.13.52-.27,1-.43,1.51s-.35.85-.56,1.29a3.91,3.91,0,0,1-.76,1.09l-.24.2a4.29,4.29,0,0,1-1.32.88,4.07,4.07,0,0,1-1.6.34,2,2,0,0,1-1.44-.47,1.55,1.55,0,0,1-.46-1.14,3.7,3.7,0,0,1,.22-1.12,5.45,5.45,0,0,1,.65-1.36,7.29,7.29,0,0,1,1-1.25,3,3,0,0,1,1.31-.75.81.81,0,0,0,.39-.1v0Zm-.39,1.36a2.4,2.4,0,0,0-1,.66,5.77,5.77,0,0,0-.68,1,4.88,4.88,0,0,0-.39.88,3.07,3.07,0,0,0-.12.44c0,.09,0,.14.1.14a.91.91,0,0,0,.44-.24,3.84,3.84,0,0,0,.6-.68,7.79,7.79,0,0,0,.61-1A5,5,0,0,0,207.35,231.35Z"/><path class="cls-2" d="M227.85,229.89a.42.42,0,0,1,.14.3.84.84,0,0,1-.17.46,7.68,7.68,0,0,1-.6.8l-1.15,1.27a20.7,20.7,0,0,1-1.63,1.61,14.16,14.16,0,0,1-1.7,1.31,2.12,2.12,0,0,1-1.42.44,4.58,4.58,0,0,1-1.63-.68,1.71,1.71,0,0,1-.7-1.51,2.11,2.11,0,0,1,.14-.68l.25-.64c-.17.17-.42.44-.76.83s-.7.78-1.08,1.17a10.59,10.59,0,0,1-1.16,1,1.77,1.77,0,0,1-.92.44,2.09,2.09,0,0,1-1.42-.66,2.43,2.43,0,0,1-.7-1.87s0-.28.12-.73a8.57,8.57,0,0,1,.61-1.83,15.94,15.94,0,0,1,1.46-2.6,16.62,16.62,0,0,1,2.68-3,11.63,11.63,0,0,1,2.63-2,4.44,4.44,0,0,1,2-.56,2.93,2.93,0,0,1,2.2,1,4.77,4.77,0,0,1,1.21,2.14,1.55,1.55,0,0,1,0,.9,1,1,0,0,1-.34.47.51.51,0,0,1-.39.09c-.12,0-.16-.11-.13-.24a2.07,2.07,0,0,0-.12-1.27c-.18-.48-.46-.73-.85-.73a3.19,3.19,0,0,0-1.14.25,4.33,4.33,0,0,0-1.39.92c-.42.39-1,1-1.61,1.68s-1.28,1.49-1.9,2.27a25.18,25.18,0,0,0-1.58,2.21,3.5,3.5,0,0,0-.66,1.49c0,.16,0,.24.1.24a.68.68,0,0,0,.31-.15,10.23,10.23,0,0,0,.88-.73c.23-.22.65-.64,1.28-1.24s1.26-1.23,1.91-1.9,1.23-1.27,1.73-1.82.74-.88.71-1c-.1-.35,0-.56.41-.63a2,2,0,0,1,1.19.17,1.81,1.81,0,0,1,.95.9q.31.63-.36,1.56c-.13.19-.41.56-.83,1.09s-.84,1.1-1.24,1.68a15.8,15.8,0,0,0-1,1.59c-.24.47-.25.75,0,.85,0,0,0,0,0,.05s0,0,0,0a2.29,2.29,0,0,0,1.12-.64,19.1,19.1,0,0,0,1.61-1.48l1.58-1.63c.5-.52.87-.88,1.09-1.07C227.69,229.81,227.75,229.83,227.85,229.89Z"/><path class="cls-2" d="M242.18,114.49h-6.44v39.45H266.5v-5.89H242.18Zm-22.1,60.36,4.32-8,4.22,8Zm3.06-10-9.41,17.4H216l3.21-5.86h10.25l3.19,5.86h2.41l-9.47-17.4Zm-26.92,0H194v10.84a7.29,7.29,0,0,0,.83,3.62c1.52,2.61,4.62,3.24,6.67,3.24s5.16-.63,6.68-3.24a7.29,7.29,0,0,0,.83-3.62V164.88h-2.2v10.84a5.69,5.69,0,0,1-.75,3.15,5.92,5.92,0,0,1-9.11,0,5.69,5.69,0,0,1-.75-3.15Zm-10.28-10.94h7.21l15.16-30.89,15.57,30.89h7.34L211.8,114.49h-6.27Zm-10,0V120.27h15v-5.78H154.57v5.78h15v33.67Zm-11,19.64c0,4.8,5.24,9,11.83,9,5.41,0,11.13-3.12,11.64-8.29H173.44v1.57h12.3c-.77,2.42-4.23,5.15-8.9,5.15-5.66,0-9.72-3.53-9.72-7.41s4.06-7.45,9.63-7.45c3.66,0,6.58,1.65,7.83,3.36h2.56c-.86-1.76-4.59-4.94-10.42-4.94-7.06,0-11.8,4.49-11.8,9m-18.61,1.27,4.32-8,4.23,8Zm3.07-10L140,182.28h2.29l3.21-5.86h10.25l3.19,5.86h2.41l-9.47-17.4Zm-34.79,8.72c0,5.15,5.36,9,11.53,9,3.54,0,7.8-1.45,10.15-4.86H133.8a10.5,10.5,0,0,1-7.71,3.29c-4.77,0-9.3-3.31-9.3-7.38,0-3.88,4.12-7.46,9.27-7.46,1.34,0,5.24.33,7.65,3.18h2.47c-.86-1.62-4.43-4.75-10.09-4.75-6.29,0-11.5,3.85-11.5,9m1.75-53.28H136c2.25,0,4.58.1,6.05,2.53a7,7,0,0,1,1,3.72,6,6,0,0,1-1.13,3.7C140,133,136.45,133,133.86,133H116.34Zm19.18-5.83H110v39.45h6.43V138.67h16.82l12.42,15.27h8.42L140.37,137.6c3.14-.65,9.33-2.67,9.33-11.23a11.26,11.26,0,0,0-3.46-8.63c-3.34-3.13-7.4-3.2-10.72-3.25M94.4,164.88h-3v17.4h2.2V167h.06l13.08,15.31H109v-17.4h-2.21v14.44h-.06Zm-22.63,10,4.31-8,4.24,8Zm3.07-10-9.42,17.4h2.3l3.21-5.86H81.18l3.19,5.86h2.41l-9.47-17.4Zm-9.46-30.5c0-10.67,8.15-14.7,15.77-14.92h.68c10,0,16.46,5.79,16.46,14.77,0,3.47-1.17,14.81-16.22,14.81-6.14,0-10.72-1.79-13.62-5.31a14.65,14.65,0,0,1-3.07-9.34M59,134.7c0,8.56,4.18,13.39,7.68,15.92,3.89,2.89,9.09,4.35,15.44,4.35,11.3,0,22.7-6.25,22.7-20.21,0-12.62-9.26-21.13-23.06-21.19C70.38,113.57,59,120.1,59,134.7m-6.36,30.18H47v17.4h2.2V166.46H53a10.26,10.26,0,0,1,4.29.65,3.8,3.8,0,0,1,2.42,3.34c0,1.56-1.23,3.15-3.64,3.7a21.15,21.15,0,0,1-4.73.25l7.47,7.88h2.77l-6.22-6.49c4.26-.21,6.55-2.77,6.55-5.29,0-2.14-1.46-4-3.93-5a15.33,15.33,0,0,0-5.42-.66m-16.13-.35H17.15v18H36.46Zm2.63-44.26c2.57,0,5.77,0,7.72,2a5.84,5.84,0,0,1,1.54,4.23,6,6,0,0,1-2.49,5.07c-1.76,1.24-4.22,1.24-6.2,1.24H23.34V120.27Zm.78-5.78h-23v39.45h6.53V138.67h17c3.53,0,9.43,0,12.83-4.92a12.63,12.63,0,0,0,2-7,12.12,12.12,0,0,0-3.8-9c-2.68-2.38-6-3.35-11.58-3.35M215.26,69.08a8.48,8.48,0,1,1-8.48-8.77,8.63,8.63,0,0,1,8.48,8.77m5.82,33.41h45.45V90.86h-.13V90.5h-38a99.79,99.79,0,0,0-7.88-13.36,16.43,16.43,0,0,0,2-7.92c0-9-7.08-16.34-15.79-16.34A15,15,0,0,0,199,55,94,94,0,0,0,142,35.8c-36.37,0-69.82,21.67-86.32,54.91H16.89v11.68H63.07v-.34h0l.21-.51c13.44-32.78,44.33-54,78.69-54a82.8,82.8,0,0,1,49.77,16.58A16.79,16.79,0,0,0,191,69.3c0,9,7,16.23,15.68,16.23a15.7,15.7,0,0,0,4.9-.83,90,90,0,0,1,9.24,16.86l.21.52h.1Zm45.53,62.05h-19.3v18h19.3Z"/></g></svg>