<svg xmlns="http://www.w3.org/2000/svg" viewBox="0 0 283.46 283.46"><defs><style>.cls-1{fill:#7c7c7b;}.cls-2{fill:#fff;}</style></defs><title>LOGOS PORTAL (BLANCO)</title><g id="Capa_2" data-name="Capa 2"><rect class="cls-1" width="283.46" height="283.46"/></g><g id="Capa_1" data-name="Capa 1"><path class="cls-2" d="M43.21,210.85a3.52,3.52,0,0,1-.83,1,3.76,3.76,0,0,1-1.14.64,4.12,4.12,0,0,1-1.38.23,4,4,0,0,1-1.54-.3A3.77,3.77,0,0,1,37,211.6a3.14,3.14,0,0,1-.6-.81,3.63,3.63,0,0,1-.31-.93,8,8,0,0,1-.11-1.18c0-.44,0-1,0-1.54s0-1.1,0-1.54a8,8,0,0,1,.11-1.18,3.71,3.71,0,0,1,.31-.94,3.1,3.1,0,0,1,.6-.8,4,4,0,0,1,1.28-.86,4.24,4.24,0,0,1,2.92-.06,3.56,3.56,0,0,1,1.14.64,3.52,3.52,0,0,1,.83,1,4.6,4.6,0,0,1,.48,1.38H42.48a3,3,0,0,0-.9-1.62,2.51,2.51,0,0,0-1.72-.61,2.73,2.73,0,0,0-1,.21,2.4,2.4,0,0,0-.86.57,2.18,2.18,0,0,0-.41.56,2.84,2.84,0,0,0-.24.73,8.8,8.8,0,0,0-.1,1c0,.4,0,.89,0,1.47s0,1.06,0,1.46a8.37,8.37,0,0,0,.1,1,2.61,2.61,0,0,0,.24.73,2.41,2.41,0,0,0,1.27,1.14,2.72,2.72,0,0,0,1,.2,2.55,2.55,0,0,0,1.73-.6,2.88,2.88,0,0,0,.92-1.63h1.18A4.57,4.57,0,0,1,43.21,210.85Z"/><path class="cls-2" d="M55.4,210.52a3.52,3.52,0,0,1-.8,1.19,4,4,0,0,1-1.22.77,4.59,4.59,0,0,1-1.55.27,4.53,4.53,0,0,1-1.54-.27,3.68,3.68,0,0,1-1.21-.77,3.52,3.52,0,0,1-.8-1.19A3.91,3.91,0,0,1,48,209v-7.39h1.18v7.3a3.23,3.23,0,0,0,.19,1.15,2.27,2.27,0,0,0,.53.86,2.34,2.34,0,0,0,.84.56,2.8,2.8,0,0,0,1.1.2,2.77,2.77,0,0,0,1.1-.2,2.38,2.38,0,0,0,.85-.56,2.43,2.43,0,0,0,.54-.86,3.23,3.23,0,0,0,.19-1.15v-7.3h1.18V209A3.73,3.73,0,0,1,55.4,210.52Z"/><path class="cls-2" d="M67,212.65l-.88-2.49H61.31l-.88,2.49H59.18l4-11h1l4,11Zm-3.26-9.34-2.08,5.83h4.12Z"/><path class="cls-2" d="M78.94,212.65l-5.85-8.84v8.84H71.91v-11H73l5.86,8.82v-8.82h1.18v11Z"/><path class="cls-2" d="M92.75,208.22a8.55,8.55,0,0,1-.1,1.25,5.05,5.05,0,0,1-.32,1.17,3,3,0,0,1-.66,1,3.37,3.37,0,0,1-1.2.76,4.72,4.72,0,0,1-1.58.26H85.11v-11h3.78a4.48,4.48,0,0,1,1.58.27,3.24,3.24,0,0,1,1.2.76,3,3,0,0,1,.66.95,4.48,4.48,0,0,1,.32,1.08,7.46,7.46,0,0,1,.1,1.16c0,.4,0,.79,0,1.17S92.76,207.8,92.75,208.22ZM91.57,206a5.86,5.86,0,0,0-.07-1,3.87,3.87,0,0,0-.21-.86,2.19,2.19,0,0,0-.44-.7,2.27,2.27,0,0,0-1-.62,3.76,3.76,0,0,0-1.19-.18H86.28v8.92h2.41a3.76,3.76,0,0,0,1.19-.18,2.39,2.39,0,0,0,1-.63,2,2,0,0,0,.44-.73,4.7,4.7,0,0,0,.21-.95,7,7,0,0,0,.07-1c0-.36,0-.71,0-1.06S91.58,206.34,91.57,206Z"/><path class="cls-2" d="M104.67,208.68a6.81,6.81,0,0,1-.12,1.18,3.62,3.62,0,0,1-.3.93,3.14,3.14,0,0,1-.6.81,3.83,3.83,0,0,1-1.27.85,4,4,0,0,1-1.55.3A3.84,3.84,0,0,1,98,211.6a3.14,3.14,0,0,1-.6-.81,3.63,3.63,0,0,1-.31-.93,8,8,0,0,1-.11-1.18c0-.44,0-1,0-1.54s0-1.1,0-1.54a8,8,0,0,1,.11-1.18,3.71,3.71,0,0,1,.31-.94,3.1,3.1,0,0,1,.6-.8,4,4,0,0,1,5.64,0,3.1,3.1,0,0,1,.6.8,3.7,3.7,0,0,1,.3.94,6.81,6.81,0,0,1,.12,1.18c0,.44,0,1,0,1.54S104.68,208.24,104.67,208.68Zm-1.18-3a6.63,6.63,0,0,0-.11-1,2.34,2.34,0,0,0-.23-.72,2.2,2.2,0,0,0-.42-.57,2.57,2.57,0,0,0-.85-.58,2.7,2.7,0,0,0-3,.58,2.41,2.41,0,0,0-.41.57,2.64,2.64,0,0,0-.24.72,8.39,8.39,0,0,0-.1,1c0,.4,0,.89,0,1.47s0,1.06,0,1.46a8.37,8.37,0,0,0,.1,1,2.64,2.64,0,0,0,.24.72,2.18,2.18,0,0,0,.41.56,2.56,2.56,0,0,0,.86.58,2.73,2.73,0,0,0,2.1,0,2.42,2.42,0,0,0,.85-.58,2,2,0,0,0,.42-.56,2.34,2.34,0,0,0,.23-.72,6.63,6.63,0,0,0,.11-1c0-.4,0-.88,0-1.46S103.5,206.07,103.49,205.67Z"/><path class="cls-2" d="M122.07,212.65l-5.86-8.84v8.84H115v-11h1.12l5.86,8.82v-8.82h1.17v11Z"/><path class="cls-2" d="M135.51,208.68a8,8,0,0,1-.11,1.18,3.63,3.63,0,0,1-.31.93,3.14,3.14,0,0,1-.6.81,3.83,3.83,0,0,1-1.27.85,4,4,0,0,1-1.55.3,3.86,3.86,0,0,1-2.82-1.15,2.88,2.88,0,0,1-.59-.81,3.28,3.28,0,0,1-.31-.93,6.81,6.81,0,0,1-.12-1.18c0-.44,0-1,0-1.54s0-1.1,0-1.54a6.81,6.81,0,0,1,.12-1.18,3.35,3.35,0,0,1,.31-.94,2.84,2.84,0,0,1,.59-.8,4,4,0,0,1,5.64,0,3.1,3.1,0,0,1,.6.8,3.71,3.71,0,0,1,.31.94,8,8,0,0,1,.11,1.18c0,.44,0,1,0,1.54S135.52,208.24,135.51,208.68Zm-1.18-3a8.39,8.39,0,0,0-.1-1,2.64,2.64,0,0,0-.24-.72,2.41,2.41,0,0,0-.41-.57,2.68,2.68,0,0,0-1.91-.79,2.65,2.65,0,0,0-1,.21,2.51,2.51,0,0,0-.86.58,2.2,2.2,0,0,0-.42.57,2.34,2.34,0,0,0-.23.72,6.63,6.63,0,0,0-.11,1c0,.4,0,.89,0,1.47s0,1.06,0,1.46a6.63,6.63,0,0,0,.11,1,2.34,2.34,0,0,0,.23.72,2,2,0,0,0,.42.56,2.38,2.38,0,0,0,.86.58,2.65,2.65,0,0,0,1,.21,2.73,2.73,0,0,0,1.05-.21,2.56,2.56,0,0,0,.86-.58,2.18,2.18,0,0,0,.41-.56,2.64,2.64,0,0,0,.24-.72,8.37,8.37,0,0,0,.1-1c0-.4,0-.88,0-1.46S134.34,206.07,134.33,205.67Z"/><path class="cls-2" d="M146.53,210.93a2.82,2.82,0,0,1-.77,1,3.74,3.74,0,0,1-1.21.62,5.44,5.44,0,0,1-1.56.22,5.85,5.85,0,0,1-2.12-.35,4.66,4.66,0,0,1-1.66-1.11l.81-.81a3.9,3.9,0,0,0,1.38,1,4.5,4.5,0,0,0,1.63.26,3.08,3.08,0,0,0,1.9-.53,1.79,1.79,0,0,0,.7-1.51,2.47,2.47,0,0,0-.13-.79,1.38,1.38,0,0,0-.4-.59,1.44,1.44,0,0,0-.55-.33,4.84,4.84,0,0,0-.89-.2l-1.28-.2a3.92,3.92,0,0,1-2-.84,2.6,2.6,0,0,1-.84-2.06,3.1,3.1,0,0,1,.25-1.27,2.7,2.7,0,0,1,.7-1,3.08,3.08,0,0,1,1.11-.62,4.45,4.45,0,0,1,1.47-.23,5.13,5.13,0,0,1,1.81.29,4.67,4.67,0,0,1,1.47.92l-.75.76a3.89,3.89,0,0,0-1.1-.71,4,4,0,0,0-1.48-.24,2.43,2.43,0,0,0-1.71.56,1.91,1.91,0,0,0-.61,1.49,1.6,1.6,0,0,0,.5,1.27,2.36,2.36,0,0,0,.65.37,4.63,4.63,0,0,0,.83.23l1.21.19c.26,0,.49.08.69.13a5,5,0,0,1,.54.16,2.74,2.74,0,0,1,.42.21,3.18,3.18,0,0,1,.37.27,2.72,2.72,0,0,1,.92,2.19A3.1,3.1,0,0,1,146.53,210.93Z"/><path class="cls-2" d="M161.31,210.74a3,3,0,0,1-.71,1.08,3.16,3.16,0,0,1-1.09.69,3.81,3.81,0,0,1-1.38.24,3.77,3.77,0,0,1-1.4-.24,3.18,3.18,0,0,1-1.13-.76l.79-.79a2.67,2.67,0,0,0,.68.52,2.19,2.19,0,0,0,1.06.21,2.12,2.12,0,0,0,1.67-.66,2.72,2.72,0,0,0,.59-1.88v-7.53h1.18v7.69A3.87,3.87,0,0,1,161.31,210.74Z"/><path class="cls-2" d="M173.72,210.52a3.4,3.4,0,0,1-.81,1.19,3.73,3.73,0,0,1-1.22.77,4.53,4.53,0,0,1-3.08,0,3.73,3.73,0,0,1-1.22-.77,3.52,3.52,0,0,1-.8-1.19,3.9,3.9,0,0,1-.28-1.51v-7.39h1.17v7.3a3.47,3.47,0,0,0,.19,1.15,2.18,2.18,0,0,0,.54.86,2.34,2.34,0,0,0,.84.56,3.13,3.13,0,0,0,2.2,0,2.34,2.34,0,0,0,.84-.56,2.29,2.29,0,0,0,.54-.86,3.23,3.23,0,0,0,.2-1.15v-7.3H174V209A3.91,3.91,0,0,1,173.72,210.52Z"/><path class="cls-2" d="M185.93,212.65l-5.85-8.84v8.84H178.9v-11H180l5.85,8.82v-8.82h1.18v11Z"/><path class="cls-2" d="M195.34,202.68v10h-1.18v-10H191v-1.06h7.56v1.06Z"/><path class="cls-2" d="M208,212.65l-.89-2.49h-4.81l-.89,2.49h-1.25l4.06-11h1l4,11Zm-3.27-9.34-2.08,5.83h4.12Z"/><path class="cls-2" d="M221.11,212.65v-8.38l-3,6.65h-1L214,204.27v8.38h-1.18v-11H214l3.59,7.83,3.5-7.83h1.18v11Z"/><path class="cls-2" d="M234.62,208.68a6.81,6.81,0,0,1-.12,1.18,3.28,3.28,0,0,1-.31.93,3.09,3.09,0,0,1-.59.81,3.83,3.83,0,0,1-1.27.85,4,4,0,0,1-1.55.3A3.84,3.84,0,0,1,228,211.6a3.14,3.14,0,0,1-.6-.81,3.63,3.63,0,0,1-.31-.93,8,8,0,0,1-.11-1.18c0-.44,0-1,0-1.54s0-1.1,0-1.54a8,8,0,0,1,.11-1.18,3.71,3.71,0,0,1,.31-.94,3.1,3.1,0,0,1,.6-.8,4,4,0,0,1,5.64,0,3.05,3.05,0,0,1,.59.8,3.35,3.35,0,0,1,.31.94,6.81,6.81,0,0,1,.12,1.18c0,.44,0,1,0,1.54S234.63,208.24,234.62,208.68Zm-1.19-3a5.64,5.64,0,0,0-.1-1,2.34,2.34,0,0,0-.23-.72,2.2,2.2,0,0,0-.42-.57,2.51,2.51,0,0,0-.86-.58,2.65,2.65,0,0,0-1-.21,2.68,2.68,0,0,0-1.91.79,2.41,2.41,0,0,0-.41.57,2.34,2.34,0,0,0-.24.72,8.39,8.39,0,0,0-.1,1c0,.4,0,.89,0,1.47s0,1.06,0,1.46a8.37,8.37,0,0,0,.1,1,2.34,2.34,0,0,0,.24.72,2.18,2.18,0,0,0,.41.56,2.56,2.56,0,0,0,.86.58,2.73,2.73,0,0,0,1.05.21,2.65,2.65,0,0,0,1-.21,2.38,2.38,0,0,0,.86-.58,2,2,0,0,0,.42-.56,2.34,2.34,0,0,0,.23-.72,5.67,5.67,0,0,0,.1-1c0-.4,0-.88,0-1.46S233.45,206.07,233.43,205.67Z"/><path class="cls-2" d="M245.64,210.93a2.82,2.82,0,0,1-.77,1,3.74,3.74,0,0,1-1.21.62,5.44,5.44,0,0,1-1.56.22,5.85,5.85,0,0,1-2.12-.35,4.66,4.66,0,0,1-1.66-1.11l.81-.81a3.9,3.9,0,0,0,1.38,1,4.44,4.44,0,0,0,1.62.26,3.12,3.12,0,0,0,1.91-.53,1.8,1.8,0,0,0,.69-1.51,2.22,2.22,0,0,0-.13-.79,1.36,1.36,0,0,0-.39-.59,1.52,1.52,0,0,0-.55-.33,4.84,4.84,0,0,0-.89-.2l-1.29-.2a4,4,0,0,1-2-.84,2.59,2.59,0,0,1-.83-2.06,3.27,3.27,0,0,1,.24-1.27,2.73,2.73,0,0,1,.71-1,3,3,0,0,1,1.11-.62,4.45,4.45,0,0,1,1.47-.23,5.13,5.13,0,0,1,1.81.29,4.67,4.67,0,0,1,1.47.92l-.76.76a3.63,3.63,0,0,0-1.1-.71,3.9,3.9,0,0,0-1.47-.24,2.47,2.47,0,0,0-1.72.56,1.94,1.94,0,0,0-.6,1.49,1.59,1.59,0,0,0,.49,1.27,2.59,2.59,0,0,0,.66.37,4.63,4.63,0,0,0,.83.23l1.21.19c.26,0,.49.08.69.13a4.24,4.24,0,0,1,.53.16,2.46,2.46,0,0,1,.43.21,2.42,2.42,0,0,1,.36.27,2.73,2.73,0,0,1,.93,2.19A3.1,3.1,0,0,1,245.64,210.93Z"/><path class="cls-2" d="M69.21,229.94a.43.43,0,0,1,.15.3.93.93,0,0,1-.17.46,8.15,8.15,0,0,1-.61.8l-1.14,1.27a22.43,22.43,0,0,1-1.63,1.6,15.21,15.21,0,0,1-1.71,1.32,2.09,2.09,0,0,1-1.41.44,4.5,4.5,0,0,1-1.63-.68,1.72,1.72,0,0,1-.71-1.51,2,2,0,0,1,.15-.69l.24-.63c-.16.16-.41.44-.75.83s-.7.78-1.09,1.17a9.74,9.74,0,0,1-1.16,1,1.75,1.75,0,0,1-.91.44,2.11,2.11,0,0,1-1.43-.66,2.47,2.47,0,0,1-.7-1.87s0-.28.13-.73a9,9,0,0,1,.6-1.83,17.6,17.6,0,0,1,1.46-2.6,17,17,0,0,1,2.68-3,12.53,12.53,0,0,1,2.63-2,4.61,4.61,0,0,1,2-.56,2.94,2.94,0,0,1,2.19,1A4.79,4.79,0,0,1,67.61,226a1.53,1.53,0,0,1,0,.9.87.87,0,0,1-.34.46.48.48,0,0,1-.39.1q-.16,0-.12-.24a2.07,2.07,0,0,0-.12-1.27c-.18-.48-.46-.73-.85-.73a3.23,3.23,0,0,0-1.15.25,4.33,4.33,0,0,0-1.39.92c-.42.39-1,.95-1.6,1.68s-1.29,1.49-1.9,2.26a22.8,22.8,0,0,0-1.58,2.22,3.53,3.53,0,0,0-.66,1.48c0,.17,0,.25.09.25a.7.7,0,0,0,.32-.15c.14-.1.43-.34.88-.73l1.27-1.24c.63-.6,1.27-1.23,1.92-1.9s1.22-1.27,1.73-1.82.73-.88.7-1q-.15-.54.42-.63a2,2,0,0,1,1.19.17,1.85,1.85,0,0,1,1,.9c.21.42.09.94-.37,1.56-.13.19-.4.56-.82,1.09s-.84,1.1-1.25,1.68a15.53,15.53,0,0,0-1,1.59c-.24.47-.25.75,0,.85,0,0,0,0,0,0s0,.05,0,.05a2.38,2.38,0,0,0,1.12-.64,17.67,17.67,0,0,0,1.61-1.48L67.92,231c.51-.52.87-.88,1.1-1.07C69.05,229.86,69.12,229.88,69.21,229.94Z"/><path class="cls-2" d="M74.47,226.83q-1.26,1.95-2.36,3.67a24.89,24.89,0,0,0-1.58,2.8c-.1.23-.2.5-.32.81s-.1.48,0,.51.31,0,.65-.32.75-.62,1.22-1.05.94-.86,1.41-1.33.87-.89,1.2-1.25l.14-.14a3.61,3.61,0,0,1,.44-.54c.2-.19.37-.22.54-.09s.21.21.14.43a3.15,3.15,0,0,1-.78,1.07,11.23,11.23,0,0,1-1,1.15c-.51.5-1,1-1.61,1.51s-1.12.95-1.66,1.34a2.87,2.87,0,0,1-1.29.63,1.31,1.31,0,0,1-.65,0,3.91,3.91,0,0,1-.61-.17,1,1,0,0,1-.42-.34l-.17-.29v-.1a1.29,1.29,0,0,1-.24-.7c0-.31-.05-.55-.05-.71a4.42,4.42,0,0,1,.56-1.8c.37-.75.79-1.49,1.24-2.24l.49-.83a12.84,12.84,0,0,1,1-1.73c.37-.56.75-1.16,1.14-1.77q1.71-2.73,2.85-4.6a32.3,32.3,0,0,0,1.73-3.15,6.72,6.72,0,0,0,.49-1.29,4.11,4.11,0,0,0,.1-.7c0-.13.08-.22.26-.27a.94.94,0,0,1,.66.12,5.49,5.49,0,0,1,1.12,1,2,2,0,0,1,.44,1.73c-.07.26-.12.53-.17.83a4.32,4.32,0,0,1-.42,1.12,5,5,0,0,1-.26.48c-.09.13-.18.29-.3.47s-.27.4-.48.68-.48.67-.81,1.19L75,226.05a4.56,4.56,0,0,0-.27.39C74.61,226.57,74.54,226.7,74.47,226.83Z"/><path class="cls-2" d="M89.13,229.94a.43.43,0,0,1,.15.3c0,.22-.2.65-.69,1.26-.22.29-.57.72-1,1.27s-1,1.09-1.51,1.6a13.64,13.64,0,0,1-1.58,1.32,2,2,0,0,1-1.37.44.56.56,0,0,0-.29,0c-.78,1.13-1.62,2.38-2.51,3.72a43.05,43.05,0,0,1-2.8,3.78,19.54,19.54,0,0,1-3,2.94,4.77,4.77,0,0,1-3,1.2,5,5,0,0,1-2.07-.39,4.17,4.17,0,0,1-1.39-1,4.5,4.5,0,0,1-.82-1.41,5.64,5.64,0,0,1-.34-1.68,8.52,8.52,0,0,1,.14-2.8,5.64,5.64,0,0,1,.81-1.88A3.33,3.33,0,0,1,69,237.49a2.77,2.77,0,0,1,1.29-.34,3.72,3.72,0,0,1,1.39.22c.38.15.58.32.61.51a.32.32,0,0,1-.15.29.4.4,0,0,1-.24.1.3.3,0,0,1-.19-.07.34.34,0,0,0-.2-.08c-.1,0-.23.08-.41.25a4.23,4.23,0,0,0-.71,1.07,7.23,7.23,0,0,0-.75,1.46,8.33,8.33,0,0,0-.39,1.41,10.64,10.64,0,0,0-.15,1.24c0,.38,0,.66,0,.85a3.38,3.38,0,0,0,.22,1.1,2,2,0,0,0,.41.66,1.72,1.72,0,0,0,.54.44,3.64,3.64,0,0,0,2.24-1.29,29.14,29.14,0,0,0,2.7-3.14q1.38-1.86,2.7-4c.88-1.42,1.62-2.67,2.24-3.78l.68-1.8-.66.83a15.22,15.22,0,0,1-1,1.17,12.51,12.51,0,0,1-1.09,1,1.62,1.62,0,0,1-.83.44,2.3,2.3,0,0,1-1.49-.66,2.68,2.68,0,0,1-.85-1.87s0-.28,0-.73A7.58,7.58,0,0,1,75.4,231a14.24,14.24,0,0,1,3.7-5.62,11.29,11.29,0,0,1,2.48-2,4.36,4.36,0,0,1,2-.56,3.15,3.15,0,0,1,2.26,1A5.31,5.31,0,0,1,87.18,226a1.33,1.33,0,0,1,.07.9,1,1,0,0,1-.31.46.42.42,0,0,1-.37.1q-.16,0-.12-.24a1.5,1.5,0,0,0,0-.59,3.83,3.83,0,0,0-.22-.65,1.78,1.78,0,0,0-.39-.54.76.76,0,0,0-.54-.22,3,3,0,0,0-1.12.25,3.89,3.89,0,0,0-1.31.92c-.39.39-.89.95-1.49,1.68s-1.17,1.49-1.73,2.26a25,25,0,0,0-1.41,2.22,3,3,0,0,0-.53,1.48c.06.17.11.25.14.25a.7.7,0,0,0,.32-.15,7,7,0,0,0,.8-.73c.23-.22.64-.64,1.22-1.24s1.18-1.23,1.78-1.9,1.12-1.27,1.58-1.82.66-.88.63-1c-.13-.36,0-.57.37-.63a2,2,0,0,1,1.19.17,2.07,2.07,0,0,1,1,.9,1.48,1.48,0,0,1-.22,1.56l-.75,1.09c-.38.54-.74,1.1-1.1,1.68a14.25,14.25,0,0,0-.85,1.59c-.21.47-.21.75,0,.85,0,0,.05,0,.05,0a0,0,0,0,0,0,.05,2.17,2.17,0,0,0,1.07-.64,15.91,15.91,0,0,0,1.49-1.48c.5-.57,1-1.11,1.46-1.63s.8-.88,1-1.07C89,229.86,89,229.88,89.13,229.94Z"/><path class="cls-2" d="M96.29,234.64a9.4,9.4,0,0,1-1.68,1.1,5.72,5.72,0,0,1-1.51.51,7.57,7.57,0,0,1-1.24.12,4.93,4.93,0,0,1-1-.1l-.39-.09a.29.29,0,0,1-.19-.05,3.33,3.33,0,0,1-1.27-.59,2.91,2.91,0,0,1-.75-.9,3.18,3.18,0,0,1-.34-1.07,5,5,0,0,1,0-1.09,5.88,5.88,0,0,1,.47-1.93c.24-.53.39-.88.46-1,.23-.39.58-.95,1-1.66a16,16,0,0,1,1.72-2.17,12.75,12.75,0,0,1,2.29-1.92,5.76,5.76,0,0,1,2.78-.93,3.12,3.12,0,0,1,1.56.25,2.26,2.26,0,0,1,.82.61.57.57,0,0,1,.15.56c-.07.17-.21.2-.44.1a1.29,1.29,0,0,0-.85,0,1.72,1.72,0,0,0-.41.12c.09,0,0,0-.15.07a5.08,5.08,0,0,0-.93.59,11.67,11.67,0,0,0-1.53,1.44,22.75,22.75,0,0,0-2,2.64A26.39,26.39,0,0,0,91.17,232a6.85,6.85,0,0,0-.63,2c-.1.75.28,1.13,1.12,1.13a2.61,2.61,0,0,0,1.66-.89,14.22,14.22,0,0,0,1.73-2,19,19,0,0,0,1.33-2.13,3,3,0,0,0,.49-1.3,2.28,2.28,0,0,1-.9-.32.75.75,0,0,1-.36-.86,1.73,1.73,0,0,1,.38-1.12,2,2,0,0,1,.69-.47,1.37,1.37,0,0,1,.61-.09l.21,0a2.56,2.56,0,0,1,1.12.29,2.91,2.91,0,0,1,1,.93,10,10,0,0,1,1.53-.61,5.15,5.15,0,0,1,1.53-.27,2.7,2.7,0,0,1,1.17.2,1.45,1.45,0,0,1,.56.43,1.07,1.07,0,0,1,.17.64.55.55,0,0,1-.07.19.23.23,0,0,1-.22.15c-.1,0-.15,0-.17-.1s0-.15-.05-.24a.51.51,0,0,0-.1-.25.3.3,0,0,0-.26-.09,1.24,1.24,0,0,1-.34,0,.92.92,0,0,0-.39.08c-.2.06-.52.17-1,.34l-2.07.73a1.73,1.73,0,0,0,0,.48,6.44,6.44,0,0,1-.39,1.46,9.71,9.71,0,0,1-.63,1.29c-.23.38-.51.79-.83,1.25A13.5,13.5,0,0,1,96.29,234.64Zm.34-6.84h.26a.53.53,0,0,0,.32-.1.57.57,0,0,0-.27-.46.76.76,0,0,0-.36-.12.42.42,0,0,0-.44.34C96.14,227.69,96.3,227.8,96.63,227.8Z"/><path class="cls-2" d="M122.42,229.9s0,0,0,0,0,0,0,.05c0,.2-.29.53-.87,1a8.92,8.92,0,0,1-3.15,1.29l-.68.78c-.23.26-.47.52-.73.78a11.92,11.92,0,0,1-1.41,1.36,6.93,6.93,0,0,1-1.46,1,3.68,3.68,0,0,1-1.66.42,1.47,1.47,0,0,1-1.19-.44,1.58,1.58,0,0,1-.37-1.07,2.74,2.74,0,0,1,1-2.07,5.3,5.3,0,0,1,2.9-1.15,21.4,21.4,0,0,0,2.68-4.16,7.53,7.53,0,0,0,.82-2.65c0-.36-.09-.54-.29-.54a1.63,1.63,0,0,0-.75.27,7.28,7.28,0,0,0-1,.68c-.34.28-.68.57-1,.88l-.9.8c-.81,1.1-1.47,2-2,2.85s-.91,1.47-1.22,2a10.12,10.12,0,0,0-.68,1.39l-.41,1c0,.1-.08.23-.13.39s-.1.35-.17.54-.12.38-.17.56a1.56,1.56,0,0,0-.07.37.27.27,0,0,1-.2.26c-.12,0-.3,0-.53-.17a3.58,3.58,0,0,1-.68-.63,2.28,2.28,0,0,1-.49-1,5.43,5.43,0,0,1-.1-1,4.42,4.42,0,0,1,.56-1.8c.38-.75.79-1.49,1.24-2.24.52-.91,1.15-1.95,1.88-3.12s1.45-2.33,2.17-3.5,1.36-2.27,1.94-3.29,1-1.84,1.32-2.46a6.72,6.72,0,0,0,.49-1.29,4,4,0,0,0,.09-.71c0-.13.09-.22.27-.26a.94.94,0,0,1,.66.12,5.15,5.15,0,0,1,1.1,1,2.06,2.06,0,0,1,.43,1.72,7.05,7.05,0,0,1-.86,2.29,45.29,45.29,0,0,1-2.67,4.24,9.19,9.19,0,0,1,1.27-.74,3.05,3.05,0,0,1,1.35-.33,1.83,1.83,0,0,1,1.51.78,3.49,3.49,0,0,1,.59,2.14,7.21,7.21,0,0,1-.38,2.19,10.75,10.75,0,0,1-1.29,2.63,5,5,0,0,0,.8-.31l.91-.44c.29-.15.55-.27.77-.37a1.89,1.89,0,0,1,.44-.14C122.3,229.85,122.38,229.86,122.42,229.9Zm-10.07,4.77c.52-.52,1-1.06,1.47-1.61a2.84,2.84,0,0,0-1.59,1,2.68,2.68,0,0,0-.36.69c0,.13,0,.19.09.19a.7.7,0,0,0,.25-.1A.32.32,0,0,0,112.35,234.67Z"/><path class="cls-2" d="M121.85,236.23a1.27,1.27,0,0,1-.54-.3,2,2,0,0,1-.41-.44,3.14,3.14,0,0,1-.27-.77,5.43,5.43,0,0,1-.1-1,3.21,3.21,0,0,1,.39-1.41,4.09,4.09,0,0,1,.39-.83l.1-.19h0v-.05l.73-1.32c.55-1,1-1.81,1.31-2.41s.58-1.07.76-1.41l.39-.73c.08-.15.15-.3.22-.46a6.72,6.72,0,0,0,.49-1.29,4.09,4.09,0,0,0,.09-.71q0-.19.27-.27a1,1,0,0,1,.66.13,5.68,5.68,0,0,1,1.12,1,2.09,2.09,0,0,1,.44,1.73l-.2.78c-.26.52-.54,1-.85,1.56s-.6,1-.88,1.44-.53.81-.75,1.12a4.88,4.88,0,0,0-.44.65,14.84,14.84,0,0,1-1,1.42,7.16,7.16,0,0,0-.93,1.55l-.1.39c0,.13.15.2.34.2a1.92,1.92,0,0,0,1-.56,19.47,19.47,0,0,0,1.51-1.46q.86-.9,1.83-2.07l2-2.39,1-1.46.3-.53a4.48,4.48,0,0,1,.22-.52c.08-.17.18-.41.31-.7a6.72,6.72,0,0,0,.49-1.29,4.34,4.34,0,0,0,.1-.71c0-.13.09-.22.26-.27a1,1,0,0,1,.66.13,5.41,5.41,0,0,1,1.12,1,2.06,2.06,0,0,1,.44,1.73l-.19.78c-.14.26-.26.51-.37.73a4.39,4.39,0,0,1-.41.68c-.07.17-.16.35-.27.56s-.25.48-.42.81c-.74,1.2-1.34,2.16-1.8,2.87l-1,1.63a6.45,6.45,0,0,0-.47.78,1,1,0,0,0-.09.32c0,.06,0,.09,0,.09a1.91,1.91,0,0,0,.77-.46,16.49,16.49,0,0,0,1.27-1.12c.45-.44.92-.89,1.39-1.36l1.19-1.19a3.45,3.45,0,0,1,.34-.42.68.68,0,0,1,.49-.27.08.08,0,0,1,.07,0,.15.15,0,0,0,.08,0,.46.46,0,0,1,.14.29,1.06,1.06,0,0,1-.17.49,4.71,4.71,0,0,1-.61.78q-.43.49-1.26,1.29c-.56.54-1.12,1.06-1.71,1.56a16.25,16.25,0,0,1-1.7,1.29,2.73,2.73,0,0,1-1.27.54,2,2,0,0,1-1.31-.42,1.51,1.51,0,0,1-.54-1.29,4.46,4.46,0,0,1,.15-1.27,7.92,7.92,0,0,1,.68-1.46c-.36.43-.78.9-1.27,1.44a19.56,19.56,0,0,1-1.51,1.51,11.25,11.25,0,0,1-1.51,1.17A1.7,1.7,0,0,1,121.85,236.23Z"/><path class="cls-2" d="M145.07,231.45c-.35.36-.85.82-1.48,1.37s-1.31,1.08-2,1.6a14.83,14.83,0,0,1-2.25,1.32,5.08,5.08,0,0,1-2.11.53.68.68,0,0,1-.2,0,.62.62,0,0,0-.19,0h-.05a3.36,3.36,0,0,1-2.36-1,2.87,2.87,0,0,1-.61-1.78,5.43,5.43,0,0,1,.41-2.31c.28-.57.56-1.13.86-1.68a14.19,14.19,0,0,1,1.26-1.88,20.49,20.49,0,0,1,2-2.24,14.37,14.37,0,0,1,2.33-1.87,4.26,4.26,0,0,1,2.24-.78,2.26,2.26,0,0,1,.83.19s0,0,.08,0l.31.19a3.34,3.34,0,0,1,.34.25c.1.08.16.12.2.12a2.51,2.51,0,0,1,.73,1.6,3,3,0,0,1-.9,2A13.63,13.63,0,0,1,142.3,229a22.05,22.05,0,0,1-2.58,1.61c-.88.47-1.61.84-2.19,1.1-.16.42-.29.76-.37,1a3,3,0,0,0-.12.88,1.14,1.14,0,0,0,1.27,1.31,2.74,2.74,0,0,0,.7-.22,10.29,10.29,0,0,0,1.41-.71,19,19,0,0,0,2-1.29,19.71,19.71,0,0,0,2.32-2s.14-.11.34-.34a1.36,1.36,0,0,1,.58-.43.75.75,0,0,1,.24,0,.24.24,0,0,1,.15.25,1.29,1.29,0,0,1-.22.51A3,3,0,0,1,145.07,231.45Zm-6.13-2.14a6.3,6.3,0,0,0-.41.66l-.37.66c1.17-.88,2.12-1.64,2.85-2.29a18.11,18.11,0,0,0,1.7-1.68,4.76,4.76,0,0,0,.81-1.17,2,2,0,0,0,.19-.71.7.7,0,0,0-.1-.29.34.34,0,0,1,0-.15s-.06,0-.27.15a8.48,8.48,0,0,0-1,.73,15.72,15.72,0,0,0-1.51,1.53A22.73,22.73,0,0,0,138.94,229.31Z"/><path class="cls-2" d="M149,230.19l-.78,1.24-.54.88c-.16.27-.31.56-.46.87s-.31.71-.51,1.19l-.39,1.17a.72.72,0,0,0-.14-.17h-.05s.06.08.19.17a2.25,2.25,0,0,0-.14.69q0,.24-.3.24c-.35,0-.72-.25-1.09-.76a3.39,3.39,0,0,1-.61-2,4.94,4.94,0,0,1,.51-1.7c.34-.78.76-1.62,1.24-2.51s1-1.76,1.46-2.61.86-1.5,1.12-2a4.16,4.16,0,0,0,.44-1.05c.07-.27.11-.5.15-.68a2.3,2.3,0,0,1,.09-.39c0-.08.13-.12.3-.12a1.32,1.32,0,0,1,.6.19,2.8,2.8,0,0,1,.69.51,3.89,3.89,0,0,1,.56.78,2.14,2.14,0,0,1,.24,1,1.58,1.58,0,0,1-.22.51l-.46.9c-.16.33-.33.63-.49.9a4.38,4.38,0,0,0-.29.56c.26-.29.66-.73,1.22-1.31s1.14-1.17,1.77-1.75a19.78,19.78,0,0,1,1.9-1.56,3,3,0,0,1,1.63-.68,1.63,1.63,0,0,1,1.56.78,3.34,3.34,0,0,1,.44,1.65,4.91,4.91,0,0,1-.15,1.22v.05c0,.06-.09.23-.19.51a6,6,0,0,1-.49,1c-.48.81-1,1.6-1.43,2.38s-.9,1.47-1.27,2.07l-1.29,2.07c0,.1,0,.15.1.15a1.72,1.72,0,0,0,.73-.44c.35-.29.76-.64,1.22-1.05s.9-.83,1.36-1.29.83-.86,1.12-1.21l.14-.15c.1-.13.22-.29.37-.46a.61.61,0,0,1,.46-.27c.2,0,.29.13.29.39s-.21.6-.73,1.22a15.6,15.6,0,0,1-1.26,1.31c-.55.52-1.13,1-1.73,1.53a15.76,15.76,0,0,1-1.73,1.29,2.67,2.67,0,0,1-1.26.54,2.18,2.18,0,0,1-1.27-.41,1.43,1.43,0,0,1-.59-1.25,2.53,2.53,0,0,1,.18-.94,2.63,2.63,0,0,0,.17-.61c.26-.65.58-1.36,1-2.12s.78-1.47,1.17-2.12.92-1.48,1.41-2.19a5.77,5.77,0,0,0,.61-1,1.79,1.79,0,0,0,.17-.64c0-.29-.13-.44-.39-.44a.85.85,0,0,0-.34.1q-1.56,1.37-2.58,2.31c-.68.64-1.36,1.28-2,1.93A12.93,12.93,0,0,0,149,230.19Z"/><path class="cls-2" d="M166.5,234.64a9.4,9.4,0,0,1-1.68,1.1,5.72,5.72,0,0,1-1.51.51,7.57,7.57,0,0,1-1.24.12,4.77,4.77,0,0,1-1-.1l-.39-.09a.3.3,0,0,1-.2-.05,3.33,3.33,0,0,1-1.27-.59,2.91,2.91,0,0,1-.75-.9,3.18,3.18,0,0,1-.34-1.07,5,5,0,0,1,0-1.09,5.88,5.88,0,0,1,.47-1.93c.24-.53.4-.88.46-1,.23-.39.58-.95,1.05-1.66a16.09,16.09,0,0,1,1.73-2.17,12.35,12.35,0,0,1,2.28-1.92,5.76,5.76,0,0,1,2.78-.93,3.12,3.12,0,0,1,1.56.25,2.26,2.26,0,0,1,.82.61.54.54,0,0,1,.15.56c-.06.17-.21.2-.44.1a1.29,1.29,0,0,0-.85,0,1.72,1.72,0,0,0-.41.12c.09,0,.05,0-.15.07a5.48,5.48,0,0,0-.92.59,11.05,11.05,0,0,0-1.54,1.44,22.75,22.75,0,0,0-2,2.64,24.47,24.47,0,0,0-1.65,2.83,6.61,6.61,0,0,0-.64,2c-.09.75.28,1.13,1.12,1.13a2.61,2.61,0,0,0,1.66-.89,14.22,14.22,0,0,0,1.73-2,20.81,20.81,0,0,0,1.34-2.13,2.93,2.93,0,0,0,.48-1.3,2.28,2.28,0,0,1-.9-.32.75.75,0,0,1-.36-.86,1.68,1.68,0,0,1,.39-1.12,1.9,1.9,0,0,1,.68-.47,1.39,1.39,0,0,1,.61-.09l.22,0a2.59,2.59,0,0,1,1.12.29,2.88,2.88,0,0,1,1,.93,10,10,0,0,1,1.53-.61,5.15,5.15,0,0,1,1.54-.27,2.65,2.65,0,0,1,1.16.2,1.45,1.45,0,0,1,.56.43,1.07,1.07,0,0,1,.17.64.55.55,0,0,1-.07.19.23.23,0,0,1-.22.15c-.09,0-.15,0-.17-.1s0-.15-.05-.24a.62.62,0,0,0-.09-.25.34.34,0,0,0-.27-.09,1.3,1.3,0,0,1-.34,0,.92.92,0,0,0-.39.08c-.2.06-.51.17-.95.34l-2.07.73a1.73,1.73,0,0,0,0,.48,5.55,5.55,0,0,1-.39,1.46,8.62,8.62,0,0,1-.63,1.29c-.23.38-.51.79-.83,1.25A13.5,13.5,0,0,1,166.5,234.64Zm.34-6.84h.27a.5.5,0,0,0,.31-.1.59.59,0,0,0-.26-.46.83.83,0,0,0-.37-.12.42.42,0,0,0-.44.34C166.35,227.69,166.51,227.8,166.84,227.8Z"/><path class="cls-2" d="M175.75,242.07a3.32,3.32,0,0,0-.17.78,5.88,5.88,0,0,0-.07.78.26.26,0,0,1-.2.26c-.13.05-.31,0-.53-.17a3.94,3.94,0,0,1-.69-.63,2.27,2.27,0,0,1-.48-1,4.66,4.66,0,0,1-.1-1,4.42,4.42,0,0,1,.56-1.8c.37-.75.79-1.49,1.24-2.24s1-1.65,1.58-2.6l1.83-2.93c.62-1,1.21-2,1.78-2.92s1-1.81,1.43-2.55l.54-1.07c.1-.23.18-.43.27-.61s.15-.34.22-.47a5.31,5.31,0,0,0,.19-.73,3.26,3.26,0,0,0,0-.48q0-.19.27-.27a.92.92,0,0,1,.65.12,4.74,4.74,0,0,1,.54.39,4.12,4.12,0,0,1,.54.56,2.87,2.87,0,0,1,.39.71,2.05,2.05,0,0,1,.09.87s0,.1-.17.39-.31.61-.51,1-.37.66-.51.95-.2.42-.17.39a31.56,31.56,0,0,1,3.8-4.16c1-.83,1.83-1,2.58-.61a2.31,2.31,0,0,1,.9,1,3.54,3.54,0,0,1,.36,1.66,7.42,7.42,0,0,1-.39,2.21,10,10,0,0,1-1.31,2.61,7.17,7.17,0,0,0,1.36-.44c.2-.06.38-.13.54-.19a4.31,4.31,0,0,1,.44-.17l.29-.13c.39-.13.62-.14.7,0s0,.25-.29.46a8.62,8.62,0,0,1-1.36.78,14.93,14.93,0,0,1-2.51.9c-.23.26-.45.53-.68.8s-.47.54-.73.8a8.47,8.47,0,0,1-1.46,1.42,9.92,9.92,0,0,1-1.51,1,3,3,0,0,1-1.7.31,1.3,1.3,0,0,1-1.2-.66,1.85,1.85,0,0,1-.12-1.36,3.56,3.56,0,0,1,.83-1.46,3.47,3.47,0,0,1,1.75-1l1.22-.24a27,27,0,0,0,1.95-2.85A18.1,18.1,0,0,0,189,226a4.82,4.82,0,0,0,.38-1.58c0-.39-.09-.58-.29-.58a1.56,1.56,0,0,0-.78.46,16.59,16.59,0,0,0-1.19,1.19c-.44.49-.91,1-1.41,1.63s-1,1.18-1.39,1.73-.8,1-1.12,1.49-.53.74-.63.9a34.2,34.2,0,0,1-1.9,2.87q-1.17,1.6-2.53,3.8A44.25,44.25,0,0,0,175.75,242.07Zm7.6-8c.51-.52,1-1.05,1.46-1.6a2.84,2.84,0,0,0-1.59,1,2.9,2.9,0,0,0-.36.68q0,.24.24.15A1.2,1.2,0,0,0,183.35,234.08Z"/><path class="cls-2" d="M206.23,229.94a.43.43,0,0,1,.15.3.93.93,0,0,1-.17.46c-.12.18-.32.45-.61.8s-.64.72-1.15,1.27a19,19,0,0,1-1.63,1.6,14.3,14.3,0,0,1-1.7,1.32,2.1,2.1,0,0,1-1.41.44,4.63,4.63,0,0,1-1.64-.68,1.71,1.71,0,0,1-.7-1.51,2.22,2.22,0,0,1,.14-.69c.1-.26.18-.47.25-.63-.17.16-.42.44-.75.83s-.7.78-1.09,1.17a10.59,10.59,0,0,1-1.16,1,1.74,1.74,0,0,1-.92.44,2.09,2.09,0,0,1-1.42-.66,2.43,2.43,0,0,1-.7-1.87s0-.28.12-.73a9.18,9.18,0,0,1,.61-1.83,16.42,16.42,0,0,1,4.14-5.62,12,12,0,0,1,2.63-2,4.57,4.57,0,0,1,2-.56,2.94,2.94,0,0,1,2.2,1,4.77,4.77,0,0,1,1.21,2.14,1.55,1.55,0,0,1,0,.9.93.93,0,0,1-.34.46.48.48,0,0,1-.39.1q-.18,0-.12-.24a2.16,2.16,0,0,0-.13-1.27c-.17-.48-.46-.73-.85-.73a3.23,3.23,0,0,0-1.14.25,4.33,4.33,0,0,0-1.39.92c-.42.39-1,.95-1.61,1.68s-1.28,1.49-1.9,2.26a26.83,26.83,0,0,0-1.58,2.22,3.53,3.53,0,0,0-.66,1.48c0,.17,0,.25.1.25a.68.68,0,0,0,.31-.15c.14-.1.44-.34.89-.73.22-.22.64-.64,1.27-1.24s1.26-1.23,1.91-1.9,1.23-1.27,1.73-1.82.74-.88.71-1a.44.44,0,0,1,.41-.63,2.08,2.08,0,0,1,1.2.17,1.83,1.83,0,0,1,.94.9c.22.42.09.94-.36,1.56-.13.19-.41.56-.83,1.09s-.83,1.1-1.24,1.68a13.93,13.93,0,0,0-1,1.59c-.25.47-.26.75,0,.85,0,0,0,0,0,0s0,.05,0,.05a2.38,2.38,0,0,0,1.12-.64,19.1,19.1,0,0,0,1.61-1.48l1.58-1.63c.5-.52.87-.88,1.1-1.07C206.07,229.86,206.13,229.88,206.23,229.94Z"/><path class="cls-2" d="M207.74,230c0-.16.11-.63.22-1.41a22.68,22.68,0,0,1,.85-3.31,5.24,5.24,0,0,1,.71-1.51,3.8,3.8,0,0,1,1-1.07,2.55,2.55,0,0,1,1.25-.44,2.17,2.17,0,0,1,1.33.39,5.69,5.69,0,0,1,1.39,1.07,4.12,4.12,0,0,1,.71.83.65.65,0,0,1,.07.34,1.23,1.23,0,0,0,0,.19.54.54,0,0,1-.29.27.28.28,0,0,1-.3,0,.53.53,0,0,1-.12-.2,1.46,1.46,0,0,0-.07-.19,1.32,1.32,0,0,0-.8-.49,1.31,1.31,0,0,0-.78.15,2,2,0,0,0-.61.48,1.2,1.2,0,0,0-.29.54c-.36,1.14-.62,2-.78,2.65a6.31,6.31,0,0,0-.25,1.2v.24a15.24,15.24,0,0,0,2-.29l1.73-.39.1,0,.12,0,.17,0c.26,0,.39.11.39.34s-.38.65-1.14.88a33.93,33.93,0,0,1-3.48.73c-.13.52-.28,1-.44,1.51s-.35.85-.56,1.29a3.91,3.91,0,0,1-.76,1.09l-.24.2a4.27,4.27,0,0,1-1.32.87,3.91,3.91,0,0,1-1.6.35,2,2,0,0,1-1.44-.47,1.55,1.55,0,0,1-.46-1.14,3.7,3.7,0,0,1,.22-1.12,5.68,5.68,0,0,1,.65-1.37,7.62,7.62,0,0,1,1-1.24,3,3,0,0,1,1.31-.75.81.81,0,0,0,.39-.1v.05Zm-.39,1.36a2.31,2.31,0,0,0-1,.66,5.77,5.77,0,0,0-.68.95,4.88,4.88,0,0,0-.39.88,3.07,3.07,0,0,0-.12.44c0,.09,0,.14.1.14a.91.91,0,0,0,.44-.24,3.84,3.84,0,0,0,.6-.68,7.38,7.38,0,0,0,.61-1A5,5,0,0,0,207.35,231.4Z"/><path class="cls-2" d="M227.85,229.94a.43.43,0,0,1,.15.3.93.93,0,0,1-.17.46c-.12.18-.32.45-.61.8s-.64.72-1.15,1.27a19,19,0,0,1-1.63,1.6,14.3,14.3,0,0,1-1.7,1.32,2.12,2.12,0,0,1-1.42.44,4.58,4.58,0,0,1-1.63-.68,1.71,1.71,0,0,1-.7-1.51,2.22,2.22,0,0,1,.14-.69c.1-.26.18-.47.25-.63-.17.16-.42.44-.75.83s-.7.78-1.09,1.17a10.59,10.59,0,0,1-1.16,1,1.77,1.77,0,0,1-.92.44,2.09,2.09,0,0,1-1.42-.66,2.43,2.43,0,0,1-.7-1.87s0-.28.12-.73a9.18,9.18,0,0,1,.61-1.83,15.94,15.94,0,0,1,1.46-2.6,16.62,16.62,0,0,1,2.68-3,12,12,0,0,1,2.63-2,4.57,4.57,0,0,1,2-.56,2.94,2.94,0,0,1,2.2,1,4.77,4.77,0,0,1,1.21,2.14,1.55,1.55,0,0,1,0,.9.93.93,0,0,1-.34.46.48.48,0,0,1-.39.1c-.12,0-.16-.11-.13-.24a2.07,2.07,0,0,0-.12-1.27c-.18-.48-.46-.73-.85-.73a3.19,3.19,0,0,0-1.14.25,4.33,4.33,0,0,0-1.39.92c-.42.39-1,.95-1.61,1.68s-1.28,1.49-1.9,2.26a26.83,26.83,0,0,0-1.58,2.22,3.53,3.53,0,0,0-.66,1.48c0,.17,0,.25.1.25a.68.68,0,0,0,.31-.15c.14-.1.44-.34.89-.73.22-.22.64-.64,1.27-1.24s1.26-1.23,1.91-1.9,1.23-1.27,1.73-1.82.74-.88.71-1a.44.44,0,0,1,.41-.63,2,2,0,0,1,1.19.17,1.81,1.81,0,0,1,.95.9q.31.63-.36,1.56c-.13.19-.41.56-.83,1.09s-.83,1.1-1.24,1.68a13.93,13.93,0,0,0-1,1.59c-.25.47-.26.75,0,.85,0,0,0,0,0,0s0,.05,0,.05a2.38,2.38,0,0,0,1.12-.64A19.1,19.1,0,0,0,225,232.6l1.58-1.63c.5-.52.87-.88,1.09-1.07C227.69,229.86,227.75,229.88,227.85,229.94Z"/><path class="cls-2" d="M214,173.56c0-4.45,4.58-7.73,9.69-7.73,5.35,0,9.72,3.48,9.72,7.65s-4.5,7.61-9.72,7.61-9.69-3.45-9.69-7.53m-2.27,0c0,5,5.54,9.15,12,9.15s12-4,12-9.25-5.62-9.25-12-9.25c-6,0-12,3.72-12,9.35m23.72-59.27v39.38H266v-5.88H241.81v-33.5ZM193,153.67l15.12-30.83,15.5,30.83h7.32l-19.35-39.38H205.3l-19.51,39.38Zm-18.35,19.81c0,5.29,5.5,9.23,11.83,9.23,3.63,0,8-1.5,10.42-5h-2.54a10.75,10.75,0,0,1-7.91,3.38c-4.9,0-9.54-3.4-9.54-7.58,0-4,4.22-7.66,9.5-7.66,1.38,0,5.38.34,7.86,3.26h2.54c-.89-1.66-4.56-4.88-10.36-4.88-6.45,0-11.8,4-11.8,9.25m-20.08-53.42h14.91v33.61h6.41V120.06h15v-5.77H154.53Zm-8.93,44.46h-2.27v11.14a7.44,7.44,0,0,0,.86,3.72c1.56,2.68,4.74,3.33,6.85,3.33s5.29-.65,6.85-3.33a7.44,7.44,0,0,0,.85-3.72V164.52h-2.26v11.14a5.85,5.85,0,0,1-.77,3.23,6.07,6.07,0,0,1-9.35,0,5.85,5.85,0,0,1-.76-3.23Zm-29.15-31.81V120.12h19.61c2.25,0,4.57.1,6,2.52a6.88,6.88,0,0,1,1,3.72,6,6,0,0,1-1.12,3.69c-1.92,2.66-5.47,2.66-8,2.66Zm0,5.72h16.75l12.37,15.24H154l-13.63-16.31c3.14-.65,9.31-2.66,9.31-11.21a11.21,11.21,0,0,0-3.46-8.61c-3.32-3.13-7.37-3.19-10.67-3.25H110.09v39.38h6.41Zm-10,26.09h-3.48V182.4h2.26V166.48h.06l8.4,15.92h1.93l8.47-15.92h.06V182.4h2.26V164.52H123l-8.26,15.22Zm-19.9,0H74.25V182.4H86.63v-1.62H76.51v-6.6h9.78v-1.61H76.51v-6.43H86.63Zm-21-30.38c0-10.65,8.12-14.67,15.71-14.89h.68c10,0,16.4,5.79,16.4,14.74,0,3.47-1.16,14.78-16.16,14.78-6.11,0-10.68-1.78-13.57-5.29a14.65,14.65,0,0,1-3.06-9.33m-6.4.33c0,8.54,4.16,13.36,7.65,15.89,3.88,2.88,9,4.33,15.38,4.33,11.26,0,22.62-6.23,22.62-20.17,0-12.59-9.23-21.09-23-21.15-11.29,0-22.67,6.53-22.67,21.1m.4,30.05H47.05v1.62h5.19V182.4H54.5V166.14h5.17Zm-23.07-.08H17.34v18H36.6Zm2.88-44.38c2.56,0,5.75,0,7.69,2a5.82,5.82,0,0,1,1.54,4.22,6,6,0,0,1-2.48,5.06c-1.76,1.23-4.21,1.23-6.18,1.23H23.79V120.06Zm.78-5.77H17.33v39.38h6.51V138.43H40.78c3.51,0,9.4,0,12.78-4.91a12.7,12.7,0,0,0,2-6.94,12.17,12.17,0,0,0-3.78-9c-2.67-2.37-6-3.34-11.54-3.34M215,69a8.45,8.45,0,1,1-8.45-8.75A8.61,8.61,0,0,1,215,69m5.8,33.35h45.28V90.71H266v-.36H228.13A99.39,99.39,0,0,0,220.28,77a16.46,16.46,0,0,0,2-7.9c0-9-7.06-16.31-15.73-16.31a15,15,0,0,0-7.76,2.12A93.51,93.51,0,0,0,142,35.75c-36.24,0-69.56,21.63-86,54.81H17.36v11.66h46v-.34h0l.21-.52C77,68.65,107.77,47.51,142,47.51a82.42,82.42,0,0,1,49.58,16.54,16.82,16.82,0,0,0-.8,5.13c0,8.94,7,16.2,15.62,16.2a15.86,15.86,0,0,0,4.88-.82,89.48,89.48,0,0,1,9.2,16.83l.22.52h.1Zm45.34,62.12H246.88v18h19.26Z"/></g></svg>